<?xml version="1.0" encoding="utf-8"?>
<!-- Generator: Adobe Illustrator 22.1.0, SVG Export Plug-In . SVG Version: 6.00 Build 0)  -->
<svg version="1.1" id="Layer_1" xmlns="http://www.w3.org/2000/svg" xmlns:xlink="http://www.w3.org/1999/xlink" x="0px" y="0px"
	 viewBox="0 0 156 70" style="enable-background:new 0 0 156 70;" xml:space="preserve">
<style type="text/css">
	.st0{fill:#E5E5E5;stroke:#E5E5E5;stroke-width:0.2644;stroke-miterlimit:10.433;}
	.st1{fill:#CCCCCC;stroke:#B2B2B2;stroke-width:1.7399;stroke-miterlimit:10.433;}
	.st2{fill:none;stroke:#CCCCCC;stroke-width:1.7399;stroke-linecap:round;stroke-linejoin:round;stroke-miterlimit:10.433;}
</style>
<g>
	<path class="st0" d="M3.2,7.8c6.2,2.8,14.8,2.8,20.6-1.2c2.2-1.6,4.3-3.5,4.3-6.3c0.6,0,1.1,1.1,1.7,0.9c2-0.8,4.2-0.2,5.8,0.5
		c0.7,0.4,1.5-1.4,2.3-1.4c0.4,1,2.9,3.9,2.9,4.1c6.7,6.1,18.8,9,27.4,7c2.7-0.6,25.7-8.9,25.7-11.2c1.5,0.5,2.4,1.3,4.8,1.3
		l4.4-1.2c3.8-0.6,3.6,0.2,5.3,0.3c0,6.4-2.9,15,0.1,21.4c0.3,0.6,1.2,1.9,1.7,2.4c12.2,12.3,30.9,7.4,44.9,1.6
		c0,0.4,0.8,0.9,0.8,1.3c0,0.6-0.8,1.1-0.8,1.7c-1.1,0-1.8,0.4-2.7,1c-7,5.1-16.1,8.7-22.6,14.6c-0.6,0.6-0.6,1.2-0.6,2.1
		c0.6,0.7,1.5,1.9,2.4,2.5c0.3,0.2,0.7,0.6,6.6,3.7c4.9,2.7,10,3.8,14.8,3.8c0,0.6-0.5,1.2-0.5,1.8c0,0.2,0.1,0.4,0.1,0.6
		c0.1,0.2,0.2,0.4,0.2,0.6c0.1,0.2,0.2,0.4,0.2,0.6c0.1,0.2,0.1,0.4,0.1,0.5c0,0.7-0.3,1.3-0.6,1.9c-7.3-3.6-15.2-7-23.3-9.2
		c-4.3-1.2-8.6-2.3-12.8-3.2c-3.7-0.8-11-1.6-13.1,3.2c-2.2,5.1,0.1,10.3,0.7,15.2c-0.9-0.5-1.6-2.4-2.2-1.5l-0.7,1.8
		c-1.1-2.3-2-5.4-2.7-8c-0.9-3.6-2.7-5.9-6.9-6.5c-6.7-0.9-6-0.2-8.3,1.1c-4.1,2.4-7.4,7.6-7.5,13.5c-1-0.2-1.2-1-2.2-1.2
		c-0.2,0.1-0.4,0.2-0.6,0.3c-0.2,0.1-0.5,0.3-0.7,0.4c-0.3,0.1-0.5,0.1-0.7,0.1c-0.2,0-0.5-0.2-0.6-0.4c-0.2-0.6-1.1-1.3-2.2-0.5
		l-2.8,1.2c-0.4-1-2-1.7-2.9-2.2c-3.9-2.4-10.1-0.1-12.6,3.1c-0.6-0.2-1.2-0.4-1.8-0.6c-0.6-0.3-1.5-0.6-2.9,0.2l-1,0.2
		c0-0.8,1.4-0.8,1.9-1.7c1.2-1.9,2.4-4.5,4.1-6.6c3-3.6,6.1-7.8,3.8-12.5c-0.6-1.4-0.2-0.7-3-3.2c-1.7-1.5-4.1-3.3-6.1-4.2
		c-8.8-4.1-19.5-4.5-29.8-3.2c-5.3,0.6-10.6,1.5-15.2,3.3c-0.2,0.1,0,0.3-0.2,0.3C0.5,41,1.5,40.2,1,39.9c-0.6-0.3-0.6-0.7-0.6-1.4
		l0.1-1c0.5,0,0.1-0.1,0.6-0.1c6.8-0.7,12.8-2.9,19.2-5.1c1.9-0.7,4.3-1.7,6.1-3c1.1-0.9,2.5-2.4,2.5-3.8c0-1.2-1.3-4.1-2.2-4.7
		c-6.8-5.5-24.1-8.4-24.2-8.7L2.1,12c0-0.3,0.8-0.5,1-1.1C3.3,10.4,2.9,9.5,3,9.1C3.3,8.4,3.4,7.8,3.2,7.8L3.2,7.8z"/>
	<path class="st1" d="M87.5,27c-1.7,0.2-4.8,0.7-5.7,2.1c-0.2,0-0.3,0.2-0.3,0.3c-0.5,0.2-0.7,1.4-1.4,1.7c0,2.3-0.9,4.3,0.9,6.4
		l0.3,0.3l0.6,0.2c4.6,2.5,9.1,2.1,13.4-0.6l0.2-0.3c0.3-0.2,0.9-1.1,1.6-1.1c0-1.7,1.6-3.4,0.5-5.5c-0.3-0.6-1.8-1.1-1.8-1.7
		c-0.3,0-2.1-1.1-2.1-1.2h-0.6C92.3,26.8,88.2,26.8,87.5,27L87.5,27z"/>
	<path class="st2" d="M153,56.9c-7.7-0.9-17.4-3.4-23.1-9.1c-0.5-0.5-1.1-1.6-1.1-2.3l0.3-0.2c0-0.2,0.6-0.7,0.7-0.9
		c4.1-4.3,10.3-6.4,15.2-9.8c4.3-3,8.6-5.4,9.3-5.4c0.4-0.2,1.1-0.4,1.4-0.5 M152.7,62.4c-5.2-1.6-9.9-4.8-15.2-6.5l-8.4-2.7
		c-3.1-1-6.4-1.9-9.4-2.5c-5.5-0.9-10.3-3.3-14.9,0.8c-2.9,2.7-2.3,5.1-2.3,8.9c0.4,1.6,1.8,6.6,1.8,8.2 M101.1,68.7
		C99,64.7,99,58,95,55.2c-1.8-1.4-8.3-1.7-10.5-0.9c-1.6,0.6-2.6,2.1-3.7,3.2c-2.9,2.9-5,7.4-5,11.6 M66.3,69
		c-2.9-4-9.8-5.3-13.5-1.3c-0.5,0.5-1.3,1.1-2.9,2.3 M45.1,69.2c2.3-1.1,3.2-3.6,4.2-5.8c1.8-3.9,8.1-9.8,5.3-14.4l-0.9-1.6
		c-0.9-1.6-4.7-4.3-5.2-4.7c-0.6-0.6-2.2-1.3-2.9-1.7C33.1,35,19.1,37.1,6,39.5c-1.7,0.3-4.1,2-5.8,2 M2.2,12.1
		c1.8,0.5,3.4,1.1,5.2,1.7c4.3,1.2,9.9,1.8,13.9,4.1c1.2,0.6,2.6,1.8,3.9,2.5c2.3,1.1,3.4,3.6,3.2,6.2c0,0.6-1.3,2-1.7,2.5
		c-2,2.1-6.4,3.5-9.1,4.5c-5.3,1.8-11.4,4.5-17.1,4.5l-0.2,0.2 M3.5,7.9C5.2,8.7,5.5,8.5,6.8,9C11.5,11,17.6,9,22,7.2
		C24.9,6,28.3,3.4,28.3,0 M37.9,0.5C40,3.7,42.5,6.4,46.1,8c1.4,0.6,3.4,1.8,5,2.1c6.4,1.5,11.7,2.5,18.2,1.2
		c0.6-0.1,0.8-0.1,2.5-0.6C78.5,8.6,86.1,5,92.1,1.6C92.3,1.5,94.3,0,94.3,0 M108.5,0.4c-0.4,3-1,5.5-1,7.2c0,4.9-0.9,8.2,0.1,11.9
		c1.8,6.8,11.9,11.7,16.7,12.2c9.9,0.9,19.2-1.8,28.4-5.1c0.2-0.1,0.6-0.2,0.9-0.2c0.2-0.3,1.4-0.7,1.8-0.7"/>
	<path d="M4.6,18.3h3.2v24H4.6V18.3L4.6,18.3z M12.2,32.4c0-0.9,0.2-1.8,0.5-2.6c0.3-0.8,0.8-1.6,1.5-2.3c0.6-0.6,1.5-1.2,2.3-1.6
		c0.9-0.4,1.9-0.6,3-0.6c0.2,0,0.4,0,0.6,0c0.2,0,0.5,0.1,0.7,0.1s0.6,0.1,0.7,0.2c0.3,0.1,0.6,0.2,0.8,0.3c0.5,0.2,0.9,0.5,1.4,0.8
		c0.5,0.3,0.8,0.7,1.3,1.2c0.4,0.5,0.7,1,0.9,1.7c0.2,0.6,0.3,1.4,0.3,2.2V32v0.1v0.1v0.1v10.2h-3.2v-9.8c0-0.5-0.1-1-0.2-1.5
		c-0.2-0.5-0.4-0.9-0.6-1.4c-0.3-0.5-0.6-0.8-1.2-1c-0.5-0.2-1-0.4-1.8-0.4c-0.6,0-1.2,0.1-1.7,0.3c-0.5,0.2-0.8,0.6-1.2,0.9
		c-0.4,0.4-0.6,0.8-0.8,1.3c-0.2,0.5-0.4,0.9-0.4,1.5v9.9h-2.9L12.2,32.4L12.2,32.4z M29.8,21.8H33v4.1h6.3v2.9H33v8.4
		c0,0.3,0,0.6,0.1,0.8c0.1,0.3,0.1,0.5,0.2,0.7c0.1,0.2,0.3,0.4,0.6,0.5c0.3,0.1,0.7,0.2,1.3,0.2l3.8-0.1v2.9h-4.1c0,0,0,0-0.1,0
		h-0.1c0,0,0,0-0.1,0c0,0,0,0-0.1,0c0,0,0,0-0.1,0c0,0,0,0-0.1,0c0,0,0,0-0.1,0c0,0,0,0-0.1,0c-0.7,0-1.5-0.1-2-0.4
		c-0.6-0.2-1-0.6-1.4-1.1c-0.4-0.5-0.6-1-0.8-1.6c-0.2-0.6-0.3-1.1-0.4-1.8c0-0.1,0-0.1,0-0.2c0-0.1,0-0.1,0-0.2c0,0,0-0.1,0-0.2
		c0-0.1,0-0.1,0-0.2v-0.1V21.8H29.8z M52,30.2L52,30.2c-0.1-0.1-0.2-0.2-0.2-0.3c0,0-0.1-0.1-0.2-0.2c-0.1-0.1-0.1-0.1-0.2-0.2
		c-0.1-0.1-0.2-0.1-0.2-0.2c-0.1-0.1-0.2-0.1-0.2-0.2c-0.1,0-0.2-0.1-0.3-0.2c-0.1-0.1-0.2-0.1-0.3-0.2c-0.2-0.1-0.5-0.2-0.8-0.3
		c-0.3,0-0.6-0.1-1-0.1c-0.9,0-1.7,0.2-2.4,0.5c-0.6,0.3-1.2,0.8-1.7,1.4c-0.5,0.6-0.8,1.3-1,1.9c-0.5,0.9-0.6,1.7-0.6,2.4
		c0,0,0,0,0,0.1l0,0c0,0.6,0.1,1.3,0.4,1.9c0.3,0.6,0.6,1.2,1,1.8c0.5,0.6,1,0.9,1.7,1.2c0.6,0.3,1.5,0.4,2.3,0.4
		c0.9,0,1.8-0.1,2.4-0.4c0.6-0.2,1.1-0.6,1.4-1c0.3-0.5,0.6-1,0.9-1.6c0.3-0.6,0.5-1.3,0.7-2.1l0,0l0,0l0,0l2.9,0.2
		c0,0.1,0,0.1,0,0.1v0.1v0.1v0.1v0.1v0.1c0,0.1,0,0.1,0,0.1s0,0,0,0.1c0,0.2,0,0.4,0,0.6c0,0.2-0.1,0.4-0.1,0.6
		c0,0.1-0.1,0.2-0.1,0.3c0,0.1-0.1,0.2-0.1,0.3c0,0.1-0.1,0.2-0.1,0.4c0,0.1-0.1,0.2-0.1,0.4c-0.3,0.6-0.6,1.1-1.1,1.7
		c-0.5,0.6-1,1.1-1.7,1.6s-1.4,0.8-2.2,1.1c-0.9,0.2-1.8,0.3-2.9,0.3c-1.2,0-2.3-0.2-3.3-0.6c-1-0.4-1.9-0.9-2.8-1.8
		s-1.5-1.7-1.8-2.7c-0.4-1-0.6-2.1-0.6-3.3c0-1.3,0.2-2.4,0.6-3.4c0.4-1,0.8-1.8,1.6-2.6c0.6-0.7,1.4-1.3,2.1-1.7
		c0.7-0.5,1.6-0.8,2.4-1c0.1,0,0.2,0,0.3-0.1c0.1,0,0.2,0,0.3-0.1c0.1,0,0.2,0,0.3,0c0.1,0,0.2,0,0.3-0.1c0.2,0,0.4,0,0.6-0.1
		c0.2,0,0.4,0,0.5,0c0.9,0,1.8,0.1,2.6,0.4c0.8,0.3,1.6,0.6,2.2,1.2c0.6,0.6,1.3,1.1,1.8,1.7c0.6,0.6,1,1.3,1.4,2L45.3,37L44,34.6
		L52,30.2L52,30.2z M60.8,25.9l5.1,13l4.6-13H74l-5.7,14.8c-0.1,0.4-0.3,0.6-0.5,0.9c-0.2,0.3-0.4,0.5-0.6,0.6
		c-0.2,0.1-0.5,0.3-0.6,0.4c-0.2,0.1-0.5,0.2-0.7,0.2c0,0,0,0-0.1,0c0,0,0,0-0.1,0h-0.1c-0.3,0-0.5,0-0.7-0.1
		c-0.3-0.1-0.5-0.2-0.7-0.3c-0.2-0.2-0.5-0.4-0.6-0.6c-0.2-0.3-0.4-0.6-0.5-0.8l-6-14.9h3.8V25.9z M88.1,32.9c0-0.5-0.1-1-0.3-1.5
		c-0.2-0.5-0.5-0.9-0.8-1.4c-0.4-0.5-0.9-0.8-1.7-1c-0.7-0.2-1.6-0.4-2.6-0.4c-0.2,0-0.4,0-0.5,0c-0.2,0-0.4,0.1-0.6,0.1
		c-0.2,0-0.4,0.1-0.6,0.1c-0.2,0.1-0.4,0.2-0.6,0.3c-0.4,0.2-0.7,0.4-1.1,0.6c-0.4,0.3-0.6,0.6-1,1c-0.3,0.4-0.6,0.8-0.7,1.4
		c-0.2,0.6-0.3,1.1-0.4,1.8c0,0.9,0.1,1.8,0.4,2.4c0.3,0.6,0.6,1.2,1.1,1.7c0.6,0.5,1.1,0.8,1.7,1c0.6,0.3,1.1,0.5,1.8,0.5h0.1h0.1
		c0.1,0,0.1,0,0.1,0h0.1c0.1,0,0.1,0,0.1,0h0.1h0.1h0.1c0.3,0,0.6,0,0.7-0.1c0.3,0,0.5-0.1,0.7-0.2c0.1,0,0.2-0.1,0.4-0.1
		c0.1-0.1,0.2-0.1,0.4-0.1c0.1-0.1,0.2-0.1,0.3-0.2c0.1-0.1,0.2-0.2,0.3-0.3c0.1-0.1,0.2-0.2,0.4-0.3c0.1-0.1,0.2-0.2,0.4-0.3
		c0.1-0.1,0.2-0.2,0.4-0.4c0.1-0.1,0.2-0.2,0.4-0.4v3.8c0,0.1-0.1,0.1-0.1,0.1l0,0c-0.3,0.2-0.6,0.4-0.8,0.5
		c-0.3,0.2-0.6,0.3-0.9,0.4c-0.3,0.1-0.7,0.2-1.2,0.2c-0.5,0.1-1,0.1-1.6,0.1c0,0,0,0-0.1,0c0,0,0,0-0.1,0h-0.1h-0.1H82
		c0,0,0,0-0.1,0c0,0,0,0-0.1,0c-1,0-2-0.2-2.9-0.6c-0.9-0.4-1.8-0.9-2.5-1.8s-1.3-1.8-1.7-2.8c-0.4-1-0.6-2.2-0.6-3.5
		c0-1.1,0.2-2.2,0.6-3.2c0.4-1,0.9-1.8,1.7-2.7c0.7-0.8,1.7-1.5,2.7-1.8c1.1-0.4,2.3-0.6,3.8-0.6c1.4,0,2.6,0.2,3.6,0.6
		c1,0.4,1.9,0.9,2.7,1.7s1.3,1.5,1.7,2.3c0.4,0.8,0.6,1.7,0.6,2.5V42h-3.2L88.1,32.9L88.1,32.9z M94.6,21.8h3.2v4.1h6.3v2.9h-6.3
		v8.4c0,0.3,0,0.6,0.1,0.8c0.1,0.3,0.1,0.5,0.2,0.7c0.1,0.2,0.3,0.4,0.6,0.5c0.3,0.1,0.7,0.2,1.3,0.2l3.8-0.1v2.9h-4.1h-0.1h-0.1
		c0,0,0,0-0.1,0c0,0,0,0-0.1,0h-0.1c0,0,0,0-0.1,0c0,0,0,0-0.1,0c0,0,0,0-0.1,0c-0.7,0-1.5-0.1-2-0.4c-0.6-0.2-1-0.6-1.4-1.1
		c-0.4-0.5-0.6-1-0.8-1.6c-0.2-0.6-0.3-1.1-0.4-1.8c0-0.1,0-0.1,0-0.2c0-0.1,0-0.1,0-0.2c0,0,0-0.1,0-0.2c0-0.1,0-0.1,0-0.2v-0.1
		V21.8H94.6z M107,25.9h2.9v16.5H107V25.9L107,25.9z M106.8,22.1c0-0.3,0.1-0.5,0.1-0.7c0.1-0.2,0.3-0.4,0.5-0.6
		c0.2-0.1,0.4-0.3,0.6-0.4c0.2-0.1,0.5-0.1,0.6-0.1c0.3,0,0.5,0,0.6,0.1c0.2,0.1,0.4,0.2,0.6,0.4c0.2,0.2,0.4,0.4,0.5,0.6
		c0.1,0.2,0.2,0.5,0.2,0.7c0,0.3-0.1,0.6-0.2,0.8c-0.1,0.2-0.3,0.5-0.5,0.6c-0.2,0.2-0.4,0.3-0.6,0.4c-0.2,0.1-0.5,0.1-0.6,0.1
		c-0.2,0-0.5,0-0.6-0.1c-0.2-0.1-0.5-0.2-0.6-0.4c-0.2-0.2-0.4-0.4-0.5-0.6C106.8,22.8,106.8,22.5,106.8,22.1L106.8,22.1L106.8,22.1
		z M114.3,33.7c0-1.3,0.2-2.4,0.6-3.4c0.5-1,1.1-1.8,1.9-2.7c0.8-0.7,1.7-1.3,2.8-1.7c1-0.4,2-0.6,3-0.6c0.1,0,0.1,0,0.2,0
		c0.1,0,0.1,0,0.2,0c0.1,0,0.1,0,0.2,0c0.1,0,0.1,0,0.2,0c0.1,0,0.1,0,0.2,0c0.1,0,0.1,0,0.2,0c0.1,0,0.1,0,0.2,0c0.1,0,0.1,0,0.2,0
		c0.9,0.1,1.7,0.4,2.6,0.8c0.8,0.4,1.7,0.9,2.4,1.6c0.7,0.6,1.3,1.6,1.8,2.6c0.4,1,0.6,2.2,0.6,3.6c0,0.1,0,0.2,0,0.3
		c0,0.1,0,0.2,0,0.3s0,0.2,0,0.3c0,0.1,0,0.2,0,0.3c0,0.2-0.1,0.4-0.1,0.6c0,0.2-0.1,0.4-0.1,0.6c-0.2,0.8-0.6,1.6-0.9,2.3
		c-0.5,0.7-0.9,1.5-1.7,2.1c-0.6,0.6-1.4,1.2-2.3,1.5c-0.9,0.3-1.8,0.5-2.9,0.5c-1.6,0-2.9-0.2-4.1-0.6c-1.1-0.5-2-1.1-2.8-1.9
		c-0.7-0.8-1.2-1.8-1.6-2.9C114.5,36.1,114.3,35,114.3,33.7L114.3,33.7L114.3,33.7z M117.6,33.7c0,0.2,0,0.4,0,0.5
		c0,0.2,0,0.3,0,0.5c0,0.2,0.1,0.3,0.1,0.5s0.1,0.3,0.1,0.5c0.1,0.5,0.3,1,0.6,1.5s0.6,0.9,0.9,1.4c0.4,0.5,0.8,0.7,1.5,0.9
		c0.6,0.2,1.3,0.3,2,0.3c0.7,0,1.4-0.1,2-0.3c0.6-0.2,1.2-0.6,1.8-0.9c0.6-0.4,0.9-1,1.2-1.8c0.3-0.8,0.4-1.8,0.4-2.9
		c0-0.8-0.1-1.6-0.4-2.2c-0.2-0.6-0.6-1.2-1-1.8c-0.5-0.5-1-0.8-1.7-1.1c-0.6-0.3-1.5-0.4-2.3-0.4s-1.6,0.1-2.1,0.4
		c-0.6,0.2-1.1,0.6-1.5,1c-0.4,0.5-0.7,0.9-0.9,1.4c-0.3,0.5-0.4,1-0.5,1.6c0,0.1-0.1,0.2-0.1,0.3c0,0.1,0,0.2,0,0.3
		c0,0.1,0,0.2,0,0.3C117.6,33.6,117.6,33.7,117.6,33.7L117.6,33.7L117.6,33.7z M134.3,32.4c0-0.9,0.2-1.8,0.5-2.6
		c0.3-0.8,0.8-1.6,1.5-2.3c0.6-0.6,1.5-1.2,2.3-1.6c0.9-0.4,1.9-0.6,3-0.6c0.2,0,0.4,0,0.6,0c0.2,0,0.5,0.1,0.7,0.1
		c0.3,0,0.6,0.1,0.7,0.2c0.3,0.1,0.6,0.2,0.8,0.3c0.5,0.2,0.9,0.5,1.4,0.8c0.5,0.3,0.8,0.7,1.3,1.2c0.4,0.5,0.7,1,0.9,1.7
		s0.3,1.4,0.3,2.2V32v0.1v0.1v0.1v10.2h-3.2v-9.8c0-0.5-0.1-1-0.2-1.5c-0.2-0.5-0.4-0.9-0.6-1.4c-0.3-0.5-0.6-0.8-1.2-1
		c-0.5-0.2-1-0.4-1.8-0.4c-0.6,0-1.2,0.1-1.7,0.3c-0.5,0.2-0.9,0.6-1.2,0.9c-0.4,0.4-0.6,0.8-0.8,1.3c-0.2,0.5-0.4,0.9-0.4,1.5v9.9
		h-2.9L134.3,32.4L134.3,32.4z"/>
	<path d="M103,51.5c0-0.8,0.1-1.6,0.4-2.2c0.2-0.6,0.6-1.2,1-1.7s0.9-0.9,1.4-1.2c0.5-0.4,1-0.6,1.5-0.8c0.1,0,0.2-0.1,0.3-0.1
		s0.2-0.1,0.3-0.1c0.1,0,0.2-0.1,0.3-0.1c0.1,0,0.2,0,0.3-0.1c0.2,0,0.4-0.1,0.6-0.1c0.2,0,0.4,0,0.6,0c0.5,0,0.9,0.1,1.4,0.2
		c0.5,0.1,0.8,0.2,1.3,0.4c0.4,0.2,0.8,0.4,1.2,0.6c0.4,0.3,0.7,0.6,1.1,1l-1.1,1.2c-0.1,0-0.1-0.1-0.1-0.1l-0.1-0.1l-0.1-0.1
		l-0.1-0.1l-0.1-0.1c0,0-0.1,0-0.1-0.1c-0.2-0.2-0.5-0.4-0.6-0.5c-0.3-0.2-0.6-0.3-0.8-0.5s-0.6-0.3-0.9-0.4
		c-0.3-0.1-0.6-0.1-0.9-0.1c-0.7,0-1.4,0.1-1.8,0.3c-0.6,0.2-1,0.6-1.4,0.9c-0.4,0.4-0.6,0.8-0.9,1.3c-0.2,0.5-0.4,0.9-0.5,1.4
		c0,0.1,0,0.2,0,0.3c0,0.1,0,0.2,0,0.3c0,0.1,0,0.2,0,0.3c0,0.1,0,0.2,0,0.2c0,0.6,0.1,1.1,0.3,1.7s0.5,1.1,0.8,1.6
		c0.4,0.5,0.8,0.8,1.5,1.1c0.6,0.3,1.3,0.4,2.1,0.5l0,0l0,0l0,0l0,0c0,0,0,0,0.1,0l0,0l0,0c0.6,0,1-0.1,1.5-0.2
		c0.5-0.2,0.8-0.4,1.1-0.7c0.4-0.3,0.6-0.6,0.8-1c0.2-0.4,0.4-0.7,0.6-1.1c0-0.1,0.1-0.2,0.1-0.3s0.1-0.2,0.1-0.3v-0.1v-0.1v-0.1
		v-0.1h-4.2v-1.7h6.1v1.5c-0.1,0.9-0.3,1.8-0.6,2.4c-0.4,0.7-0.8,1.3-1.4,1.8c-0.6,0.5-1.3,0.8-1.9,1.1c-0.7,0.3-1.5,0.4-2.2,0.4
		c-0.9,0-1.8-0.2-2.6-0.5c-0.7-0.3-1.5-0.7-2-1.3c-0.6-0.6-1-1.3-1.4-2C103.2,53.2,103.1,52.4,103,51.5L103,51.5L103,51.5z
		 M117.2,51.9c0-0.4,0.1-0.7,0.2-1c0.2-0.3,0.4-0.6,0.6-0.9c0.3-0.3,0.6-0.5,1-0.6c0.4-0.1,0.8-0.2,1.3-0.2c0.4,0,0.6,0,0.9,0.1
		c0.3,0.1,0.5,0.1,0.6,0.2c0.2,0.1,0.3,0.2,0.5,0.4c0.2,0.1,0.3,0.3,0.4,0.5c0.1-0.2,0.3-0.3,0.4-0.4c0.2-0.1,0.4-0.3,0.6-0.4
		c0.2-0.1,0.5-0.2,0.7-0.3c0.3-0.1,0.6-0.1,0.8-0.1c0.4,0,0.7,0.1,1.1,0.2c0.4,0.1,0.6,0.3,1,0.6c0.3,0.2,0.6,0.5,0.7,0.7
		c0.2,0.3,0.3,0.6,0.3,0.9l0,0l0,0l0,0l0,0l0,0l0,0l0,0l0,0v6.2h-1.6v-5.3l0,0l0,0l0,0l0,0c0,0,0,0,0-0.1l0,0v-0.1V52v-0.1v-0.1
		c-0.1-0.2-0.1-0.3-0.2-0.4c-0.1-0.1-0.2-0.3-0.4-0.4c-0.1-0.1-0.3-0.2-0.5-0.3c-0.2-0.1-0.3-0.1-0.5-0.1c-0.2,0-0.4,0-0.6,0.1
		c-0.2,0.1-0.4,0.2-0.5,0.4c-0.2,0.2-0.3,0.3-0.4,0.5c-0.1,0.2-0.2,0.4-0.2,0.6v0.1v0.1v0.1v0.1v5.1h-1.5v-5.3c0-0.3,0-0.5-0.1-0.7
		c-0.1-0.2-0.2-0.5-0.3-0.6c-0.2-0.2-0.3-0.4-0.6-0.5c-0.2-0.1-0.5-0.2-0.7-0.2c-0.4,0-0.6,0.1-0.8,0.2c-0.2,0.1-0.4,0.3-0.5,0.5
		s-0.2,0.4-0.3,0.6c-0.1,0.2-0.1,0.5-0.1,0.6l0,0l0,0v5.3h-1.6v-5.8H117.2z M131.3,45.5v7.8c0,0.5,0.1,0.9,0.2,1.3
		c0.1,0.4,0.3,0.7,0.6,1s0.6,0.5,0.8,0.6s0.6,0.2,1.1,0.2c0.4,0,0.7-0.1,1-0.2c0.3-0.1,0.6-0.3,0.8-0.5c0.2-0.2,0.4-0.5,0.6-0.7
		c0.2-0.3,0.3-0.5,0.3-0.7c0-0.1,0-0.1,0-0.2c0-0.1,0-0.1,0-0.2c0-0.1,0-0.1,0-0.2c0-0.1,0-0.1,0-0.2c0-0.5-0.1-0.9-0.2-1.2
		c-0.1-0.4-0.3-0.6-0.6-0.8c-0.3-0.3-0.5-0.5-0.7-0.6c-0.3-0.1-0.6-0.2-0.8-0.3h-0.1h-0.1l0,0l0,0c0,0,0,0-0.1,0l0,0
		c-0.2,0-0.4,0-0.5,0c-0.2,0-0.3,0.1-0.5,0.1c-0.1,0.1-0.3,0.1-0.4,0.2c-0.1,0.1-0.3,0.1-0.4,0.2l0,0l0,0h-0.1c0,0,0,0-0.1,0
		c0,0,0,0-0.1,0c0,0,0,0-0.1,0c-0.1,0-0.1,0-0.1,0s-0.1,0-0.1,0.1v-1.6c0.1-0.1,0.3-0.1,0.4-0.2c0.1-0.1,0.3-0.1,0.4-0.2
		c0.1-0.1,0.3-0.1,0.4-0.1c0.1,0,0.3-0.1,0.4-0.1s0.1,0,0.2,0c0.1,0,0.1,0,0.2,0h0.1h0.1h0.1h0.1c0.6,0,1.1,0.1,1.6,0.3
		c0.5,0.2,0.9,0.5,1.4,0.8c0.5,0.4,0.7,0.8,0.9,1.3c0.2,0.5,0.4,1.1,0.4,1.7c0,0.6-0.1,1.1-0.3,1.7c-0.2,0.6-0.5,1-0.8,1.6
		c-0.4,0.5-0.8,0.8-1.4,1.1c-0.6,0.3-1.2,0.4-1.9,0.4c-0.7,0-1.4-0.1-1.9-0.4c-0.6-0.2-1-0.6-1.3-1c-0.4-0.5-0.6-1-0.8-1.6
		c-0.2-0.6-0.3-1.1-0.3-1.8v-7.7H131.3L131.3,45.5z M139.8,45.4h1.7v5h5.3v-5h1.7v12.3h-1.7V52h-5.3v5.6h-1.7V45.4L139.8,45.4z"/>
</g>
</svg>
