<?xml version="1.0" encoding="utf-8"?>
<!-- Generator: Adobe Illustrator 16.0.0, SVG Export Plug-In . SVG Version: 6.00 Build 0)  -->
<!DOCTYPE svg PUBLIC "-//W3C//DTD SVG 1.1//EN" "http://www.w3.org/Graphics/SVG/1.1/DTD/svg11.dtd">
<svg version="1.1" id="iridium" xmlns="http://www.w3.org/2000/svg" xmlns:xlink="http://www.w3.org/1999/xlink" x="0px" y="0px"
	 width="300px" height="181px" viewBox="0 0 300 181" enable-background="new 0 0 300 181" xml:space="preserve">
<g id="Logo">
	<g>
		<path fill="#449AD5" d="M158.211,34.412c-0.02-0.358-0.05-0.714-0.078-1.061c-0.195-2.588-0.527-4.981-0.916-7.139
			c-0.064-0.331-0.118-0.663-0.18-0.986c-0.031-0.136-0.055-0.275-0.085-0.411c-0.032-0.138-0.064-0.274-0.085-0.405
			c-3.981-0.751-7.977-1.236-11.989-1.47c-2.225-0.129-4.465-0.179-6.692-0.146c-4.561,0.054-9.133,0.442-13.687,1.17
			c-0.481,0.07-0.96,0.148-1.438,0.237c-0.175,0.028-0.36,0.059-0.533,0.096c-3.144,0.563-6.243,1.278-9.288,2.158
			c-0.661,0.185-1.32,0.377-1.976,0.589c-0.37,0.108-0.748,0.229-1.117,0.345c-2.14,0.684-4.228,1.453-6.308,2.278
			c-3.728,1.503-7.36,3.247-10.898,5.221c0.48,4.051,1.416,8.927,3.186,14.217c0.904,2.709,2.022,5.505,3.416,8.371
			c0.001,0.01,0.013,0.025,0.015,0.035c1.593,3.279,3.537,6.613,5.904,9.937c0.783,1.096,1.58,2.152,2.398,3.166
			c8.82,11.007,19.217,17.17,27.067,20.523c0.058-0.057,0.116-0.104,0.172-0.16c0.141-0.129,0.28-0.255,0.42-0.382
			c2.166-1.979,4.477-4.341,6.785-7.131c0.172-0.218,0.356-0.428,0.528-0.646c0.134-0.164,0.268-0.337,0.401-0.501
			c0.312-0.402,0.635-0.808,0.946-1.219c2.568-3.4,5.051-7.319,7.225-11.804c0.156-0.319,0.303-0.64,0.458-0.959
			c1.142-2.464,2.188-5.104,3.102-7.911c0.099-0.319,0.2-0.63,0.306-0.961c0.02-0.06,0.038-0.118,0.057-0.18l-0.002-0.01
			c0.839-2.747,1.469-5.441,1.934-8.051c0.023-0.146,0.055-0.304,0.078-0.45c0.065-0.352,0.122-0.703,0.168-1.062
			c0.43-2.643,0.667-5.196,0.778-7.644c0.017-0.363,0.034-0.727,0.032-1.088C158.395,38.681,158.341,36.486,158.211,34.412
			 M123.375,50.523c-0.124-0.236-0.221-0.485-0.302-0.747c-0.076-0.234-0.133-0.473-0.175-0.722c-0.114-0.702-0.085-1.4,0.073-2.053
			c0.071-0.316,0.176-0.608,0.317-0.897c0.674-1.495,2.068-2.634,3.818-2.921c2.083-0.342,4.084,0.621,5.135,2.308
			c0.188,0.283,0.343,0.599,0.462,0.921c0.117,0.313,0.21,0.65,0.266,0.992c0.194,1.192-0.036,2.34-0.577,3.313
			c-0.153,0.281-0.338,0.539-0.536,0.778c-0.259,0.318-0.554,0.604-0.875,0.846l1.359,3.698l1.325,3.608l-7.555,0.021l0.118-2.874
			l0.108-3.69c-1.282-0.436-2.356-1.342-2.963-2.571L123.375,50.523z"/>
		<path fill="#515050" d="M138.331,3.41c2.615-1.029,5.351-1.839,8.194-2.417c15.066-3.061,29.955,1.126,41.042,10.189l-0.231,0.113
			l-7.809,3.773c-8.917-5.989-20.104-8.58-31.436-6.281c-1.012,0.204-2.006,0.441-2.984,0.719
			C143.097,7.129,140.813,5.078,138.331,3.41"/>
		<path fill="#515050" d="M193.201,16.977c-0.234,0.161-0.478,0.323-0.717,0.484c-0.694,0.454-1.388,0.95-2.108,1.409
			c-0.729,0.443-1.463,0.911-2.215,1.374c-0.491,0.304-0.976,0.612-1.495,0.909c-1.041,0.612-2.119,1.215-3.208,1.851
			c-0.82,0.464-1.656,0.866-2.498,1.329c-0.844,0.414-1.692,0.899-2.57,1.305c-3.465,1.733-7.165,3.302-11.002,4.771
			c-2.061,0.754-4.164,1.48-6.291,2.153c-0.285-2.436-0.663-4.655-1.073-6.62l-0.235-1.115c1.871-0.333,3.733-0.713,5.57-1.121
			c3.771-0.9,7.45-1.905,10.968-3.095c0.887-0.278,1.736-0.632,2.602-0.916c0.849-0.32,1.713-0.609,2.543-0.949
			c0.625-0.261,1.263-0.521,1.874-0.77c1.015-0.406,1.999-0.812,2.96-1.257c0.779-0.356,1.544-0.705,2.306-1.043
			c0.753-0.356,1.472-0.729,2.214-1.091c0.034-0.017,0.063-0.032,0.113-0.056c0.455,0.451,0.89,0.911,1.32,1.369
			C192.579,16.249,192.896,16.601,193.201,16.977"/>
		<path fill="#515050" d="M204.288,41.075c-0.724,0.38-1.457,0.792-2.166,1.186c-0.707,0.382-1.396,0.743-2.111,1.069l-4.384,2.085
			l-8.779,4.163l-2.191,1.028c-0.708,0.34-1.49,0.616-2.226,0.918c-1.495,0.59-2.963,1.242-4.492,1.778l-4.578,1.613
			c-1.513,0.54-3.077,0.93-4.642,1.345l-4.695,1.249c-1.497,0.379-2.934,0.827-4.445,1.091c-0.345,1.455-0.742,2.929-1.198,4.424
			c-0.56,1.829-1.173,3.587-1.833,5.283c0.107-0.277,19.068,2.886,38.118-13.534c0.522,3.376-5.252,11.54-7.369,14.15
			c-9.604,11.852-24.038,16.466-38.87,14.676c-2.309,3.336-4.706,6.229-7.019,8.688c0.129,0.048,0.255,0.07,0.379,0.119l1.875,0.511
			c1.313,0.312,2.66,0.485,3.98,0.716c1.32,0.288,2.663,0.334,4.012,0.416c1.352,0.064,2.684,0.236,4.048,0.112l4.078-0.184
			l3.903-0.581l0.979-0.146c0.188-0.042,0.265-0.027,0.545-0.1l0.484-0.116l1.96-0.497c0.651-0.171,1.313-0.301,1.957-0.518
			l1.906-0.664l1.896-0.666l1.843-0.824l1.838-0.822c0.595-0.316,1.178-0.646,1.771-0.972l1.767-0.965
			c0.583-0.329,1.125-0.742,1.698-1.103c1.121-0.73,2.247-1.469,3.265-2.344c1.064-0.828,2.134-1.642,3.091-2.601
			c0.996-0.92,2.007-1.835,2.853-2.83l1.338-1.452l0.327-0.369l0.357-0.413c0.207-0.259,0.417-0.527,0.618-0.794
			c0.79-1.07,1.662-2.102,2.361-3.243l1.104-1.681c0.354-0.567,0.679-1.174,1.008-1.756c0.706-1.169,1.269-2.366,1.833-3.556
			c0.587-1.144,1.105-2.52,1.541-3.725l0.686-1.877c0.199-0.635,0.367-1.296,0.563-1.949l0.532-1.938l0.398-1.949
			c0.292-1.266,0.464-2.655,0.641-3.977c0.184-1.344,0.206-2.607,0.32-3.988c0.047-1.311-0.012-2.683-0.03-4l-0.005-0.935
			L204.288,41.075z"/>
		<path fill="#449AD5" d="M189.002,41.321c-1.512,0.609-3.061,1.123-4.585,1.73c-1.826,0.729-3.712,1.251-5.555,1.885
			c-1.851,0.647-3.765,1.132-5.645,1.632l-2.823,0.771l-2.867,0.624c-1.899,0.438-3.847,0.886-5.77,1.153l-0.568,0.092
			c0.34-3.155,0.454-6.164,0.407-8.989c7.425-2.096,14.936-4.869,22.057-8.504C184.099,35.397,185.94,38.887,189.002,41.321"/>
		<path fill="#449AD5" d="M205.555,34.965c-2.292,3.443-6.506,4.825-10.245,3.639c-0.794-0.241-1.577-0.603-2.301-1.092
			c-2.991-2.002-4.419-5.447-3.968-8.783c0.175-1.32,0.641-2.622,1.429-3.803c2.756-4.178,8.382-5.313,12.546-2.548
			C207.175,25.156,208.31,30.788,205.555,34.965"/>
		<path fill="#515050" d="M144.426,20.167c-2.225-0.128-4.466-0.179-6.693-0.146c-0.881-2.275-2.093-4.317-3.534-6.017
			c-0.308-0.378-0.63-0.732-0.97-1.075c-1.779-1.806-3.839-3.129-6.048-3.859c-0.52-0.169-1.043-0.303-1.581-0.404
			c-1.338-0.265-2.735-0.301-4.126-0.072c-6.708,1.098-11.415,7.859-11.778,16.023c-2.14,0.683-4.229,1.451-6.308,2.278
			c-0.492-12.201,6.661-22.826,17.072-24.533c4.045-0.663,8.059,0.112,11.636,1.984c0.539,0.28,1.061,0.585,1.57,0.92
			c1.908,1.205,3.671,2.738,5.223,4.543c0.363,0.425,0.719,0.87,1.059,1.325C141.901,13.729,143.45,16.787,144.426,20.167"/>
		<path fill="#484B4C" d="M127.181,9.07c2.048-1.417,4.207-2.691,6.484-3.804c1.909,1.205,3.672,2.738,5.225,4.544
			c0.362,0.424,0.718,0.869,1.057,1.325c-2.005,0.813-3.93,1.773-5.747,2.868c-0.307-0.377-0.63-0.731-0.97-1.074
			C131.45,11.124,129.389,9.801,127.181,9.07"/>
		<g opacity="0.21">
			<g>
				<defs>
					<rect id="SVGID_1_" x="99.558" y="57.512" width="44.623" height="33.626"/>
				</defs>
				<clipPath id="SVGID_2_">
					<use xlink:href="#SVGID_1_"  overflow="visible"/>
				</clipPath>
				<g clip-path="url(#SVGID_2_)">
					<defs>
						<path id="SVGID_3_" d="M144.18,81.099c-0.312,0.411-0.633,0.816-0.946,1.219c-0.134,0.164-0.266,0.337-0.401,0.502
							c-0.172,0.218-0.356,0.428-0.528,0.646c-2.308,2.79-4.62,5.152-6.785,7.131c-0.14,0.127-0.28,0.254-0.419,0.382
							c-0.057,0.057-0.116,0.104-0.173,0.16c-7.849-3.354-18.246-9.517-27.067-20.522c-0.818-1.014-1.615-2.071-2.398-3.166
							c-2.367-3.323-4.311-6.658-5.904-9.938c0.057,0,0.116,0.01,0.172,0.01c0.069,0.018,0.127,0.028,0.196,0.045
							C106.442,64.935,121.886,80.245,144.18,81.099"/>
					</defs>
					<clipPath id="SVGID_4_">
						<use xlink:href="#SVGID_3_"  overflow="visible"/>
					</clipPath>
					<defs>
						<filter id="Adobe_OpacityMaskFilter" filterUnits="userSpaceOnUse" x="84.048" y="36.795" width="75.642" height="75.06">
							<feColorMatrix  type="matrix" values="1 0 0 0 0  0 1 0 0 0  0 0 1 0 0  0 0 0 1 0"/>
						</filter>
					</defs>
					<mask maskUnits="userSpaceOnUse" x="84.048" y="36.795" width="75.642" height="75.06" id="SVGID_5_">
						<g filter="url(#Adobe_OpacityMaskFilter)">
							
								<linearGradient id="SVGID_6_" gradientUnits="userSpaceOnUse" x1="15.2734" y1="5.293" x2="16.0083" y2="5.293" gradientTransform="matrix(-18.7489 27.9299 27.9299 18.7489 273.3672 -470.9063)">
								<stop  offset="0" style="stop-color:#000000"/>
								<stop  offset="0.1624" style="stop-color:#030303"/>
								<stop  offset="0.2928" style="stop-color:#0D0D0D"/>
								<stop  offset="0.4122" style="stop-color:#1E1E1E"/>
								<stop  offset="0.525" style="stop-color:#363636"/>
								<stop  offset="0.6332" style="stop-color:#555555"/>
								<stop  offset="0.7379" style="stop-color:#7B7B7B"/>
								<stop  offset="0.8399" style="stop-color:#A7A7A7"/>
								<stop  offset="0.9371" style="stop-color:#DADADA"/>
								<stop  offset="1" style="stop-color:#FFFFFF"/>
							</linearGradient>
							<polygon clip-path="url(#SVGID_4_)" fill="url(#SVGID_6_)" points="159.69,67.957 130.318,111.854 84.048,80.693 
								113.419,36.795 							"/>
						</g>
					</mask>
					
						<linearGradient id="SVGID_7_" gradientUnits="userSpaceOnUse" x1="15.2734" y1="5.293" x2="16.0083" y2="5.293" gradientTransform="matrix(-18.7489 27.9299 27.9299 18.7489 273.3672 -470.9063)">
						<stop  offset="0" style="stop-color:#FDFDFE"/>
						<stop  offset="0.9104" style="stop-color:#FDFDFE"/>
						<stop  offset="1" style="stop-color:#FDFDFE"/>
					</linearGradient>
					<polygon clip-path="url(#SVGID_4_)" mask="url(#SVGID_5_)" fill="url(#SVGID_7_)" points="159.69,67.957 130.318,111.854 
						84.048,80.693 113.419,36.795 					"/>
				</g>
			</g>
		</g>
		<g opacity="0.25">
			<g>
				<defs>
					<rect id="SVGID_8_" x="92.941" y="22.784" width="64.01" height="26.321"/>
				</defs>
				<clipPath id="SVGID_9_">
					<use xlink:href="#SVGID_8_"  overflow="visible"/>
				</clipPath>
				<g clip-path="url(#SVGID_9_)">
					<defs>
						<path id="SVGID_10_" d="M156.951,24.813c-2.343,0.66-31.479,0.447-60.824,24.292c-1.77-5.289-2.707-10.166-3.186-14.217
							c3.538-1.974,7.17-3.718,10.899-5.221c2.079-0.825,4.167-1.596,6.307-2.278c0.369-0.116,0.747-0.236,1.117-0.345
							c0.656-0.212,1.315-0.404,1.976-0.589c3.045-0.878,6.144-1.596,9.288-2.158c0.173-0.037,0.358-0.067,0.533-0.096
							c0.478-0.09,0.957-0.167,1.438-0.237c4.554-0.728,9.126-1.116,13.687-1.17c2.227-0.033,4.467,0.017,6.692,0.145
							c4.012,0.235,8.007,0.72,11.989,1.471C156.887,24.54,156.919,24.678,156.951,24.813"/>
					</defs>
					<clipPath id="SVGID_11_">
						<use xlink:href="#SVGID_10_"  overflow="visible"/>
					</clipPath>
					<defs>
						<filter id="Adobe_OpacityMaskFilter_1_" filterUnits="userSpaceOnUse" x="80.789" y="-6.956" width="88.313" height="85.779">
							<feColorMatrix  type="matrix" values="1 0 0 0 0  0 1 0 0 0  0 0 1 0 0  0 0 0 1 0"/>
						</filter>
					</defs>
					<mask maskUnits="userSpaceOnUse" x="80.789" y="-6.956" width="88.313" height="85.779" id="SVGID_12_">
						<g filter="url(#Adobe_OpacityMaskFilter_1_)">
							
								<linearGradient id="SVGID_13_" gradientUnits="userSpaceOnUse" x1="4.4326" y1="1.498" x2="5.168" y2="1.498" gradientTransform="matrix(-69.188 103.0684 103.0684 69.188 326.4375 -597.875)">
								<stop  offset="0" style="stop-color:#000000"/>
								<stop  offset="0.1624" style="stop-color:#030303"/>
								<stop  offset="0.2928" style="stop-color:#0D0D0D"/>
								<stop  offset="0.4122" style="stop-color:#1E1E1E"/>
								<stop  offset="0.525" style="stop-color:#363636"/>
								<stop  offset="0.6332" style="stop-color:#555555"/>
								<stop  offset="0.7379" style="stop-color:#7B7B7B"/>
								<stop  offset="0.8399" style="stop-color:#A7A7A7"/>
								<stop  offset="0.9371" style="stop-color:#DADADA"/>
								<stop  offset="1" style="stop-color:#FFFFFF"/>
							</linearGradient>
							<polygon clip-path="url(#SVGID_11_)" fill="url(#SVGID_13_)" points="169.103,30.945 137.067,78.823 80.789,40.923 
								112.826,-6.956 							"/>
						</g>
					</mask>
					
						<linearGradient id="SVGID_14_" gradientUnits="userSpaceOnUse" x1="4.4326" y1="1.498" x2="5.168" y2="1.498" gradientTransform="matrix(-69.188 103.0684 103.0684 69.188 326.4375 -597.875)">
						<stop  offset="0" style="stop-color:#FDFDFE"/>
						<stop  offset="0.9104" style="stop-color:#FDFDFE"/>
						<stop  offset="1" style="stop-color:#FDFDFE"/>
					</linearGradient>
					<polygon clip-path="url(#SVGID_11_)" mask="url(#SVGID_12_)" fill="url(#SVGID_14_)" points="169.103,30.945 137.067,78.823 
						80.789,40.923 112.826,-6.956 					"/>
				</g>
			</g>
		</g>
	</g>
</g>
<g id="Text">
	<g>
		<rect y="105.456" fill="#515050" width="9.066" height="44.468"/>
		<path fill="#515050" d="M68.54,111.98c-0.459-1.181-1.193-2.217-2.181-3.081c-0.963-0.84-2.233-1.505-3.887-2.031
			c-1.518-0.486-3.358-0.836-5.623-1.072c-2.169-0.226-4.856-0.34-7.986-0.34H18.333v44.469h9.066v-16.003h20.624
			c2.194,0,4.061,0.04,5.55,0.116c1.419,0.073,2.59,0.206,3.479,0.393c0.944,0.201,1.382,0.44,1.557,0.565
			c0.227,0.163,0.382,0.363,0.491,0.634c0.169,0.421,0.271,0.968,0.303,1.62c0.042,0.859,0.063,1.884,0.063,3.073v9.602h9.067
			v-9.602c0-1.549-0.082-2.964-0.24-4.205c-0.179-1.401-0.56-2.648-1.132-3.706c-0.44-0.817-1.018-1.527-1.719-2.126
			c0.826-0.618,1.521-1.374,2.074-2.258c0.692-1.106,1.187-2.438,1.468-3.956c0.256-1.388,0.389-3.003,0.389-4.804
			c0-1.355-0.034-2.607-0.097-3.721C69.205,114.252,68.957,113.052,68.54,111.98 M27.399,113.709h21.464
			c2.205,0,4.083,0.027,5.585,0.079c1.423,0.049,2.599,0.156,3.493,0.323c0.981,0.179,1.438,0.398,1.62,0.51
			c0.2,0.122,0.326,0.263,0.413,0.453c0.146,0.327,0.24,0.795,0.269,1.352c0.043,0.796,0.063,1.743,0.063,2.843
			c0,1.189-0.02,2.214-0.063,3.072c-0.032,0.654-0.133,1.199-0.302,1.622c-0.108,0.27-0.265,0.471-0.493,0.633
			c-0.175,0.124-0.61,0.364-1.557,0.563c-0.89,0.188-2.06,0.321-3.479,0.395c-1.489,0.076-3.356,0.115-5.549,0.115H27.399V113.709z"
			/>
		<rect x="76.962" y="105.456" fill="#515050" width="9.066" height="44.468"/>
		<path fill="#515050" d="M147.268,115.885c-0.396-1.738-1.042-3.283-1.921-4.591c-0.926-1.376-2.236-2.525-3.894-3.415
			c-1.559-0.836-3.521-1.46-5.833-1.854c-2.212-0.378-4.942-0.568-8.117-0.568H95.295v44.468h32.208
			c3.178,0,5.909-0.191,8.117-0.567c2.31-0.394,4.272-1.018,5.833-1.855c1.658-0.89,2.968-2.038,3.894-3.414
			c0.879-1.309,1.525-2.853,1.921-4.592c0.367-1.615,0.587-3.453,0.652-5.462c0.062-1.885,0.094-4.019,0.094-6.343
			c0-2.323-0.032-4.457-0.094-6.344C147.855,119.339,147.635,117.501,147.268,115.885 M127.504,141.67h-23.143v-27.96h23.143
			c2.169,0,4.018,0.061,5.493,0.177c1.335,0.107,2.425,0.319,3.24,0.627c0.64,0.243,1.102,0.561,1.412,0.972
			c0.363,0.481,0.642,1.175,0.832,2.062c0.227,1.062,0.361,2.405,0.402,3.996c0.042,1.715,0.064,3.763,0.064,6.147
			c0,2.384-0.022,4.434-0.064,6.146c-0.041,1.591-0.175,2.935-0.402,3.996c-0.19,0.888-0.469,1.58-0.832,2.063
			c-0.31,0.411-0.771,0.729-1.412,0.971c-0.814,0.31-1.908,0.52-3.253,0.627C131.509,141.611,129.666,141.67,127.504,141.67"/>
		<rect x="155.604" y="105.456" fill="#515050" width="9.066" height="44.468"/>
		<path fill="#515050" d="M215.937,127.69c0,2.511-0.017,4.669-0.053,6.475c-0.032,1.685-0.164,3.107-0.392,4.229
			c-0.194,0.956-0.481,1.703-0.854,2.222c-0.319,0.444-0.783,0.787-1.422,1.047c-0.794,0.325-1.871,0.546-3.201,0.66
			c-1.476,0.127-3.316,0.19-5.47,0.19h-11.805c-2.17,0-4.015-0.063-5.481-0.19c-1.324-0.114-2.403-0.336-3.21-0.663
			c-0.637-0.257-1.097-0.596-1.406-1.034c-0.363-0.513-0.644-1.261-0.833-2.22c-0.222-1.128-0.355-2.557-0.394-4.25
			c-0.044-1.803-0.066-3.958-0.066-6.465v-22.234h-9.066v22.234c0,2.406,0.025,4.6,0.08,6.581c0.055,2.083,0.269,3.99,0.636,5.668
			c0.391,1.792,1.03,3.387,1.9,4.743c0.92,1.434,2.225,2.629,3.874,3.551c1.554,0.87,3.517,1.521,5.834,1.937
			c2.217,0.396,4.952,0.597,8.133,0.597h11.805c3.181,0,5.916-0.201,8.132-0.597c2.317-0.415,4.28-1.066,5.834-1.937
			c1.652-0.925,2.954-2.124,3.867-3.562c0.858-1.354,1.492-2.946,1.881-4.731c0.366-1.674,0.584-3.577,0.65-5.66
			c0.062-1.962,0.092-4.179,0.092-6.59v-22.234h-9.094L215.937,127.69z"/>
		<polygon fill="#515050" points="288.6,105.456 266.183,139.207 243.789,105.456 232.59,105.456 232.59,149.925 241.657,149.925 
			241.657,117.598 262.849,149.925 270.113,149.925 290.934,118.152 290.934,149.925 300,149.925 300,105.456 		"/>
		<path fill="#449AD5" d="M44.833,180.574v-18.191h15.122c1.134,0,2.047,0.093,2.739,0.277c0.693,0.187,1.227,0.459,1.6,0.818
			c0.374,0.359,0.624,0.808,0.749,1.345c0.126,0.536,0.19,1.152,0.19,1.847c0,0.505-0.043,0.951-0.13,1.339
			c-0.087,0.387-0.2,0.724-0.342,1.007s-0.303,0.522-0.484,0.716c-0.181,0.194-0.366,0.354-0.555,0.479
			c-0.44,0.301-0.945,0.47-1.511,0.51c0.708,0.039,1.337,0.213,1.889,0.521c0.236,0.133,0.466,0.302,0.69,0.504
			c0.225,0.2,0.426,0.449,0.602,0.745c0.178,0.296,0.321,0.643,0.431,1.043c0.11,0.397,0.165,0.857,0.165,1.379
			c0,0.632-0.029,1.21-0.088,1.735c-0.059,0.525-0.178,0.997-0.359,1.415c-0.181,0.418-0.441,0.785-0.779,1.101
			c-0.339,0.316-0.79,0.579-1.352,0.789c-0.563,0.21-1.251,0.364-2.066,0.467c-0.814,0.104-1.789,0.154-2.922,0.154H44.833z
			 M57.665,169.963c0.771,0,1.436-0.016,1.995-0.047c0.559-0.033,1.036-0.093,1.429-0.179c0.394-0.086,0.712-0.207,0.956-0.36
			c0.244-0.154,0.435-0.354,0.573-0.599c0.138-0.245,0.23-0.539,0.277-0.882c0.047-0.344,0.07-0.753,0.07-1.227
			c0-0.506-0.055-0.915-0.165-1.231c-0.11-0.315-0.307-0.559-0.59-0.729c-0.284-0.169-0.667-0.284-1.151-0.344
			c-0.484-0.059-1.104-0.088-1.859-0.088H47.098v5.685H57.665z M57.665,178.68c0.881,0,1.645-0.014,2.29-0.041
			c0.646-0.029,1.192-0.088,1.641-0.179c0.449-0.09,0.811-0.221,1.086-0.391c0.276-0.17,0.491-0.395,0.644-0.676
			c0.154-0.28,0.257-0.621,0.313-1.023c0.056-0.402,0.083-0.889,0.083-1.457c0-0.442-0.027-0.828-0.083-1.154
			c-0.055-0.328-0.159-0.604-0.313-0.828c-0.153-0.226-0.368-0.407-0.644-0.546c-0.275-0.139-0.637-0.247-1.086-0.325
			c-0.449-0.079-0.995-0.133-1.641-0.16c-0.645-0.028-1.409-0.041-2.29-0.041H47.098v6.821H57.665z"/>
		<path fill="#449AD5" d="M95.377,180.574H93.11v-3.41c0-0.553-0.009-1.029-0.029-1.428s-0.086-0.74-0.201-1.024
			s-0.293-0.513-0.537-0.688c-0.244-0.173-0.59-0.308-1.039-0.401c-0.448-0.095-1.017-0.161-1.706-0.196
			c-0.688-0.035-1.536-0.054-2.543-0.054H76.866v7.201H74.6v-18.191h12.832c1.385,0,2.552,0.05,3.5,0.148
			c0.949,0.099,1.732,0.246,2.35,0.442c0.617,0.198,1.094,0.443,1.429,0.735c0.334,0.293,0.578,0.636,0.731,1.03
			c0.153,0.396,0.244,0.837,0.271,1.326c0.028,0.489,0.042,1.03,0.042,1.623c0,0.759-0.054,1.424-0.16,1.997
			c-0.107,0.572-0.286,1.059-0.537,1.461c-0.252,0.403-0.586,0.725-1.004,0.966c-0.416,0.241-0.94,0.408-1.569,0.503
			c0.629,0.095,1.133,0.26,1.511,0.498c0.377,0.236,0.669,0.545,0.874,0.924c0.205,0.378,0.34,0.828,0.407,1.35
			c0.067,0.521,0.101,1.113,0.101,1.777V180.574z M76.866,171.479h10.566c1.007,0,1.855-0.018,2.544-0.055
			c0.688-0.036,1.257-0.1,1.707-0.194c0.448-0.095,0.793-0.229,1.038-0.402c0.245-0.175,0.423-0.403,0.538-0.688
			c0.114-0.284,0.181-0.626,0.201-1.023c0.019-0.398,0.029-0.875,0.029-1.428c0-0.514-0.011-0.955-0.029-1.325
			c-0.02-0.372-0.087-0.684-0.201-0.937c-0.114-0.253-0.293-0.454-0.538-0.604c-0.244-0.15-0.59-0.267-1.038-0.351
			c-0.45-0.082-1.019-0.136-1.707-0.159c-0.689-0.023-1.537-0.035-2.544-0.035H76.866V171.479z"/>
		<path fill="#449AD5" d="M118.734,162.003c1.386,0,2.552,0.085,3.501,0.256c0.947,0.17,1.729,0.426,2.343,0.77
			s1.086,0.775,1.417,1.297s0.572,1.133,0.726,1.835c0.153,0.703,0.244,1.497,0.271,2.382c0.028,0.884,0.042,1.862,0.042,2.938
			c0,1.073-0.014,2.052-0.042,2.937c-0.027,0.885-0.118,1.678-0.271,2.38c-0.154,0.702-0.396,1.315-0.726,1.836
			s-0.803,0.954-1.417,1.297c-0.614,0.344-1.396,0.601-2.343,0.77c-0.949,0.17-2.115,0.255-3.501,0.255h-6.823
			c-1.385,0-2.552-0.085-3.5-0.255c-0.949-0.169-1.73-0.426-2.344-0.77c-0.614-0.343-1.087-0.776-1.422-1.297
			c-0.335-0.521-0.579-1.134-0.732-1.836s-0.242-1.495-0.266-2.38c-0.024-0.885-0.035-1.863-0.035-2.937
			c0-1.075,0.011-2.054,0.035-2.938c0.023-0.885,0.112-1.679,0.266-2.382c0.153-0.702,0.397-1.313,0.732-1.835
			c0.334-0.521,0.808-0.953,1.422-1.297c0.614-0.344,1.396-0.6,2.344-0.77c0.948-0.171,2.114-0.256,3.5-0.256H118.734z
			 M118.734,179.059c1,0,1.844-0.03,2.532-0.089c0.689-0.059,1.257-0.179,1.707-0.361c0.449-0.181,0.794-0.442,1.039-0.782
			c0.244-0.339,0.42-0.789,0.531-1.35c0.109-0.561,0.174-1.25,0.195-2.067c0.02-0.815,0.029-1.794,0.029-2.93
			c0-1.138-0.009-2.114-0.029-2.933c-0.021-0.817-0.085-1.506-0.195-2.066c-0.111-0.561-0.288-1.01-0.531-1.35
			c-0.245-0.341-0.588-0.6-1.034-0.782c-0.444-0.182-1.011-0.302-1.7-0.36c-0.688-0.06-1.537-0.09-2.544-0.09h-6.823
			c-1.007,0-1.855,0.03-2.544,0.09c-0.688,0.059-1.257,0.179-1.707,0.36c-0.448,0.183-0.794,0.441-1.039,0.782
			c-0.244,0.34-0.419,0.789-0.531,1.35c-0.11,0.561-0.173,1.249-0.188,2.066c-0.017,0.818-0.024,1.795-0.024,2.933
			c0,1.136,0.01,2.114,0.03,2.93c0.02,0.817,0.084,1.507,0.194,2.067c0.111,0.561,0.286,1.011,0.526,1.35
			c0.24,0.34,0.584,0.602,1.032,0.782c0.45,0.183,1.019,0.303,1.707,0.361c0.689,0.059,1.537,0.089,2.544,0.089H118.734z"/>
		<polygon fill="#449AD5" points="152.078,162.383 154.713,162.383 162.091,178.703 169.266,162.383 171.629,162.383 163.6,180.574 
			160.578,180.574 153.402,164.673 146.226,180.574 143.016,180.574 134.134,162.383 136.774,162.383 144.71,178.68 		"/>
		<path fill="#449AD5" d="M191.194,170.342c1.244,0,2.31,0.051,3.2,0.154c0.889,0.104,1.639,0.257,2.249,0.458
			c0.61,0.203,1.095,0.453,1.458,0.755s0.641,0.646,0.838,1.029c0.196,0.385,0.324,0.814,0.384,1.291
			c0.059,0.477,0.088,0.992,0.088,1.546c0,0.551-0.048,1.067-0.147,1.552c-0.098,0.482-0.273,0.926-0.525,1.326
			c-0.252,0.4-0.594,0.758-1.027,1.073c-0.433,0.315-0.983,0.581-1.652,0.802c-0.669,0.221-1.473,0.388-2.414,0.501
			c-0.94,0.114-2.041,0.171-3.3,0.171h-3.022c-1.133,0-2.125-0.043-2.975-0.13c-0.851-0.086-1.582-0.219-2.196-0.396
			c-0.614-0.179-1.122-0.404-1.523-0.676c-0.4-0.272-0.721-0.593-0.961-0.959c-0.241-0.367-0.408-0.786-0.502-1.256
			c-0.095-0.471-0.142-0.989-0.142-1.557h2.266c0,0.721,0.103,1.286,0.308,1.694c0.204,0.409,0.542,0.717,1.014,0.922
			c0.473,0.203,1.093,0.332,1.86,0.385c0.768,0.051,1.717,0.077,2.851,0.077h3.022c1.322,0,2.42-0.063,3.293-0.191
			c0.874-0.126,1.57-0.329,2.09-0.607c0.52-0.277,0.885-0.642,1.097-1.091s0.319-0.996,0.319-1.641c0-0.644-0.072-1.182-0.217-1.609
			c-0.146-0.429-0.433-0.771-0.861-1.025c-0.43-0.254-1.034-0.436-1.814-0.542c-0.778-0.107-1.797-0.162-3.057-0.162h-3.117
			c-1.385,0-2.57-0.052-3.559-0.153c-0.987-0.103-1.816-0.251-2.485-0.445c-0.669-0.192-1.205-0.434-1.606-0.721
			c-0.401-0.29-0.705-0.618-0.914-0.989c-0.209-0.373-0.345-0.784-0.408-1.239c-0.063-0.453-0.094-0.945-0.094-1.473
			c0-0.554,0.05-1.067,0.148-1.541c0.098-0.473,0.28-0.902,0.549-1.284c0.267-0.383,0.632-0.725,1.097-1.024
			c0.464-0.3,1.06-0.551,1.789-0.752s1.604-0.354,2.626-0.456c1.023-0.103,2.228-0.154,3.613-0.154h2.267
			c1.133,0,2.125,0.04,2.975,0.124c0.851,0.084,1.582,0.213,2.196,0.392c0.614,0.177,1.124,0.399,1.529,0.662
			c0.406,0.266,0.729,0.581,0.969,0.947c0.24,0.367,0.406,0.785,0.5,1.249c0.095,0.467,0.142,0.985,0.142,1.553h-2.267
			c0-0.71-0.101-1.268-0.307-1.67c-0.205-0.403-0.543-0.704-1.015-0.905c-0.472-0.202-1.094-0.328-1.865-0.38
			c-0.771-0.051-1.723-0.077-2.856-0.077h-2.267c-1.511,0-2.755,0.054-3.731,0.16c-0.976,0.106-1.746,0.286-2.313,0.539
			c-0.567,0.253-0.96,0.593-1.181,1.019c-0.22,0.427-0.331,0.958-0.331,1.6c0,0.395,0.027,0.745,0.083,1.053
			c0.056,0.308,0.167,0.579,0.337,0.813c0.168,0.233,0.407,0.428,0.713,0.586c0.307,0.156,0.713,0.288,1.215,0.391
			c0.504,0.103,1.121,0.177,1.849,0.219c0.728,0.043,1.595,0.065,2.602,0.065H191.194z"/>
		<polygon fill="#449AD5" points="208.024,180.574 208.024,162.383 226.156,162.383 226.156,164.278 210.291,164.278 
			210.291,170.342 225.401,170.342 225.401,172.236 210.291,172.236 210.291,178.681 226.156,178.681 226.156,180.574 		"/>
		<path fill="#449AD5" d="M254.79,180.574h-2.267v-3.41c0-0.553-0.008-1.029-0.029-1.428c-0.019-0.398-0.085-0.74-0.2-1.024
			c-0.115-0.284-0.294-0.513-0.538-0.688c-0.244-0.173-0.59-0.308-1.039-0.401c-0.448-0.095-1.017-0.161-1.706-0.196
			c-0.688-0.035-1.537-0.054-2.544-0.054H236.28v7.201h-2.266v-18.191h12.832c1.385,0,2.553,0.05,3.501,0.148
			c0.949,0.099,1.732,0.246,2.35,0.442c0.618,0.198,1.094,0.443,1.429,0.735c0.334,0.293,0.578,0.636,0.732,1.03
			c0.152,0.396,0.244,0.837,0.271,1.326c0.028,0.489,0.041,1.03,0.041,1.623c0,0.759-0.053,1.424-0.159,1.997
			c-0.106,0.572-0.287,1.059-0.538,1.461c-0.252,0.403-0.586,0.725-1.004,0.966c-0.416,0.241-0.94,0.408-1.569,0.503
			c0.629,0.095,1.133,0.26,1.511,0.498c0.378,0.236,0.669,0.545,0.874,0.924c0.205,0.378,0.341,0.828,0.407,1.35
			c0.067,0.521,0.1,1.113,0.1,1.777V180.574z M236.28,171.479h10.565c1.007,0,1.856-0.018,2.545-0.055
			c0.688-0.036,1.256-0.1,1.705-0.194c0.448-0.095,0.794-0.229,1.039-0.402c0.244-0.175,0.423-0.403,0.537-0.688
			c0.114-0.284,0.181-0.626,0.201-1.023c0.019-0.398,0.029-0.875,0.029-1.428c0-0.514-0.01-0.955-0.029-1.325
			c-0.02-0.372-0.087-0.684-0.201-0.937c-0.114-0.253-0.293-0.454-0.537-0.604c-0.245-0.15-0.591-0.267-1.039-0.351
			c-0.449-0.082-1.017-0.136-1.705-0.159c-0.689-0.023-1.538-0.035-2.545-0.035H236.28V171.479z"/>
	</g>
</g>
</svg>
