<svg id="Ebene_1" data-name="Ebene 1" xmlns="http://www.w3.org/2000/svg" xmlns:xlink="http://www.w3.org/1999/xlink" viewBox="0 0 200 44"><defs><style>.cls-1{fill:#449ad5;}.cls-2{fill:#515050;}.cls-3{fill:#4598d3;}.cls-4{opacity:0.21;fill:url(#linear-gradient);}.cls-4,.cls-5{isolation:isolate;}.cls-5{opacity:0.25;fill:url(#linear-gradient-2);}</style><linearGradient id="linear-gradient" x1="100.94" y1="12.76" x2="95.74" y2="7.21" gradientTransform="matrix(0.99, -0.16, -0.16, -0.99, -2.96, 45.31)" gradientUnits="userSpaceOnUse"><stop offset="0" stop-color="#fdfdff" stop-opacity="0"/><stop offset="0.91" stop-color="#fdfdff" stop-opacity="0.91"/><stop offset="1" stop-color="#fdfdff"/></linearGradient><linearGradient id="linear-gradient-2" x1="117.29" y1="38.93" x2="98.1" y2="18.47" xlink:href="#linear-gradient"/></defs><title>iridium-logo_small</title><path class="cls-1" d="M102.53,10.59c0-.11,0-.22,0-.33a21.36,21.36,0,0,0-.28-2.19l-.06-.31s0-.08,0-.13l0-.12a29,29,0,0,0-3.7-.45C97.73,7,97,7,96.35,7a30,30,0,0,0-4.22.36l-.44.08a.86.86,0,0,0-.17,0,28.38,28.38,0,0,0-2.87.66L88,8.32l-.34.11c-.66.21-1.31.45-2,.7a28.74,28.74,0,0,0-3.36,1.61,22.57,22.57,0,0,0,1,4.37,23.34,23.34,0,0,0,1,2.58h0a20.94,20.94,0,0,0,1.82,3.05c.24.34.49.67.74,1A21.43,21.43,0,0,0,95.35,28L95.4,28l.13-.11a21.41,21.41,0,0,0,2.09-2.2l.17-.19.12-.16L98.2,25a21.47,21.47,0,0,0,2.23-3.64c0-.1.1-.19.14-.29a20,20,0,0,0,1-2.44c0-.09.07-.19.1-.29l0-.06h0a21.66,21.66,0,0,0,.59-2.48.59.59,0,0,0,0-.13c0-.11,0-.22.06-.33a22.57,22.57,0,0,0,.24-2.35c0-.12,0-.23,0-.34C102.59,11.9,102.57,11.23,102.53,10.59Zm-10.75,5a1.09,1.09,0,0,1-.09-.23,2,2,0,0,1-.06-.23,1.66,1.66,0,0,1,0-.63,1.43,1.43,0,0,1,.09-.27A1.58,1.58,0,0,1,94.52,14a1.22,1.22,0,0,1,.14.28,1.57,1.57,0,0,1,.08.31,1.51,1.51,0,0,1-.18,1,1,1,0,0,1-.16.24,1.72,1.72,0,0,1-.27.27l.42,1.13L95,18.35H92.63l0-.88,0-1.14a1.56,1.56,0,0,1-.92-.79Z" transform="translate(0 0)"/><path class="cls-2" d="M96.4,1.05A14.19,14.19,0,0,1,98.93.31,15.2,15.2,0,0,1,111.6,3.44l-.08,0-2.41,1.16a12.81,12.81,0,0,0-9.7-1.94c-.31.07-.62.14-.92.23A10,10,0,0,0,96.4,1.05Z" transform="translate(0 0)"/><path class="cls-2" d="M113.34,5.22l-.23.15-.65.44-.68.42-.46.28-1,.57c-.26.14-.51.26-.77.41s-.53.27-.8.4c-1.07.53-2.21,1-3.39,1.46-.64.23-1.29.46-2,.67a19.38,19.38,0,0,0-.33-2L103,7.64c.58-.11,1.15-.22,1.72-.35,1.16-.28,2.3-.59,3.38-1l.81-.28.78-.29c.19-.09.39-.17.58-.24s.62-.25.92-.39l.71-.32.68-.33,0,0c.15.14.28.28.41.42Z" transform="translate(0 0)"/><path class="cls-2" d="M116.76,12.64c-.23.11-.45.24-.67.36s-.43.23-.65.33l-1.36.64-2.7,1.28-.68.32c-.22.1-.46.19-.69.28-.46.18-.92.38-1.39.55l-1.41.5c-.47.16-.95.28-1.43.41l-1.45.39c-.46.11-.91.25-1.37.33-.11.45-.23.9-.37,1.36S102.22,20.5,102,21a16.26,16.26,0,0,0,11.76-4.17c.17,1-1.61,3.55-2.27,4.36a13,13,0,0,1-12,4.51,23.29,23.29,0,0,1-2.16,2.68l.11,0,.58.16c.41.1.83.15,1.23.22a7.35,7.35,0,0,0,1.24.13,8.7,8.7,0,0,0,1.25,0l1.26,0,1.2-.18.31,0s.08,0,.16,0l.15,0,.61-.15.6-.16.59-.21.58-.2.57-.26.57-.25.55-.3.54-.3c.18-.1.35-.22.53-.33a10.23,10.23,0,0,0,1-.73,9,9,0,0,0,1-.8,10.33,10.33,0,0,0,.88-.87l.41-.44.1-.12.11-.13a2.23,2.23,0,0,0,.19-.24,11.59,11.59,0,0,0,.73-1l.34-.52c.11-.17.21-.36.31-.54a11.39,11.39,0,0,0,.57-1.09,11.61,11.61,0,0,0,.48-1.15l.21-.57c.06-.2.11-.4.17-.6l.17-.6.12-.6c.09-.39.14-.82.2-1.23s.06-.8.1-1.22,0-.83,0-1.23V12.5Z" transform="translate(0 0)"/><path class="cls-3" d="M112,12.71c-.47.19-1,.35-1.41.54s-1.16.38-1.72.58-1.17.35-1.74.5l-.87.24-.89.19c-.59.13-1.19.27-1.78.35l-.18,0a22.26,22.26,0,0,0,.13-2.77,37.72,37.72,0,0,0,6.81-2.61A4.37,4.37,0,0,0,112,12.71Z" transform="translate(0 0)"/><path class="cls-3" d="M117.15,10.76a2.77,2.77,0,0,1-3.87.78,2.77,2.77,0,0,1-1.23-2.7,2.7,2.7,0,0,1,.44-1.17,2.8,2.8,0,0,1,4.66,3.09Z" transform="translate(0 0)"/><path class="cls-2" d="M98.28,6.2c-.69,0-1.38,0-2.07,0a6.28,6.28,0,0,0-1.09-1.85,2.35,2.35,0,0,0-.3-.33A4.73,4.73,0,0,0,93,2.79l-.49-.13a3.67,3.67,0,0,0-1.28,0c-2.07.34-3.52,2.42-3.63,4.93-.66.21-1.31.45-2,.7-.15-3.75,2.06-7,5.27-7.54a5.65,5.65,0,0,1,3.59.61,4.76,4.76,0,0,1,.49.28A7.08,7.08,0,0,1,96.57,3l.33.41A8.57,8.57,0,0,1,98.28,6.2Z" transform="translate(0 0)"/><path class="cls-4" d="M98.2,25c-.09.13-.19.25-.29.38l-.12.15-.17.2a20.26,20.26,0,0,1-2.09,2.19L95.4,28l-.05.05A21.53,21.53,0,0,1,87,21.73c-.25-.32-.5-.64-.74-1a21,21,0,0,1-1.82-3.06h.11C86.56,20,91.32,24.69,98.2,25Z" transform="translate(0 0)"/><path class="cls-5" d="M102.14,7.63a33.65,33.65,0,0,0-18.77,7.48,21.78,21.78,0,0,1-1-4.38,30.36,30.36,0,0,1,3.36-1.6c.64-.26,1.29-.49,2-.7L88,8.32l.61-.18c.94-.27,1.9-.49,2.87-.67l.16,0,.45-.07A30,30,0,0,1,96.35,7c.69,0,1.38,0,2.07,0a29,29,0,0,1,3.7.45A.5.5,0,0,1,102.14,7.63Z" transform="translate(0 0)"/><rect class="cls-2" y="31.93" width="2.52" height="11.84"/><path class="cls-2" d="M18.24,33.69a2,2,0,0,0-.59-.83,2.88,2.88,0,0,0-1-.55A8,8,0,0,0,15.1,32c-.58-.05-1.29-.08-2.12-.08H4.85V43.78H7.36V39.56h5.4c.58,0,1.07,0,1.46,0a6.28,6.28,0,0,1,.92.1,1.13,1.13,0,0,1,.39.14.38.38,0,0,1,.11.14,1.52,1.52,0,0,1,.07.41c0,.23,0,.5,0,.81v2.59h2.51V41.19a9.35,9.35,0,0,0-.06-1.12,3,3,0,0,0-.3-1,2.13,2.13,0,0,0-.42-.53A2.47,2.47,0,0,0,18,38a3.09,3.09,0,0,0,.39-1.07,6.91,6.91,0,0,0,.11-1.27q0-.54,0-1A3.21,3.21,0,0,0,18.24,33.69Zm-10.88.54H13l1.48,0a6.53,6.53,0,0,1,.91.08,1.28,1.28,0,0,1,.41.13.18.18,0,0,1,.09.1,1.05,1.05,0,0,1,.06.33c0,.21,0,.46,0,.74s0,.59,0,.81a1.12,1.12,0,0,1-.07.41.31.31,0,0,1-.11.14,1,1,0,0,1-.39.14,6.12,6.12,0,0,1-.91.1q-.6,0-1.47,0H7.36Z" transform="translate(0 0)"/><rect class="cls-2" x="20.35" y="31.93" width="2.52" height="11.84"/><path class="cls-2" d="M39.06,34.73a3.67,3.67,0,0,0-.51-1.23,3,3,0,0,0-1-.92,5.12,5.12,0,0,0-1.56-.49,13.28,13.28,0,0,0-2.16-.15H25.2V43.78h8.58a13.28,13.28,0,0,0,2.16-.15,5.11,5.11,0,0,0,1.56-.5,3,3,0,0,0,1-.92A3.59,3.59,0,0,0,39.06,41a7.76,7.76,0,0,0,.18-1.45c0-.5,0-1.06,0-1.67s0-1.17,0-1.68A7.76,7.76,0,0,0,39.06,34.73Zm-5.28,6.75H27.72V34.23h6.06c.57,0,1.06,0,1.45,0a3.16,3.16,0,0,1,.84.17.75.75,0,0,1,.34.23,1.25,1.25,0,0,1,.21.52,5.74,5.74,0,0,1,.11,1.05c0,.45,0,1,0,1.62s0,1.16,0,1.62a5.72,5.72,0,0,1-.11,1,1.25,1.25,0,0,1-.21.52.69.69,0,0,1-.34.24,3.79,3.79,0,0,1-.85.16C34.84,41.47,34.35,41.48,33.78,41.48Z" transform="translate(0 0)"/><rect class="cls-2" x="41.15" y="31.93" width="2.52" height="11.84"/><path class="cls-2" d="M57.11,37.85c0,.67,0,1.24,0,1.71a5.69,5.69,0,0,1-.1,1.11,1.56,1.56,0,0,1-.21.56.93.93,0,0,1-.36.26,2.7,2.7,0,0,1-.82.16c-.39,0-.88.05-1.45.05H51c-.57,0-1.06,0-1.44-.05a2.41,2.41,0,0,1-.83-.17.68.68,0,0,1-.35-.25,1.56,1.56,0,0,1-.21-.56,7.68,7.68,0,0,1-.11-1.11c0-.48,0-1,0-1.71V31.93H45.56v5.92c0,.64,0,1.22,0,1.74a8.49,8.49,0,0,0,.17,1.51,4.12,4.12,0,0,0,.51,1.27,3,3,0,0,0,1.05,1,4.84,4.84,0,0,0,1.56.52A12.14,12.14,0,0,0,51,44h3.13a12.14,12.14,0,0,0,2.16-.16,4.84,4.84,0,0,0,1.56-.52,2.77,2.77,0,0,0,1-1,4.06,4.06,0,0,0,.51-1.26,9.53,9.53,0,0,0,.17-1.51c0-.52,0-1.1,0-1.73V31.94H57.1Z" transform="translate(0 0)"/><polygon class="cls-2" points="76.35 31.93 70.46 40.78 64.57 31.93 61.51 31.93 61.51 43.78 64.03 43.78 64.03 35.39 69.54 43.78 71.53 43.78 76.94 35.54 76.94 43.78 79.46 43.78 79.46 31.93 76.35 31.93"/><path class="cls-1" d="M82,43.73V32.17h9.64a7.31,7.31,0,0,1,1.74.18,2.33,2.33,0,0,1,1,.52,1.68,1.68,0,0,1,.48.85A5.29,5.29,0,0,1,95,34.9a3.63,3.63,0,0,1-.09.85,2.53,2.53,0,0,1-.21.64,2,2,0,0,1-.31.45,1.7,1.7,0,0,1-.36.31,2,2,0,0,1-1,.32,2.83,2.83,0,0,1,1.21.33,2.52,2.52,0,0,1,.43.32,2,2,0,0,1,.39.47,2.75,2.75,0,0,1,.27.67,3.23,3.23,0,0,1,.11.87,9.23,9.23,0,0,1-.06,1.1,3,3,0,0,1-.23.9,2,2,0,0,1-.49.7,2.59,2.59,0,0,1-.87.5,6.22,6.22,0,0,1-1.31.3,16.28,16.28,0,0,1-1.86.1ZM90.15,37c.49,0,.91,0,1.27,0a6.67,6.67,0,0,0,.91-.11,2,2,0,0,0,.61-.23,1.19,1.19,0,0,0,.36-.38,1.54,1.54,0,0,0,.18-.56,5.94,5.94,0,0,0,0-.78,2.42,2.42,0,0,0-.1-.78.8.8,0,0,0-.38-.46,1.85,1.85,0,0,0-.73-.22,9.54,9.54,0,0,0-1.19-.06h-7.7V37Zm0,5.53,1.46,0a6.79,6.79,0,0,0,1-.12,1.85,1.85,0,0,0,.69-.24,1.12,1.12,0,0,0,.41-.43,1.77,1.77,0,0,0,.2-.65,6.35,6.35,0,0,0,0-.93,4,4,0,0,0,0-.73,1.2,1.2,0,0,0-.2-.53.93.93,0,0,0-.41-.34,2.36,2.36,0,0,0-.69-.21,8.75,8.75,0,0,0-1-.1c-.42,0-.9,0-1.46,0H83.42v4.33Z" transform="translate(0 0)"/><path class="cls-1" d="M111.51,43.73h-1.44V41.56c0-.35,0-.65,0-.9a2,2,0,0,0-.13-.65,1,1,0,0,0-.34-.44,1.68,1.68,0,0,0-.67-.25,5.69,5.69,0,0,0-1.08-.13c-.44,0-1,0-1.62,0H99.72v4.58H98.27V32.17h8.18c.88,0,1.62,0,2.23.1a7.78,7.78,0,0,1,1.49.28,2.49,2.49,0,0,1,.91.47,1.58,1.58,0,0,1,.47.65,2.46,2.46,0,0,1,.17.84c0,.32,0,.66,0,1a6.81,6.81,0,0,1-.1,1.27,2.69,2.69,0,0,1-.34.93,1.9,1.9,0,0,1-.65.61,2.68,2.68,0,0,1-1,.32,2.57,2.57,0,0,1,1,.32,1.72,1.72,0,0,1,.56.58,2.47,2.47,0,0,1,.25.86,7.69,7.69,0,0,1,.07,1.13v2.17ZM99.72,38h6.73q1,0,1.62,0a6.93,6.93,0,0,0,1.09-.13,1.69,1.69,0,0,0,.66-.25,1,1,0,0,0,.34-.44,2.34,2.34,0,0,0,.13-.65c0-.25,0-.55,0-.9s0-.61,0-.85a1.91,1.91,0,0,0-.13-.59.91.91,0,0,0-.34-.39,2.41,2.41,0,0,0-.66-.22,9.08,9.08,0,0,0-1.09-.1l-1.62,0H99.72Z" transform="translate(0 0)"/><path class="cls-1" d="M123.73,31.93a12.73,12.73,0,0,1,2.23.17,5.12,5.12,0,0,1,1.49.48,2.5,2.5,0,0,1,.9.83,3.41,3.41,0,0,1,.46,1.17,8.23,8.23,0,0,1,.18,1.51c0,.56,0,1.18,0,1.86s0,1.31,0,1.87a8.33,8.33,0,0,1-.18,1.51,3.24,3.24,0,0,1-.46,1.16,2.41,2.41,0,0,1-.9.83,4.82,4.82,0,0,1-1.49.49,13.91,13.91,0,0,1-2.23.16h-4.35a13.82,13.82,0,0,1-2.23-.16,4.82,4.82,0,0,1-1.49-.49,2.52,2.52,0,0,1-.91-.83,3.36,3.36,0,0,1-.46-1.16,7.57,7.57,0,0,1-.17-1.51c0-.56,0-1.19,0-1.87s0-1.3,0-1.86a7.48,7.48,0,0,1,.17-1.51,3.41,3.41,0,0,1,.46-1.17,2.62,2.62,0,0,1,.91-.83,4.83,4.83,0,0,1,1.49-.48,12.73,12.73,0,0,1,2.23-.17Zm0,10.83c.63,0,1.17,0,1.61,0a3.78,3.78,0,0,0,1.09-.23,1.53,1.53,0,0,0,.66-.5,2.21,2.21,0,0,0,.34-.86,7.61,7.61,0,0,0,.12-1.31c0-.52,0-1.14,0-1.86s0-1.34,0-1.86a7.61,7.61,0,0,0-.12-1.31,2.21,2.21,0,0,0-.34-.86,1.53,1.53,0,0,0-.66-.5,4,4,0,0,0-1.08-.23c-.44,0-1,0-1.62,0h-4.35c-.64,0-1.18,0-1.62,0a4,4,0,0,0-1.08.23,1.5,1.5,0,0,0-.67.5,2.21,2.21,0,0,0-.34.86,7.61,7.61,0,0,0-.12,1.31c0,.52,0,1.14,0,1.86s0,1.34,0,1.86a7.61,7.61,0,0,0,.12,1.31A2.06,2.06,0,0,0,116,42a1.42,1.42,0,0,0,.66.5,3.63,3.63,0,0,0,1.08.23c.44,0,1,0,1.62,0Z" transform="translate(0 0)"/><path class="cls-1" d="M142.31,32.17H144l4.7,10.37,4.57-10.36h1.51l-5.12,11.55h-1.92l-4.58-10.1-4.57,10.1h-2l-5.66-11.55h1.68l5.06,10.34Z" transform="translate(0 0)"/><path class="cls-1" d="M164.57,37.23a17.14,17.14,0,0,1,2,.1,7.63,7.63,0,0,1,1.43.29,2.89,2.89,0,0,1,.93.48,2,2,0,0,1,.53.65,2.45,2.45,0,0,1,.25.82c0,.31.05.63.05,1a5.13,5.13,0,0,1-.09,1,2.59,2.59,0,0,1-.33.84,2.24,2.24,0,0,1-.66.68,3.54,3.54,0,0,1-1.05.51,8,8,0,0,1-1.54.32A16.25,16.25,0,0,1,164,44H162.1c-.72,0-1.35,0-1.89-.08a8.68,8.68,0,0,1-1.4-.25,3.66,3.66,0,0,1-1-.43,2.4,2.4,0,0,1-.62-.61,2.09,2.09,0,0,1-.31-.8,5,5,0,0,1-.1-1h1.45a2.46,2.46,0,0,0,.19,1.08,1.24,1.24,0,0,0,.65.58,3.34,3.34,0,0,0,1.18.25c.49,0,1.1,0,1.82,0H164a15,15,0,0,0,2.09-.12,4.11,4.11,0,0,0,1.34-.39,1.61,1.61,0,0,0,.7-.69,2.5,2.5,0,0,0,.2-1,3.26,3.26,0,0,0-.14-1,1.18,1.18,0,0,0-.55-.66,3,3,0,0,0-1.16-.34,14.21,14.21,0,0,0-1.94-.11h-2c-.88,0-1.63,0-2.26-.09a9,9,0,0,1-1.59-.29,3.24,3.24,0,0,1-1-.45,2.14,2.14,0,0,1-.58-.63,2.1,2.1,0,0,1-.26-.79,6.81,6.81,0,0,1-.06-.93,5,5,0,0,1,.09-1,2.15,2.15,0,0,1,.35-.82,2.59,2.59,0,0,1,.7-.65,4.34,4.34,0,0,1,1.14-.48,11.65,11.65,0,0,1,1.67-.29c.66-.06,1.42-.09,2.3-.09h1.45a17.58,17.58,0,0,1,1.89.08,7.77,7.77,0,0,1,1.4.24,3.74,3.74,0,0,1,1,.43,1.84,1.84,0,0,1,.61.6,2.06,2.06,0,0,1,.32.79,5,5,0,0,1,.09,1h-1.44a2.38,2.38,0,0,0-.2-1.06,1.21,1.21,0,0,0-.64-.57,3.61,3.61,0,0,0-1.19-.24c-.49,0-1.1,0-1.82,0h-1.44a22.1,22.1,0,0,0-2.38.1,5.15,5.15,0,0,0-1.47.34,1.48,1.48,0,0,0-.75.65,2.08,2.08,0,0,0-.22,1,4.23,4.23,0,0,0,.05.66,1.28,1.28,0,0,0,.22.52,1.23,1.23,0,0,0,.46.37,2.78,2.78,0,0,0,.77.25,8.14,8.14,0,0,0,1.18.14c.46,0,1,0,1.66,0Z" transform="translate(0 0)"/><path class="cls-1" d="M172.63,43.73V32.17h11.55v1.21H174.07v3.85h9.63v1.2h-9.63v4.09h10.11v1.21Z" transform="translate(0 0)"/><path class="cls-1" d="M199.76,43.73h-1.44V41.56c0-.35,0-.65,0-.9a2,2,0,0,0-.13-.65,1,1,0,0,0-.34-.44,1.68,1.68,0,0,0-.67-.25,5.69,5.69,0,0,0-1.08-.13c-.44,0-1,0-1.62,0H188v4.58h-1.45V32.17h8.18c.88,0,1.62,0,2.23.1a7.78,7.78,0,0,1,1.49.28,2.49,2.49,0,0,1,.91.47,1.58,1.58,0,0,1,.47.65,2.72,2.72,0,0,1,.17.84c0,.32,0,.66,0,1a6.81,6.81,0,0,1-.1,1.27,2.69,2.69,0,0,1-.35.93,1.84,1.84,0,0,1-.63.61,2.74,2.74,0,0,1-1,.32,2.52,2.52,0,0,1,1,.32,1.63,1.63,0,0,1,.56.58,3,3,0,0,1,.26.86,9.52,9.52,0,0,1,.06,1.13v2.17ZM188,38h6.73q1,0,1.62,0a6.64,6.64,0,0,0,1.08-.13,1.68,1.68,0,0,0,.67-.25,1,1,0,0,0,.34-.44,2.34,2.34,0,0,0,.13-.65c0-.25,0-.55,0-.9s0-.61,0-.85a1.91,1.91,0,0,0-.13-.59.91.91,0,0,0-.34-.39,2.38,2.38,0,0,0-.67-.22,8.69,8.69,0,0,0-1.08-.1l-1.62,0H188Z" transform="translate(0 0)"/></svg>