<svg id="iridium" xmlns="http://www.w3.org/2000/svg" xmlns:xlink="http://www.w3.org/1999/xlink" viewBox="0 0 300 187.96"><defs><style>.cls-1{clip-path:url(#clip-path);}.cls-2{fill:none;}.cls-3{fill:url(#linear-gradient);}.cls-4{clip-path:url(#clip-path-2);}.cls-5{fill:url(#linear-gradient-2);}.cls-6{fill:#449ad5;}.cls-7{fill:#515050;}.cls-8{fill:#484b4c;}.cls-9{opacity:0.21;}.cls-10{clip-path:url(#clip-path-3);}.cls-11{clip-path:url(#clip-path-4);}.cls-12{mask:url(#mask);}.cls-13{fill:url(#linear-gradient-3);}.cls-14{opacity:0.25;}.cls-15{clip-path:url(#clip-path-5);}.cls-16{clip-path:url(#clip-path-6);}.cls-17{mask:url(#mask-2);}.cls-18{fill:url(#linear-gradient-4);}</style><clipPath id="clip-path"><path class="cls-2" d="M144.18,81.1c-.31.41-.63.82-1,1.22l-.4.5c-.17.22-.35.43-.53.65a70.55,70.55,0,0,1-6.78,7.13l-.42.38c-.06.06-.12.1-.17.16a69.87,69.87,0,0,1-27.07-20.52c-.82-1-1.61-2.07-2.4-3.17a69.47,69.47,0,0,1-5.9-9.94h.17l.2,0c6.51,7.36,22,22.68,44.25,23.53"/></clipPath><linearGradient id="linear-gradient" x1="-235.16" y1="277.75" x2="-234.43" y2="277.75" gradientTransform="matrix(-18.75, 27.93, -27.93, -18.75, 3483.49, 11830.57)" gradientUnits="userSpaceOnUse"><stop offset="0"/><stop offset="0.16" stop-color="#030303"/><stop offset="0.29" stop-color="#0d0d0d"/><stop offset="0.41" stop-color="#1e1e1e"/><stop offset="0.52" stop-color="#363636"/><stop offset="0.63" stop-color="#555"/><stop offset="0.74" stop-color="#7b7b7b"/><stop offset="0.84" stop-color="#a7a7a7"/><stop offset="0.94" stop-color="#dadada"/><stop offset="1" stop-color="#fff"/></linearGradient><clipPath id="clip-path-2"><path class="cls-2" d="M157,24.81c-2.34.66-31.48.45-60.82,24.29a71.24,71.24,0,0,1-3.19-14.21,94.64,94.64,0,0,1,10.9-5.22c2.08-.83,4.17-1.6,6.31-2.28l1.11-.35c.66-.21,1.32-.4,2-.59a92.8,92.8,0,0,1,9.29-2.15l.53-.1q.72-.14,1.44-.24a95.69,95.69,0,0,1,13.69-1.17c2.22,0,4.46,0,6.69.15a93.67,93.67,0,0,1,12,1.47c0,.13,0,.27.08.4"/></clipPath><linearGradient id="linear-gradient-2" x1="-244.96" y1="287.35" x2="-244.22" y2="287.35" gradientTransform="matrix(-69.19, 103.07, -103.07, -69.19, 12842.53, 45090.87)" xlink:href="#linear-gradient"/><clipPath id="clip-path-3" transform="translate(0 6.96)"><rect class="cls-2" x="99.56" y="57.51" width="44.62" height="33.63"/></clipPath><clipPath id="clip-path-4" transform="translate(0 6.96)"><path class="cls-2" d="M144.18,81.1c-.31.41-.63.82-1,1.22l-.4.5c-.17.22-.35.43-.53.65a70.55,70.55,0,0,1-6.78,7.13l-.42.38c-.06.06-.12.1-.17.16a69.87,69.87,0,0,1-27.07-20.52c-.82-1-1.61-2.07-2.4-3.17a69.47,69.47,0,0,1-5.9-9.94h.17l.2,0c6.51,7.36,22,22.68,44.25,23.53"/></clipPath><mask id="mask" x="84.05" y="43.75" width="75.64" height="75.06" maskUnits="userSpaceOnUse"><g transform="translate(0 6.96)"><g id="SVGID"><g class="cls-1"><polygon class="cls-3" points="159.69 67.96 130.32 111.85 84.05 80.69 113.42 36.8 159.69 67.96"/></g></g></g></mask><linearGradient id="linear-gradient-3" x1="-235.16" y1="277.75" x2="-234.43" y2="277.75" gradientTransform="matrix(-18.75, 27.93, -27.93, -18.75, 3483.49, 11837.52)" gradientUnits="userSpaceOnUse"><stop offset="0" stop-color="#fdfdfe"/><stop offset="0.91" stop-color="#fdfdfe"/><stop offset="1" stop-color="#fdfdfe"/></linearGradient><clipPath id="clip-path-5" transform="translate(0 6.96)"><rect class="cls-2" x="92.94" y="22.78" width="64.01" height="26.32"/></clipPath><clipPath id="clip-path-6" transform="translate(0 6.96)"><path class="cls-2" d="M157,24.81c-2.34.66-31.48.45-60.82,24.29a71.24,71.24,0,0,1-3.19-14.21,94.64,94.64,0,0,1,10.9-5.22c2.08-.83,4.17-1.6,6.31-2.28l1.11-.35c.66-.21,1.32-.4,2-.59a92.8,92.8,0,0,1,9.29-2.15l.53-.1q.72-.14,1.44-.24a95.69,95.69,0,0,1,13.69-1.17c2.22,0,4.46,0,6.69.15a93.67,93.67,0,0,1,12,1.47c0,.13,0,.27.08.4"/></clipPath><mask id="mask-2" x="80.79" y="0" width="88.31" height="85.78" maskUnits="userSpaceOnUse"><g transform="translate(0 6.96)"><g id="SVGID-2" data-name="SVGID"><g class="cls-4"><polygon class="cls-5" points="169.1 30.95 137.07 78.82 80.79 40.92 112.83 -6.96 169.1 30.95"/></g></g></g></mask><linearGradient id="linear-gradient-4" x1="-244.96" y1="287.35" x2="-244.22" y2="287.35" gradientTransform="matrix(-69.19, 103.07, -103.07, -69.19, 12842.53, 45097.82)" xlink:href="#linear-gradient-3"/></defs><title>iridium-logo_large</title><g id="Logo"><path class="cls-6" d="M158.21,34.41c0-.36-.05-.71-.08-1.06a68.25,68.25,0,0,0-.91-7.14c-.07-.33-.12-.66-.18-1l-.09-.42c0-.13-.06-.27-.08-.4a93.67,93.67,0,0,0-12-1.47c-2.23-.13-4.47-.18-6.69-.15A95.57,95.57,0,0,0,124.5,24q-.72.11-1.44.24l-.53.1a90.12,90.12,0,0,0-9.29,2.15c-.66.19-1.32.38-2,.59l-1.11.35c-2.14.68-4.23,1.45-6.31,2.28a94.64,94.64,0,0,0-10.9,5.22A71.39,71.39,0,0,0,96.13,49.1a69.35,69.35,0,0,0,3.41,8.38s0,0,0,0a69.09,69.09,0,0,0,5.9,9.94c.78,1.09,1.58,2.15,2.4,3.16a69.91,69.91,0,0,0,27.07,20.53,1.29,1.29,0,0,1,.17-.16l.42-.39a69.5,69.5,0,0,0,6.78-7.13c.18-.21.36-.42.53-.64l.4-.5c.31-.41.64-.81,1-1.22a70.26,70.26,0,0,0,7.22-11.81c.16-.32.31-.64.46-1a70.41,70.41,0,0,0,3.1-7.91c.1-.32.2-.63.31-1l.06-.18h0a69.45,69.45,0,0,0,1.94-8.05c0-.14.05-.3.08-.45.06-.35.12-.7.17-1.06a68.17,68.17,0,0,0,.77-7.64c0-.37,0-.73,0-1.09.08-2.3,0-4.49-.11-6.57M123.38,50.52a3.73,3.73,0,0,1-.31-.74,6,6,0,0,1-.17-.73,5,5,0,0,1,.07-2,4,4,0,0,1,.32-.9,5.1,5.1,0,0,1,9-.61,4.4,4.4,0,0,1,.46.92,5.35,5.35,0,0,1,.27,1,5.14,5.14,0,0,1-.58,3.32,4.76,4.76,0,0,1-.53.77,5,5,0,0,1-.88.85l1.36,3.7,1.33,3.61-7.56,0,.12-2.88.11-3.69a5.09,5.09,0,0,1-3-2.57Z" transform="translate(0 6.96)"/><path class="cls-7" d="M138.33,3.41a49.25,49.25,0,0,1,49.24,7.77l-.23.12-7.81,3.77a41.44,41.44,0,0,0-31.44-6.28c-1,.2-2,.44-3,.72a33.08,33.08,0,0,0-6.78-6.1" transform="translate(0 6.96)"/><path class="cls-7" d="M193.2,17l-.72.48c-.69.45-1.38.95-2.1,1.41s-1.47.91-2.22,1.37c-.49.31-1,.62-1.49.91-1,.61-2.12,1.22-3.21,1.85-.82.47-1.66.87-2.5,1.33s-1.69.9-2.57,1.31c-3.46,1.73-7.16,3.3-11,4.77-2.06.75-4.17,1.48-6.29,2.15-.29-2.43-.67-4.65-1.08-6.62l-.23-1.11c1.87-.34,3.73-.72,5.57-1.12,3.77-.9,7.45-1.91,11-3.1.88-.28,1.73-.63,2.6-.91s1.71-.61,2.54-.95l1.88-.77c1-.41,2-.82,3-1.26.78-.36,1.54-.71,2.3-1s1.47-.73,2.22-1.09l.11-.06c.45.45.89.91,1.32,1.37s.64.7.94,1.08" transform="translate(0 6.96)"/><path class="cls-7" d="M204.29,41.08c-.73.38-1.46.79-2.17,1.18s-1.39.74-2.11,1.07l-4.38,2.09-8.78,4.16-2.19,1c-.71.34-1.49.61-2.23.91-1.49.59-3,1.25-4.49,1.78l-4.58,1.62c-1.51.54-3.08.93-4.64,1.34L164,57.51c-1.49.38-2.93.83-4.44,1.09-.35,1.46-.74,2.93-1.2,4.42q-.84,2.74-1.83,5.29c.1-.28,19.07,2.88,38.12-13.54.52,3.38-5.26,11.54-7.37,14.15-9.61,11.85-24,16.47-38.87,14.68a76,76,0,0,1-7,8.69l.38.12,1.87.51c1.31.31,2.66.48,4,.71a25.6,25.6,0,0,0,4,.42,28.84,28.84,0,0,0,4,.11l4.08-.18,3.9-.58,1-.15c.19,0,.27,0,.55-.1l.48-.12,2-.49c.65-.17,1.31-.3,2-.52l1.9-.66,1.9-.67,1.84-.82,1.84-.83c.6-.31,1.18-.64,1.77-1l1.77-1c.58-.33,1.12-.75,1.7-1.11a31.23,31.23,0,0,0,3.26-2.34,30.79,30.79,0,0,0,3.09-2.6,34.78,34.78,0,0,0,2.86-2.83l1.33-1.45.33-.37.36-.42.62-.79c.79-1.07,1.66-2.1,2.36-3.24l1.1-1.68c.35-.57.68-1.18,1-1.76A40,40,0,0,0,200.48,65,31.67,31.67,0,0,0,202,61.24l.69-1.88c.2-.63.37-1.29.56-2l.53-1.93.4-1.95c.29-1.27.47-2.66.64-4s.21-2.61.32-4,0-2.68,0-4v-.93Z" transform="translate(0 6.96)"/><path class="cls-6" d="M189,41.32c-1.51.61-3.06,1.12-4.58,1.73-1.83.73-3.72,1.25-5.56,1.89s-3.76,1.13-5.64,1.63l-2.83.77-2.86.62c-1.9.44-3.85.89-5.77,1.16l-.57.09a74.14,74.14,0,0,0,.41-9,120.82,120.82,0,0,0,22.05-8.51A14.48,14.48,0,0,0,189,41.32" transform="translate(0 6.96)"/><path class="cls-6" d="M205.55,35a9,9,0,0,1-10.24,3.63,8.49,8.49,0,0,1-2.3-1.09,9.08,9.08,0,0,1-4-8.78,9.06,9.06,0,0,1,14-6.35A9.11,9.11,0,0,1,205.55,35" transform="translate(0 6.96)"/><path class="cls-7" d="M144.43,20.17C142.2,20,140,20,137.73,20a21.18,21.18,0,0,0-3.53-6c-.31-.37-.63-.73-1-1.07a15.24,15.24,0,0,0-6-3.86,12.18,12.18,0,0,0-1.58-.4,11.44,11.44,0,0,0-4.13-.08c-6.7,1.1-11.41,7.86-11.77,16-2.14.68-4.23,1.45-6.31,2.28-.49-12.21,6.66-22.83,17.07-24.54a18.48,18.48,0,0,1,11.64,2,16.5,16.5,0,0,1,1.57.92,23.25,23.25,0,0,1,5.22,4.54c.36.42.72.87,1.06,1.32a28.13,28.13,0,0,1,4.48,9" transform="translate(0 6.96)"/><path class="cls-8" d="M127.18,9.07a49.74,49.74,0,0,1,6.48-3.8,23.08,23.08,0,0,1,5.23,4.54c.36.42.72.87,1.06,1.32A42.23,42.23,0,0,0,134.2,14c-.31-.37-.63-.73-1-1.07a15.24,15.24,0,0,0-6-3.86" transform="translate(0 6.96)"/><g class="cls-9"><g class="cls-10"><g class="cls-11"><g class="cls-12"><polygon class="cls-13" points="159.69 74.91 130.32 118.81 84.05 87.65 113.42 43.75 159.69 74.91"/></g></g></g></g><g class="cls-14"><g class="cls-15"><g class="cls-16"><g class="cls-17"><polygon class="cls-18" points="169.1 37.9 137.07 85.78 80.79 47.88 112.83 0 169.1 37.9"/></g></g></g></g></g><g id="Text"><rect class="cls-7" y="112.41" width="9.07" height="44.47"/><path class="cls-7" d="M68.54,112a7.8,7.8,0,0,0-2.18-3.08,10.61,10.61,0,0,0-3.89-2,27.56,27.56,0,0,0-5.62-1.07,78.21,78.21,0,0,0-8-.34H18.33v44.47H27.4v-16H48c2.2,0,4.06,0,5.55.12a22.68,22.68,0,0,1,3.48.39,4.15,4.15,0,0,1,1.56.57,1.34,1.34,0,0,1,.49.63,5,5,0,0,1,.3,1.62c.05.86.07,1.88.07,3.07v9.61h9.06v-9.61a33.19,33.19,0,0,0-.24-4.2,10.69,10.69,0,0,0-1.13-3.71,7.5,7.5,0,0,0-1.72-2.12A8.46,8.46,0,0,0,67.52,128a11.36,11.36,0,0,0,1.46-4,26.4,26.4,0,0,0,.39-4.8c0-1.36,0-2.61-.09-3.72a11.44,11.44,0,0,0-.74-3.57M27.4,113.71H48.86c2.21,0,4.09,0,5.59.08a24.12,24.12,0,0,1,3.49.32,4.92,4.92,0,0,1,1.62.51.93.93,0,0,1,.41.45,3.93,3.93,0,0,1,.27,1.36c0,.79.07,1.74.07,2.84s0,2.21-.07,3.07a5,5,0,0,1-.3,1.62,1.42,1.42,0,0,1-.49.64,4.42,4.42,0,0,1-1.56.56,22.68,22.68,0,0,1-3.48.39c-1.49.08-3.35.12-5.55.12H27.4Z" transform="translate(0 6.96)"/><rect class="cls-7" x="76.96" y="112.41" width="9.07" height="44.47"/><path class="cls-7" d="M147.27,115.89a13.71,13.71,0,0,0-1.92-4.6,10.77,10.77,0,0,0-3.9-3.41,19,19,0,0,0-5.83-1.85,49.12,49.12,0,0,0-8.12-.57H95.29v44.47H127.5a50.24,50.24,0,0,0,8.12-.57,19.31,19.31,0,0,0,5.83-1.86,10.68,10.68,0,0,0,3.9-3.41,13.66,13.66,0,0,0,1.92-4.59,28.57,28.57,0,0,0,.65-5.46c.06-1.89.09-4,.09-6.35s0-4.45-.09-6.34a30.05,30.05,0,0,0-.65-5.46M127.5,141.67H104.36v-28H127.5c2.17,0,4,.06,5.5.18a12.33,12.33,0,0,1,3.24.62,3,3,0,0,1,1.41,1,5.29,5.29,0,0,1,.83,2.06,22,22,0,0,1,.4,4q.08,2.58.07,6.15c0,2.38,0,4.44-.07,6.15a22,22,0,0,1-.4,4,5.41,5.41,0,0,1-.83,2.07,3,3,0,0,1-1.41,1,11.94,11.94,0,0,1-3.26.62c-1.47.12-3.31.18-5.48.18" transform="translate(0 6.96)"/><rect class="cls-7" x="155.6" y="112.41" width="9.07" height="44.47"/><path class="cls-7" d="M215.94,127.69q0,3.76-.06,6.48a23.71,23.71,0,0,1-.39,4.22,5.84,5.84,0,0,1-.85,2.23,3.19,3.19,0,0,1-1.42,1,11,11,0,0,1-3.21.66c-1.47.13-3.31.19-5.47.19h-11.8c-2.17,0-4-.06-5.48-.19a11.11,11.11,0,0,1-3.21-.66,3.11,3.11,0,0,1-1.41-1,6,6,0,0,1-.83-2.22,25.08,25.08,0,0,1-.39-4.25c0-1.81-.07-4-.07-6.47V105.46h-9.07v22.23q0,3.62.08,6.58a30.65,30.65,0,0,0,.64,5.67,14.37,14.37,0,0,0,1.9,4.74,10.72,10.72,0,0,0,3.87,3.55,18.71,18.71,0,0,0,5.84,1.94,46.84,46.84,0,0,0,8.13.6h11.81a46.92,46.92,0,0,0,8.13-.6,18.39,18.39,0,0,0,5.83-1.94,10.59,10.59,0,0,0,3.87-3.56,14.51,14.51,0,0,0,1.88-4.73,31.37,31.37,0,0,0,.65-5.66c.06-2,.09-4.18.09-6.59V105.46h-9.09Z" transform="translate(0 6.96)"/><polygon class="cls-7" points="288.6 112.41 266.18 146.16 243.79 112.41 232.59 112.41 232.59 156.88 241.66 156.88 241.66 124.55 262.85 156.88 270.11 156.88 290.93 125.11 290.93 156.88 300 156.88 300 112.41 288.6 112.41"/><path class="cls-6" d="M44.83,180.57V162.38H60a11.11,11.11,0,0,1,2.73.28,3.6,3.6,0,0,1,1.6.82,2.59,2.59,0,0,1,.75,1.34,7.91,7.91,0,0,1,.19,1.85A6,6,0,0,1,65.1,168a4.27,4.27,0,0,1-.34,1,2.94,2.94,0,0,1-.48.71,2.7,2.7,0,0,1-.56.48,3,3,0,0,1-1.51.51,4.28,4.28,0,0,1,1.89.52,3.61,3.61,0,0,1,.69.51,3.18,3.18,0,0,1,.6.74,4.11,4.11,0,0,1,.43,1,5.21,5.21,0,0,1,.17,1.38,15.53,15.53,0,0,1-.09,1.74,5,5,0,0,1-.36,1.41,3.16,3.16,0,0,1-.78,1.1,4,4,0,0,1-1.35.79,9.08,9.08,0,0,1-2.07.47,24.25,24.25,0,0,1-2.92.15ZM57.67,170c.77,0,1.43,0,2,0a11.3,11.3,0,0,0,1.43-.18,3.32,3.32,0,0,0,1-.36,1.81,1.81,0,0,0,.57-.6,2.53,2.53,0,0,0,.28-.88,10.77,10.77,0,0,0,.07-1.23,3.75,3.75,0,0,0-.17-1.23,1.34,1.34,0,0,0-.59-.73,3,3,0,0,0-1.15-.35,18.42,18.42,0,0,0-1.86-.08H47.1V170Zm0,8.72c.88,0,1.64,0,2.29,0a11.23,11.23,0,0,0,1.64-.18,3.22,3.22,0,0,0,1.08-.39,1.84,1.84,0,0,0,.65-.68,3.14,3.14,0,0,0,.31-1,12,12,0,0,0,.08-1.46,7.58,7.58,0,0,0-.08-1.15,2.15,2.15,0,0,0-.31-.83,1.68,1.68,0,0,0-.65-.55,4.37,4.37,0,0,0-1.08-.32A13.19,13.19,0,0,0,60,171.9c-.65,0-1.41,0-2.29,0H47.1v6.82Z" transform="translate(0 6.96)"/><path class="cls-6" d="M95.38,180.57H93.11v-3.41c0-.55,0-1,0-1.42a3.09,3.09,0,0,0-.2-1,1.52,1.52,0,0,0-.54-.69,2.93,2.93,0,0,0-1-.4,11.05,11.05,0,0,0-1.7-.19c-.69,0-1.54-.06-2.54-.06H76.87v7.2H74.6V162.38H87.43a34.17,34.17,0,0,1,3.5.15,12.68,12.68,0,0,1,2.35.44,4.05,4.05,0,0,1,1.43.74,2.56,2.56,0,0,1,.73,1,3.92,3.92,0,0,1,.27,1.32c0,.49.05,1,.05,1.63a11.53,11.53,0,0,1-.16,2,4.33,4.33,0,0,1-.54,1.47,2.82,2.82,0,0,1-1,1,4.34,4.34,0,0,1-1.56.5,4.06,4.06,0,0,1,1.51.5,2.5,2.5,0,0,1,.87.93,3.7,3.7,0,0,1,.41,1.35,15.41,15.41,0,0,1,.1,1.77v3.41Zm-18.51-9.09H87.43q1.51,0,2.55-.06a11.36,11.36,0,0,0,1.7-.19,2.75,2.75,0,0,0,1-.4,1.54,1.54,0,0,0,.54-.69,3.3,3.3,0,0,0,.2-1c0-.4,0-.88,0-1.43s0-1,0-1.33a2.67,2.67,0,0,0-.2-.93,1.28,1.28,0,0,0-.54-.61,3.22,3.22,0,0,0-1-.35,13.51,13.51,0,0,0-1.7-.16q-1,0-2.55,0H76.87Z" transform="translate(0 6.96)"/><path class="cls-6" d="M118.73,162a20.31,20.31,0,0,1,3.51.26,7.47,7.47,0,0,1,2.34.77,3.89,3.89,0,0,1,1.42,1.3,5.56,5.56,0,0,1,.72,1.83,12.79,12.79,0,0,1,.27,2.38c0,.89,0,1.87,0,2.94s0,2.05,0,2.94a12.79,12.79,0,0,1-.27,2.38,5.79,5.79,0,0,1-.72,1.83,3.81,3.81,0,0,1-1.42,1.3,7.47,7.47,0,0,1-2.34.77,20.31,20.31,0,0,1-3.51.26h-6.82a20.26,20.26,0,0,1-3.5-.26,7.3,7.3,0,0,1-2.34-.77,3.74,3.74,0,0,1-1.42-1.3,5.58,5.58,0,0,1-.74-1.83,12.84,12.84,0,0,1-.26-2.38c0-.89,0-1.86,0-2.94s0-2,0-2.94a12.84,12.84,0,0,1,.26-2.38,5.58,5.58,0,0,1,.74-1.83,3.82,3.82,0,0,1,1.42-1.3,7.55,7.55,0,0,1,2.34-.77,20.26,20.26,0,0,1,3.5-.26Zm0,17.06c1,0,1.85,0,2.54-.09a6,6,0,0,0,1.7-.36,2.26,2.26,0,0,0,1-.78,3.35,3.35,0,0,0,.53-1.35,12.5,12.5,0,0,0,.2-2.07c0-.81,0-1.79,0-2.93s0-2.11,0-2.93a12.5,12.5,0,0,0-.2-2.07,3.5,3.5,0,0,0-.53-1.35,2.28,2.28,0,0,0-1-.78,6,6,0,0,0-1.7-.36q-1-.09-2.55-.09h-6.82c-1,0-1.85,0-2.54.09a6.08,6.08,0,0,0-1.71.36,2.32,2.32,0,0,0-1,.78,3.5,3.5,0,0,0-.53,1.35,12.62,12.62,0,0,0-.19,2.07c0,.82,0,1.79,0,2.93s0,2.11,0,2.93a12.62,12.62,0,0,0,.19,2.07,3.5,3.5,0,0,0,.53,1.35,2.23,2.23,0,0,0,1,.78,6.08,6.08,0,0,0,1.71.36c.69.06,1.53.09,2.54.09Z" transform="translate(0 6.96)"/><polygon class="cls-6" points="152.08 169.34 154.71 169.34 162.09 185.66 169.27 169.34 171.63 169.34 163.6 187.53 160.58 187.53 153.4 171.63 146.23 187.53 143.02 187.53 134.13 169.34 136.77 169.34 144.71 185.64 152.08 169.34"/><path class="cls-6" d="M191.19,170.34a26.61,26.61,0,0,1,3.2.16,11.42,11.42,0,0,1,2.25.45,4.63,4.63,0,0,1,1.46.76,3.29,3.29,0,0,1,.84,1,4,4,0,0,1,.38,1.29,12.45,12.45,0,0,1,.09,1.55,7.69,7.69,0,0,1-.15,1.55,3.8,3.8,0,0,1-.52,1.32,4,4,0,0,1-1,1.08,6,6,0,0,1-1.65.8,12.39,12.39,0,0,1-2.41.5,28.82,28.82,0,0,1-3.3.17h-3a28.72,28.72,0,0,1-3-.13,12.81,12.81,0,0,1-2.2-.4,5.23,5.23,0,0,1-1.52-.67,3.37,3.37,0,0,1-1-1,3.51,3.51,0,0,1-.5-1.26A7.48,7.48,0,0,1,179,176h2.27a3.75,3.75,0,0,0,.31,1.69,1.91,1.91,0,0,0,1,.92,5.88,5.88,0,0,0,1.86.39c.77.05,1.72.07,2.85.07h3a23,23,0,0,0,3.29-.19,6.52,6.52,0,0,0,2.09-.6,2.52,2.52,0,0,0,1.1-1.09,3.88,3.88,0,0,0,.32-1.65,5.14,5.14,0,0,0-.22-1.6,1.88,1.88,0,0,0-.86-1,4.92,4.92,0,0,0-1.82-.54,22.65,22.65,0,0,0-3.05-.16h-3.12c-1.39,0-2.57-.06-3.56-.16a14.36,14.36,0,0,1-2.48-.44,5.38,5.38,0,0,1-1.61-.72,3.18,3.18,0,0,1-.92-1,3.61,3.61,0,0,1-.4-1.24,9.7,9.7,0,0,1-.1-1.47,7.38,7.38,0,0,1,.15-1.54,3.39,3.39,0,0,1,.55-1.29,3.88,3.88,0,0,1,1.1-1,6.38,6.38,0,0,1,1.79-.75,14.66,14.66,0,0,1,2.62-.46c1-.1,2.23-.15,3.62-.15h2.26c1.14,0,2.13,0,3,.12a11.7,11.7,0,0,1,2.19.39,5.76,5.76,0,0,1,1.53.66,3.26,3.26,0,0,1,1,.95,3.53,3.53,0,0,1,.5,1.25,7.44,7.44,0,0,1,.14,1.55h-2.26a3.66,3.66,0,0,0-.31-1.67,1.94,1.94,0,0,0-1-.9A5.78,5.78,0,0,0,194,164c-.77,0-1.72-.08-2.86-.08h-2.26a34.75,34.75,0,0,0-3.74.16,8.19,8.19,0,0,0-2.31.54,2.28,2.28,0,0,0-1.18,1,3.48,3.48,0,0,0-.33,1.6,6.6,6.6,0,0,0,.08,1.05,2,2,0,0,0,.34.81,2,2,0,0,0,.71.59,4.73,4.73,0,0,0,1.22.39,13.25,13.25,0,0,0,1.85.22c.72,0,1.59.07,2.6.07h3.11Z" transform="translate(0 6.96)"/><polygon class="cls-6" points="208.02 187.53 208.02 169.34 226.16 169.34 226.16 171.23 210.29 171.23 210.29 177.3 225.4 177.3 225.4 179.19 210.29 179.19 210.29 185.64 226.16 185.64 226.16 187.53 208.02 187.53"/><path class="cls-6" d="M254.79,180.57h-2.27v-3.41c0-.55,0-1,0-1.42a3.09,3.09,0,0,0-.2-1,1.57,1.57,0,0,0-.53-.69,3,3,0,0,0-1-.4,11.35,11.35,0,0,0-1.71-.19c-.69,0-1.54-.06-2.54-.06H236.28v7.2H234V162.38h12.84a34.31,34.31,0,0,1,3.5.15,12.68,12.68,0,0,1,2.35.44,4.14,4.14,0,0,1,1.43.74,2.66,2.66,0,0,1,.73,1,4.48,4.48,0,0,1,.27,1.32c0,.49,0,1,0,1.63a10.61,10.61,0,0,1-.16,2,4.33,4.33,0,0,1-.54,1.47,2.79,2.79,0,0,1-1,1,4.4,4.4,0,0,1-1.57.5,4,4,0,0,1,1.51.5,2.53,2.53,0,0,1,.88.93,3.7,3.7,0,0,1,.4,1.35,13.44,13.44,0,0,1,.1,1.77v3.41Zm-18.51-9.09h10.57c1,0,1.85,0,2.54-.06a11.35,11.35,0,0,0,1.71-.19,2.77,2.77,0,0,0,1-.4,1.47,1.47,0,0,0,.54-.69,3,3,0,0,0,.2-1c0-.4,0-.88,0-1.43s0-1,0-1.33a2.46,2.46,0,0,0-.2-.93,1.28,1.28,0,0,0-.54-.61,3.23,3.23,0,0,0-1-.35,13.5,13.5,0,0,0-1.71-.16c-.69,0-1.54,0-2.54,0H236.28Z" transform="translate(0 6.96)"/></g></svg>