<svg id="Layer_1" data-name="Layer 1" xmlns="http://www.w3.org/2000/svg" xmlns:xlink="http://www.w3.org/1999/xlink" viewBox="0 0 221.3 207.54"><defs><style>.cls-1{clip-path:url(#clip-path);}.cls-2{fill:none;}.cls-3{fill:url(#linear-gradient);}.cls-4{clip-path:url(#clip-path-2);}.cls-5{fill:url(#linear-gradient-2);}.cls-6{fill:#4499d4;}.cls-7{fill:#515050;}.cls-8{opacity:0.21;}.cls-9{clip-path:url(#clip-path-3);}.cls-10{clip-path:url(#clip-path-4);}.cls-11{mask:url(#mask);}.cls-12{fill:url(#linear-gradient-3);}.cls-13{opacity:0.25;}.cls-14{clip-path:url(#clip-path-5);}.cls-15{clip-path:url(#clip-path-6);}.cls-16{mask:url(#mask-2);}.cls-17{fill:url(#linear-gradient-4);}</style><clipPath id="clip-path"><path class="cls-2" d="M89.81,141.88,88.15,144c-.25.29-.47.59-.72.87s-.61.75-.92,1.13a124.57,124.57,0,0,1-11.89,12.46c-.24.21-.49.45-.73.67l-.31.28a122.45,122.45,0,0,1-47.43-35.85C24.71,121.8,23.32,120,22,118A118.06,118.06,0,0,1,11.6,100.68h.3a1.4,1.4,0,0,0,.34.08c11.42,12.88,38.48,39.63,77.57,41.11"/></clipPath><linearGradient id="linear-gradient" x1="-297.05" y1="-422.52" x2="-295.77" y2="-422.52" gradientTransform="matrix(-18.75, 27.93, -27.93, -18.75, -17297.09, 471.01)" gradientUnits="userSpaceOnUse"><stop offset="0"/><stop offset="0.16" stop-color="#030303"/><stop offset="0.29" stop-color="#0d0d0d"/><stop offset="0.41" stop-color="#1e1e1e"/><stop offset="0.52" stop-color="#363636"/><stop offset="0.63" stop-color="#555"/><stop offset="0.74" stop-color="#7b7b7b"/><stop offset="0.84" stop-color="#a7a7a7"/><stop offset="0.94" stop-color="#dadada"/><stop offset="1" stop-color="#fff"/></linearGradient><clipPath id="clip-path-2"><path class="cls-2" d="M112.19,43.56C108.08,44.71,57,44.34,5.58,86A124.66,124.66,0,0,1,0,61.18,166.19,166.19,0,0,1,19.1,52c3.65-1.44,7.3-2.77,11.06-4,.64-.21,1.3-.41,2-.6,1.15-.37,2.29-.7,3.45-1a160.18,160.18,0,0,1,16.28-3.78c.31-.07.62-.11.94-.17.83-.14,1.68-.29,2.51-.41a166,166,0,0,1,24-2c3.9,0,7.82,0,11.72.27a163.94,163.94,0,0,1,21,2.56c0,.22.09.47.16.7"/></clipPath><linearGradient id="linear-gradient-2" x1="-295.85" y1="-421" x2="-294.57" y2="-421" gradientTransform="matrix(-69.19, 103.07, -103.07, -69.19, -63719.27, 1300.41)" xlink:href="#linear-gradient"/><clipPath id="clip-path-3" transform="translate(21.3 11.93)"><rect class="cls-2" x="11.6" y="100.68" width="78.21" height="58.75"/></clipPath><clipPath id="clip-path-4" transform="translate(21.3 11.93)"><path class="cls-2" d="M89.81,141.88,88.15,144c-.25.29-.47.59-.72.87s-.61.75-.92,1.13a124.57,124.57,0,0,1-11.89,12.46c-.24.21-.49.45-.73.67l-.31.28a122.45,122.45,0,0,1-47.43-35.85C24.71,121.8,23.32,120,22,118A118.06,118.06,0,0,1,11.6,100.68h.3a1.4,1.4,0,0,0,.34.08c11.42,12.88,38.48,39.63,77.57,41.11"/></clipPath><mask id="mask" x="5.71" y="76.44" width="132.57" height="131.1" maskUnits="userSpaceOnUse"><g transform="translate(21.3 11.93)"><g id="SVGID"><g class="cls-1"><polygon class="cls-3" points="116.98 118.93 65.51 195.61 -15.59 141.18 35.89 64.5 116.98 118.93"/></g></g></g></mask><linearGradient id="linear-gradient-3" x1="-297.05" y1="-422.52" x2="-295.77" y2="-422.52" gradientTransform="matrix(-18.75, 27.93, -27.93, -18.75, -17275.79, 482.94)" gradientUnits="userSpaceOnUse"><stop offset="0" stop-color="#fdffff"/><stop offset="0.91" stop-color="#fdffff"/><stop offset="1" stop-color="#fdffff"/></linearGradient><clipPath id="clip-path-5" transform="translate(21.3 11.93)"><rect class="cls-2" y="40.02" width="112.19" height="45.98"/></clipPath><clipPath id="clip-path-6" transform="translate(21.3 11.93)"><path class="cls-2" d="M112.19,43.56C108.08,44.71,57,44.34,5.58,86A124.66,124.66,0,0,1,0,61.18,166.19,166.19,0,0,1,19.1,52c3.65-1.44,7.3-2.77,11.06-4,.64-.21,1.3-.41,2-.6,1.15-.37,2.29-.7,3.45-1a160.18,160.18,0,0,1,16.28-3.78c.31-.07.62-.11.94-.17.83-.14,1.68-.29,2.51-.41a166,166,0,0,1,24-2c3.9,0,7.82,0,11.72.27a163.94,163.94,0,0,1,21,2.56c0,.22.09.47.16.7"/></clipPath><mask id="mask-2" x="0" y="0" width="154.78" height="149.84" maskUnits="userSpaceOnUse"><g transform="translate(21.3 11.93)"><g id="SVGID-2" data-name="SVGID"><g class="cls-4"><polygon class="cls-5" points="133.48 54.28 77.34 137.91 -21.3 71.7 34.85 -11.93 133.48 54.28"/></g></g></g></mask><linearGradient id="linear-gradient-4" x1="-295.85" y1="-421" x2="-294.57" y2="-421" gradientTransform="matrix(-69.19, 103.07, -103.07, -69.19, -63697.98, 1312.34)" xlink:href="#linear-gradient-3"/></defs><title>iridium-icon</title><path class="cls-6" d="M114.38,60.33c0-.61-.09-1.25-.13-1.85-.35-4.51-.93-8.7-1.59-12.48-.13-.58-.23-1.16-.33-1.71,0-.25-.1-.48-.14-.73s-.11-.48-.16-.7A166,166,0,0,0,91,40.3c-3.9-.24-7.82-.31-11.73-.27a166,166,0,0,0-24,2c-.83.12-1.68.27-2.51.41-.32.06-.64.1-.94.17a159.56,159.56,0,0,0-16.28,3.78c-1.16.32-2.31.65-3.46,1-.65.19-1.32.39-1.95.6-3.76,1.21-7.42,2.54-11.06,4A166.19,166.19,0,0,0,0,61.18,124.66,124.66,0,0,0,5.58,86a119.86,119.86,0,0,0,6,14.63s0,0,0,.05A118.41,118.41,0,0,0,22,118c1.37,1.92,2.76,3.76,4.2,5.54a122.45,122.45,0,0,0,47.43,35.85l.31-.28c.24-.23.49-.46.73-.67A123.49,123.49,0,0,0,86.51,146c.31-.37.62-.74.92-1.13s.47-.58.72-.87c.54-.7,1.11-1.41,1.66-2.13a124.26,124.26,0,0,0,12.65-20.62c.28-.57.54-1.11.8-1.67a119.94,119.94,0,0,0,5.44-13.83l.55-1.68a1.39,1.39,0,0,1,.1-.31h0a120,120,0,0,0,3.38-14.06c0-.27.1-.55.15-.79.11-.63.21-1.24.29-1.85a120.16,120.16,0,0,0,1.37-13.36c0-.65,0-1.27,0-1.91a107.94,107.94,0,0,0-.19-11.47m-61,28.14a6.69,6.69,0,0,1-.52-1.29,6.9,6.9,0,0,1-.3-1.27,9,9,0,0,1,.12-3.59,6.77,6.77,0,0,1,.56-1.56,9,9,0,0,1,16.51.54A9.43,9.43,0,0,1,70.15,83a8.76,8.76,0,0,1-1,5.8,9.14,9.14,0,0,1-.94,1.36,10.62,10.62,0,0,1-1.52,1.48l2.37,6.45,2.33,6.3-13.25,0,.21-5L58.53,93a8.92,8.92,0,0,1-5.19-4.49Z" transform="translate(21.3 11.93)"/><path class="cls-7" d="M79.56,6.17a86.6,86.6,0,0,1,86.27,13.58l-.4.2-13.68,6.59a72.79,72.79,0,0,0-55.09-11c-1.77.34-3.52.76-5.24,1.24A57.87,57.87,0,0,0,79.56,6.17" transform="translate(21.3 11.93)"/><path class="cls-7" d="M175.71,29.87c-.41.29-.83.57-1.26.86-1.21.79-2.42,1.66-3.68,2.45s-2.58,1.59-3.89,2.41c-.86.52-1.72,1.06-2.62,1.58-1.83,1.08-3.71,2.13-5.63,3.23-1.42.81-2.89,1.51-4.37,2.33s-3,1.57-4.5,2.27c-6.08,3-12.56,5.77-19.29,8.33-3.61,1.33-7.3,2.6-11,3.77-.49-4.26-1.16-8.13-1.87-11.57l-.41-1.94c3.27-.58,6.54-1.24,9.76-2,6.6-1.57,13-3.33,19.21-5.4,1.55-.49,3.05-1.1,4.56-1.59s3-1.07,4.47-1.66c1.09-.46,2.2-.92,3.27-1.35,1.79-.7,3.5-1.42,5.2-2.2,1.36-.62,2.7-1.23,4-1.81l3.88-1.92a.91.91,0,0,0,.2-.1c.79.79,1.56,1.61,2.3,2.4.57.61,1.13,1.22,1.66,1.88" transform="translate(21.3 11.93)"/><path class="cls-7" d="M195.14,72c-1.27.67-2.55,1.38-3.79,2.06s-2.45,1.32-3.7,1.89L180,79.56l-15.4,7.26-3.83,1.81c-1.25.59-2.62,1.08-3.9,1.59-2.63,1-5.19,2.17-7.88,3.11l-8,2.82c-2.65.93-5.39,1.61-8.13,2.35l-8.22,2.18c-2.63.66-5.15,1.45-7.8,1.91-.6,2.55-1.29,5.11-2.11,7.73-1,3.2-2.05,6.26-3.19,9.22.16-.49,33.41,5,66.8-23.64.91,5.91-9.22,20.17-12.93,24.71-16.83,20.71-42.12,28.78-68.11,25.65a132.94,132.94,0,0,1-12.31,15.17c.23.09.44.13.67.21l3.28.9c2.31.54,4.66.84,7,1.24a45.39,45.39,0,0,0,7,.73,50.67,50.67,0,0,0,7.08.2l7.16-.32,6.84-1,1.7-.25c.35-.07.47-.05,1-.17l.86-.21,3.43-.86c1.13-.3,2.29-.54,3.43-.91l3.33-1.16,3.32-1.16,3.23-1.45,3.22-1.44c1.05-.54,2.07-1.12,3.11-1.69l3.1-1.68c1-.57,2-1.31,3-1.93a53.28,53.28,0,0,0,5.73-4.09,58.66,58.66,0,0,0,5.41-4.55,58.38,58.38,0,0,0,5-4.94l2.34-2.54.57-.65.64-.71c.35-.46.72-.93,1.08-1.38,1.38-1.88,2.92-3.68,4.13-5.67l1.94-2.94c.61-1,1.19-2,1.77-3.07,1.24-2,2.22-4.13,3.21-6.2a58.53,58.53,0,0,0,2.7-6.52l1.2-3.29c.35-1.1.64-2.25,1-3.39l.94-3.38.7-3.41c.51-2.22.81-4.65,1.11-7s.37-4.56.57-7,0-4.68-.06-7V71.19Z" transform="translate(21.3 11.93)"/><path class="cls-6" d="M168.35,72.41c-2.64,1-5.36,2-8,3-3.2,1.28-6.51,2.18-9.74,3.28s-6.61,2-9.89,2.85l-4.95,1.35-5,1.09c-3.34.77-6.74,1.55-10.12,2l-1,.17a128.45,128.45,0,0,0,.71-15.71A213.16,213.16,0,0,0,159,55.63a25.29,25.29,0,0,0,9.37,16.78" transform="translate(21.3 11.93)"/><path class="cls-6" d="M197.36,61.3a15.89,15.89,0,0,1-18,6.35,14.64,14.64,0,0,1-4-1.91,15.82,15.82,0,0,1-6.95-15.34,15.54,15.54,0,0,1,2.49-6.65A15.87,15.87,0,0,1,197.36,61.3" transform="translate(21.3 11.93)"/><path class="cls-7" d="M90.23,35.44c-3.9-.21-7.82-.3-11.73-.24a36.86,36.86,0,0,0-6.2-10.52,25,25,0,0,0-1.69-1.87A26.66,26.66,0,0,0,60,16.07a21.66,21.66,0,0,0-2.77-.72A20.63,20.63,0,0,0,50,15.23C38.26,17.15,30,29,29.37,43.23c-3.76,1.19-7.41,2.53-11.07,4C17.45,25.88,30,7.32,48.23,4.35a32.62,32.62,0,0,1,20.4,3.46c.93.49,1.86,1,2.74,1.61a41.05,41.05,0,0,1,9.16,7.94c.63.74,1.25,1.51,1.86,2.32a48.82,48.82,0,0,1,7.84,15.76" transform="translate(21.3 11.93)"/><g class="cls-8"><g class="cls-9"><g class="cls-10"><g class="cls-11"><polygon class="cls-12" points="138.28 130.86 86.81 207.54 5.71 153.11 57.18 76.44 138.28 130.86"/></g></g></g></g><g class="cls-13"><g class="cls-14"><g class="cls-15"><g class="cls-16"><polygon class="cls-17" points="154.78 66.21 98.63 149.84 0 83.63 56.15 0 154.78 66.21"/></g></g></g></g></svg>