<svg id="Layer_1" data-name="Layer 1" xmlns="http://www.w3.org/2000/svg" xmlns:xlink="http://www.w3.org/1999/xlink" viewBox="0 0 263.99 30"><defs><style>.cls-1{fill:#4598d3;}.cls-2{fill:#535251;}.cls-3{fill:#525150;}.cls-4{opacity:0.21;fill:url(#linear-gradient);}.cls-4,.cls-5{isolation:isolate;}.cls-5{opacity:0.25;fill:url(#linear-gradient-2);}</style><linearGradient id="linear-gradient" x1="26.16" y1="-8.83" x2="8.36" y2="10.15" gradientTransform="matrix(1, 0, 0, -1, 0, 32)" gradientUnits="userSpaceOnUse"><stop offset="0" stop-color="#fdfdff" stop-opacity="0"/><stop offset="0.91" stop-color="#fdfdff" stop-opacity="0.91"/><stop offset="1" stop-color="#fdfdff"/></linearGradient><linearGradient id="linear-gradient-2" x1="22.25" y1="8" x2="8.92" y2="22.22" xlink:href="#linear-gradient"/></defs><title>iridium-header-large</title><g id="text"><g id="Text-2" data-name="Text"><path class="cls-1" d="M133.62,21.23V8.47h10.64a7.66,7.66,0,0,1,1.93.2,2.55,2.55,0,0,1,1.13.57,1.93,1.93,0,0,1,.52.95,5.48,5.48,0,0,1,.14,1.29,4.35,4.35,0,0,1-.09.94,3.66,3.66,0,0,1-.25.71,2.09,2.09,0,0,1-.34.5,1.76,1.76,0,0,1-.39.34,2,2,0,0,1-1.06.35,3,3,0,0,1,1.33.37,2.55,2.55,0,0,1,.48.35,2,2,0,0,1,.42.52,2.94,2.94,0,0,1,.31.74,3.52,3.52,0,0,1,.11,1,11.32,11.32,0,0,1-.06,1.22,3.27,3.27,0,0,1-.25,1,2.22,2.22,0,0,1-.55.77,2.81,2.81,0,0,1-.95.56,6.94,6.94,0,0,1-1.46.32,15.15,15.15,0,0,1-2,.11Zm9-7.44c.54,0,1,0,1.4,0a7.8,7.8,0,0,0,1-.12,2.34,2.34,0,0,0,.67-.26,1.27,1.27,0,0,0,.41-.42,2.06,2.06,0,0,0,.19-.62,6.87,6.87,0,0,0,0-.86,2.58,2.58,0,0,0-.12-.86,1,1,0,0,0-.41-.51,2,2,0,0,0-.81-.24,11.33,11.33,0,0,0-1.31-.07h-8.52v4Zm0,6.11c.62,0,1.16,0,1.61,0a8,8,0,0,0,1.15-.13,2.31,2.31,0,0,0,.77-.27,1.22,1.22,0,0,0,.45-.48,1.8,1.8,0,0,0,.22-.72,7.36,7.36,0,0,0,.06-1,4.79,4.79,0,0,0-.06-.81,1.26,1.26,0,0,0-.22-.58,1.06,1.06,0,0,0-.45-.38,2.52,2.52,0,0,0-.77-.23,8.32,8.32,0,0,0-1.15-.11c-.45,0-1,0-1.61,0h-7.44V19.9Z" transform="translate(0 0)"/><path class="cls-1" d="M166.25,21.23h-1.6V18.84c0-.39,0-.72,0-1a2.14,2.14,0,0,0-.14-.72,1.06,1.06,0,0,0-.38-.48,1.85,1.85,0,0,0-.73-.28,9.5,9.5,0,0,0-1.2-.14c-.48,0-1.08,0-1.79,0h-7.16v5.06h-1.6V8.47h9a24.07,24.07,0,0,1,2.46.11,8.25,8.25,0,0,1,1.65.31,2.8,2.8,0,0,1,1,.52,1.73,1.73,0,0,1,.51.72,3,3,0,0,1,.19.93q0,.51,0,1.14a8.2,8.2,0,0,1-.11,1.4,2.74,2.74,0,0,1-.38,1,2,2,0,0,1-.7.68,3.09,3.09,0,0,1-1.11.35,3.05,3.05,0,0,1,1.07.35,1.8,1.8,0,0,1,.61.65,2.65,2.65,0,0,1,.29,1,11.25,11.25,0,0,1,.07,1.24v2.4h0Zm-13-6.38h7.43c.71,0,1.31,0,1.79,0a8,8,0,0,0,1.2-.14,2,2,0,0,0,.73-.28,1.09,1.09,0,0,0,.38-.49,2,2,0,0,0,.14-.71c0-.28,0-.62,0-1s0-.67,0-.92a1.75,1.75,0,0,0-.14-.66.86.86,0,0,0-.38-.42,2.06,2.06,0,0,0-.73-.25,8.51,8.51,0,0,0-1.2-.11c-.48,0-1.08,0-1.79,0h-7.43Z" transform="translate(0 0)"/><path class="cls-1" d="M179.75,8.21a14.24,14.24,0,0,1,2.46.18,5.32,5.32,0,0,1,1.65.54,2.65,2.65,0,0,1,1,.91,3.75,3.75,0,0,1,.52,1.29,8.92,8.92,0,0,1,.19,1.66c0,.62,0,1.31,0,2.06s0,1.44,0,2.06a9,9,0,0,1-.19,1.67,3.75,3.75,0,0,1-.52,1.29,2.65,2.65,0,0,1-1,.91,5.42,5.42,0,0,1-1.65.54,14.24,14.24,0,0,1-2.46.18h-4.81a14.24,14.24,0,0,1-2.46-.18,5.32,5.32,0,0,1-1.65-.54,2.76,2.76,0,0,1-1-.91,3.75,3.75,0,0,1-.51-1.29,9,9,0,0,1-.19-1.67c0-.62,0-1.3,0-2.06s0-1.43,0-2.06a8.15,8.15,0,0,1,.19-1.66,3.75,3.75,0,0,1,.51-1.29,2.76,2.76,0,0,1,1-.91,5.42,5.42,0,0,1,1.65-.54,14.24,14.24,0,0,1,2.46-.18Zm0,12c.7,0,1.29,0,1.78-.06a4.42,4.42,0,0,0,1.2-.25,1.72,1.72,0,0,0,.73-.55,2.52,2.52,0,0,0,.38-.95,9.26,9.26,0,0,0,.13-1.45c0-.57,0-1.26,0-2.05s0-1.49,0-2.06a9.26,9.26,0,0,0-.13-1.45,2.52,2.52,0,0,0-.38-.95,1.6,1.6,0,0,0-.72-.54,4.12,4.12,0,0,0-1.2-.26c-.49,0-1.08-.06-1.79-.06h-4.81c-.7,0-1.3,0-1.78.06a4,4,0,0,0-1.2.26,1.66,1.66,0,0,0-.74.54,2.52,2.52,0,0,0-.37.95,8.19,8.19,0,0,0-.13,1.45c0,.57,0,1.26,0,2.06s0,1.48,0,2.05a8.09,8.09,0,0,0,.14,1.45,2.45,2.45,0,0,0,.37.95,1.66,1.66,0,0,0,.73.55,4.33,4.33,0,0,0,1.2.25c.48,0,1.08.06,1.78.06Z" transform="translate(0 0)"/><path class="cls-1" d="M200.27,8.47h1.86l5.19,11.45,5.05-11.45H214l-5.65,12.76h-2.13L201.2,10.08l-5,11.15h-2.26L187.64,8.47h1.86l5.58,11.43Z" transform="translate(0 0)"/><path class="cls-1" d="M224.86,14.06a20.34,20.34,0,0,1,2.25.11,7.81,7.81,0,0,1,1.58.32,3.1,3.1,0,0,1,1,.53,2.37,2.37,0,0,1,.59.72,2.62,2.62,0,0,1,.27.9,9.3,9.3,0,0,1,.06,1.09,5.29,5.29,0,0,1-.1,1.08,2.64,2.64,0,0,1-1.09,1.69,4.25,4.25,0,0,1-1.17.56,9.12,9.12,0,0,1-1.7.36,19.52,19.52,0,0,1-2.32.12h-2.12a18.47,18.47,0,0,1-2.1-.1,9.18,9.18,0,0,1-1.54-.27,4,4,0,0,1-1.07-.48,2.29,2.29,0,0,1-.68-.67,2.36,2.36,0,0,1-.35-.88,5.22,5.22,0,0,1-.11-1.09h1.6a2.56,2.56,0,0,0,.22,1.18,1.34,1.34,0,0,0,.71.65,4.23,4.23,0,0,0,1.31.27q.81.06,2,.06h2.12a16.25,16.25,0,0,0,2.32-.14,4.79,4.79,0,0,0,1.47-.42,1.69,1.69,0,0,0,.77-.77,2.65,2.65,0,0,0,.23-1.15,3.64,3.64,0,0,0-.15-1.13,1.37,1.37,0,0,0-.61-.72A3.35,3.35,0,0,0,227,15.5a15.78,15.78,0,0,0-2.15-.11h-2.2c-1,0-1.8,0-2.5-.11a10.74,10.74,0,0,1-1.75-.31,4,4,0,0,1-1.13-.51,2.08,2.08,0,0,1-.64-.69,2.48,2.48,0,0,1-.29-.87,8.33,8.33,0,0,1-.06-1,5.35,5.35,0,0,1,.1-1.08,2.4,2.4,0,0,1,.38-.9,2.87,2.87,0,0,1,.78-.72,4.39,4.39,0,0,1,1.26-.52,10.06,10.06,0,0,1,1.85-.32,23.51,23.51,0,0,1,2.54-.11h1.59q1.2,0,2.1.09a9.18,9.18,0,0,1,1.54.27,3.89,3.89,0,0,1,1.08.46,2.41,2.41,0,0,1,.68.67,2.55,2.55,0,0,1,.36.88,6,6,0,0,1,.1,1.09h-1.6a2.56,2.56,0,0,0-.22-1.18,1.34,1.34,0,0,0-.71-.63,4.23,4.23,0,0,0-1.31-.27c-.55,0-1.22-.05-2-.05H223.2a24,24,0,0,0-2.63.11A5.68,5.68,0,0,0,219,10a1.56,1.56,0,0,0-.83.71,2.35,2.35,0,0,0-.24,1.12,4,4,0,0,0,.06.74,1.33,1.33,0,0,0,.24.57,1.36,1.36,0,0,0,.5.41,3.33,3.33,0,0,0,.86.28,9.56,9.56,0,0,0,1.3.15c.51,0,1.12.05,1.83.05Z" transform="translate(0 0)"/><path class="cls-1" d="M233.76,21.23V8.47h12.76V9.8H235.36v4.26H246v1.33H235.36v4.52h11.16v1.32Z" transform="translate(0 0)"/><path class="cls-1" d="M263.73,21.23h-1.59V18.84c0-.39,0-.72,0-1a2.41,2.41,0,0,0-.15-.72,1,1,0,0,0-.38-.48,1.85,1.85,0,0,0-.73-.28,9.54,9.54,0,0,0-1.19-.14c-.49,0-1.09,0-1.79,0h-7.17v5.06h-1.6V8.47h9a23.79,23.79,0,0,1,2.46.11,8.25,8.25,0,0,1,1.65.31,2.8,2.8,0,0,1,1,.52,1.85,1.85,0,0,1,.52.72,3.26,3.26,0,0,1,.19.93c0,.34,0,.72,0,1.14a7.29,7.29,0,0,1-.11,1.4,2.74,2.74,0,0,1-.38,1,2,2,0,0,1-.7.68,3,3,0,0,1-1.11.35,3,3,0,0,1,1.07.35,1.8,1.8,0,0,1,.61.65,2.65,2.65,0,0,1,.29,1,11.25,11.25,0,0,1,.07,1.24v2.4h0Zm-13-6.38h7.43q1.07,0,1.8,0a8,8,0,0,0,1.19-.14,2,2,0,0,0,.73-.28,1,1,0,0,0,.38-.49,2,2,0,0,0,.14-.71c0-.28,0-.62,0-1s0-.67,0-.92a1.75,1.75,0,0,0-.14-.66.86.86,0,0,0-.38-.42,2.06,2.06,0,0,0-.73-.25,8.5,8.5,0,0,0-1.19-.11q-.74,0-1.8,0h-7.43Z" transform="translate(0 0)"/><path class="cls-2" d="M41,8.21h2.78V21.29H41Z" transform="translate(0 0)"/><path class="cls-2" d="M61.15,10.15a2.46,2.46,0,0,0-.65-.92,3.33,3.33,0,0,0-1.16-.61,8.81,8.81,0,0,0-1.66-.31,22.17,22.17,0,0,0-2.34-.1h-9V21.29h2.78V16.63h6q1,0,1.62,0a7,7,0,0,1,1,.12,1.14,1.14,0,0,1,.43.15.35.35,0,0,1,.12.15,1.13,1.13,0,0,1,.08.45q0,.38,0,.9v2.86h2.77V18.43a9.33,9.33,0,0,0-.07-1.24,3,3,0,0,0-.34-1.1,2.11,2.11,0,0,0-.45-.58,2.59,2.59,0,0,0,.56-.63,3.39,3.39,0,0,0,.43-1.17,7.53,7.53,0,0,0,.12-1.42c0-.39,0-.76,0-1.08A3.57,3.57,0,0,0,61.15,10.15Zm-12,.59h6.2c.65,0,1.19,0,1.63,0a6.38,6.38,0,0,1,1,.09,1.15,1.15,0,0,1,.45.14.24.24,0,0,1,.1.1,1.31,1.31,0,0,1,.07.37c0,.23,0,.51,0,.83s0,.64,0,.89a1.66,1.66,0,0,1-.08.45.4.4,0,0,1-.12.16A1.5,1.5,0,0,1,58,14a7.39,7.39,0,0,1-1,.11c-.44,0-1,0-1.62,0h-6.2Z" transform="translate(0 0)"/><path class="cls-2" d="M63.48,8.21h2.78V21.29H63.48Z" transform="translate(0 0)"/><path class="cls-2" d="M84.15,11.3a3.88,3.88,0,0,0-.57-1.36,3.14,3.14,0,0,0-1.16-1,5.7,5.7,0,0,0-1.72-.55,14.67,14.67,0,0,0-2.38-.16H68.84V21.29h9.48a14.55,14.55,0,0,0,2.38-.17,5.71,5.71,0,0,0,1.72-.54,3.14,3.14,0,0,0,1.16-1,4,4,0,0,0,.57-1.36,7.8,7.8,0,0,0,.19-1.6c0-.56,0-1.17,0-1.85s0-1.29,0-1.85A7.63,7.63,0,0,0,84.15,11.3Zm-5.83,7.45h-6.7v-8h6.7c.63,0,1.17,0,1.59.06a3.16,3.16,0,0,1,.94.17.87.87,0,0,1,.38.27,1.53,1.53,0,0,1,.23.57A7.83,7.83,0,0,1,81.58,13c0,.5,0,1.1,0,1.79s0,1.29,0,1.79a8,8,0,0,1-.12,1.15,1.82,1.82,0,0,1-.23.57.91.91,0,0,1-.38.26,3.48,3.48,0,0,1-.94.18C79.48,18.74,78.94,18.75,78.32,18.75Z" transform="translate(0 0)"/><rect class="cls-2" x="86.46" y="8.21" width="2.78" height="13.08"/><path class="cls-2" d="M104.08,14.75c0,.73,0,1.36,0,1.88a7.62,7.62,0,0,1-.11,1.22,1.74,1.74,0,0,1-.24.62.91.91,0,0,1-.39.29,3.58,3.58,0,0,1-.92.19c-.43,0-1,.05-1.59.05H97.37c-.63,0-1.17,0-1.59-.05a3.28,3.28,0,0,1-.92-.19.76.76,0,0,1-.38-.28,1.57,1.57,0,0,1-.24-.62,7.88,7.88,0,0,1-.11-1.23c0-.52,0-1.15,0-1.88V8.21H91.33v6.54c0,.7,0,1.34,0,1.92a9,9,0,0,0,.19,1.66,4.29,4.29,0,0,0,.57,1.4,3.1,3.1,0,0,0,1.15,1.06,5.41,5.41,0,0,0,1.73.57,13.42,13.42,0,0,0,2.38.18h3.45a13.46,13.46,0,0,0,2.39-.18,5.41,5.41,0,0,0,1.73-.57,3.1,3.1,0,0,0,1.15-1.06,4.51,4.51,0,0,0,.56-1.4,9,9,0,0,0,.19-1.66q0-.87,0-1.92V8.21h-2.79Z" transform="translate(0 0)"/><path class="cls-2" d="M125.35,8.21,118.83,18l-6.51-9.78H109V21.29h2.78V12l6.09,9.26H120l6-9.1v9.1h2.77V8.21Z" transform="translate(0 0)"/></g></g><g id="icon"><g id="Large"><path class="cls-1" d="M20.85,11c0-.12,0-.23,0-.34a22.57,22.57,0,0,0-.29-2.27L20.48,8l0-.13a.51.51,0,0,1,0-.13,31.25,31.25,0,0,0-3.83-.46c-.72,0-1.43-.06-2.14,0a30.82,30.82,0,0,0-4.38.37l-.46.08-.17,0a29.57,29.57,0,0,0-3,.69l-.63.18-.36.11c-.69.22-1.35.47-2,.73A30.77,30.77,0,0,0,0,11.11a22.25,22.25,0,0,0,1,4.53,22.1,22.1,0,0,0,1.09,2.67h0A22.14,22.14,0,0,0,4,21.48c.25.35.51.68.77,1A22.24,22.24,0,0,0,13.41,29l.06-.05.13-.12a21.78,21.78,0,0,0,2.17-2.27l.17-.21.13-.16.3-.38a23.62,23.62,0,0,0,2.31-3.76c.05-.11.1-.21.14-.31a22.42,22.42,0,0,0,1-2.52l.09-.31a.14.14,0,0,0,0-.06h0a21.58,21.58,0,0,0,.62-2.56.77.77,0,0,0,0-.15c0-.11,0-.22.06-.33a21.72,21.72,0,0,0,.25-2.44c0-.11,0-.23,0-.34A20.42,20.42,0,0,0,20.85,11ZM9.72,16.09a.85.85,0,0,1-.09-.24,1.55,1.55,0,0,1-.06-.23,1.58,1.58,0,0,1,0-.65,1.72,1.72,0,0,1,.11-.29,1.63,1.63,0,0,1,2.86-.19,1.11,1.11,0,0,1,.14.29,1.68,1.68,0,0,1,.09.32,1.57,1.57,0,0,1-.19,1,1,1,0,0,1-.17.25,1.44,1.44,0,0,1-.28.27l.44,1.18L13,19H10.6l0-.91,0-1.18a1.67,1.67,0,0,1-.95-.82Z" transform="translate(0 0)"/><path class="cls-3" d="M14.5,1.09A15.22,15.22,0,0,1,17.12.32,15.72,15.72,0,0,1,30.23,3.56l-.07,0-2.5,1.2a13.26,13.26,0,0,0-10-2c-.32.06-.64.14-.95.23A10.45,10.45,0,0,0,14.5,1.09Z" transform="translate(0 0)"/><path class="cls-3" d="M32,5.41l-.23.15L31.13,6l-.71.44-.48.29-1,.59-.8.42c-.27.13-.54.29-.82.41a36,36,0,0,1-3.51,1.52c-.66.24-1.33.48-2,.69-.09-.78-.22-1.48-.35-2.11l-.07-.35c.59-.11,1.19-.23,1.78-.36,1.2-.29,2.38-.61,3.5-1,.28-.09.56-.21.83-.3s.55-.19.81-.3l.6-.24.95-.4L30.57,5l.7-.34,0,0,.42.43Z" transform="translate(0 0)"/><path class="cls-3" d="M35.58,13.08c-.24.12-.47.25-.7.38s-.44.24-.67.34l-1.4.66L30,15.79l-.7.33c-.22.1-.47.19-.71.29-.48.19-.95.39-1.43.56l-1.47.52c-.48.17-1,.29-1.48.43l-1.5.39c-.48.12-.94.27-1.42.35-.11.47-.24.94-.38,1.41s-.38,1.14-.59,1.68A16.73,16.73,0,0,0,32.5,17.44c.17,1.08-1.68,3.68-2.35,4.51a13.49,13.49,0,0,1-12.42,4.67,23.18,23.18,0,0,1-2.24,2.77l.12,0,.6.16c.42.1.85.16,1.27.23a7.82,7.82,0,0,0,1.28.13,8,8,0,0,0,1.29,0l1.31-.06,1.24-.19.32,0,.17,0,.15,0,.63-.16c.21,0,.42-.09.63-.16l.6-.21.61-.22.59-.26.59-.26.56-.31.57-.31c.18-.1.35-.24.54-.35a9.82,9.82,0,0,0,1-.75,11.15,11.15,0,0,0,1-.83,9.68,9.68,0,0,0,.91-.9l.43-.46.1-.12.12-.13.19-.25c.26-.35.53-.67.76-1l.35-.53c.11-.18.22-.38.32-.56a11.22,11.22,0,0,0,.59-1.14,10.12,10.12,0,0,0,.49-1.18l.22-.6.18-.62.17-.62.13-.62c.09-.4.14-.84.2-1.26s.07-.84.1-1.28,0-.85,0-1.27v-.3Z" transform="translate(0 0)"/><path class="cls-1" d="M30.69,13.16l-1.46.55c-.59.23-1.19.4-1.78.6s-1.2.36-1.8.52l-.9.24-.92.2c-.61.14-1.23.29-1.84.37l-.18,0a26,26,0,0,0,.13-2.86,38.55,38.55,0,0,0,7-2.71A4.65,4.65,0,0,0,30.69,13.16Z" transform="translate(0 0)"/><path class="cls-1" d="M36,11.14a2.89,2.89,0,0,1-3.27,1.15A2.61,2.61,0,0,1,32,12a2.89,2.89,0,1,1,4-.81Z" transform="translate(0 0)"/><path class="cls-3" d="M16.45,6.42c-.71,0-1.43-.06-2.14,0a6.62,6.62,0,0,0-1.13-1.92c-.1-.12-.2-.23-.31-.34a4.85,4.85,0,0,0-1.93-1.23,3.07,3.07,0,0,0-.5-.13,3.45,3.45,0,0,0-1.32,0C7,3.09,5.47,5.24,5.35,7.84q-1,.33-2,.72C3.18,4.68,5.47,1.3,8.79.75a6,6,0,0,1,3.72.63,5.09,5.09,0,0,1,.5.3,7.55,7.55,0,0,1,1.67,1.44l.34.42A9,9,0,0,1,16.45,6.42Z" transform="translate(0 0)"/><path class="cls-4" d="M16.37,25.83l-.3.38c0,.06-.09.11-.13.16l-.17.21a21.78,21.78,0,0,1-2.17,2.27l-.13.12-.06.05a22.24,22.24,0,0,1-8.64-6.53c-.26-.32-.52-.66-.77-1a21.68,21.68,0,0,1-1.89-3.17h.12C4.31,20.68,9.25,25.56,16.37,25.83Z" transform="translate(0 0)"/><path class="cls-5" d="M20.45,7.9A34.71,34.71,0,0,0,1,15.64a22.25,22.25,0,0,1-1-4.53A30.77,30.77,0,0,1,3.48,9.45c.67-.26,1.33-.51,2-.73l.36-.11.63-.18a29.57,29.57,0,0,1,3-.69l.17,0,.46-.08a30.8,30.8,0,0,1,4.37-.37c.72,0,1.43,0,2.14,0a31,31,0,0,1,3.83.47Z" transform="translate(0 0)"/></g></g></svg>