<?xml version="1.0" encoding="utf-8"?>
<!-- Generator: Adobe Illustrator 16.0.0, SVG Export Plug-In . SVG Version: 6.00 Build 0)  -->
<!DOCTYPE svg PUBLIC "-//W3C//DTD SVG 1.1//EN" "http://www.w3.org/Graphics/SVG/1.1/DTD/svg11.dtd">
<svg version="1.1" id="Ebene_1" xmlns="http://www.w3.org/2000/svg" xmlns:xlink="http://www.w3.org/1999/xlink" x="0px" y="0px"
	 width="264px" height="30px" viewBox="0 0 264 30" enable-background="new 0 0 264 30" xml:space="preserve">
<g id="Text">
	<g>
		<rect x="41" y="8.209" fill="#535251" width="2.78" height="13.08"/>
		<path fill="#535251" d="M61.15,10.151c-0.137-0.355-0.358-0.664-0.655-0.924c-0.289-0.25-0.667-0.448-1.16-0.604
			c-0.441-0.142-0.998-0.248-1.655-0.315c-0.637-0.067-1.423-0.099-2.338-0.099h-8.986v13.08h2.78v-4.66h5.958
			c0.642,0,1.181,0.01,1.619,0.033c0.412,0.023,0.75,0.061,1.008,0.113c0.264,0.057,0.382,0.121,0.43,0.156
			c0.056,0.039,0.092,0.088,0.121,0.153c0.045,0.112,0.073,0.271,0.082,0.451c0.013,0.25,0.021,0.545,0.021,0.894v2.86h2.778v-2.86
			c0-0.457-0.022-0.871-0.07-1.236c-0.053-0.414-0.167-0.785-0.338-1.1c-0.12-0.222-0.272-0.418-0.457-0.585
			c0.22-0.177,0.408-0.386,0.558-0.627c0.206-0.329,0.355-0.725,0.438-1.175c0.077-0.406,0.115-0.882,0.115-1.411
			c0-0.395-0.01-0.76-0.028-1.087C61.349,10.827,61.274,10.471,61.15,10.151z M49.136,10.743h6.206c0.645,0,1.188,0.007,1.629,0.022
			c0.41,0.014,0.753,0.047,1.01,0.094c0.289,0.055,0.412,0.115,0.451,0.14c0.046,0.03,0.076,0.061,0.095,0.103
			c0.027,0.063,0.063,0.175,0.075,0.372c0.012,0.23,0.018,0.503,0.018,0.823c0,0.347-0.006,0.642-0.018,0.893
			c-0.009,0.18-0.04,0.337-0.084,0.451c-0.026,0.065-0.065,0.115-0.121,0.155c-0.049,0.032-0.167,0.098-0.431,0.154
			c-0.258,0.053-0.596,0.091-1.006,0.114c-0.438,0.022-0.977,0.033-1.618,0.033h-6.206V10.743z"/>
		<rect x="63.484" y="8.209" fill="#535251" width="2.78" height="13.08"/>
		<path fill="#535251" d="M84.152,11.296c-0.117-0.515-0.308-0.97-0.57-1.357c-0.275-0.411-0.667-0.751-1.161-1.017
			c-0.461-0.247-1.041-0.431-1.722-0.547c-0.647-0.111-1.452-0.165-2.382-0.165h-9.476v13.08h9.476c0.93,0,1.734-0.058,2.382-0.168
			c0.682-0.116,1.261-0.298,1.722-0.546c0.495-0.264,0.886-0.604,1.161-1.016c0.262-0.389,0.453-0.846,0.57-1.356
			c0.109-0.479,0.175-1.019,0.192-1.604c0.019-0.556,0.027-1.172,0.027-1.849c0-0.677-0.008-1.294-0.027-1.849
			C84.327,12.314,84.261,11.774,84.152,11.296z M78.317,18.755h-6.698v-8.013h6.698c0.636,0,1.17,0.017,1.597,0.053
			c0.386,0.03,0.699,0.089,0.931,0.177c0.175,0.067,0.301,0.153,0.381,0.263c0.099,0.13,0.18,0.329,0.233,0.574
			c0.065,0.305,0.104,0.69,0.117,1.15c0.012,0.5,0.018,1.097,0.018,1.79c0,0.692-0.006,1.29-0.018,1.787
			c-0.013,0.461-0.052,0.848-0.117,1.151c-0.054,0.246-0.134,0.444-0.233,0.576c-0.081,0.108-0.206,0.194-0.381,0.262
			c-0.232,0.084-0.546,0.146-0.935,0.177C79.482,18.738,78.945,18.755,78.317,18.755z"/>
		<rect x="86.46" y="8.209" fill="#535251" width="2.779" height="13.08"/>
		<path fill="#535251" d="M104.083,14.75c0,0.731-0.005,1.357-0.015,1.883c-0.009,0.487-0.045,0.896-0.113,1.219
			c-0.053,0.269-0.135,0.483-0.238,0.623c-0.086,0.119-0.214,0.213-0.388,0.284c-0.227,0.093-0.534,0.154-0.915,0.187
			c-0.43,0.037-0.965,0.057-1.595,0.057h-3.447c-0.632,0-1.169-0.02-1.596-0.057c-0.379-0.032-0.688-0.094-0.918-0.188
			c-0.174-0.07-0.299-0.162-0.382-0.277c-0.101-0.142-0.181-0.356-0.232-0.625c-0.066-0.324-0.102-0.734-0.114-1.226
			c-0.013-0.524-0.019-1.15-0.019-1.88V8.21h-2.78v6.54c0,0.7,0.007,1.34,0.022,1.916c0.019,0.613,0.08,1.173,0.188,1.665
			c0.115,0.528,0.307,1,0.565,1.403c0.275,0.427,0.663,0.781,1.155,1.055c0.46,0.258,1.042,0.449,1.726,0.572
			c0.651,0.117,1.453,0.174,2.387,0.174h3.447c0.935,0,1.738-0.057,2.389-0.174c0.686-0.125,1.265-0.314,1.726-0.572
			c0.492-0.273,0.879-0.629,1.153-1.059c0.254-0.401,0.442-0.871,0.558-1.399c0.108-0.494,0.172-1.052,0.192-1.659
			c0.019-0.581,0.026-1.221,0.026-1.922V8.21h-2.788L104.083,14.75z"/>
		<polygon fill="#535251" points="125.345,8.209 118.831,17.986 112.322,8.209 108.951,8.209 108.951,21.289 111.731,21.289 
			111.731,12.029 117.82,21.289 120.015,21.289 125.997,12.189 125.997,21.289 128.775,21.289 128.775,8.209 		"/>
	</g>
	<path fill="#4598D3" d="M133.623,21.234V8.474h10.641c0.799,0,1.441,0.066,1.928,0.196c0.486,0.129,0.863,0.321,1.123,0.572
		c0.266,0.254,0.438,0.568,0.528,0.944c0.089,0.375,0.134,0.808,0.134,1.296c0,0.354-0.031,0.667-0.092,0.938
		c-0.063,0.272-0.141,0.507-0.242,0.707c-0.1,0.2-0.213,0.366-0.34,0.503c-0.128,0.135-0.257,0.248-0.389,0.336
		c-0.311,0.21-0.665,0.33-1.063,0.356c0.496,0.027,0.94,0.148,1.326,0.365c0.168,0.095,0.329,0.212,0.488,0.355
		c0.156,0.14,0.298,0.313,0.422,0.521c0.126,0.209,0.227,0.455,0.303,0.732c0.08,0.281,0.117,0.604,0.117,0.969
		c0,0.442-0.021,0.848-0.063,1.217c-0.043,0.369-0.125,0.701-0.254,0.992c-0.127,0.295-0.309,0.551-0.549,0.772
		c-0.236,0.222-0.555,0.405-0.949,0.552c-0.396,0.148-0.879,0.258-1.455,0.328c-0.572,0.074-1.258,0.107-2.057,0.107h-9.559V21.234z
		 M142.652,13.792c0.541,0,1.01-0.011,1.4-0.033c0.395-0.021,0.729-0.064,1.008-0.124c0.275-0.063,0.5-0.146,0.672-0.255
		c0.17-0.107,0.308-0.247,0.404-0.419c0.096-0.17,0.161-0.377,0.193-0.617c0.035-0.241,0.051-0.528,0.051-0.86
		c0-0.354-0.041-0.643-0.117-0.864c-0.078-0.222-0.216-0.394-0.414-0.512c-0.201-0.119-0.471-0.2-0.813-0.241
		c-0.34-0.041-0.777-0.063-1.309-0.063h-8.517v3.989L142.652,13.792L142.652,13.792z M142.652,19.904
		c0.619,0,1.156-0.008,1.609-0.027c0.454-0.02,0.842-0.063,1.155-0.125c0.317-0.064,0.571-0.156,0.765-0.275
		c0.195-0.119,0.346-0.274,0.452-0.473c0.108-0.197,0.183-0.438,0.22-0.72c0.039-0.281,0.061-0.622,0.061-1.021
		c0-0.312-0.021-0.58-0.061-0.81c-0.037-0.231-0.11-0.425-0.22-0.583c-0.106-0.157-0.257-0.284-0.452-0.381
		c-0.193-0.097-0.447-0.174-0.765-0.228c-0.313-0.057-0.701-0.094-1.155-0.112c-0.453-0.021-0.99-0.031-1.609-0.031h-7.438v4.785
		H142.652L142.652,19.904z"/>
	<path fill="#4598D3" d="M166.25,21.234h-1.596v-2.394c0-0.386-0.004-0.72-0.021-1c-0.015-0.278-0.06-0.519-0.141-0.717
		c-0.083-0.2-0.208-0.362-0.378-0.483c-0.172-0.121-0.415-0.216-0.731-0.281c-0.315-0.066-0.717-0.111-1.2-0.139
		c-0.484-0.023-1.082-0.037-1.791-0.037h-7.168v5.051h-1.598V8.474h9.031c0.976,0,1.794,0.036,2.464,0.104
		c0.667,0.071,1.219,0.175,1.651,0.312c0.438,0.138,0.771,0.311,1.006,0.516c0.234,0.206,0.408,0.446,0.516,0.721
		c0.107,0.278,0.169,0.589,0.189,0.932c0.021,0.343,0.029,0.723,0.029,1.137c0,0.532-0.039,1-0.111,1.4
		c-0.075,0.402-0.198,0.744-0.379,1.027c-0.174,0.282-0.414,0.507-0.705,0.677c-0.293,0.167-0.662,0.287-1.104,0.353
		c0.441,0.066,0.797,0.184,1.063,0.349c0.267,0.167,0.472,0.383,0.615,0.647c0.144,0.268,0.238,0.584,0.289,0.949
		c0.045,0.364,0.068,0.779,0.068,1.244V21.234L166.25,21.234z M153.227,14.855h7.434c0.709,0,1.307-0.013,1.789-0.037
		c0.486-0.027,0.885-0.072,1.201-0.139c0.316-0.065,0.562-0.159,0.73-0.281c0.172-0.121,0.299-0.284,0.381-0.483
		c0.078-0.2,0.125-0.439,0.141-0.717c0.013-0.281,0.018-0.614,0.018-1.003c0-0.359-0.005-0.67-0.018-0.929
		c-0.016-0.262-0.063-0.48-0.141-0.656c-0.082-0.179-0.207-0.319-0.381-0.424c-0.169-0.105-0.415-0.188-0.73-0.244
		c-0.316-0.059-0.715-0.096-1.201-0.112c-0.482-0.017-1.08-0.027-1.789-0.027h-7.434V14.855z"/>
	<path fill="#4598D3" d="M179.747,8.209c0.976,0,1.797,0.058,2.464,0.177c0.667,0.121,1.217,0.3,1.648,0.54
		c0.434,0.243,0.765,0.544,0.996,0.911c0.233,0.365,0.403,0.794,0.512,1.288c0.109,0.492,0.171,1.048,0.191,1.669
		c0.019,0.621,0.029,1.307,0.029,2.061c0,0.752-0.011,1.439-0.029,2.06c-0.021,0.619-0.082,1.178-0.191,1.669
		c-0.108,0.495-0.278,0.924-0.512,1.288c-0.231,0.364-0.563,0.669-0.996,0.909c-0.432,0.24-0.981,0.421-1.648,0.539
		c-0.667,0.119-1.488,0.18-2.464,0.18h-4.802c-0.975,0-1.795-0.061-2.461-0.18c-0.67-0.118-1.219-0.299-1.651-0.539
		c-0.431-0.24-0.767-0.545-1-0.909c-0.235-0.364-0.408-0.793-0.517-1.288c-0.108-0.491-0.168-1.05-0.186-1.669
		c-0.018-0.621-0.025-1.308-0.025-2.06c0-0.754,0.01-1.439,0.025-2.061c0.016-0.621,0.076-1.177,0.186-1.669
		c0.108-0.494,0.281-0.923,0.517-1.288c0.233-0.367,0.567-0.668,1-0.911c0.435-0.24,0.981-0.419,1.651-0.54
		c0.666-0.119,1.486-0.177,2.461-0.177H179.747z M179.747,20.172c0.706,0,1.298-0.023,1.784-0.063
		c0.484-0.041,0.885-0.125,1.201-0.252c0.313-0.127,0.559-0.312,0.729-0.549c0.172-0.238,0.296-0.554,0.375-0.947
		c0.075-0.395,0.123-0.877,0.137-1.449c0.014-0.575,0.021-1.26,0.021-2.056c0-0.797-0.007-1.484-0.021-2.056
		c-0.015-0.573-0.063-1.058-0.137-1.449c-0.079-0.394-0.203-0.71-0.375-0.948c-0.169-0.238-0.413-0.421-0.725-0.548
		c-0.314-0.127-0.713-0.212-1.197-0.252c-0.484-0.043-1.082-0.063-1.792-0.063h-4.802c-0.707,0-1.305,0.02-1.789,0.063
		c-0.484,0.041-0.885,0.125-1.199,0.252c-0.316,0.127-0.559,0.311-0.732,0.548c-0.173,0.237-0.297,0.554-0.373,0.948
		c-0.078,0.392-0.123,0.876-0.136,1.449c-0.009,0.572-0.015,1.259-0.015,2.056c0,0.796,0.006,1.481,0.02,2.056
		c0.014,0.572,0.061,1.055,0.141,1.449c0.074,0.395,0.197,0.709,0.367,0.947c0.17,0.237,0.412,0.422,0.729,0.549
		c0.314,0.127,0.714,0.211,1.199,0.252c0.484,0.039,1.082,0.063,1.789,0.063H179.747z"/>
	<path fill="#4598D3" d="M200.273,8.474h1.854l5.19,11.448l5.05-11.448h1.664l-5.652,12.76h-2.125l-5.052-11.153l-5.049,11.153
		h-2.258l-6.25-12.76h1.857l5.583,11.43L200.273,8.474z"/>
	<path fill="#4598D3" d="M224.861,14.059c0.877,0,1.625,0.036,2.25,0.108c0.627,0.07,1.156,0.178,1.584,0.319
		c0.429,0.144,0.771,0.319,1.025,0.53c0.254,0.211,0.45,0.452,0.59,0.722c0.139,0.27,0.229,0.57,0.27,0.904
		c0.041,0.334,0.063,0.697,0.063,1.086c0,0.387-0.035,0.748-0.102,1.086c-0.072,0.34-0.193,0.65-0.372,0.933
		c-0.177,0.278-0.418,0.532-0.722,0.753c-0.305,0.221-0.692,0.406-1.164,0.563c-0.469,0.152-1.036,0.27-1.7,0.351
		c-0.662,0.081-1.435,0.12-2.321,0.12h-2.123c-0.8,0-1.498-0.03-2.098-0.092c-0.598-0.061-1.111-0.152-1.544-0.276
		c-0.431-0.125-0.789-0.284-1.071-0.476c-0.281-0.189-0.508-0.414-0.678-0.672c-0.17-0.256-0.287-0.551-0.352-0.881
		c-0.068-0.328-0.1-0.691-0.1-1.092h1.596c0,0.508,0.07,0.902,0.215,1.189c0.144,0.289,0.381,0.504,0.715,0.646
		c0.332,0.143,0.768,0.232,1.308,0.27c0.539,0.039,1.21,0.056,2.009,0.056h2.125c0.932,0,1.704-0.044,2.316-0.134
		c0.615-0.09,1.104-0.231,1.473-0.428c0.364-0.194,0.622-0.449,0.772-0.765c0.147-0.315,0.223-0.7,0.223-1.151
		s-0.049-0.826-0.151-1.129c-0.103-0.301-0.306-0.541-0.608-0.72c-0.302-0.177-0.728-0.306-1.274-0.379
		c-0.549-0.077-1.265-0.113-2.15-0.113h-2.195c-0.975,0-1.807-0.038-2.504-0.108c-0.693-0.073-1.275-0.177-1.749-0.312
		c-0.47-0.135-0.845-0.305-1.129-0.508c-0.282-0.202-0.498-0.433-0.644-0.692c-0.146-0.262-0.24-0.55-0.287-0.868
		c-0.043-0.319-0.065-0.663-0.065-1.036c0-0.386,0.035-0.746,0.104-1.081c0.066-0.332,0.199-0.63,0.385-0.9
		c0.188-0.268,0.445-0.507,0.771-0.717c0.33-0.21,0.748-0.388,1.261-0.528c0.514-0.143,1.129-0.25,1.849-0.32
		c0.721-0.073,1.565-0.107,2.541-0.107h1.596c0.796,0,1.497,0.028,2.093,0.088c0.6,0.057,1.112,0.149,1.543,0.272
		c0.434,0.124,0.795,0.281,1.077,0.464c0.287,0.187,0.515,0.408,0.683,0.667c0.17,0.257,0.287,0.549,0.354,0.876
		c0.063,0.327,0.099,0.688,0.099,1.088h-1.596c0-0.5-0.07-0.891-0.216-1.172c-0.142-0.284-0.379-0.495-0.714-0.635
		c-0.333-0.141-0.77-0.23-1.313-0.265c-0.543-0.038-1.215-0.055-2.011-0.055H223.2c-1.06,0-1.938,0.036-2.625,0.112
		c-0.685,0.076-1.228,0.202-1.628,0.379c-0.396,0.176-0.676,0.414-0.83,0.713c-0.156,0.299-0.234,0.672-0.234,1.121
		c0,0.278,0.021,0.524,0.061,0.74c0.035,0.216,0.117,0.406,0.236,0.568c0.117,0.165,0.286,0.301,0.502,0.412
		c0.215,0.111,0.5,0.203,0.856,0.275c0.353,0.07,0.786,0.123,1.3,0.152c0.51,0.03,1.122,0.047,1.829,0.047L224.861,14.059
		L224.861,14.059z"/>
	<path fill="#4598D3" d="M233.764,21.234V8.474h12.76v1.329h-11.164v4.256h10.634v1.329h-10.634v4.518h11.164v1.328H233.764
		L233.764,21.234z"/>
	<path fill="#4598D3" d="M263.734,21.234h-1.596v-2.394c0-0.386-0.007-0.72-0.02-1c-0.016-0.278-0.063-0.519-0.143-0.717
		c-0.08-0.2-0.205-0.362-0.379-0.483c-0.172-0.121-0.414-0.216-0.73-0.281c-0.316-0.066-0.715-0.111-1.199-0.139
		c-0.484-0.023-1.082-0.037-1.789-0.037h-7.168v5.051h-1.598V8.474h9.031c0.974,0,1.797,0.036,2.463,0.104
		c0.666,0.071,1.218,0.175,1.652,0.312c0.436,0.138,0.77,0.311,1.004,0.516c0.235,0.206,0.409,0.446,0.518,0.721
		c0.107,0.278,0.172,0.589,0.191,0.932c0.018,0.343,0.027,0.723,0.027,1.137c0,0.532-0.036,1-0.111,1.4
		c-0.074,0.402-0.201,0.744-0.38,1.027c-0.176,0.282-0.409,0.507-0.706,0.677c-0.291,0.167-0.66,0.287-1.104,0.353
		c0.443,0.066,0.796,0.184,1.063,0.349c0.266,0.167,0.471,0.383,0.614,0.647c0.146,0.268,0.239,0.584,0.287,0.949
		c0.047,0.364,0.071,0.779,0.071,1.244V21.234L263.734,21.234z M250.71,14.855h7.433c0.709,0,1.305-0.013,1.793-0.037
		c0.481-0.027,0.883-0.072,1.198-0.139c0.316-0.065,0.56-0.159,0.729-0.281c0.173-0.121,0.298-0.284,0.38-0.483
		c0.081-0.2,0.126-0.439,0.14-0.717c0.014-0.281,0.02-0.614,0.02-1.003c0-0.359-0.006-0.67-0.02-0.929
		c-0.014-0.262-0.06-0.48-0.14-0.656c-0.082-0.179-0.207-0.319-0.38-0.424c-0.17-0.105-0.413-0.188-0.729-0.244
		c-0.315-0.059-0.717-0.096-1.198-0.112c-0.488-0.017-1.082-0.027-1.793-0.027h-7.433V14.855z"/>
</g>
<g id="Large">
	<path fill="#4598D3" d="M20.854,10.958c-0.006-0.114-0.016-0.227-0.025-0.337c-0.062-0.824-0.168-1.586-0.293-2.273
		c-0.02-0.106-0.038-0.212-0.057-0.314c-0.01-0.043-0.017-0.088-0.027-0.131c-0.01-0.044-0.021-0.087-0.027-0.129
		c-1.272-0.239-2.549-0.393-3.83-0.468c-0.711-0.041-1.427-0.057-2.138-0.046C13,7.278,11.539,7.401,10.084,7.633
		C9.929,7.654,9.775,7.679,9.623,7.707c-0.056,0.009-0.115,0.019-0.17,0.031C8.449,7.917,7.458,8.146,6.486,8.425
		c-0.211,0.059-0.422,0.12-0.631,0.188c-0.119,0.034-0.24,0.072-0.357,0.109C4.813,8.94,4.146,9.185,3.482,9.448
		C2.291,9.926,1.13,10.482,0,11.111c0.153,1.29,0.453,2.842,1.018,4.528c0.289,0.861,0.646,1.752,1.091,2.666
		c0,0.002,0.004,0.008,0.005,0.01C2.623,19.359,3.244,20.421,4,21.48c0.25,0.349,0.505,0.685,0.766,1.008
		c2.818,3.505,6.14,5.468,8.647,6.535c0.019-0.018,0.037-0.033,0.056-0.051c0.044-0.041,0.089-0.082,0.134-0.121
		c0.692-0.631,1.431-1.383,2.168-2.271c0.055-0.068,0.114-0.137,0.169-0.206c0.043-0.052,0.085-0.106,0.128-0.16
		c0.1-0.129,0.203-0.257,0.303-0.388c0.82-1.083,1.613-2.331,2.308-3.76c0.049-0.102,0.097-0.203,0.146-0.305
		c0.364-0.785,0.699-1.625,0.991-2.52c0.032-0.102,0.064-0.201,0.098-0.307c0.006-0.02,0.012-0.039,0.018-0.058v-0.003
		c0.269-0.875,0.47-1.732,0.618-2.564c0.007-0.045,0.017-0.097,0.025-0.143c0.021-0.111,0.039-0.225,0.053-0.338
		c0.138-0.842,0.213-1.655,0.249-2.434c0.005-0.116,0.011-0.232,0.01-0.346C20.913,12.318,20.895,11.62,20.854,10.958z M9.723,16.09
		c-0.039-0.074-0.07-0.154-0.096-0.238c-0.024-0.074-0.042-0.15-0.056-0.229c-0.036-0.224-0.027-0.446,0.023-0.653
		c0.023-0.101,0.056-0.194,0.102-0.286c0.215-0.476,0.661-0.839,1.22-0.931c0.666-0.108,1.305,0.198,1.641,0.735
		c0.06,0.09,0.11,0.19,0.147,0.293c0.038,0.1,0.067,0.207,0.085,0.316c0.062,0.38-0.011,0.745-0.185,1.054
		c-0.049,0.09-0.108,0.172-0.171,0.25c-0.083,0.101-0.177,0.191-0.279,0.269l0.435,1.177l0.423,1.149l-2.414,0.007l0.038-0.915
		l0.034-1.175c-0.409-0.139-0.752-0.428-0.946-0.819L9.723,16.09z"/>
	<path fill="#525150" d="M14.502,1.086c0.835-0.328,1.709-0.585,2.618-0.77c4.813-0.975,9.57,0.358,13.113,3.245l-0.074,0.036
		l-2.495,1.202c-2.849-1.907-6.423-2.732-10.043-2c-0.323,0.064-0.641,0.14-0.953,0.229C16.025,2.27,15.295,1.617,14.502,1.086z"/>
	<path fill="#525150" d="M32.033,5.406c-0.075,0.051-0.153,0.103-0.229,0.154c-0.222,0.145-0.443,0.303-0.673,0.449
		c-0.233,0.142-0.468,0.29-0.708,0.438c-0.157,0.097-0.312,0.195-0.478,0.29c-0.332,0.194-0.677,0.386-1.025,0.589
		c-0.262,0.148-0.529,0.276-0.798,0.423c-0.27,0.132-0.541,0.287-0.821,0.416c-1.107,0.552-2.289,1.051-3.515,1.52
		c-0.659,0.239-1.331,0.471-2.01,0.686c-0.091-0.776-0.212-1.483-0.343-2.108l-0.075-0.355c0.597-0.106,1.192-0.227,1.779-0.356
		c1.205-0.287,2.38-0.607,3.504-0.986c0.284-0.089,0.555-0.201,0.831-0.292c0.271-0.103,0.548-0.195,0.813-0.302
		c0.2-0.083,0.403-0.166,0.598-0.245c0.325-0.129,0.639-0.259,0.946-0.4c0.249-0.113,0.493-0.225,0.737-0.332
		c0.24-0.114,0.47-0.232,0.707-0.348c0.011-0.005,0.02-0.01,0.036-0.018c0.146,0.144,0.285,0.291,0.422,0.436
		C31.834,5.174,31.935,5.287,32.033,5.406z"/>
	<path fill="#525150" d="M35.575,13.081c-0.231,0.121-0.466,0.252-0.692,0.377c-0.226,0.122-0.446,0.237-0.674,0.341l-1.401,0.664
		l-2.805,1.325l-0.7,0.328c-0.226,0.108-0.476,0.196-0.711,0.292c-0.478,0.188-0.947,0.395-1.436,0.566l-1.462,0.514
		c-0.483,0.172-0.983,0.296-1.482,0.428l-1.5,0.398c-0.478,0.119-0.938,0.263-1.42,0.347c-0.11,0.464-0.237,0.935-0.382,1.409
		c-0.179,0.582-0.375,1.142-0.586,1.683c0.034-0.088,6.092,0.919,12.178-4.31c0.167,1.074-1.678,3.675-2.354,4.506
		c-3.069,3.773-7.68,5.244-12.419,4.674c-0.737,1.063-1.503,1.982-2.243,2.768c0.042,0.014,0.082,0.021,0.121,0.037l0.6,0.163
		c0.419,0.099,0.85,0.155,1.271,0.228c0.421,0.093,0.851,0.106,1.282,0.133c0.432,0.021,0.857,0.074,1.293,0.035l1.303-0.059
		l1.247-0.185l0.313-0.046c0.061-0.014,0.085-0.008,0.174-0.031l0.155-0.037l0.626-0.158c0.208-0.054,0.419-0.096,0.625-0.164
		l0.609-0.211l0.605-0.213l0.589-0.263l0.587-0.263c0.19-0.101,0.376-0.205,0.566-0.309l0.564-0.307
		c0.186-0.105,0.359-0.237,0.542-0.352c0.358-0.233,0.718-0.468,1.043-0.748c0.34-0.263,0.682-0.521,0.987-0.828
		c0.318-0.291,0.642-0.584,0.912-0.9l0.428-0.462l0.104-0.117l0.114-0.133c0.066-0.082,0.134-0.167,0.198-0.252
		c0.252-0.341,0.531-0.669,0.754-1.033l0.353-0.536c0.113-0.181,0.217-0.374,0.322-0.559c0.225-0.372,0.405-0.754,0.585-1.133
		c0.188-0.363,0.354-0.803,0.492-1.187l0.219-0.599c0.063-0.201,0.117-0.411,0.18-0.619l0.17-0.617l0.127-0.621
		c0.093-0.402,0.148-0.846,0.205-1.266c0.059-0.428,0.065-0.831,0.103-1.271c0.014-0.417-0.004-0.854-0.01-1.273l-0.001-0.298
		L35.575,13.081z"/>
	<path fill="#4598D3" d="M30.691,13.159c-0.483,0.194-0.978,0.358-1.464,0.551c-0.584,0.232-1.187,0.399-1.775,0.6
		c-0.591,0.207-1.203,0.361-1.804,0.52l-0.901,0.245l-0.916,0.199c-0.607,0.14-1.23,0.283-1.844,0.367l-0.181,0.029
		c0.108-1.005,0.145-1.963,0.13-2.863c2.372-0.667,4.772-1.55,7.047-2.708C29.125,11.273,29.712,12.384,30.691,13.159z"/>
	<path fill="#4598D3" d="M35.979,11.135c-0.732,1.096-2.079,1.537-3.273,1.159c-0.254-0.077-0.504-0.191-0.735-0.348
		c-0.956-0.637-1.412-1.735-1.268-2.797c0.057-0.42,0.205-0.835,0.457-1.21c0.88-1.331,2.678-1.691,4.008-0.812
		C36.498,8.011,36.86,9.805,35.979,11.135z"/>
	<path fill="#525150" d="M16.449,6.422c-0.711-0.042-1.427-0.057-2.138-0.047C14.029,5.65,13.642,5,13.182,4.459
		c-0.098-0.12-0.201-0.233-0.31-0.342c-0.568-0.575-1.227-0.997-1.933-1.229c-0.166-0.054-0.333-0.097-0.504-0.129
		C10.007,2.675,9.56,2.663,9.116,2.736C6.973,3.087,5.469,5.239,5.354,7.839C4.669,8.057,4.002,8.302,3.338,8.564
		C3.181,4.679,5.465,1.296,8.792,0.752c1.292-0.211,2.575,0.036,3.718,0.631c0.172,0.09,0.338,0.187,0.501,0.293
		c0.61,0.384,1.173,0.872,1.669,1.447c0.116,0.135,0.229,0.277,0.338,0.422C15.643,4.372,16.138,5.346,16.449,6.422z"/>
	
		<linearGradient id="SVGID_1_" gradientUnits="userSpaceOnUse" x1="217.4736" y1="-320.9023" x2="212.0927" y2="-326.6419" gradientTransform="matrix(0.9869 -0.1613 -0.1613 -0.9869 -253.7488 -264.6072)">
		<stop  offset="0" style="stop-color:#FDFDFF;stop-opacity:0"/>
		<stop  offset="0.9104" style="stop-color:#FDFDFF;stop-opacity:0.9104"/>
		<stop  offset="1" style="stop-color:#FDFDFF"/>
	</linearGradient>
	<path opacity="0.21" fill="url(#SVGID_1_)" enable-background="new    " d="M16.371,25.826c-0.1,0.131-0.203,0.259-0.303,0.388
		c-0.042,0.052-0.085,0.106-0.128,0.16c-0.055,0.069-0.114,0.138-0.169,0.206c-0.737,0.888-1.476,1.641-2.168,2.271
		c-0.044,0.039-0.089,0.08-0.134,0.121c-0.019,0.019-0.037,0.033-0.056,0.051c-2.507-1.067-5.83-3.03-8.647-6.535
		c-0.261-0.323-0.515-0.66-0.766-1.01c-0.756-1.058-1.377-2.119-1.886-3.164c0.018,0,0.037,0.002,0.055,0.002
		c0.022,0.006,0.041,0.009,0.063,0.015C4.314,20.68,9.248,25.555,16.371,25.826z"/>
	
		<linearGradient id="SVGID_2_" gradientUnits="userSpaceOnUse" x1="234.3936" y1="-293.8096" x2="214.5383" y2="-314.9886" gradientTransform="matrix(0.9869 -0.1613 -0.1613 -0.9869 -253.7488 -264.6072)">
		<stop  offset="0" style="stop-color:#FDFDFF;stop-opacity:0"/>
		<stop  offset="0.9104" style="stop-color:#FDFDFF;stop-opacity:0.9104"/>
		<stop  offset="1" style="stop-color:#FDFDFF"/>
	</linearGradient>
	<path opacity="0.25" fill="url(#SVGID_2_)" enable-background="new    " d="M20.451,7.902c-0.749,0.21-10.058,0.142-19.433,7.737
		C0.453,13.953,0.153,12.4,0,11.111c1.13-0.629,2.291-1.185,3.482-1.663C4.146,9.185,4.813,8.94,5.498,8.722
		c0.118-0.037,0.238-0.075,0.357-0.109c0.209-0.067,0.42-0.129,0.631-0.188c0.973-0.28,1.963-0.508,2.967-0.688
		c0.055-0.012,0.114-0.021,0.17-0.031c0.152-0.028,0.306-0.053,0.459-0.075c1.455-0.232,2.916-0.355,4.373-0.373
		c0.711-0.01,1.427,0.006,2.138,0.046c1.281,0.075,2.558,0.229,3.83,0.468C20.43,7.815,20.441,7.858,20.451,7.902z"/>
</g>
</svg>
