<?xml version="1.0" encoding="utf-8"?>
<!-- Generator: Adobe Illustrator 16.0.0, SVG Export Plug-In . SVG Version: 6.00 Build 0)  -->
<!DOCTYPE svg PUBLIC "-//W3C//DTD SVG 1.0//EN" "http://www.w3.org/TR/2001/REC-SVG-20010904/DTD/svg10.dtd">
<svg version="1.0" id="Layer_1" xmlns="http://www.w3.org/2000/svg" xmlns:xlink="http://www.w3.org/1999/xlink" x="0px" y="0px"
	 width="200px" height="165px" viewBox="0 0 200 165" enable-background="new 0 0 200 165" xml:space="preserve">
<g>
	<path fill="#4499D4" d="M114.382,60.332c-0.027-0.615-0.09-1.251-0.128-1.852c-0.353-4.515-0.936-8.699-1.598-12.477
		c-0.128-0.58-0.224-1.159-0.331-1.709c-0.043-0.25-0.096-0.482-0.139-0.734c-0.065-0.23-0.108-0.479-0.159-0.701
		c-6.968-1.303-13.976-2.157-21.007-2.562c-3.9-0.233-7.823-0.309-11.726-0.263c-7.996,0.096-16.008,0.776-23.996,2.047
		c-0.829,0.116-1.677,0.266-2.511,0.407c-0.316,0.061-0.633,0.102-0.935,0.175c-5.509,0.981-10.94,2.237-16.285,3.779
		c-1.157,0.315-2.302,0.646-3.453,1.018c-0.657,0.19-1.32,0.395-1.957,0.599c-3.76,1.21-7.413,2.537-11.058,3.983
		C12.572,54.67,6.199,57.711,0,61.176c0.844,7.066,2.476,15.579,5.58,24.829c1.584,4.722,3.543,9.606,5.986,14.627
		c0.004,0.013,0.033,0.036,0.036,0.049c2.783,5.735,6.189,11.565,10.347,17.363c1.373,1.921,2.762,3.753,4.203,5.538
		c15.453,19.22,33.683,29.989,47.425,35.847c0.103-0.097,0.218-0.182,0.317-0.281c0.234-0.223,0.49-0.454,0.725-0.671
		c3.799-3.45,7.838-7.589,11.896-12.453c0.301-0.378,0.616-0.745,0.916-1.129c0.249-0.288,0.473-0.589,0.721-0.877
		c0.534-0.699,1.104-1.408,1.659-2.132c4.499-5.945,8.839-12.789,12.647-20.618c0.279-0.564,0.543-1.108,0.799-1.67
		c2.012-4.303,3.85-8.91,5.443-13.83c0.178-0.544,0.36-1.096,0.548-1.675c0.026-0.104,0.051-0.206,0.099-0.309l-0.003-0.013
		c1.469-4.796,2.567-9.52,3.374-14.064c0.054-0.264,0.097-0.542,0.15-0.785c0.11-0.631,0.209-1.238,0.293-1.855
		c0.739-4.632,1.169-9.078,1.366-13.359c0.022-0.646,0.046-1.269,0.043-1.909C114.72,67.781,114.625,63.956,114.382,60.332
		 M53.333,88.473c-0.212-0.407-0.388-0.834-0.519-1.298c-0.146-0.405-0.247-0.836-0.303-1.262c-0.201-1.237-0.161-2.445,0.121-3.591
		c0.12-0.538,0.305-1.065,0.563-1.566c1.179-2.619,3.621-4.601,6.681-5.099c3.657-0.594,7.153,1.083,8.996,4.026
		c0.342,0.493,0.6,1.052,0.824,1.62c0.204,0.534,0.352,1.121,0.45,1.716c0.351,2.096-0.048,4.091-1.004,5.802
		c-0.272,0.49-0.59,0.928-0.946,1.363c-0.441,0.541-0.971,1.037-1.517,1.475l2.373,6.455l2.328,6.291l-13.25,0.051l0.208-5.034
		l0.188-6.446c-2.246-0.744-4.124-2.344-5.189-4.49L53.333,88.473z"/>
	<path fill="#515050" d="M79.557,6.172c4.566-1.794,9.378-3.21,14.359-4.223c26.396-5.345,52.485,1.967,71.917,17.799l-0.402,0.198
		l-13.682,6.597C136.123,16.084,116.51,11.555,96.66,15.578c-1.77,0.342-3.516,0.762-5.24,1.243
		C87.9,12.672,83.896,9.084,79.557,6.172"/>
	<path fill="#515050" d="M175.706,29.872c-0.405,0.284-0.825,0.569-1.251,0.854c-1.214,0.791-2.427,1.66-3.687,2.458
		c-1.277,0.776-2.576,1.583-3.884,2.405c-0.865,0.524-1.722,1.062-2.623,1.586c-1.829,1.071-3.714,2.125-5.626,3.23
		c-1.428,0.805-2.894,1.506-4.37,2.327c-1.481,0.715-2.977,1.569-4.506,2.271c-6.083,3.027-12.559,5.767-19.287,8.327
		c-3.612,1.328-7.303,2.597-11.028,3.772c-0.497-4.265-1.165-8.128-1.875-11.575l-0.408-1.941c3.266-0.574,6.543-1.24,9.762-1.964
		c6.595-1.574,13.042-3.333,19.208-5.403c1.553-0.487,3.054-1.096,4.563-1.592c1.483-0.564,3.008-1.068,4.465-1.658
		c1.091-0.463,2.204-0.921,3.273-1.349c1.79-0.703,3.502-1.424,5.199-2.197c1.363-0.624,2.695-1.228,4.037-1.817
		c1.313-0.634,2.573-1.274,3.882-1.916c0.05-0.023,0.111-0.044,0.198-0.097c0.796,0.789,1.561,1.607,2.303,2.401
		C174.619,28.602,175.182,29.214,175.706,29.872"/>
	<path fill="#515050" d="M195.139,71.969c-1.269,0.667-2.551,1.379-3.794,2.065c-1.232,0.671-2.447,1.315-3.693,1.887l-7.684,3.636
		l-15.396,7.261l-3.834,1.811c-1.247,0.591-2.616,1.076-3.901,1.594c-2.623,1.041-5.188,2.164-7.878,3.111l-8.021,2.82
		c-2.649,0.93-5.389,1.61-8.129,2.35l-8.223,2.174c-2.626,0.666-5.15,1.449-7.795,1.916c-0.601,2.542-1.293,5.108-2.11,7.726
		c-0.981,3.199-2.056,6.262-3.196,9.219c0.169-0.485,33.415,5.048,66.8-23.641c0.911,5.91-9.217,20.169-12.925,24.716
		c-16.827,20.704-42.122,28.773-68.112,25.648c-4.058,5.83-8.259,10.87-12.303,15.166c0.22,0.087,0.435,0.132,0.669,0.207
		l3.273,0.904c2.31,0.537,4.667,0.837,6.988,1.237c2.298,0.514,4.65,0.584,7.031,0.738c2.364,0.111,4.7,0.408,7.08,0.197
		l7.163-0.323l6.841-1.021l1.703-0.249c0.342-0.07,0.47-0.05,0.96-0.171l0.855-0.204l3.432-0.867c1.128-0.3,2.289-0.536,3.426-0.907
		l3.336-1.157l3.322-1.166l3.228-1.442l3.221-1.441c1.05-0.542,2.062-1.119,3.109-1.69l3.103-1.683
		c1.011-0.574,1.967-1.308,2.965-1.929c1.963-1.276,3.941-2.563,5.731-4.096c1.862-1.451,3.734-2.863,5.407-4.55
		c1.748-1.6,3.517-3.194,5-4.933l2.345-2.539l0.57-0.652l0.635-0.714c0.356-0.459,0.725-0.929,1.084-1.382
		c1.381-1.874,2.914-3.68,4.13-5.665l1.939-2.937c0.613-1.008,1.185-2.052,1.764-3.077c1.241-2.044,2.228-4.128,3.214-6.199
		c1.032-2.01,1.939-4.417,2.704-6.515l1.198-3.289c0.348-1.1,0.643-2.258,0.984-3.39l0.938-3.388l0.696-3.407
		c0.51-2.218,0.808-4.649,1.115-6.944c0.33-2.346,0.368-4.563,0.567-6.98c0.083-2.281-0.02-4.689-0.057-6.976l-0.011-1.639
		L195.139,71.969z"/>
	<path fill="#4499D4" d="M168.355,72.411c-2.647,1.046-5.367,1.961-8.031,3.023c-3.205,1.274-6.514,2.178-9.742,3.276
		c-3.239,1.141-6.608,1.995-9.887,2.847l-4.954,1.352l-5.018,1.087c-3.347,0.77-6.741,1.551-10.12,2.023l-0.991,0.169
		c0.593-5.525,0.792-10.784,0.707-15.708c13.007-3.671,26.175-8.503,38.66-14.853C159.761,62.062,162.986,68.149,168.355,72.411"/>
	<path fill="#4499D4" d="M197.363,61.301c-4.015,6-11.408,8.422-17.958,6.354c-1.387-0.416-2.757-1.057-4.026-1.918
		c-5.25-3.479-7.743-9.507-6.952-15.342c0.306-2.292,1.115-4.583,2.493-6.642c4.842-7.284,14.699-9.278,21.995-4.437
		C200.202,44.156,202.193,53.999,197.363,61.301"/>
	<path fill="#515050" d="M90.231,35.444c-3.901-0.218-7.824-0.309-11.728-0.245c-1.549-3.979-3.678-7.553-6.206-10.515
		c-0.528-0.664-1.098-1.277-1.691-1.873c-3.12-3.167-6.73-5.466-10.607-6.74c-0.908-0.298-1.815-0.542-2.765-0.72
		c-2.345-0.45-4.792-0.521-7.231-0.124c-11.748,1.927-20.009,13.738-20.635,28c-3.762,1.188-7.412,2.537-11.065,3.976
		C17.45,25.882,29.981,7.322,48.23,4.351c7.08-1.161,14.115,0.197,20.397,3.457c0.929,0.491,1.858,1.033,2.747,1.614
		c3.339,2.098,6.437,4.784,9.16,7.935c0.625,0.739,1.242,1.511,1.854,2.321C85.813,24.2,88.51,29.549,90.231,35.444"/>
	<g opacity="0.21">
		<g>
			<defs>
				<rect id="SVGID_1_" x="11.602" y="100.681" width="78.208" height="58.748"/>
			</defs>
			<clipPath id="SVGID_2_">
				<use xlink:href="#SVGID_1_"  overflow="visible"/>
			</clipPath>
			<g clip-path="url(#SVGID_2_)">
				<defs>
					<path id="SVGID_3_" d="M89.81,141.885c-0.555,0.726-1.124,1.434-1.659,2.133c-0.248,0.288-0.472,0.589-0.72,0.877
						c-0.3,0.383-0.615,0.75-0.916,1.128c-4.057,4.864-8.098,9.002-11.896,12.454c-0.235,0.216-0.49,0.45-0.725,0.67
						c-0.1,0.099-0.215,0.183-0.318,0.281c-13.742-5.857-31.972-16.627-47.425-35.845c-1.44-1.787-2.83-3.619-4.203-5.539
						c-4.158-5.797-7.564-11.629-10.347-17.364c0.099,0,0.2,0.013,0.3,0.013c0.116,0.045,0.217,0.059,0.335,0.082
						C23.657,113.652,50.722,140.4,89.81,141.885"/>
				</defs>
				<clipPath id="SVGID_4_">
					<use xlink:href="#SVGID_3_"  overflow="visible"/>
				</clipPath>
				<defs>
					<filter id="Adobe_OpacityMaskFilter" filterUnits="userSpaceOnUse" x="-15.589" y="64.504" width="132.574" height="131.105">
						<feColorMatrix  type="matrix" values="1 0 0 0 0  0 1 0 0 0  0 0 1 0 0  0 0 0 1 0"/>
					</filter>
				</defs>
				<mask maskUnits="userSpaceOnUse" x="-15.589" y="64.504" width="132.574" height="131.105" id="SVGID_5_">
					<g filter="url(#Adobe_OpacityMaskFilter)">
						
							<linearGradient id="SVGID_6_" gradientUnits="userSpaceOnUse" x1="4.0142" y1="696.2051" x2="5.2971" y2="696.2051" gradientTransform="matrix(-18.7489 27.9299 27.9299 18.7489 -19296.3281 -13068.9668)">
							<stop  offset="0" style="stop-color:#000000"/>
							<stop  offset="0.1624" style="stop-color:#030303"/>
							<stop  offset="0.2928" style="stop-color:#0D0D0D"/>
							<stop  offset="0.4122" style="stop-color:#1E1E1E"/>
							<stop  offset="0.525" style="stop-color:#363636"/>
							<stop  offset="0.6332" style="stop-color:#555555"/>
							<stop  offset="0.7379" style="stop-color:#7B7B7B"/>
							<stop  offset="0.8399" style="stop-color:#A7A7A7"/>
							<stop  offset="0.9371" style="stop-color:#DADADA"/>
							<stop  offset="1" style="stop-color:#FFFFFF"/>
						</linearGradient>
						<polygon clip-path="url(#SVGID_4_)" fill="url(#SVGID_6_)" points="116.985,118.931 65.512,195.609 -15.589,141.181 
							35.888,64.504 						"/>
					</g>
				</mask>
				
					<linearGradient id="SVGID_7_" gradientUnits="userSpaceOnUse" x1="4.0142" y1="696.2051" x2="5.2971" y2="696.2051" gradientTransform="matrix(-18.7489 27.9299 27.9299 18.7489 -19296.3281 -13068.9668)">
					<stop  offset="0" style="stop-color:#FDFFFF"/>
					<stop  offset="0.9104" style="stop-color:#FDFFFF"/>
					<stop  offset="1" style="stop-color:#FDFFFF"/>
				</linearGradient>
				<polygon clip-path="url(#SVGID_4_)" mask="url(#SVGID_5_)" fill="url(#SVGID_7_)" points="116.985,118.931 65.512,195.609 
					-15.589,141.181 35.888,64.504 				"/>
			</g>
		</g>
	</g>
	<g opacity="0.25">
		<g>
			<defs>
				<rect id="SVGID_8_" y="40.02" width="112.187" height="45.984"/>
			</defs>
			<clipPath id="SVGID_9_">
				<use xlink:href="#SVGID_8_"  overflow="visible"/>
			</clipPath>
			<g clip-path="url(#SVGID_9_)">
				<defs>
					<path id="SVGID_10_" d="M112.187,43.559c-4.105,1.156-55.169,0.78-106.607,42.445C2.476,76.755,0.843,68.241,0,61.176
						c6.197-3.464,12.572-6.506,19.102-9.135c3.645-1.446,7.297-2.773,11.058-3.983c0.636-0.203,1.3-0.408,1.957-0.598
						c1.151-0.373,2.295-0.703,3.453-1.019c5.344-1.54,10.776-2.797,16.285-3.779c0.301-0.073,0.619-0.114,0.935-0.175
						c0.833-0.142,1.682-0.291,2.511-0.407c7.987-1.271,16-1.951,23.996-2.047c3.903-0.044,7.826,0.029,11.727,0.263
						c7.031,0.407,14.039,1.259,21.007,2.563C112.078,43.08,112.121,43.33,112.187,43.559"/>
				</defs>
				<clipPath id="SVGID_11_">
					<use xlink:href="#SVGID_10_"  overflow="visible"/>
				</clipPath>
				<defs>
					
						<filter id="Adobe_OpacityMaskFilter_1_" filterUnits="userSpaceOnUse" x="-21.295" y="-11.933" width="154.777" height="149.843">
						<feColorMatrix  type="matrix" values="1 0 0 0 0  0 1 0 0 0  0 0 1 0 0  0 0 0 1 0"/>
					</filter>
				</defs>
				<mask maskUnits="userSpaceOnUse" x="-21.295" y="-11.933" width="154.777" height="149.843" id="SVGID_12_">
					<g filter="url(#Adobe_OpacityMaskFilter_1_)">
						
							<linearGradient id="SVGID_13_" gradientUnits="userSpaceOnUse" x1="3.7065" y1="701.4736" x2="4.989" y2="701.4736" gradientTransform="matrix(-69.188 103.0684 103.0684 69.188 -71901.4141 -48980.2461)">
							<stop  offset="0" style="stop-color:#000000"/>
							<stop  offset="0.1624" style="stop-color:#030303"/>
							<stop  offset="0.2928" style="stop-color:#0D0D0D"/>
							<stop  offset="0.4122" style="stop-color:#1E1E1E"/>
							<stop  offset="0.525" style="stop-color:#363636"/>
							<stop  offset="0.6332" style="stop-color:#555555"/>
							<stop  offset="0.7379" style="stop-color:#7B7B7B"/>
							<stop  offset="0.8399" style="stop-color:#A7A7A7"/>
							<stop  offset="0.9371" style="stop-color:#DADADA"/>
							<stop  offset="1" style="stop-color:#FFFFFF"/>
						</linearGradient>
						<polygon clip-path="url(#SVGID_11_)" fill="url(#SVGID_13_)" points="133.482,54.276 77.336,137.911 -21.295,71.696 
							34.852,-11.933 						"/>
					</g>
				</mask>
				
					<linearGradient id="SVGID_14_" gradientUnits="userSpaceOnUse" x1="3.7065" y1="701.4736" x2="4.989" y2="701.4736" gradientTransform="matrix(-69.188 103.0684 103.0684 69.188 -71901.4141 -48980.2461)">
					<stop  offset="0" style="stop-color:#FDFFFF"/>
					<stop  offset="0.9104" style="stop-color:#FDFFFF"/>
					<stop  offset="1" style="stop-color:#FDFFFF"/>
				</linearGradient>
				<polygon clip-path="url(#SVGID_11_)" mask="url(#SVGID_12_)" fill="url(#SVGID_14_)" points="133.482,54.276 77.336,137.911 
					-21.295,71.696 34.852,-11.933 				"/>
			</g>
		</g>
	</g>
</g>
</svg>
