<svg id="Ebene_1" data-name="Ebene 1" xmlns="http://www.w3.org/2000/svg" xmlns:xlink="http://www.w3.org/1999/xlink" viewBox="0 0 264 30"><defs><style>.cls-1{fill:#535251;}.cls-2{fill:#4598d3;}.cls-3{fill:#515050;}.cls-4{fill:#4499d4;}.cls-5{opacity:0.21;fill:url(#linear-gradient);}.cls-5,.cls-6{isolation:isolate;}.cls-6{opacity:0.25;fill:url(#linear-gradient-2);}</style><linearGradient id="linear-gradient" x1="15.75" y1="16.13" x2="8.92" y2="8.85" gradientTransform="matrix(1, 0, 0, -1, 0, 32)" gradientUnits="userSpaceOnUse"><stop offset="0" stop-color="#fdffff" stop-opacity="0"/><stop offset="0.91" stop-color="#fdffff" stop-opacity="0.91"/><stop offset="1" stop-color="#fdffff"/></linearGradient><linearGradient id="linear-gradient-2" x1="31.65" y1="45.17" x2="8.95" y2="20.97" xlink:href="#linear-gradient"/></defs><title>iridium-header-small</title><g id="Text"><path class="cls-1" d="M41,8.21h2.78V21.29H41Z" transform="translate(0 0)"/><path class="cls-1" d="M61.15,10.15a2.46,2.46,0,0,0-.65-.92,3.33,3.33,0,0,0-1.16-.61,8.81,8.81,0,0,0-1.66-.31,22.17,22.17,0,0,0-2.34-.1h-9V21.29h2.78V16.63h6q1,0,1.62,0a7,7,0,0,1,1,.12,1.14,1.14,0,0,1,.43.15.35.35,0,0,1,.12.15,1.13,1.13,0,0,1,.08.45q0,.38,0,.9v2.86h2.77V18.43a9.33,9.33,0,0,0-.07-1.24,3,3,0,0,0-.34-1.1,2.11,2.11,0,0,0-.45-.58,2.59,2.59,0,0,0,.56-.63,3.39,3.39,0,0,0,.43-1.17,7.49,7.49,0,0,0,.12-1.41c0-.4,0-.77,0-1.09A3.57,3.57,0,0,0,61.15,10.15Zm-12,.59h6.2c.65,0,1.19,0,1.63,0a6.38,6.38,0,0,1,1,.09,1.15,1.15,0,0,1,.45.14.24.24,0,0,1,.1.1,1.31,1.31,0,0,1,.07.37c0,.23,0,.51,0,.83s0,.64,0,.89a1.66,1.66,0,0,1-.08.45.4.4,0,0,1-.12.16A1.5,1.5,0,0,1,58,14a7.39,7.39,0,0,1-1,.11c-.44,0-1,0-1.62,0h-6.2Z" transform="translate(0 0)"/><path class="cls-1" d="M63.48,8.21h2.78V21.29H63.48Z" transform="translate(0 0)"/><path class="cls-1" d="M84.15,11.3a3.88,3.88,0,0,0-.57-1.36,3.14,3.14,0,0,0-1.16-1,5.7,5.7,0,0,0-1.72-.55,14.67,14.67,0,0,0-2.38-.16H68.84V21.29h9.48a14.55,14.55,0,0,0,2.38-.17,5.71,5.71,0,0,0,1.72-.54,3.14,3.14,0,0,0,1.16-1,4,4,0,0,0,.57-1.36,7.8,7.8,0,0,0,.19-1.6c0-.56,0-1.17,0-1.85s0-1.29,0-1.85A7.63,7.63,0,0,0,84.15,11.3Zm-5.83,7.45h-6.7v-8h6.7c.63,0,1.17,0,1.59.06a3.16,3.16,0,0,1,.94.17.87.87,0,0,1,.38.27,1.53,1.53,0,0,1,.23.57A7.83,7.83,0,0,1,81.58,13c0,.5,0,1.1,0,1.79s0,1.29,0,1.79a8,8,0,0,1-.12,1.15,1.82,1.82,0,0,1-.23.57.83.83,0,0,1-.38.26,3.48,3.48,0,0,1-.94.18C79.48,18.74,78.94,18.75,78.32,18.75Z" transform="translate(0 0)"/><path class="cls-1" d="M86.46,8.21h2.78V21.29H86.46Z" transform="translate(0 0)"/><path class="cls-1" d="M104.08,14.75c0,.73,0,1.36,0,1.88a7.62,7.62,0,0,1-.11,1.22,1.74,1.74,0,0,1-.24.62.91.91,0,0,1-.39.29,3.58,3.58,0,0,1-.92.19c-.43,0-1,.05-1.59.05H97.37c-.63,0-1.17,0-1.59-.05a3.68,3.68,0,0,1-.92-.19.76.76,0,0,1-.38-.28,1.57,1.57,0,0,1-.24-.62,7.88,7.88,0,0,1-.11-1.23c0-.52,0-1.15,0-1.88V8.21H91.33v6.54c0,.7,0,1.34,0,1.92a9,9,0,0,0,.19,1.66,4.29,4.29,0,0,0,.57,1.4,3.1,3.1,0,0,0,1.15,1.06,5.41,5.41,0,0,0,1.73.57,13.42,13.42,0,0,0,2.38.18h3.45a13.46,13.46,0,0,0,2.39-.18,5.41,5.41,0,0,0,1.73-.57,3.1,3.1,0,0,0,1.15-1.06,4.51,4.51,0,0,0,.56-1.4,9,9,0,0,0,.19-1.66q0-.87,0-1.92V8.21h-2.79Z" transform="translate(0 0)"/><path class="cls-1" d="M125.35,8.21,118.83,18l-6.51-9.78H109V21.29h2.78V12l6.09,9.26H120l6-9.1v9.1h2.77V8.21Z" transform="translate(0 0)"/><path class="cls-2" d="M133.62,21.23V8.47h10.64a7.66,7.66,0,0,1,1.93.2,2.55,2.55,0,0,1,1.13.57,1.93,1.93,0,0,1,.52.95,5.48,5.48,0,0,1,.14,1.29,4.35,4.35,0,0,1-.09.94,3.66,3.66,0,0,1-.25.71,2.09,2.09,0,0,1-.34.5,1.76,1.76,0,0,1-.39.34,2,2,0,0,1-1.06.35,3,3,0,0,1,1.33.37,2.55,2.55,0,0,1,.91.87,3.36,3.36,0,0,1,.3.74,3.5,3.5,0,0,1,.12,1,9.12,9.12,0,0,1-.07,1.22,3.27,3.27,0,0,1-.25,1,2.22,2.22,0,0,1-.55.77,2.72,2.72,0,0,1-.95.56,7,7,0,0,1-1.45.32,15.41,15.41,0,0,1-2.06.11Zm9-7.44c.54,0,1,0,1.4,0a7.8,7.8,0,0,0,1-.12,2.34,2.34,0,0,0,.67-.26,1.27,1.27,0,0,0,.41-.42,1.81,1.81,0,0,0,.19-.62,6.87,6.87,0,0,0,0-.86,2.58,2.58,0,0,0-.12-.86.94.94,0,0,0-.41-.51,2,2,0,0,0-.81-.24,11.47,11.47,0,0,0-1.31-.07h-8.52v4Zm0,6.11c.62,0,1.16,0,1.61,0a8,8,0,0,0,1.15-.13,2.23,2.23,0,0,0,.77-.27,1.15,1.15,0,0,0,.45-.48,1.8,1.8,0,0,0,.22-.72,7.36,7.36,0,0,0,.06-1,4.79,4.79,0,0,0-.06-.81,1.3,1.3,0,0,0-.22-.58,1,1,0,0,0-.45-.38,2.52,2.52,0,0,0-.77-.23,8.32,8.32,0,0,0-1.15-.11c-.45,0-1,0-1.61,0h-7.44V19.9Z" transform="translate(0 0)"/><path class="cls-2" d="M166.25,21.23h-1.6V18.84c0-.39,0-.72,0-1a2.14,2.14,0,0,0-.14-.72,1.06,1.06,0,0,0-.38-.48,1.85,1.85,0,0,0-.73-.28,8,8,0,0,0-1.2-.14c-.48,0-1.08,0-1.79,0h-7.16v5.06h-1.6V8.47h9a24.07,24.07,0,0,1,2.46.11,8.25,8.25,0,0,1,1.65.31,2.8,2.8,0,0,1,1,.52,1.73,1.73,0,0,1,.51.72,3,3,0,0,1,.19.93q0,.51,0,1.14a8.2,8.2,0,0,1-.11,1.4,2.74,2.74,0,0,1-.38,1,2,2,0,0,1-.7.68,3.09,3.09,0,0,1-1.11.35,3.05,3.05,0,0,1,1.07.35,1.8,1.8,0,0,1,.61.65,2.65,2.65,0,0,1,.29,1,11.25,11.25,0,0,1,.07,1.24v2.39Zm-13-6.38h7.43c.71,0,1.31,0,1.79,0a8,8,0,0,0,1.2-.14,2,2,0,0,0,.73-.28,1.09,1.09,0,0,0,.38-.49,2,2,0,0,0,.14-.71c0-.28,0-.62,0-1s0-.67,0-.92a1.75,1.75,0,0,0-.14-.66.91.91,0,0,0-.38-.42,2.06,2.06,0,0,0-.73-.25,8.51,8.51,0,0,0-1.2-.11c-.48,0-1.08,0-1.79,0h-7.43Z" transform="translate(0 0)"/><path class="cls-2" d="M179.75,8.21a14.24,14.24,0,0,1,2.46.18,5.32,5.32,0,0,1,1.65.54,2.65,2.65,0,0,1,1,.91,3.75,3.75,0,0,1,.52,1.29,8.92,8.92,0,0,1,.19,1.66c0,.62,0,1.31,0,2.06s0,1.44,0,2.06a9,9,0,0,1-.19,1.67,3.75,3.75,0,0,1-.52,1.29,2.65,2.65,0,0,1-1,.91,5.32,5.32,0,0,1-1.65.54,14.24,14.24,0,0,1-2.46.18h-4.81a14.24,14.24,0,0,1-2.46-.18,5.32,5.32,0,0,1-1.65-.54,2.76,2.76,0,0,1-1-.91,3.75,3.75,0,0,1-.51-1.29,9,9,0,0,1-.19-1.67c0-.62,0-1.3,0-2.06s0-1.43,0-2.06a8.92,8.92,0,0,1,.19-1.66,3.75,3.75,0,0,1,.51-1.29,2.76,2.76,0,0,1,1-.91,5.42,5.42,0,0,1,1.65-.54,14.24,14.24,0,0,1,2.46-.18Zm0,12c.7,0,1.29,0,1.78-.06a4.42,4.42,0,0,0,1.2-.25,1.72,1.72,0,0,0,.73-.55,2.52,2.52,0,0,0,.38-.95,9.26,9.26,0,0,0,.13-1.45c0-.57,0-1.26,0-2.05s0-1.49,0-2.06a9.26,9.26,0,0,0-.13-1.45,2.52,2.52,0,0,0-.38-.95,1.6,1.6,0,0,0-.72-.54,4.12,4.12,0,0,0-1.2-.26c-.49,0-1.08-.06-1.79-.06h-4.81c-.7,0-1.3,0-1.78.06a4,4,0,0,0-1.2.26,1.66,1.66,0,0,0-.74.54,2.52,2.52,0,0,0-.37.95,8.19,8.19,0,0,0-.13,1.45c0,.57,0,1.26,0,2.06s0,1.48,0,2.05a8.09,8.09,0,0,0,.14,1.45,2.45,2.45,0,0,0,.37.95,1.66,1.66,0,0,0,.73.55,4.33,4.33,0,0,0,1.2.25c.48,0,1.08.06,1.78.06Z" transform="translate(0 0)"/><path class="cls-2" d="M200.27,8.47h1.86l5.19,11.45,5.05-11.45H214l-5.65,12.76h-2.13L201.2,10.08l-5,11.15h-2.26L187.64,8.47h1.86l5.58,11.43Z" transform="translate(0 0)"/><path class="cls-2" d="M224.86,14.06a20.34,20.34,0,0,1,2.25.11,7.81,7.81,0,0,1,1.58.32,3.1,3.1,0,0,1,1,.53,2.37,2.37,0,0,1,.59.72,2.62,2.62,0,0,1,.27.9,9.3,9.3,0,0,1,.06,1.09,5.29,5.29,0,0,1-.1,1.08,2.64,2.64,0,0,1-1.09,1.69,4.25,4.25,0,0,1-1.17.56,9.12,9.12,0,0,1-1.7.36,19.52,19.52,0,0,1-2.32.12h-2.12a18.47,18.47,0,0,1-2.1-.1,9.18,9.18,0,0,1-1.54-.27,4,4,0,0,1-1.07-.48,2.29,2.29,0,0,1-.68-.67,2.36,2.36,0,0,1-.35-.88,5.22,5.22,0,0,1-.11-1.09h1.6a2.56,2.56,0,0,0,.22,1.18,1.34,1.34,0,0,0,.71.65,4.23,4.23,0,0,0,1.31.27q.81.06,2,.06h2.12a16.25,16.25,0,0,0,2.32-.14,4.79,4.79,0,0,0,1.47-.42,1.69,1.69,0,0,0,.77-.77,2.65,2.65,0,0,0,.23-1.15,3.64,3.64,0,0,0-.15-1.13,1.37,1.37,0,0,0-.61-.72A3.35,3.35,0,0,0,227,15.5a15.78,15.78,0,0,0-2.15-.11h-2.2c-1,0-1.81,0-2.5-.11a10.74,10.74,0,0,1-1.75-.31,3.85,3.85,0,0,1-1.13-.51,2.08,2.08,0,0,1-.64-.69,2.48,2.48,0,0,1-.29-.87,8.24,8.24,0,0,1-.07-1,5.34,5.34,0,0,1,.11-1.08,2.4,2.4,0,0,1,.38-.9,3,3,0,0,1,.77-.72,4.59,4.59,0,0,1,1.27-.52,10.06,10.06,0,0,1,1.85-.32,23.51,23.51,0,0,1,2.54-.11h1.59q1.2,0,2.1.09a9.18,9.18,0,0,1,1.54.27,4,4,0,0,1,1.07.46,2.33,2.33,0,0,1,.69.67,2.36,2.36,0,0,1,.35.88,5.19,5.19,0,0,1,.1,1.09h-1.59a2.56,2.56,0,0,0-.22-1.18,1.34,1.34,0,0,0-.71-.63,4.3,4.3,0,0,0-1.32-.27c-.54,0-1.21-.05-2-.05h-1.6a24,24,0,0,0-2.63.11A5.68,5.68,0,0,0,219,10a1.56,1.56,0,0,0-.83.71,2.35,2.35,0,0,0-.24,1.12,4,4,0,0,0,.06.74,1.33,1.33,0,0,0,.24.57,1.36,1.36,0,0,0,.5.41,3.33,3.33,0,0,0,.86.28,9.56,9.56,0,0,0,1.3.15c.51,0,1.12.05,1.83.05Z" transform="translate(0 0)"/><path class="cls-2" d="M233.76,21.23V8.47h12.76V9.8H235.36v4.26H246v1.33H235.36v4.52h11.16v1.32Z" transform="translate(0 0)"/><path class="cls-2" d="M263.73,21.23h-1.59V18.84c0-.39,0-.72,0-1a2.41,2.41,0,0,0-.15-.72,1,1,0,0,0-.38-.48,1.85,1.85,0,0,0-.73-.28,8,8,0,0,0-1.19-.14c-.49,0-1.09,0-1.79,0h-7.17v5.06h-1.6V8.47h9a23.79,23.79,0,0,1,2.46.11,8.51,8.51,0,0,1,1.66.31,2.75,2.75,0,0,1,1,.52,1.85,1.85,0,0,1,.52.72,3,3,0,0,1,.19.93q0,.51,0,1.14a8.2,8.2,0,0,1-.11,1.4,3.14,3.14,0,0,1-.38,1,2,2,0,0,1-.71.68,3,3,0,0,1-1.1.35,3,3,0,0,1,1.06.35,1.8,1.8,0,0,1,.61.65,2.65,2.65,0,0,1,.29,1,9.23,9.23,0,0,1,.07,1.24v2.39Zm-13-6.38h7.43q1.07,0,1.8,0a8,8,0,0,0,1.19-.14,2,2,0,0,0,.73-.28,1,1,0,0,0,.38-.49,2,2,0,0,0,.14-.71c0-.28,0-.62,0-1s0-.67,0-.92a1.75,1.75,0,0,0-.14-.66.86.86,0,0,0-.38-.42,2.06,2.06,0,0,0-.73-.25,8.5,8.5,0,0,0-1.19-.11q-.74,0-1.8,0h-7.43Z" transform="translate(0 0)"/></g><g id="Small"><path class="cls-3" d="M32.69,6.08s0,0,0,0l-.07,0-.28.19-.38.25-.41.26L31.23,7l-.09.06-.38.22-.53.31-.48.27-.43.24L29,8.3l-.34.17a3.54,3.54,0,0,1-.48.23,34.3,34.3,0,0,1-3.45,1.51l-.5.18c-.07-.71-.17-1.36-.27-2v0l.22,0c1.31-.31,2.44-.63,3.46-1l.47-.15a2.32,2.32,0,0,1,.37-.13,2.68,2.68,0,0,1,.3-.12l.5-.19.55-.22h0c.29-.12.62-.25,1-.41l.72-.33.41-.2.24-.12.34.35Z" transform="translate(0 0)"/><path class="cls-3" d="M31.62,25.5a16.62,16.62,0,0,1-14.13,4.27c.41-.41.8-.87,1.2-1.35.06-.08.13-.15.2-.23L19,28c.11-.15.23-.28.34-.43s.1-.14.16-.22A13.46,13.46,0,0,0,31.2,22.6c2.38-2.93,2.31-5,2.31-5l-.29.25c-3.15,2.71-6.53,3.74-10.66,4.14.2-.52.39-1.05.58-1.61,0-.11.07-.22.1-.33a.11.11,0,0,0,0-.07h0c.07-.24.15-.48.21-.72a23.56,23.56,0,0,0,2.9-.72c1.31-.39,6-2.58,7-3.08l1.56-.77.78-.39a3.8,3.8,0,0,1,.73-.36S37.42,20.19,31.62,25.5Z" transform="translate(0 0)"/><path class="cls-4" d="M31.29,13.73l-.52.19-.7.26c-.37.15-.75.28-1.13.4l-.61.2c-.52.18-1,.31-1.57.46l-1.1.29-.9.19-.62.15c.08-.66.12-1.29.15-1.91,0-.13,0-.25,0-.38s0-.28,0-.42A37.18,37.18,0,0,0,29.76,11,4.74,4.74,0,0,0,31.29,13.73Z" transform="translate(0 0)"/><path class="cls-4" d="M36.68,11.69a2.73,2.73,0,0,1-3.08,1.09,2.44,2.44,0,0,1-.69-.33,2.7,2.7,0,0,1-1.19-2.62,2.93,2.93,0,0,1,.43-1.14,2.73,2.73,0,0,1,1.72-1.16,3.55,3.55,0,0,1,.55-.06,2.65,2.65,0,0,1,1.49.46A2.72,2.72,0,0,1,36.68,11.69Z" transform="translate(0 0)"/><path class="cls-4" d="M21.74,10.72c0-.11,0-.23,0-.35-.06-.86-.18-1.65-.3-2.37,0-.12-.05-.22-.06-.33a.34.34,0,0,1,0-.14.21.21,0,0,1,0-.13,30.66,30.66,0,0,0-4-.48c-.74,0-1.47-.06-2.23-.06a34.77,34.77,0,0,0-4.54.39l-.5.08-.17,0a29.25,29.25,0,0,0-3.08.71l-.68.2-.35.12c-.73.22-1.41.48-2.11.75A31.69,31.69,0,0,0,0,10.88,24.46,24.46,0,0,0,1.06,15.6,23.32,23.32,0,0,0,2.2,18.38h0a23,23,0,0,0,2,3.3c.26.36.53.71.82,1a23.2,23.2,0,0,0,9,6.81s0,0,0-.05l.15-.13A22.68,22.68,0,0,0,16.44,27l.17-.21.15-.17c.09-.13.2-.27.31-.4a23.6,23.6,0,0,0,2.41-3.92,1.54,1.54,0,0,1,.15-.32,20.27,20.27,0,0,0,1-2.63,2.45,2.45,0,0,1,.12-.31V19h0a20.67,20.67,0,0,0,.65-2.67s0-.11,0-.15,0-.24.06-.36a19,19,0,0,0,.26-2.54c0-.12,0-.24,0-.35A19.72,19.72,0,0,0,21.74,10.72ZM10.78,22l.06-4.4A2.87,2.87,0,0,1,11.16,12a2.88,2.88,0,0,1,2.21,5.16L15.44,23Z" transform="translate(0 0)"/><path class="cls-3" d="M30.85,4.25l-2.26,1.1a13.11,13.11,0,0,0-10-2l-.41.08L18,3.16a9.76,9.76,0,0,0-1.55-1.47,15,15,0,0,1,1.78-.47A15.41,15.41,0,0,1,30.85,4.25ZM17.14,6c-.73,0-1.47-.06-2.23,0a7.22,7.22,0,0,0-1.17-2c-.09-.12-.21-.23-.32-.35a5.24,5.24,0,0,0-2-1.29,5.11,5.11,0,0,0-.53-.13,3.76,3.76,0,0,0-1.38,0c-2.22.36-3.78,2.61-3.92,5.32-.71.22-1.41.49-2.09.75C3.31,4.18,5.71.65,9.17.08A6.18,6.18,0,0,1,13,.74l.52.3A7.33,7.33,0,0,1,15.3,2.55c.12.15.25.29.35.44A9.07,9.07,0,0,1,17.14,6Z" transform="translate(0 0)"/><path class="cls-5" d="M17.08,26.22a5.09,5.09,0,0,0-.32.4c-.06.06-.09.12-.15.17a1.73,1.73,0,0,1-.17.21,21.73,21.73,0,0,1-2.26,2.37c-.06,0-.09.09-.15.13s0,0,0,.05a23.2,23.2,0,0,1-9-6.81c-.29-.34-.56-.69-.82-1a22.5,22.5,0,0,1-2-3.3h.12C4.49,20.85,9.64,25.94,17.08,26.22Z" transform="translate(0 0)"/><path class="cls-6" d="M21.33,7.53A36.26,36.26,0,0,0,1.06,15.6,22.91,22.91,0,0,1,0,10.88,33.54,33.54,0,0,1,3.63,9.14c.7-.26,1.38-.52,2.11-.75l.35-.11.68-.21a31.28,31.28,0,0,1,3.08-.7l.17,0,.5-.08a33.12,33.12,0,0,1,4.54-.39c.76,0,1.49,0,2.23,0a32.5,32.5,0,0,1,4,.49A.21.21,0,0,0,21.33,7.53Z" transform="translate(0 0)"/></g></svg>