<?xml version="1.0" encoding="utf-8"?>
<!-- Generator: Adobe Illustrator 16.0.0, SVG Export Plug-In . SVG Version: 6.00 Build 0)  -->
<!DOCTYPE svg PUBLIC "-//W3C//DTD SVG 1.1//EN" "http://www.w3.org/Graphics/SVG/1.1/DTD/svg11.dtd">
<svg version="1.1" id="Layer_1" xmlns="http://www.w3.org/2000/svg" xmlns:xlink="http://www.w3.org/1999/xlink" x="0px" y="0px"
	 width="100px" height="82px" viewBox="0 0 100 82" enable-background="new 0 0 100 82" xml:space="preserve">
<g>
	<path fill="#4499D4" d="M57.191,29.954c-0.014-0.307-0.045-0.624-0.064-0.923c-0.176-2.25-0.468-4.334-0.799-6.216
		c-0.064-0.289-0.112-0.578-0.166-0.852c-0.021-0.125-0.048-0.241-0.069-0.366c-0.033-0.114-0.054-0.239-0.08-0.349
		c-3.484-0.65-6.988-1.075-10.504-1.277c-1.95-0.116-3.912-0.154-5.863-0.131c-3.998,0.047-8.004,0.386-11.998,1.02
		c-0.415,0.057-0.838,0.132-1.255,0.202c-0.158,0.03-0.316,0.051-0.467,0.087c-2.754,0.489-5.47,1.115-8.142,1.883
		c-0.579,0.157-1.151,0.322-1.727,0.507c-0.328,0.095-0.66,0.197-0.978,0.298c-1.88,0.603-3.707,1.264-5.529,1.985
		c-3.265,1.31-6.451,2.825-9.55,4.551c0.422,3.521,1.238,7.762,2.79,12.372c0.792,2.353,1.771,4.786,2.993,7.288
		c0.002,0.007,0.017,0.018,0.018,0.025c1.391,2.857,3.095,5.762,5.173,8.651c0.687,0.958,1.381,1.871,2.102,2.759
		c7.726,9.577,16.841,14.943,23.712,17.861c0.052-0.049,0.109-0.09,0.159-0.14c0.117-0.111,0.245-0.226,0.363-0.334
		c1.899-1.719,3.919-3.782,5.948-6.205c0.15-0.188,0.308-0.372,0.458-0.563c0.125-0.143,0.237-0.294,0.36-0.437
		c0.267-0.349,0.552-0.702,0.83-1.063c2.249-2.962,4.419-6.372,6.323-10.273c0.14-0.281,0.272-0.553,0.4-0.832
		c1.006-2.144,1.925-4.439,2.721-6.892c0.089-0.271,0.18-0.546,0.274-0.834c0.013-0.051,0.025-0.103,0.049-0.154l-0.001-0.006
		c0.734-2.39,1.284-4.744,1.687-7.008c0.027-0.131,0.048-0.27,0.075-0.391c0.055-0.314,0.104-0.617,0.146-0.924
		c0.37-2.308,0.585-4.523,0.683-6.657c0.011-0.321,0.023-0.632,0.021-0.951C57.36,33.666,57.312,31.76,57.191,29.954 M26.666,43.976
		c-0.106-0.203-0.194-0.416-0.259-0.647c-0.073-0.201-0.124-0.417-0.152-0.628c-0.101-0.616-0.08-1.218,0.061-1.789
		c0.06-0.268,0.152-0.531,0.282-0.781c0.589-1.305,1.811-2.292,3.34-2.541c1.828-0.296,3.576,0.54,4.498,2.006
		c0.171,0.246,0.3,0.524,0.412,0.807c0.102,0.266,0.176,0.559,0.225,0.855c0.175,1.045-0.024,2.039-0.502,2.891
		c-0.136,0.244-0.295,0.462-0.473,0.679c-0.221,0.27-0.486,0.517-0.759,0.735l1.187,3.216l1.164,3.134l-6.625,0.025l0.104-2.508
		l0.094-3.212c-1.123-0.371-2.062-1.168-2.595-2.237L26.666,43.976z"/>
	<path fill="#515050" d="M39.778,2.968c2.283-0.894,4.689-1.6,7.18-2.104c13.198-2.663,26.243,0.98,35.959,8.869l-0.201,0.098
		l-6.841,3.288C68.061,7.907,58.255,5.65,48.33,7.655c-0.885,0.17-1.758,0.379-2.62,0.619C43.95,6.207,41.948,4.419,39.778,2.968"/>
	<path fill="#515050" d="M87.853,14.777c-0.203,0.142-0.413,0.284-0.625,0.426c-0.607,0.394-1.214,0.827-1.844,1.224
		c-0.639,0.387-1.288,0.789-1.942,1.199c-0.432,0.261-0.861,0.529-1.312,0.79c-0.915,0.534-1.857,1.059-2.813,1.61
		c-0.714,0.401-1.447,0.75-2.185,1.159c-0.741,0.357-1.488,0.782-2.253,1.132c-3.042,1.508-6.279,2.874-9.644,4.149
		c-1.806,0.661-3.652,1.293-5.514,1.879c-0.249-2.125-0.582-4.05-0.937-5.768l-0.204-0.967c1.633-0.286,3.271-0.618,4.881-0.979
		c3.297-0.784,6.521-1.661,9.604-2.692c0.776-0.243,1.527-0.546,2.281-0.793c0.742-0.281,1.504-0.532,2.232-0.826
		c0.546-0.231,1.102-0.459,1.637-0.672c0.895-0.351,1.751-0.709,2.6-1.095c0.682-0.311,1.347-0.612,2.018-0.905
		c0.657-0.316,1.287-0.635,1.941-0.955c0.025-0.011,0.056-0.022,0.099-0.048c0.398,0.393,0.78,0.8,1.151,1.197
		C87.31,14.144,87.591,14.449,87.853,14.777"/>
	<path fill="#515050" d="M97.569,35.752c-0.634,0.333-1.275,0.688-1.897,1.029c-0.616,0.334-1.223,0.655-1.846,0.94l-3.842,1.813
		l-7.698,3.618l-1.917,0.902c-0.623,0.294-1.308,0.536-1.951,0.794c-1.312,0.519-2.594,1.078-3.939,1.55l-4.011,1.405
		c-1.325,0.463-2.694,0.802-4.064,1.17l-4.111,1.083c-1.313,0.332-2.575,0.722-3.898,0.955c-0.3,1.266-0.646,2.545-1.055,3.849
		c-0.49,1.594-1.028,3.12-1.598,4.594c0.084-0.242,16.707,2.515,33.4-11.779c0.456,2.944-4.608,10.049-6.462,12.315
		C74.266,70.306,61.619,74.327,48.624,72.77c-2.029,2.905-4.129,5.417-6.151,7.557c0.11,0.044,0.218,0.066,0.335,0.103l1.636,0.451
		c1.155,0.268,2.334,0.417,3.494,0.617c1.149,0.256,2.325,0.291,3.516,0.368c1.182,0.055,2.35,0.204,3.54,0.098l3.582-0.161
		l3.42-0.508l0.851-0.124c0.171-0.035,0.235-0.025,0.48-0.085l0.427-0.103l1.716-0.432c0.564-0.149,1.145-0.267,1.713-0.452
		l1.668-0.577l1.661-0.581l1.614-0.719l1.611-0.718c0.525-0.27,1.031-0.557,1.554-0.842l1.552-0.839
		c0.505-0.286,0.983-0.651,1.482-0.96c0.981-0.636,1.97-1.277,2.866-2.041c0.931-0.723,1.867-1.426,2.703-2.267
		c0.874-0.797,1.759-1.591,2.5-2.458l1.172-1.265l0.285-0.325l0.317-0.356c0.179-0.229,0.363-0.463,0.542-0.688
		c0.69-0.934,1.457-1.833,2.065-2.823l0.97-1.463c0.307-0.502,0.593-1.022,0.882-1.533c0.621-1.018,1.114-2.057,1.607-3.089
		c0.516-1.001,0.97-2.2,1.352-3.246l0.599-1.639c0.174-0.548,0.321-1.125,0.492-1.689l0.469-1.688l0.348-1.697
		c0.255-1.105,0.404-2.316,0.558-3.46c0.165-1.169,0.184-2.273,0.284-3.478c0.042-1.136-0.01-2.336-0.028-3.476l-0.006-0.817
		L97.569,35.752z"/>
	<path fill="#4499D4" d="M84.178,35.973c-1.324,0.521-2.684,0.977-4.016,1.506c-1.603,0.635-3.257,1.085-4.871,1.633
		c-1.619,0.568-3.304,0.994-4.943,1.418l-2.477,0.674l-2.509,0.542c-1.673,0.384-3.371,0.772-5.06,1.008l-0.496,0.084
		c0.297-2.753,0.396-5.374,0.354-7.827c6.503-1.829,13.087-4.237,19.33-7.401C79.881,30.816,81.493,33.849,84.178,35.973"/>
	<path fill="#4499D4" d="M98.682,30.437c-2.008,2.99-5.704,4.196-8.979,3.167c-0.693-0.208-1.378-0.527-2.013-0.956
		c-2.625-1.734-3.871-4.738-3.476-7.645c0.153-1.142,0.558-2.284,1.247-3.31c2.421-3.63,7.35-4.623,10.997-2.211
		C100.101,21.894,101.097,26.798,98.682,30.437"/>
	<path fill="#515050" d="M45.116,17.553c-1.951-0.108-3.912-0.154-5.864-0.122c-0.774-1.982-1.839-3.763-3.103-5.239
		c-0.264-0.331-0.549-0.636-0.846-0.933C33.743,9.681,31.938,8.535,30,7.9c-0.454-0.148-0.908-0.27-1.382-0.359
		c-1.173-0.224-2.396-0.26-3.616-0.062c-5.874,0.96-10.004,6.845-10.317,13.951c-1.881,0.592-3.706,1.264-5.532,1.981
		C8.725,12.789,14.99,3.541,24.115,2.061c3.54-0.578,7.058,0.098,10.199,1.722c0.464,0.245,0.929,0.515,1.374,0.804
		c1.669,1.045,3.218,2.384,4.58,3.954c0.313,0.369,0.621,0.753,0.927,1.157C42.907,11.951,44.255,14.616,45.116,17.553"/>
	<path fill="#515050" d="M30,7.901c1.796-1.24,3.69-2.346,5.687-3.313c1.669,1.044,3.219,2.383,4.581,3.953
		c0.312,0.367,0.622,0.753,0.927,1.157c-1.757,0.702-3.448,1.537-5.045,2.493c-0.264-0.33-0.549-0.636-0.845-0.933
		C33.744,9.681,31.938,8.535,30,7.901"/>
	<g opacity="0.21">
		<g>
			<defs>
				<rect id="SVGID_1_" x="5.801" y="50.059" width="39.104" height="29.272"/>
			</defs>
			<clipPath id="SVGID_2_">
				<use xlink:href="#SVGID_1_"  overflow="visible"/>
			</clipPath>
			<g clip-path="url(#SVGID_2_)">
				<defs>
					<path id="SVGID_3_" d="M44.905,70.589c-0.277,0.362-0.562,0.714-0.83,1.063c-0.124,0.144-0.236,0.294-0.36,0.437
						c-0.15,0.191-0.308,0.374-0.458,0.563c-2.029,2.423-4.049,4.485-5.948,6.205c-0.118,0.108-0.245,0.225-0.362,0.334
						c-0.05,0.05-0.107,0.091-0.159,0.14c-6.871-2.918-15.986-8.285-23.712-17.86c-0.72-0.89-1.415-1.803-2.102-2.759
						c-2.079-2.889-3.782-5.795-5.173-8.652c0.049,0,0.1,0.007,0.15,0.007c0.058,0.022,0.108,0.029,0.167,0.04
						C11.829,56.521,25.361,69.85,44.905,70.589"/>
				</defs>
				<clipPath id="SVGID_4_">
					<use xlink:href="#SVGID_3_"  overflow="visible"/>
				</clipPath>
				<defs>
					<filter id="Adobe_OpacityMaskFilter" filterUnits="userSpaceOnUse" x="-7.795" y="32.033" width="66.287" height="65.326">
						<feColorMatrix  type="matrix" values="1 0 0 0 0  0 1 0 0 0  0 0 1 0 0  0 0 0 1 0"/>
					</filter>
				</defs>
				<mask maskUnits="userSpaceOnUse" x="-7.795" y="32.033" width="66.287" height="65.326" id="SVGID_5_">
					<g filter="url(#Adobe_OpacityMaskFilter)">
						
							<linearGradient id="SVGID_6_" gradientUnits="userSpaceOnUse" x1="104.6504" y1="709.2383" x2="105.2915" y2="709.2383" gradientTransform="matrix(-18.7489 27.9299 27.9299 18.7489 -17810.2109 -16172.5625)">
							<stop  offset="0" style="stop-color:#000000"/>
							<stop  offset="0.1624" style="stop-color:#030303"/>
							<stop  offset="0.2928" style="stop-color:#0D0D0D"/>
							<stop  offset="0.4122" style="stop-color:#1E1E1E"/>
							<stop  offset="0.525" style="stop-color:#363636"/>
							<stop  offset="0.6332" style="stop-color:#555555"/>
							<stop  offset="0.7379" style="stop-color:#7B7B7B"/>
							<stop  offset="0.8399" style="stop-color:#A7A7A7"/>
							<stop  offset="0.9371" style="stop-color:#DADADA"/>
							<stop  offset="1" style="stop-color:#FFFFFF"/>
						</linearGradient>
						<polygon clip-path="url(#SVGID_4_)" fill="url(#SVGID_6_)" points="58.492,59.152 32.756,97.359 -7.795,70.239 17.944,32.033 
													"/>
					</g>
				</mask>
				
					<linearGradient id="SVGID_7_" gradientUnits="userSpaceOnUse" x1="104.6504" y1="709.2383" x2="105.2915" y2="709.2383" gradientTransform="matrix(-18.7489 27.9299 27.9299 18.7489 -17810.2109 -16172.5625)">
					<stop  offset="0" style="stop-color:#FDFFFF"/>
					<stop  offset="0.9104" style="stop-color:#FDFFFF"/>
					<stop  offset="1" style="stop-color:#FDFFFF"/>
				</linearGradient>
				<polygon clip-path="url(#SVGID_4_)" mask="url(#SVGID_5_)" fill="url(#SVGID_7_)" points="58.492,59.152 32.756,97.359 
					-7.795,70.239 17.944,32.033 				"/>
			</g>
		</g>
	</g>
	<g opacity="0.25">
		<g>
			<defs>
				<rect id="SVGID_8_" y="19.833" width="56.093" height="22.913"/>
			</defs>
			<clipPath id="SVGID_9_">
				<use xlink:href="#SVGID_8_"  overflow="visible"/>
			</clipPath>
			<g clip-path="url(#SVGID_9_)">
				<defs>
					<path id="SVGID_10_" d="M56.093,21.597c-2.053,0.576-27.585,0.389-53.304,21.149C1.238,38.137,0.421,33.895,0,30.375
						c3.099-1.726,6.286-3.242,9.551-4.552c1.822-0.72,3.648-1.382,5.529-1.985c0.318-0.101,0.65-0.203,0.978-0.298
						c0.576-0.186,1.148-0.35,1.727-0.507c2.672-0.767,5.388-1.394,8.142-1.883c0.151-0.036,0.31-0.057,0.467-0.087
						c0.417-0.07,0.841-0.145,1.255-0.203c3.994-0.633,8-0.972,11.998-1.02c1.951-0.022,3.913,0.015,5.863,0.131
						c3.515,0.202,7.02,0.627,10.503,1.277C56.039,21.358,56.061,21.482,56.093,21.597"/>
				</defs>
				<clipPath id="SVGID_11_">
					<use xlink:href="#SVGID_10_"  overflow="visible"/>
				</clipPath>
				<defs>
					<filter id="Adobe_OpacityMaskFilter_1_" filterUnits="userSpaceOnUse" x="-10.648" y="-6.053" width="77.389" height="74.662">
						<feColorMatrix  type="matrix" values="1 0 0 0 0  0 1 0 0 0  0 0 1 0 0  0 0 0 1 0"/>
					</filter>
				</defs>
				<mask maskUnits="userSpaceOnUse" x="-10.648" y="-6.053" width="77.389" height="74.662" id="SVGID_12_">
					<g filter="url(#Adobe_OpacityMaskFilter_1_)">
						
							<linearGradient id="SVGID_13_" gradientUnits="userSpaceOnUse" x1="104.5728" y1="717.8965" x2="105.2132" y2="717.8965" gradientTransform="matrix(-69.188 103.0684 103.0684 69.188 -66686.3125 -60480.375)">
							<stop  offset="0" style="stop-color:#000000"/>
							<stop  offset="0.1624" style="stop-color:#030303"/>
							<stop  offset="0.2928" style="stop-color:#0D0D0D"/>
							<stop  offset="0.4122" style="stop-color:#1E1E1E"/>
							<stop  offset="0.525" style="stop-color:#363636"/>
							<stop  offset="0.6332" style="stop-color:#555555"/>
							<stop  offset="0.7379" style="stop-color:#7B7B7B"/>
							<stop  offset="0.8399" style="stop-color:#A7A7A7"/>
							<stop  offset="0.9371" style="stop-color:#DADADA"/>
							<stop  offset="1" style="stop-color:#FFFFFF"/>
						</linearGradient>
						<polygon clip-path="url(#SVGID_11_)" fill="url(#SVGID_13_)" points="66.741,26.937 38.668,68.609 -10.648,35.616 
							17.426,-6.053 						"/>
					</g>
				</mask>
				
					<linearGradient id="SVGID_14_" gradientUnits="userSpaceOnUse" x1="104.5728" y1="717.8965" x2="105.2132" y2="717.8965" gradientTransform="matrix(-69.188 103.0684 103.0684 69.188 -66686.3125 -60480.375)">
					<stop  offset="0" style="stop-color:#FDFFFF"/>
					<stop  offset="0.9104" style="stop-color:#FDFFFF"/>
					<stop  offset="1" style="stop-color:#FDFFFF"/>
				</linearGradient>
				<polygon clip-path="url(#SVGID_11_)" mask="url(#SVGID_12_)" fill="url(#SVGID_14_)" points="66.741,26.937 38.668,68.609 
					-10.648,35.616 17.426,-6.053 				"/>
			</g>
		</g>
	</g>
</g>
</svg>
