<?xml version="1.0" encoding="utf-8"?>
<!-- Generator: Adobe Illustrator 16.0.0, SVG Export Plug-In . SVG Version: 6.00 Build 0)  -->
<!DOCTYPE svg PUBLIC "-//W3C//DTD SVG 1.1//EN" "http://www.w3.org/Graphics/SVG/1.1/DTD/svg11.dtd">
<svg version="1.1" id="Ebene_1" xmlns="http://www.w3.org/2000/svg" xmlns:xlink="http://www.w3.org/1999/xlink" x="0px" y="0px"
	 width="264px" height="30px" viewBox="0 0 264 30" enable-background="new 0 0 264 30" xml:space="preserve">
<g id="Text">
	<g>
		<path fill="#535251" d="M41,8.209h2.78v13.08H41V8.209z"/>
		<path fill="#535251" d="M61.15,10.151c-0.137-0.355-0.358-0.664-0.655-0.924c-0.289-0.25-0.667-0.448-1.16-0.604
			c-0.441-0.142-0.998-0.248-1.655-0.315c-0.637-0.067-1.423-0.099-2.338-0.099h-8.986v13.08h2.78v-4.66h5.958
			c0.642,0,1.181,0.01,1.619,0.033c0.412,0.023,0.75,0.061,1.008,0.113c0.264,0.057,0.382,0.121,0.43,0.156
			c0.056,0.039,0.092,0.088,0.121,0.152c0.045,0.111,0.073,0.271,0.082,0.451c0.013,0.25,0.021,0.545,0.021,0.895v2.859h2.778V18.43
			c0-0.457-0.022-0.871-0.07-1.236c-0.053-0.414-0.167-0.785-0.338-1.1c-0.12-0.223-0.272-0.419-0.457-0.584
			c0.22-0.179,0.408-0.388,0.558-0.629c0.206-0.329,0.355-0.725,0.438-1.175c0.077-0.406,0.115-0.882,0.115-1.411
			c0-0.395-0.01-0.76-0.028-1.087C61.349,10.827,61.274,10.471,61.15,10.151z M49.136,10.743h6.206c0.645,0,1.188,0.007,1.629,0.022
			c0.41,0.014,0.753,0.047,1.01,0.094c0.289,0.055,0.412,0.115,0.451,0.14c0.046,0.03,0.076,0.061,0.095,0.103
			c0.027,0.063,0.063,0.175,0.075,0.372c0.012,0.23,0.018,0.503,0.018,0.823c0,0.347-0.006,0.642-0.018,0.893
			c-0.009,0.18-0.04,0.337-0.084,0.451c-0.026,0.065-0.065,0.115-0.121,0.155c-0.049,0.032-0.167,0.098-0.431,0.154
			c-0.258,0.053-0.596,0.091-1.006,0.114c-0.438,0.022-0.977,0.033-1.618,0.033h-6.206V10.743z"/>
		<path fill="#535251" d="M63.484,8.209h2.78v13.08h-2.78V8.209z"/>
		<path fill="#535251" d="M84.152,11.296c-0.117-0.515-0.308-0.97-0.57-1.357c-0.275-0.411-0.667-0.751-1.161-1.017
			c-0.461-0.247-1.041-0.431-1.722-0.547c-0.647-0.111-1.452-0.165-2.382-0.165h-9.476v13.08h9.476c0.93,0,1.734-0.058,2.382-0.168
			c0.682-0.116,1.261-0.298,1.722-0.546c0.495-0.264,0.886-0.604,1.161-1.016c0.262-0.39,0.453-0.847,0.57-1.356
			c0.109-0.479,0.175-1.019,0.192-1.604c0.019-0.556,0.027-1.171,0.027-1.849s-0.008-1.294-0.027-1.849
			C84.327,12.314,84.261,11.774,84.152,11.296z M78.317,18.755h-6.698v-8.013h6.698c0.636,0,1.17,0.017,1.597,0.053
			c0.386,0.03,0.699,0.089,0.931,0.177c0.175,0.067,0.301,0.153,0.381,0.263c0.099,0.13,0.18,0.329,0.233,0.574
			c0.065,0.305,0.104,0.69,0.117,1.15c0.012,0.5,0.018,1.097,0.018,1.79c0,0.692-0.006,1.29-0.018,1.787
			c-0.013,0.461-0.052,0.848-0.117,1.151c-0.054,0.246-0.134,0.443-0.233,0.576c-0.081,0.107-0.206,0.193-0.381,0.262
			c-0.232,0.084-0.546,0.146-0.935,0.177C79.482,18.738,78.945,18.755,78.317,18.755z"/>
		<path fill="#535251" d="M86.46,8.209h2.779v13.08H86.46V8.209z"/>
		<path fill="#535251" d="M104.083,14.75c0,0.731-0.005,1.357-0.015,1.883c-0.009,0.487-0.045,0.896-0.113,1.219
			c-0.053,0.27-0.135,0.483-0.238,0.623c-0.086,0.119-0.214,0.213-0.388,0.284c-0.227,0.093-0.534,0.154-0.915,0.187
			c-0.43,0.037-0.965,0.058-1.595,0.058h-3.447c-0.632,0-1.169-0.021-1.596-0.058c-0.379-0.031-0.688-0.094-0.918-0.188
			c-0.174-0.07-0.299-0.162-0.382-0.277c-0.101-0.142-0.181-0.355-0.232-0.625c-0.066-0.324-0.102-0.733-0.114-1.226
			c-0.013-0.524-0.019-1.15-0.019-1.88V8.21h-2.78v6.54c0,0.7,0.007,1.34,0.022,1.916c0.019,0.613,0.08,1.173,0.188,1.665
			c0.115,0.528,0.307,1,0.565,1.403c0.275,0.427,0.663,0.781,1.155,1.055c0.46,0.258,1.042,0.449,1.726,0.572
			c0.651,0.117,1.453,0.174,2.387,0.174h3.447c0.935,0,1.738-0.057,2.389-0.174c0.686-0.125,1.265-0.314,1.726-0.572
			c0.492-0.273,0.879-0.629,1.153-1.059c0.254-0.401,0.442-0.871,0.558-1.399c0.108-0.494,0.172-1.052,0.192-1.659
			c0.019-0.581,0.026-1.221,0.026-1.922V8.21h-2.788L104.083,14.75z"/>
		<path fill="#535251" d="M125.345,8.209l-6.514,9.777l-6.509-9.777h-3.371v13.08h2.78v-9.26l6.089,9.26h2.195l5.982-9.1v9.1h2.778
			V8.209H125.345z"/>
	</g>
	<path fill="#4598D3" d="M133.623,21.234V8.474h10.641c0.799,0,1.441,0.066,1.928,0.196c0.486,0.129,0.863,0.321,1.123,0.572
		c0.267,0.254,0.438,0.568,0.528,0.944c0.089,0.375,0.134,0.808,0.134,1.296c0,0.354-0.031,0.667-0.092,0.938
		c-0.063,0.272-0.141,0.507-0.242,0.707c-0.1,0.2-0.213,0.366-0.34,0.503c-0.128,0.135-0.257,0.248-0.389,0.336
		c-0.311,0.21-0.665,0.33-1.063,0.356c0.496,0.027,0.939,0.148,1.326,0.365c0.168,0.095,0.328,0.212,0.487,0.355
		c0.155,0.14,0.298,0.313,0.422,0.521c0.126,0.209,0.228,0.455,0.304,0.732c0.08,0.281,0.116,0.604,0.116,0.969
		c0,0.442-0.021,0.848-0.063,1.217s-0.125,0.701-0.254,0.992c-0.127,0.295-0.309,0.551-0.549,0.772
		c-0.236,0.222-0.555,0.405-0.949,0.552c-0.396,0.148-0.879,0.258-1.455,0.328c-0.571,0.074-1.258,0.107-2.057,0.107h-9.559v0.002
		H133.623z M142.652,13.792c0.541,0,1.01-0.011,1.399-0.033c0.396-0.021,0.729-0.064,1.009-0.124c0.274-0.063,0.5-0.146,0.672-0.255
		c0.17-0.107,0.308-0.247,0.404-0.419c0.096-0.17,0.16-0.377,0.192-0.617c0.034-0.241,0.051-0.528,0.051-0.86
		c0-0.354-0.041-0.643-0.116-0.864c-0.078-0.222-0.217-0.394-0.414-0.512c-0.201-0.119-0.472-0.2-0.813-0.241
		c-0.341-0.041-0.777-0.063-1.31-0.063h-8.517v3.989L142.652,13.792L142.652,13.792z M142.652,19.904
		c0.619,0,1.156-0.008,1.609-0.027s0.842-0.063,1.154-0.125c0.316-0.064,0.57-0.156,0.766-0.275
		c0.194-0.119,0.346-0.273,0.451-0.473c0.108-0.197,0.184-0.438,0.221-0.72c0.039-0.281,0.061-0.622,0.061-1.021
		c0-0.313-0.021-0.58-0.061-0.811c-0.037-0.23-0.11-0.426-0.221-0.583c-0.105-0.157-0.257-0.284-0.451-0.381
		c-0.193-0.097-0.447-0.174-0.766-0.228c-0.313-0.057-0.701-0.094-1.154-0.112c-0.453-0.021-0.99-0.031-1.609-0.031h-7.438v4.784
		h7.438V19.904z"/>
	<path fill="#4598D3" d="M166.25,21.234h-1.596V18.84c0-0.386-0.004-0.72-0.021-1c-0.015-0.277-0.06-0.52-0.141-0.717
		c-0.083-0.2-0.208-0.361-0.379-0.482c-0.172-0.121-0.414-0.217-0.73-0.281c-0.314-0.066-0.717-0.111-1.199-0.139
		c-0.484-0.023-1.082-0.037-1.791-0.037h-7.168v5.051h-1.599V8.474h9.031c0.976,0,1.794,0.036,2.464,0.104
		c0.667,0.071,1.219,0.175,1.65,0.312c0.438,0.138,0.771,0.311,1.006,0.516c0.234,0.206,0.408,0.446,0.517,0.721
		c0.106,0.278,0.169,0.589,0.188,0.932c0.021,0.343,0.029,0.723,0.029,1.137c0,0.532-0.039,1-0.111,1.4
		c-0.074,0.402-0.197,0.744-0.379,1.027c-0.174,0.282-0.414,0.507-0.705,0.677c-0.293,0.167-0.662,0.287-1.104,0.353
		c0.441,0.066,0.797,0.185,1.063,0.35c0.268,0.167,0.473,0.383,0.615,0.646c0.145,0.269,0.238,0.584,0.289,0.949
		c0.045,0.364,0.068,0.779,0.068,1.244v2.393H166.25z M153.227,14.855h7.435c0.709,0,1.308-0.013,1.789-0.037
		c0.485-0.027,0.885-0.072,1.2-0.139c0.316-0.065,0.563-0.159,0.73-0.281c0.172-0.121,0.299-0.284,0.381-0.483
		c0.078-0.2,0.125-0.439,0.141-0.717c0.014-0.281,0.019-0.614,0.019-1.003c0-0.359-0.005-0.67-0.019-0.929
		c-0.016-0.262-0.063-0.48-0.141-0.656c-0.082-0.179-0.207-0.319-0.381-0.424c-0.169-0.105-0.415-0.188-0.73-0.244
		c-0.315-0.059-0.715-0.096-1.2-0.112c-0.481-0.017-1.08-0.027-1.789-0.027h-7.435V14.855z"/>
	<path fill="#4598D3" d="M179.747,8.209c0.976,0,1.797,0.058,2.464,0.177c0.667,0.121,1.217,0.3,1.648,0.54
		c0.434,0.243,0.765,0.544,0.996,0.911c0.232,0.365,0.402,0.794,0.512,1.288c0.109,0.492,0.171,1.048,0.191,1.669
		c0.019,0.621,0.028,1.307,0.028,2.061c0,0.752-0.011,1.439-0.028,2.06c-0.021,0.619-0.082,1.179-0.191,1.669
		c-0.108,0.495-0.278,0.924-0.512,1.288c-0.231,0.364-0.563,0.669-0.996,0.909s-0.981,0.421-1.648,0.539
		c-0.667,0.119-1.488,0.18-2.464,0.18h-4.802c-0.975,0-1.795-0.061-2.461-0.18c-0.67-0.118-1.219-0.299-1.651-0.539
		c-0.431-0.24-0.767-0.545-1-0.909c-0.235-0.364-0.408-0.793-0.517-1.288c-0.108-0.49-0.168-1.05-0.187-1.669
		c-0.019-0.621-0.024-1.308-0.024-2.06c0-0.754,0.01-1.439,0.024-2.061c0.017-0.621,0.076-1.177,0.187-1.669
		c0.107-0.494,0.281-0.923,0.517-1.288c0.233-0.367,0.567-0.668,1-0.911c0.435-0.24,0.981-0.419,1.651-0.54
		c0.666-0.119,1.486-0.177,2.461-0.177H179.747z M179.747,20.172c0.706,0,1.298-0.023,1.784-0.063
		c0.484-0.041,0.885-0.125,1.201-0.252c0.313-0.127,0.559-0.313,0.729-0.549c0.172-0.238,0.296-0.555,0.375-0.947
		c0.075-0.396,0.123-0.877,0.137-1.449c0.014-0.575,0.021-1.26,0.021-2.056c0-0.797-0.008-1.484-0.021-2.056
		c-0.015-0.573-0.063-1.058-0.137-1.449c-0.079-0.394-0.203-0.71-0.375-0.948c-0.169-0.238-0.413-0.421-0.725-0.548
		c-0.314-0.127-0.713-0.212-1.197-0.252c-0.484-0.043-1.082-0.063-1.792-0.063h-4.802c-0.707,0-1.305,0.02-1.789,0.063
		c-0.484,0.041-0.885,0.125-1.199,0.252c-0.316,0.127-0.559,0.311-0.732,0.548c-0.173,0.237-0.297,0.554-0.373,0.948
		c-0.078,0.392-0.123,0.876-0.136,1.449c-0.009,0.572-0.015,1.259-0.015,2.056c0,0.796,0.006,1.481,0.02,2.056
		c0.014,0.572,0.061,1.055,0.141,1.449c0.074,0.395,0.197,0.709,0.367,0.947c0.17,0.236,0.412,0.422,0.729,0.549
		c0.313,0.127,0.714,0.211,1.199,0.252c0.483,0.039,1.081,0.063,1.788,0.063H179.747z"/>
	<path fill="#4598D3" d="M200.273,8.474h1.854l5.189,11.448l5.051-11.448h1.664l-5.652,12.76h-2.125l-5.052-11.153l-5.05,11.153
		h-2.258l-6.25-12.76h1.857l5.583,11.43L200.273,8.474z"/>
	<path fill="#4598D3" d="M224.861,14.059c0.877,0,1.625,0.036,2.25,0.108c0.627,0.07,1.156,0.178,1.584,0.319
		c0.429,0.144,0.771,0.319,1.025,0.53c0.254,0.211,0.449,0.452,0.59,0.722c0.139,0.27,0.229,0.57,0.27,0.904
		s0.063,0.696,0.063,1.086c0,0.387-0.035,0.748-0.102,1.086c-0.072,0.34-0.193,0.649-0.372,0.933
		c-0.177,0.278-0.418,0.532-0.722,0.753c-0.305,0.221-0.692,0.406-1.164,0.563c-0.469,0.152-1.036,0.271-1.7,0.352
		c-0.662,0.081-1.435,0.12-2.321,0.12h-2.123c-0.8,0-1.498-0.03-2.098-0.093c-0.598-0.061-1.111-0.151-1.544-0.275
		c-0.431-0.125-0.789-0.284-1.071-0.477c-0.281-0.188-0.508-0.414-0.678-0.672c-0.17-0.256-0.287-0.551-0.352-0.881
		c-0.068-0.328-0.101-0.691-0.101-1.092h1.597c0,0.508,0.069,0.902,0.215,1.189c0.144,0.289,0.381,0.504,0.715,0.646
		c0.332,0.144,0.768,0.231,1.308,0.271c0.539,0.039,1.21,0.056,2.009,0.056h2.125c0.932,0,1.704-0.044,2.316-0.134
		c0.615-0.09,1.104-0.231,1.473-0.428c0.364-0.194,0.622-0.449,0.772-0.766c0.147-0.314,0.223-0.699,0.223-1.15
		s-0.049-0.826-0.151-1.129c-0.103-0.302-0.306-0.541-0.607-0.721c-0.303-0.177-0.729-0.307-1.273-0.379
		c-0.55-0.077-1.266-0.113-2.15-0.113h-2.195c-0.975,0-1.807-0.038-2.504-0.108c-0.693-0.073-1.275-0.177-1.749-0.312
		c-0.47-0.135-0.845-0.305-1.129-0.508c-0.282-0.202-0.498-0.433-0.644-0.692c-0.146-0.262-0.24-0.55-0.287-0.868
		c-0.043-0.319-0.065-0.663-0.065-1.036c0-0.386,0.035-0.746,0.104-1.081c0.065-0.332,0.199-0.63,0.385-0.9
		c0.188-0.268,0.445-0.507,0.771-0.717c0.33-0.21,0.748-0.388,1.261-0.528c0.515-0.143,1.129-0.25,1.85-0.32
		c0.721-0.073,1.564-0.107,2.541-0.107h1.596c0.797,0,1.497,0.028,2.094,0.088c0.6,0.057,1.111,0.149,1.543,0.272
		c0.434,0.124,0.795,0.281,1.076,0.464c0.287,0.187,0.516,0.408,0.684,0.667c0.17,0.257,0.287,0.549,0.354,0.876
		c0.063,0.327,0.1,0.688,0.1,1.088h-1.597c0-0.5-0.069-0.891-0.216-1.172c-0.143-0.284-0.379-0.495-0.714-0.635
		c-0.333-0.141-0.771-0.23-1.313-0.265c-0.543-0.038-1.215-0.055-2.011-0.055H223.2c-1.06,0-1.938,0.036-2.625,0.112
		c-0.685,0.076-1.228,0.202-1.628,0.379c-0.396,0.176-0.676,0.414-0.83,0.713c-0.156,0.299-0.234,0.672-0.234,1.121
		c0,0.278,0.021,0.524,0.061,0.74c0.035,0.216,0.117,0.406,0.236,0.568c0.117,0.165,0.286,0.301,0.502,0.412
		c0.215,0.111,0.5,0.203,0.856,0.275c0.353,0.07,0.786,0.123,1.3,0.152c0.51,0.03,1.122,0.047,1.829,0.047L224.861,14.059
		L224.861,14.059z"/>
	<path fill="#4598D3" d="M233.764,21.234V8.474h12.76v1.329h-11.164v4.256h10.635v1.329h-10.635v4.518h11.164v1.328H233.764
		L233.764,21.234z"/>
	<path fill="#4598D3" d="M263.734,21.234h-1.596V18.84c0-0.386-0.008-0.72-0.021-1c-0.017-0.277-0.063-0.52-0.144-0.717
		c-0.08-0.2-0.205-0.361-0.379-0.482c-0.172-0.121-0.414-0.217-0.729-0.281c-0.316-0.066-0.716-0.111-1.199-0.139
		c-0.483-0.023-1.082-0.037-1.789-0.037h-7.168v5.051h-1.599V8.474h9.031c0.975,0,1.797,0.036,2.463,0.104
		c0.666,0.071,1.219,0.175,1.652,0.312c0.436,0.138,0.77,0.311,1.004,0.516c0.235,0.206,0.409,0.446,0.518,0.721
		c0.107,0.278,0.173,0.589,0.191,0.932c0.018,0.343,0.027,0.723,0.027,1.137c0,0.532-0.036,1-0.111,1.4
		c-0.074,0.402-0.201,0.744-0.38,1.027c-0.176,0.282-0.409,0.507-0.706,0.677c-0.291,0.167-0.66,0.287-1.104,0.353
		c0.443,0.066,0.796,0.185,1.063,0.35c0.266,0.167,0.471,0.383,0.614,0.646c0.146,0.269,0.239,0.584,0.287,0.949
		c0.047,0.364,0.071,0.779,0.071,1.244v2.393H263.734z M250.71,14.855h7.433c0.709,0,1.305-0.013,1.793-0.037
		c0.481-0.027,0.883-0.072,1.198-0.139c0.316-0.065,0.56-0.159,0.729-0.281c0.173-0.121,0.298-0.284,0.38-0.483
		c0.081-0.2,0.126-0.439,0.14-0.717c0.014-0.281,0.02-0.614,0.02-1.003c0-0.359-0.006-0.67-0.02-0.929
		c-0.014-0.262-0.06-0.48-0.14-0.656c-0.082-0.179-0.207-0.319-0.38-0.424c-0.17-0.105-0.413-0.188-0.729-0.244
		c-0.315-0.059-0.717-0.096-1.198-0.112c-0.488-0.017-1.082-0.027-1.793-0.027h-7.433V14.855z"/>
</g>
<g id="Small">
	<path fill="#515050" d="M32.689,6.082c-0.014,0.001-0.021,0.014-0.025,0.015l-0.077,0.045c-0.094,0.059-0.186,0.13-0.279,0.19
		c-0.131,0.087-0.254,0.174-0.378,0.249c-0.14,0.087-0.267,0.173-0.407,0.26c-0.092,0.06-0.197,0.119-0.293,0.178l-0.092,0.059
		c-0.121,0.074-0.25,0.147-0.377,0.221c-0.174,0.103-0.35,0.205-0.528,0.307c-0.167,0.088-0.323,0.188-0.486,0.278
		c-0.134,0.074-0.278,0.159-0.424,0.233c-0.117,0.059-0.236,0.119-0.351,0.178c-0.114,0.058-0.229,0.116-0.343,0.175
		c-0.151,0.085-0.306,0.162-0.474,0.235c-1.003,0.511-2.139,0.995-3.457,1.503c-0.174,0.062-0.341,0.121-0.497,0.179
		c-0.067-0.703-0.173-1.361-0.271-1.962l-0.007-0.013c0.072-0.015,0.136-0.03,0.218-0.045c1.312-0.308,2.437-0.63,3.463-0.98
		c0.168-0.045,0.317-0.103,0.465-0.15c0.119-0.044,0.239-0.099,0.376-0.131c0.093-0.042,0.189-0.072,0.293-0.114
		c0.165-0.059,0.341-0.119,0.504-0.191c0.182-0.074,0.371-0.147,0.55-0.22l0.042-0.016c0.284-0.116,0.616-0.249,0.943-0.408
		c0.246-0.104,0.483-0.22,0.727-0.324c0.14-0.072,0.28-0.132,0.41-0.205c0.079-0.031,0.162-0.074,0.234-0.117
		c0.117,0.117,0.228,0.234,0.342,0.352C32.548,5.935,32.615,6.008,32.689,6.082z"/>
	<path fill="#515050" d="M31.621,25.505c-5.931,5.451-12.551,4.539-14.13,4.265c0.406-0.412,0.794-0.865,1.203-1.35
		c0.06-0.076,0.123-0.148,0.196-0.225c0.038-0.057,0.093-0.119,0.127-0.178c0.115-0.143,0.231-0.281,0.346-0.422
		c0.058-0.074,0.095-0.146,0.152-0.225c4.699,0.34,8.928-1.377,11.683-4.771c2.379-2.928,2.315-5.004,2.315-5.004l-0.294,0.25
		c-3.153,2.709-6.534,3.734-10.664,4.139c0.207-0.521,0.394-1.053,0.588-1.609c0.031-0.115,0.062-0.223,0.094-0.339
		c0.021-0.021,0.023-0.042,0.025-0.063v-0.002c0.067-0.24,0.146-0.477,0.205-0.719c0.847-0.143,1.614-0.341,2.898-0.723
		c1.319-0.393,5.975-2.577,7.001-3.078c0.525-0.256,1.042-0.509,1.559-0.771c0.258-0.131,0.521-0.262,0.783-0.394
		c0.228-0.115,0.493-0.296,0.733-0.354C36.444,13.933,37.417,20.188,31.621,25.505z"/>
	<path fill="#4499D4" d="M31.29,13.729c-0.174,0.07-0.35,0.131-0.521,0.192c-0.232,0.085-0.469,0.173-0.703,0.262
		c-0.362,0.146-0.747,0.275-1.122,0.393c-0.208,0.062-0.413,0.132-0.618,0.204c-0.521,0.177-1.05,0.314-1.569,0.455l-1.094,0.294
		l-0.908,0.195c-0.203,0.049-0.409,0.098-0.617,0.142c0.083-0.655,0.123-1.289,0.152-1.905c0.005-0.13,0.022-0.251,0.021-0.381
		c0.002-0.145,0.005-0.28,0.005-0.424c1.955-0.616,3.777-1.349,5.448-2.185C29.941,12.044,30.476,13.011,31.29,13.729z"/>
	<path fill="#4499D4" d="M36.676,11.693c-0.672,1.005-1.933,1.45-3.075,1.092c-0.247-0.081-0.476-0.186-0.686-0.331
		c-0.874-0.585-1.334-1.584-1.19-2.623c0.055-0.411,0.203-0.792,0.423-1.142c0.4-0.601,1.015-1.012,1.725-1.158
		c0.185-0.032,0.371-0.058,0.548-0.058c0.527,0,1.046,0.16,1.493,0.454C37.157,8.762,37.499,10.447,36.676,11.693z"/>
	<path fill="#4499D4" d="M21.739,10.724c-0.003-0.118-0.021-0.237-0.029-0.352C21.65,9.51,21.534,8.718,21.413,8
		c-0.026-0.116-0.052-0.22-0.059-0.326c-0.023-0.054-0.025-0.098-0.029-0.142c-0.023-0.044-0.026-0.089-0.029-0.132
		c-1.342-0.249-2.664-0.41-4.005-0.484c-0.738-0.044-1.474-0.059-2.23-0.057c-1.52,0.027-3.023,0.157-4.545,0.394
		c-0.173,0.027-0.322,0.045-0.494,0.074C9.963,7.342,9.905,7.355,9.846,7.369c-1.03,0.179-2.08,0.425-3.08,0.707
		c-0.231,0.071-0.44,0.13-0.671,0.203C5.978,8.309,5.858,8.352,5.74,8.395c-0.729,0.222-1.407,0.481-2.108,0.75
		C2.4,9.643,1.173,10.227,0,10.884c0.173,1.337,0.47,2.961,1.056,4.716c0.318,0.897,0.674,1.828,1.142,2.776
		c0,0.007,0,0.011,0,0.013c0.528,1.09,1.173,2.195,1.964,3.303c0.263,0.358,0.527,0.711,0.815,1.045c2.932,3.656,6.39,5.701,9,6.816
		c0.026-0.021,0.053-0.037,0.058-0.056c0.056-0.042,0.093-0.084,0.145-0.126c0.729-0.659,1.493-1.439,2.256-2.368
		c0.059-0.071,0.118-0.14,0.176-0.212c0.055-0.057,0.088-0.115,0.144-0.169c0.092-0.134,0.207-0.269,0.319-0.403
		c0.853-1.13,1.675-2.432,2.403-3.921c0.037-0.104,0.093-0.209,0.149-0.315c0.38-0.816,0.731-1.693,1.027-2.629
		c0.03-0.104,0.061-0.207,0.112-0.317c0.003-0.021,0.005-0.036,0.006-0.056v-0.006c0.289-0.912,0.496-1.805,0.644-2.67
		c0.007-0.048,0.027-0.101,0.029-0.148c0.027-0.117,0.037-0.233,0.058-0.354c0.145-0.875,0.229-1.725,0.262-2.542
		c0.001-0.118,0.003-0.236,0.002-0.355C21.798,12.135,21.787,11.413,21.739,10.724z M10.78,21.988l0.057-4.395
		c-0.996-0.308-1.812-1.143-2.016-2.241c-0.268-1.567,0.76-3.075,2.339-3.355c1.556-0.291,3.074,0.749,3.344,2.316
		c0.205,1.126-0.266,2.211-1.138,2.849l2.074,5.858L10.78,21.988z"/>
	<path fill="#515050" d="M30.85,4.252l-2.258,1.097c-2.22-1.464-4.743-2.226-7.321-2.226c-0.879,0-1.761,0.088-2.64,0.265
		c-0.143,0.029-0.283,0.058-0.407,0.087c-0.087-0.104-0.175-0.207-0.264-0.31c-0.47-0.555-0.995-1.052-1.549-1.479
		c0.583-0.19,1.169-0.35,1.781-0.468C22.666,0.311,27.269,1.422,30.85,4.252z M17.141,5.994c-0.734-0.044-1.472-0.059-2.227-0.045
		c-0.293-0.76-0.702-1.435-1.173-2.005c-0.091-0.119-0.207-0.236-0.323-0.353c-0.588-0.601-1.287-1.04-2.02-1.288
		c-0.175-0.058-0.351-0.09-0.527-0.132c-0.44-0.088-0.909-0.102-1.376-0.017C7.267,2.509,5.71,4.762,5.569,7.473
		C4.864,7.694,4.163,7.956,3.485,8.222C3.312,4.177,5.71,0.647,9.169,0.077c1.348-0.22,2.67,0.042,3.87,0.659
		c0.176,0.101,0.352,0.203,0.526,0.307c0.642,0.397,1.229,0.909,1.732,1.509c0.12,0.146,0.255,0.292,0.352,0.44
		C16.314,3.855,16.818,4.867,17.141,5.994z"/>
	<linearGradient id="SVGID_1_" gradientUnits="userSpaceOnUse" x1="15.7495" y1="15.8711" x2="8.9243" y2="23.1514">
		<stop  offset="0" style="stop-color:#FDFFFF;stop-opacity:0"/>
		<stop  offset="0.9104" style="stop-color:#FDFFFF;stop-opacity:0.9104"/>
		<stop  offset="1" style="stop-color:#FDFFFF"/>
	</linearGradient>
	<path opacity="0.21" fill="url(#SVGID_1_)" enable-background="new    " d="M17.076,26.221c-0.113,0.135-0.228,0.271-0.319,0.402
		c-0.055,0.055-0.089,0.113-0.144,0.169c-0.058,0.073-0.118,0.14-0.176,0.212c-0.763,0.928-1.527,1.712-2.257,2.368
		c-0.056,0.042-0.089,0.084-0.145,0.126c-0.005,0.02-0.031,0.036-0.058,0.055c-2.609-1.113-6.068-3.16-9-6.814
		c-0.288-0.336-0.553-0.688-0.815-1.047c-0.791-1.105-1.436-2.211-1.964-3.303c0.027,0,0.054,0.008,0.059,0.008
		c0.028,0.004,0.055,0.006,0.06,0.016C4.485,20.855,9.64,25.938,17.076,26.221z"/>
	<linearGradient id="SVGID_2_" gradientUnits="userSpaceOnUse" x1="31.647" y1="-13.1743" x2="8.9539" y2="11.0319">
		<stop  offset="0" style="stop-color:#FDFFFF;stop-opacity:0"/>
		<stop  offset="0.9104" style="stop-color:#FDFFFF;stop-opacity:0.9104"/>
		<stop  offset="1" style="stop-color:#FDFFFF"/>
	</linearGradient>
	<path opacity="0.25" fill="url(#SVGID_2_)" enable-background="new    " d="M21.325,7.533C20.538,7.752,10.839,7.68,1.056,15.602
		C0.47,13.845,0.149,12.221,0,10.884c1.173-0.657,2.4-1.242,3.632-1.74c0.701-0.269,1.38-0.528,2.108-0.75
		c0.118-0.042,0.237-0.085,0.355-0.116c0.231-0.073,0.439-0.133,0.671-0.203c1-0.283,2.049-0.528,3.08-0.708
		c0.059-0.013,0.118-0.026,0.176-0.04c0.172-0.029,0.322-0.047,0.494-0.074c1.521-0.237,3.025-0.368,4.545-0.395
		c0.756-0.002,1.492,0.013,2.23,0.057c1.341,0.074,2.663,0.235,4.005,0.484C21.299,7.444,21.301,7.488,21.325,7.533z"/>
</g>
</svg>
