<?xml version="1.0" encoding="utf-8"?>
<!-- Generator: Adobe Illustrator 16.0.0, SVG Export Plug-In . SVG Version: 6.00 Build 0)  -->
<!DOCTYPE svg PUBLIC "-//W3C//DTD SVG 1.1//EN" "http://www.w3.org/Graphics/SVG/1.1/DTD/svg11.dtd">
<svg version="1.1" id="Ebene_1" xmlns="http://www.w3.org/2000/svg" xmlns:xlink="http://www.w3.org/1999/xlink" x="0px" y="0px"
	 width="200px" height="44px" viewBox="0 0 200 44" enable-background="new 0 0 200 44" xml:space="preserve">
<g>
	<g>
		<path fill="#449AD5" d="M102.534,10.587c-0.006-0.11-0.016-0.219-0.024-0.325c-0.062-0.796-0.163-1.534-0.281-2.197
			c-0.02-0.102-0.036-0.204-0.056-0.304c-0.01-0.041-0.017-0.084-0.027-0.127c-0.01-0.041-0.02-0.084-0.026-0.123
			c-1.23-0.232-2.46-0.38-3.7-0.453c-0.687-0.039-1.379-0.055-2.066-0.044c-1.407,0.018-2.819,0.136-4.224,0.36
			c-0.149,0.022-0.296,0.046-0.444,0.072c-0.054,0.009-0.111,0.018-0.164,0.03c-0.97,0.173-1.926,0.394-2.868,0.664
			c-0.204,0.058-0.407,0.117-0.61,0.181c-0.113,0.034-0.23,0.071-0.344,0.106c-0.66,0.21-1.306,0.448-1.947,0.701
			c-1.151,0.462-2.272,1-3.365,1.608c0.149,1.245,0.438,2.747,0.983,4.374c0.279,0.833,0.625,1.695,1.054,2.576
			c0,0.003,0.004,0.007,0.005,0.01c0.492,1.009,1.092,2.036,1.823,3.058c0.241,0.338,0.488,0.662,0.74,0.975
			c2.722,3.386,5.931,5.283,8.355,6.315c0.017-0.018,0.035-0.032,0.052-0.05c0.044-0.04,0.087-0.078,0.13-0.118
			c0.668-0.608,1.383-1.334,2.094-2.192c0.054-0.068,0.11-0.132,0.164-0.199c0.041-0.052,0.082-0.104,0.123-0.155
			c0.097-0.123,0.196-0.248,0.292-0.375c0.793-1.045,1.559-2.252,2.232-3.632c0.049-0.099,0.092-0.197,0.14-0.295
			c0.351-0.758,0.676-1.57,0.957-2.434c0.031-0.099,0.063-0.194,0.096-0.296c0.006-0.018,0.012-0.036,0.018-0.055l0-0.002
			c0.257-0.845,0.451-1.675,0.597-2.478c0.005-0.044,0.014-0.093,0.022-0.138c0.021-0.109,0.038-0.216,0.052-0.327
			c0.132-0.814,0.207-1.6,0.242-2.352c0.005-0.112,0.01-0.224,0.01-0.333C102.592,11.902,102.575,11.227,102.534,10.587z
			 M91.781,15.545c-0.038-0.072-0.067-0.148-0.093-0.229c-0.024-0.072-0.041-0.146-0.053-0.222
			c-0.036-0.217-0.027-0.432,0.021-0.631c0.022-0.098,0.055-0.188,0.098-0.277c0.208-0.46,0.639-0.811,1.178-0.898
			c0.644-0.105,1.26,0.191,1.585,0.709c0.059,0.086,0.106,0.184,0.144,0.283c0.035,0.096,0.064,0.2,0.082,0.305
			c0.06,0.368-0.011,0.721-0.178,1.02c-0.048,0.086-0.104,0.166-0.166,0.239c-0.08,0.098-0.171,0.186-0.27,0.262l0.42,1.137
			l0.409,1.111l-2.332,0.007l0.036-0.885l0.034-1.137c-0.396-0.133-0.728-0.411-0.915-0.791L91.781,15.545z"/>
		<path fill="#515050" d="M96.398,1.049c0.808-0.317,1.651-0.565,2.529-0.743c4.651-0.942,9.246,0.346,12.669,3.134l-0.073,0.035
			l-2.411,1.162c-2.752-1.843-6.205-2.64-9.702-1.933c-0.313,0.062-0.62,0.136-0.921,0.222C97.869,2.193,97.164,1.563,96.398,1.049z
			"/>
		<path fill="#515050" d="M113.336,5.224c-0.074,0.05-0.15,0.099-0.222,0.149c-0.215,0.139-0.43,0.293-0.651,0.433
			c-0.226,0.137-0.453,0.279-0.683,0.423c-0.154,0.093-0.304,0.188-0.463,0.279c-0.319,0.188-0.655,0.374-0.99,0.569
			c-0.255,0.143-0.51,0.266-0.771,0.409c-0.262,0.128-0.521,0.276-0.795,0.401c-1.067,0.532-2.212,1.016-3.394,1.468
			c-0.637,0.23-1.287,0.455-1.944,0.662c-0.086-0.75-0.202-1.432-0.331-2.037l-0.071-0.344c0.577-0.102,1.152-0.218,1.719-0.344
			c1.164-0.277,2.299-0.587,3.382-0.952c0.275-0.086,0.538-0.194,0.804-0.282c0.264-0.099,0.531-0.189,0.785-0.292
			c0.193-0.082,0.39-0.162,0.578-0.237c0.315-0.125,0.618-0.25,0.916-0.387c0.238-0.11,0.476-0.218,0.711-0.321
			c0.232-0.11,0.455-0.224,0.681-0.335c0.011-0.005,0.021-0.01,0.036-0.018c0.143,0.138,0.276,0.281,0.408,0.422
			C113.144,5,113.239,5.108,113.336,5.224z"/>
		<path fill="#515050" d="M116.756,12.638c-0.224,0.117-0.449,0.245-0.666,0.365c-0.219,0.117-0.432,0.229-0.652,0.329l-1.354,0.643
			l-2.709,1.279l-0.679,0.317c-0.219,0.104-0.458,0.19-0.685,0.282c-0.463,0.182-0.917,0.381-1.387,0.549l-1.414,0.496
			c-0.469,0.166-0.95,0.286-1.434,0.413l-1.447,0.385c-0.463,0.116-0.908,0.255-1.372,0.336c-0.109,0.447-0.23,0.901-0.37,1.361
			c-0.173,0.563-0.362,1.104-0.566,1.625c0.032-0.085,5.887,0.887,11.764-4.164c0.164,1.038-1.618,3.55-2.273,4.354
			c-2.965,3.646-7.42,5.067-11.998,4.515c-0.713,1.027-1.452,1.917-2.167,2.674c0.041,0.015,0.079,0.022,0.118,0.037l0.579,0.157
			c0.406,0.096,0.822,0.148,1.228,0.221c0.408,0.088,0.823,0.103,1.238,0.127c0.417,0.021,0.83,0.074,1.25,0.035l1.261-0.056
			l1.201-0.18l0.304-0.043c0.059-0.013,0.08-0.008,0.168-0.031l0.149-0.035l0.605-0.154c0.201-0.052,0.406-0.092,0.604-0.159
			l0.588-0.204l0.585-0.206l0.568-0.253l0.567-0.254c0.184-0.097,0.363-0.199,0.547-0.299l0.548-0.297
			c0.18-0.102,0.346-0.228,0.522-0.338c0.346-0.226,0.692-0.453,1.008-0.722c0.328-0.254,0.657-0.505,0.954-0.801
			c0.306-0.283,0.62-0.564,0.879-0.871l0.413-0.446l0.103-0.113l0.109-0.128c0.065-0.079,0.128-0.162,0.19-0.243
			c0.245-0.33,0.515-0.648,0.728-0.999l0.344-0.518c0.107-0.174,0.21-0.361,0.31-0.54c0.218-0.36,0.392-0.729,0.565-1.094
			c0.182-0.352,0.341-0.776,0.477-1.146l0.212-0.578c0.06-0.195,0.112-0.398,0.174-0.6l0.164-0.597l0.122-0.6
			c0.091-0.39,0.145-0.818,0.197-1.224c0.058-0.413,0.064-0.802,0.101-1.227c0.015-0.403-0.004-0.826-0.01-1.23l-0.001-0.288
			L116.756,12.638z"/>
		<path fill="#4598D3" d="M112.037,12.713c-0.465,0.188-0.944,0.347-1.412,0.533c-0.566,0.225-1.151,0.385-1.718,0.58
			c-0.571,0.2-1.163,0.349-1.742,0.502l-0.869,0.237l-0.887,0.192c-0.587,0.135-1.188,0.273-1.782,0.354l-0.175,0.029
			c0.107-0.971,0.143-1.897,0.127-2.767c2.292-0.644,4.609-1.499,6.809-2.616C110.524,10.891,111.093,11.965,112.037,12.713z"/>
		<path fill="#4598D3" d="M117.146,10.758c-0.706,1.061-2.01,1.485-3.162,1.121c-0.243-0.075-0.484-0.186-0.709-0.337
			c-0.923-0.615-1.364-1.675-1.226-2.702c0.055-0.407,0.197-0.808,0.441-1.17c0.852-1.286,2.589-1.634,3.872-0.784
			C117.649,7.739,117.999,9.474,117.146,10.758z"/>
		<path fill="#515050" d="M98.28,6.205c-0.687-0.039-1.378-0.054-2.066-0.044c-0.271-0.701-0.647-1.329-1.091-1.852
			c-0.095-0.116-0.194-0.225-0.299-0.331c-0.549-0.555-1.186-0.962-1.867-1.188c-0.16-0.051-0.322-0.093-0.488-0.125
			c-0.414-0.081-0.844-0.093-1.274-0.021c-2.071,0.337-3.523,2.418-3.636,4.929c-0.661,0.21-1.304,0.447-1.947,0.701
			c-0.152-3.754,2.056-7.023,5.269-7.549c1.25-0.204,2.489,0.035,3.593,0.611C94.64,1.424,94.8,1.517,94.958,1.62
			c0.589,0.371,1.132,0.843,1.611,1.399c0.112,0.129,0.222,0.267,0.327,0.408C97.5,4.224,97.979,5.166,98.28,6.205z"/>
		
			<linearGradient id="SVGID_1_" gradientUnits="userSpaceOnUse" x1="133.4033" y1="-12.6689" x2="128.2049" y2="-7.1239" gradientTransform="matrix(0.9869 -0.1613 0.1613 0.9869 -35.0176 50.4595)">
			<stop  offset="0" style="stop-color:#FDFDFF;stop-opacity:0"/>
			<stop  offset="0.9104" style="stop-color:#FDFDFF;stop-opacity:0.9104"/>
			<stop  offset="1" style="stop-color:#FDFDFF"/>
		</linearGradient>
		<path opacity="0.21" fill="url(#SVGID_1_)" d="M98.203,24.953c-0.096,0.127-0.195,0.252-0.292,0.375
			c-0.041,0.051-0.082,0.104-0.123,0.155c-0.054,0.067-0.11,0.131-0.164,0.199c-0.711,0.858-1.425,1.584-2.094,2.192
			c-0.043,0.04-0.086,0.078-0.13,0.118c-0.018,0.018-0.035,0.032-0.052,0.05c-2.425-1.032-5.633-2.929-8.355-6.315
			c-0.252-0.313-0.499-0.636-0.74-0.975c-0.731-1.021-1.332-2.048-1.823-3.058c0.018,0,0.036,0.003,0.054,0.003
			c0.022,0.005,0.039,0.008,0.06,0.014C86.556,19.979,91.322,24.691,98.203,24.953z"/>
		
			<linearGradient id="SVGID_2_" gradientUnits="userSpaceOnUse" x1="149.7495" y1="-38.8438" x2="130.5672" y2="-18.3826" gradientTransform="matrix(0.9869 -0.1613 0.1613 0.9869 -35.0176 50.4595)">
			<stop  offset="0" style="stop-color:#FDFDFF;stop-opacity:0"/>
			<stop  offset="0.9104" style="stop-color:#FDFDFF;stop-opacity:0.9104"/>
			<stop  offset="1" style="stop-color:#FDFDFF"/>
		</linearGradient>
		<path opacity="0.25" fill="url(#SVGID_2_)" d="M102.145,7.634c-0.722,0.203-9.715,0.138-18.775,7.475
			c-0.545-1.627-0.834-3.128-0.983-4.374c1.093-0.608,2.214-1.146,3.365-1.608c0.641-0.253,1.287-0.49,1.947-0.701
			c0.114-0.035,0.231-0.072,0.344-0.106c0.203-0.064,0.406-0.123,0.61-0.181c0.941-0.27,1.897-0.491,2.868-0.664
			c0.053-0.012,0.11-0.021,0.164-0.03c0.148-0.026,0.295-0.051,0.444-0.072c1.405-0.224,2.817-0.342,4.224-0.36
			c0.687-0.01,1.379,0.005,2.066,0.044c1.24,0.073,2.47,0.221,3.7,0.453C102.125,7.55,102.135,7.593,102.145,7.634z"/>
	</g>
	<g>
		<g>
			<rect y="31.935" fill="#515050" width="2.516" height="11.842"/>
			<path fill="#515050" d="M18.241,33.691c-0.125-0.318-0.324-0.598-0.593-0.833c-0.26-0.228-0.604-0.406-1.048-0.548
				c-0.4-0.128-0.904-0.224-1.5-0.286c-0.576-0.059-1.288-0.089-2.118-0.089H4.848v11.842h2.517v-4.22h5.394
				c0.58,0,1.068,0.009,1.465,0.031c0.374,0.019,0.679,0.054,0.912,0.104c0.24,0.049,0.346,0.107,0.39,0.139
				c0.05,0.037,0.084,0.081,0.109,0.14c0.041,0.105,0.067,0.245,0.075,0.409c0.012,0.226,0.017,0.496,0.017,0.807v2.591h2.517
				v-2.591c0-0.414-0.022-0.789-0.063-1.116c-0.05-0.377-0.153-0.715-0.306-0.997c-0.109-0.201-0.247-0.378-0.414-0.529
				c0.199-0.161,0.368-0.351,0.505-0.567c0.187-0.299,0.321-0.656,0.396-1.064c0.068-0.369,0.104-0.799,0.104-1.278
				c0-0.359-0.009-0.686-0.025-0.982C18.42,34.303,18.354,33.981,18.241,33.691z M7.365,34.23h5.617
				c0.584,0,1.076,0.007,1.475,0.021c0.373,0.014,0.681,0.039,0.916,0.083c0.259,0.049,0.372,0.106,0.408,0.127
				c0.042,0.024,0.068,0.053,0.086,0.094c0.024,0.056,0.056,0.157,0.066,0.334c0.011,0.209,0.017,0.458,0.017,0.746
				c0,0.313-0.005,0.583-0.017,0.806c-0.008,0.167-0.035,0.307-0.075,0.409c-0.025,0.063-0.059,0.106-0.11,0.144
				c-0.043,0.028-0.15,0.087-0.389,0.138c-0.233,0.05-0.54,0.082-0.912,0.101c-0.396,0.021-0.884,0.031-1.464,0.031H7.365V34.23z"/>
			<rect x="20.355" y="31.935" fill="#515050" width="2.516" height="11.842"/>
			<path fill="#515050" d="M39.065,34.729c-0.106-0.463-0.28-0.876-0.517-1.23c-0.25-0.371-0.604-0.679-1.051-0.918
				c-0.417-0.224-0.942-0.39-1.56-0.495c-0.586-0.101-1.313-0.15-2.157-0.15h-8.577v11.842h8.577c0.844,0,1.57-0.052,2.157-0.15
				c0.618-0.107,1.143-0.273,1.56-0.497c0.447-0.24,0.802-0.548,1.051-0.918c0.237-0.351,0.411-0.765,0.517-1.231
				c0.098-0.433,0.156-0.919,0.173-1.45c0.017-0.504,0.025-1.063,0.025-1.676c0-0.613-0.008-1.171-0.025-1.672
				C39.222,35.649,39.164,35.163,39.065,34.729z M33.78,41.483h-6.062V34.23h6.062c0.575,0,1.062,0.016,1.447,0.044
				c0.349,0.029,0.632,0.084,0.842,0.165c0.158,0.058,0.271,0.137,0.346,0.234c0.089,0.12,0.161,0.3,0.209,0.522
				c0.059,0.274,0.094,0.627,0.105,1.041c0.012,0.453,0.018,0.991,0.018,1.62c0,0.629-0.006,1.167-0.018,1.621
				c-0.011,0.417-0.046,0.766-0.105,1.043c-0.048,0.219-0.12,0.399-0.209,0.52c-0.075,0.098-0.188,0.176-0.346,0.237
				c-0.21,0.077-0.495,0.133-0.845,0.161C34.837,41.468,34.351,41.483,33.78,41.483z"/>
			<rect x="41.153" y="31.935" fill="#515050" width="2.516" height="11.842"/>
			<path fill="#515050" d="M57.108,37.855c0,0.663-0.004,1.232-0.014,1.705c-0.009,0.44-0.042,0.812-0.103,1.106
				c-0.049,0.242-0.123,0.435-0.215,0.563c-0.079,0.106-0.192,0.192-0.351,0.256c-0.205,0.082-0.484,0.141-0.829,0.17
				c-0.388,0.033-0.873,0.047-1.442,0.047h-3.122c-0.573,0-1.059-0.014-1.445-0.047c-0.343-0.03-0.623-0.089-0.831-0.171
				c-0.158-0.064-0.271-0.148-0.346-0.252c-0.091-0.129-0.164-0.322-0.211-0.563c-0.058-0.296-0.093-0.669-0.104-1.112
				c-0.01-0.473-0.016-1.041-0.016-1.703v-5.92h-2.517v5.92c0,0.636,0.007,1.215,0.021,1.736c0.015,0.554,0.072,1.062,0.17,1.508
				c0.104,0.477,0.278,0.905,0.511,1.268c0.25,0.387,0.601,0.708,1.046,0.956c0.416,0.233,0.941,0.407,1.562,0.516
				C49.462,43.946,50.188,44,51.033,44h3.122c0.846,0,1.573-0.054,2.161-0.162c0.62-0.109,1.146-0.283,1.562-0.516
				c0.447-0.249,0.797-0.571,1.045-0.958c0.229-0.363,0.4-0.79,0.503-1.265c0.099-0.447,0.157-0.955,0.174-1.505
				c0.018-0.522,0.024-1.102,0.024-1.739v-5.92h-2.523L57.108,37.855z"/>
			<polygon fill="#515050" points="76.354,31.935 70.457,40.785 64.566,31.935 61.514,31.935 61.514,43.777 64.03,43.777 
				64.03,35.394 69.544,43.777 71.529,43.777 76.944,35.539 76.944,43.777 79.459,43.777 79.459,31.935 			"/>
		</g>
		<path fill="#449AD5" d="M81.972,43.728V32.175h9.633c0.723,0,1.304,0.06,1.745,0.177c0.442,0.119,0.781,0.292,1.02,0.521
			c0.237,0.226,0.397,0.511,0.477,0.851c0.081,0.343,0.121,0.735,0.121,1.174c0,0.323-0.028,0.604-0.084,0.851
			c-0.055,0.247-0.127,0.46-0.217,0.641c-0.09,0.18-0.193,0.331-0.309,0.452c-0.115,0.125-0.233,0.225-0.354,0.306
			c-0.281,0.191-0.601,0.297-0.963,0.322c0.453,0.026,0.853,0.135,1.204,0.33c0.15,0.087,0.297,0.192,0.439,0.322
			c0.144,0.126,0.272,0.284,0.384,0.471c0.112,0.188,0.204,0.409,0.275,0.663c0.07,0.254,0.105,0.545,0.105,0.876
			c0,0.4-0.019,0.771-0.057,1.103c-0.037,0.333-0.114,0.633-0.229,0.897c-0.115,0.267-0.282,0.5-0.496,0.701
			c-0.216,0.201-0.503,0.366-0.862,0.499c-0.358,0.132-0.796,0.233-1.315,0.299c-0.52,0.063-1.139,0.096-1.862,0.096H81.972z
			 M90.146,36.991c0.491,0,0.916-0.01,1.271-0.031c0.355-0.021,0.659-0.059,0.911-0.115c0.25-0.053,0.453-0.13,0.608-0.229
			c0.156-0.097,0.277-0.222,0.366-0.38c0.088-0.155,0.146-0.341,0.176-0.56c0.029-0.218,0.044-0.476,0.044-0.778
			c0-0.32-0.034-0.582-0.105-0.782c-0.07-0.201-0.195-0.354-0.376-0.46c-0.18-0.109-0.423-0.18-0.732-0.219
			c-0.309-0.038-0.704-0.057-1.185-0.057h-7.708v3.612H90.146z M90.146,42.524c0.561,0,1.047-0.009,1.459-0.027
			c0.411-0.018,0.759-0.053,1.045-0.112s0.517-0.139,0.692-0.249c0.175-0.106,0.313-0.252,0.41-0.43
			c0.098-0.178,0.164-0.395,0.2-0.648c0.036-0.257,0.052-0.563,0.052-0.926c0-0.28-0.017-0.526-0.052-0.733
			c-0.036-0.208-0.102-0.384-0.2-0.525c-0.097-0.143-0.235-0.26-0.41-0.346c-0.175-0.089-0.406-0.159-0.692-0.207
			c-0.286-0.051-0.634-0.085-1.045-0.103c-0.412-0.018-0.898-0.027-1.459-0.027h-6.731v4.333H90.146z"/>
		<path fill="#449AD5" d="M111.51,43.728h-1.445v-2.167c0-0.35-0.006-0.651-0.016-0.905c-0.013-0.254-0.057-0.471-0.13-0.651
			c-0.071-0.18-0.188-0.325-0.342-0.437c-0.155-0.108-0.376-0.196-0.663-0.253c-0.284-0.062-0.646-0.104-1.085-0.126
			c-0.44-0.023-0.979-0.035-1.622-0.035h-6.489v4.574h-1.444V32.175h8.174c0.881,0,1.627,0.032,2.231,0.094
			c0.602,0.063,1.102,0.157,1.495,0.281c0.395,0.128,0.696,0.283,0.909,0.468c0.213,0.185,0.368,0.404,0.468,0.655
			c0.096,0.248,0.155,0.53,0.173,0.84c0.018,0.313,0.026,0.656,0.026,1.031c0,0.48-0.034,0.903-0.104,1.266
			c-0.065,0.366-0.181,0.675-0.341,0.932c-0.16,0.253-0.373,0.458-0.641,0.613c-0.263,0.153-0.6,0.258-1,0.319
			c0.4,0.061,0.725,0.165,0.966,0.314c0.237,0.153,0.423,0.349,0.556,0.587c0.129,0.242,0.217,0.529,0.258,0.859
			c0.043,0.329,0.064,0.705,0.064,1.127V43.728z M99.718,37.953h6.73c0.643,0,1.183-0.011,1.622-0.034
			c0.437-0.022,0.802-0.065,1.085-0.126c0.287-0.058,0.509-0.145,0.663-0.254c0.155-0.112,0.268-0.257,0.342-0.437
			c0.073-0.18,0.114-0.397,0.126-0.651c0.013-0.251,0.02-0.555,0.02-0.905c0-0.325-0.007-0.607-0.02-0.843
			c-0.012-0.236-0.053-0.432-0.126-0.594c-0.074-0.16-0.187-0.286-0.342-0.384c-0.154-0.094-0.376-0.168-0.663-0.222
			c-0.283-0.05-0.648-0.084-1.085-0.1c-0.439-0.015-0.979-0.022-1.622-0.022h-6.73V37.953z"/>
		<path fill="#449AD5" d="M123.729,31.935c0.882,0,1.625,0.053,2.229,0.162c0.604,0.108,1.101,0.27,1.491,0.488
			c0.392,0.219,0.694,0.495,0.905,0.824c0.211,0.33,0.364,0.719,0.46,1.166c0.1,0.447,0.158,0.95,0.176,1.511
			c0.015,0.561,0.023,1.183,0.023,1.867c0,0.68-0.009,1.303-0.023,1.864c-0.018,0.561-0.076,1.067-0.176,1.511
			c-0.096,0.446-0.249,0.835-0.46,1.166c-0.211,0.333-0.514,0.605-0.905,0.824c-0.391,0.219-0.887,0.381-1.491,0.49
			c-0.604,0.106-1.348,0.161-2.229,0.161h-4.347c-0.884,0-1.627-0.055-2.23-0.161c-0.604-0.109-1.101-0.271-1.492-0.49
			c-0.391-0.219-0.694-0.491-0.908-0.824c-0.21-0.33-0.368-0.719-0.464-1.166c-0.1-0.444-0.153-0.95-0.169-1.511
			c-0.016-0.562-0.023-1.184-0.023-1.864c0-0.684,0.008-1.306,0.023-1.867s0.069-1.064,0.169-1.511
			c0.096-0.447,0.254-0.836,0.464-1.166c0.214-0.33,0.518-0.605,0.908-0.824c0.392-0.218,0.888-0.38,1.492-0.488
			c0.604-0.108,1.347-0.162,2.23-0.162H123.729z M123.729,42.765c0.636,0,1.172-0.019,1.612-0.057
			c0.439-0.038,0.801-0.113,1.088-0.23c0.284-0.114,0.505-0.279,0.661-0.495c0.154-0.217,0.269-0.5,0.34-0.859
			c0.068-0.356,0.11-0.794,0.123-1.312c0.013-0.518,0.02-1.139,0.02-1.86c0-0.724-0.007-1.342-0.02-1.863
			c-0.013-0.518-0.055-0.957-0.123-1.312c-0.071-0.355-0.186-0.643-0.34-0.858c-0.156-0.216-0.375-0.381-0.657-0.495
			c-0.284-0.118-0.645-0.192-1.085-0.23c-0.439-0.038-0.979-0.057-1.619-0.057h-4.347c-0.643,0-1.182,0.019-1.621,0.057
			c-0.439,0.039-0.801,0.113-1.085,0.23c-0.288,0.114-0.509,0.279-0.663,0.495c-0.155,0.216-0.27,0.503-0.338,0.858
			c-0.071,0.355-0.112,0.793-0.123,1.312c-0.01,0.521-0.015,1.139-0.015,1.863c0,0.721,0.006,1.342,0.02,1.86
			c0.013,0.518,0.055,0.956,0.126,1.312c0.068,0.358,0.182,0.642,0.334,0.859c0.151,0.216,0.371,0.38,0.659,0.495
			c0.284,0.117,0.646,0.192,1.085,0.23s0.979,0.057,1.621,0.057H123.729z"/>
		<path fill="#449AD5" d="M142.309,32.175h1.68l4.701,10.364l4.568-10.364h1.508l-5.116,11.553h-1.924l-4.573-10.098l-4.572,10.098
			h-2.044l-5.657-11.553h1.681l5.056,10.349L142.309,32.175z"/>
		<path fill="#449AD5" d="M164.567,37.229c0.792,0,1.473,0.033,2.039,0.1s1.045,0.162,1.434,0.29
			c0.389,0.131,0.697,0.29,0.928,0.481c0.231,0.191,0.409,0.41,0.534,0.655c0.127,0.242,0.206,0.516,0.244,0.816
			c0.038,0.304,0.058,0.631,0.058,0.983s-0.032,0.679-0.096,0.985c-0.063,0.309-0.174,0.588-0.333,0.843
			c-0.16,0.256-0.379,0.483-0.656,0.681c-0.273,0.199-0.627,0.373-1.051,0.511c-0.427,0.139-0.941,0.246-1.54,0.317
			c-0.601,0.074-1.299,0.111-2.102,0.111h-1.925c-0.721,0-1.354-0.028-1.895-0.085c-0.543-0.056-1.008-0.138-1.399-0.252
			c-0.391-0.111-0.714-0.253-0.97-0.426c-0.257-0.176-0.461-0.377-0.613-0.609c-0.152-0.235-0.261-0.501-0.318-0.798
			c-0.061-0.3-0.092-0.629-0.092-0.989h1.445c0,0.459,0.063,0.818,0.195,1.076c0.13,0.261,0.345,0.455,0.645,0.584
			c0.303,0.132,0.697,0.212,1.185,0.245c0.49,0.034,1.097,0.05,1.817,0.05h1.925c0.843,0,1.542-0.041,2.098-0.123
			c0.559-0.078,1-0.207,1.333-0.386c0.33-0.176,0.564-0.405,0.698-0.691c0.135-0.287,0.203-0.632,0.203-1.042
			s-0.047-0.75-0.138-1.02c-0.095-0.274-0.277-0.492-0.549-0.653c-0.274-0.161-0.659-0.278-1.157-0.344
			c-0.495-0.069-1.146-0.104-1.947-0.104h-1.983c-0.884,0-1.639-0.033-2.269-0.097c-0.631-0.066-1.157-0.16-1.584-0.283
			c-0.427-0.122-0.767-0.274-1.022-0.459c-0.254-0.183-0.449-0.393-0.58-0.625c-0.136-0.236-0.22-0.5-0.261-0.786
			c-0.041-0.29-0.062-0.601-0.062-0.938c0-0.352,0.032-0.677,0.096-0.977c0.061-0.302,0.179-0.576,0.349-0.816
			c0.171-0.244,0.404-0.461,0.699-0.652c0.297-0.19,0.676-0.349,1.139-0.478c0.464-0.127,1.021-0.224,1.675-0.289
			c0.652-0.065,1.419-0.098,2.3-0.098h1.445c0.722,0,1.354,0.027,1.895,0.079c0.541,0.054,1.009,0.136,1.399,0.249
			c0.392,0.111,0.715,0.251,0.974,0.422c0.259,0.167,0.463,0.368,0.617,0.602c0.152,0.23,0.258,0.496,0.318,0.79
			c0.062,0.298,0.092,0.625,0.092,0.985h-1.445c0-0.449-0.066-0.802-0.195-1.059s-0.345-0.448-0.647-0.575
			c-0.3-0.13-0.695-0.208-1.188-0.241c-0.49-0.033-1.097-0.049-1.818-0.049h-1.445c-0.962,0-1.755,0.034-2.377,0.103
			c-0.621,0.066-1.112,0.182-1.473,0.341c-0.359,0.16-0.611,0.376-0.751,0.648c-0.143,0.269-0.211,0.609-0.211,1.014
			c0,0.25,0.018,0.473,0.05,0.669c0.036,0.196,0.108,0.367,0.215,0.514c0.109,0.151,0.261,0.273,0.456,0.375
			c0.195,0.099,0.455,0.183,0.774,0.247c0.32,0.066,0.713,0.113,1.178,0.141c0.465,0.025,1.017,0.039,1.659,0.039H164.567z"/>
		<path fill="#449AD5" d="M172.627,43.728V32.175h11.553v1.204h-10.106v3.85h9.625v1.204h-9.625v4.091h10.106v1.204H172.627z"/>
		<path fill="#449AD5" d="M199.759,43.728h-1.442v-2.167c0-0.35-0.007-0.651-0.019-0.905c-0.013-0.254-0.057-0.471-0.131-0.651
			c-0.07-0.18-0.187-0.325-0.341-0.437c-0.154-0.108-0.376-0.196-0.662-0.253c-0.285-0.062-0.646-0.104-1.086-0.126
			c-0.44-0.023-0.979-0.035-1.621-0.035h-6.488v4.574h-1.445V32.175h8.175c0.883,0,1.626,0.032,2.23,0.094
			c0.604,0.063,1.102,0.157,1.495,0.281c0.394,0.128,0.695,0.283,0.909,0.468c0.213,0.185,0.372,0.404,0.468,0.655
			c0.096,0.248,0.154,0.53,0.172,0.84c0.019,0.313,0.027,0.656,0.027,1.031c0,0.48-0.034,0.903-0.104,1.266
			c-0.064,0.366-0.181,0.675-0.342,0.932c-0.159,0.253-0.373,0.458-0.637,0.613c-0.267,0.153-0.6,0.258-1.001,0.319
			c0.401,0.061,0.722,0.165,0.964,0.314c0.238,0.153,0.426,0.349,0.556,0.587c0.129,0.242,0.217,0.529,0.26,0.859
			c0.04,0.329,0.063,0.705,0.063,1.127V43.728z M187.969,37.953h6.729c0.642,0,1.182-0.011,1.621-0.034
			c0.439-0.022,0.801-0.065,1.085-0.126c0.287-0.058,0.508-0.145,0.663-0.254c0.155-0.112,0.269-0.257,0.342-0.437
			s0.116-0.397,0.13-0.651c0.01-0.251,0.016-0.555,0.016-0.905c0-0.325-0.006-0.607-0.016-0.843
			c-0.014-0.236-0.057-0.432-0.13-0.594c-0.073-0.16-0.187-0.286-0.342-0.384c-0.155-0.094-0.376-0.168-0.663-0.222
			c-0.284-0.05-0.646-0.084-1.085-0.1c-0.439-0.015-0.979-0.022-1.621-0.022h-6.729V37.953z"/>
	</g>
</g>
</svg>
