<?xml version="1.0" encoding="utf-8"?>
<!-- Generator: Adobe Illustrator 16.0.0, SVG Export Plug-In . SVG Version: 6.00 Build 0)  -->
<!DOCTYPE svg PUBLIC "-//W3C//DTD SVG 1.1//EN" "http://www.w3.org/Graphics/SVG/1.1/DTD/svg11.dtd">
<svg version="1.1" id="Layer_1" xmlns="http://www.w3.org/2000/svg" xmlns:xlink="http://www.w3.org/1999/xlink" x="0px" y="0px"
	 width="231px" height="111px" viewBox="-184 356 231 111" enable-background="new -184 356 231 111" xml:space="preserve">
<title>dg-i-white</title>
<desc>Created with Sketch.</desc>
<g id="Page-1">
	<g id="dg-i_logo_RGB">
		<path id="Shape" fill="#1C4DBA" d="M46.3,368.9c0,7.1-5.6,12.699-12.8,12.699c-7.1,0-12.7-5.6-12.7-12.699
			c0-7.2,5.601-12.9,12.7-12.9S46.3,361.7,46.3,368.9z M-6.5,466.8h-44.1c-18.3,0-34.5-9.1-44.5-22.899
			C-105,457.8-121.3,466.8-139.6,466.8h-44.1V357.3h44.1c18.3,0,34.5,9.101,44.5,22.9c9.9-13.9,26.2-22.9,44.5-22.9H-10v23h-40.7
			c-17.5,0-31.7,14.2-31.7,31.7s14.2,31.7,31.7,31.7H-29.6v-19H-49.9v-23h43.4V466.8z M-107.9,412c0-17.5-14.2-31.7-31.7-31.7h-21.1
			v63.4h21.1C-122.1,443.7-107.9,429.5-107.9,412z M3.8,401.8v23H22V466.9h23V401.8H3.8z"/>
	</g>
</g>
</svg>
