<?xml version="1.0" encoding="utf-8"?>
<!-- Generator: Adobe Illustrator 16.0.0, SVG Export Plug-In . SVG Version: 6.00 Build 0)  -->
<!DOCTYPE svg PUBLIC "-//W3C//DTD SVG 1.1//EN" "http://www.w3.org/Graphics/SVG/1.1/DTD/svg11.dtd">
<svg version="1.1" id="Layer_1" xmlns="http://www.w3.org/2000/svg" xmlns:xlink="http://www.w3.org/1999/xlink" x="0px" y="0px"
	 width="250px" height="69px" viewBox="0 0 250 69" enable-background="new 0 0 250 69" xml:space="preserve">
<g>
	<g>
		<path fill="#1B71B9" stroke="#1B71B9" stroke-width="1.295" d="M53.798,11.847c0.338-0.299,4.713,4.266,5.187,4.715
			c0.943,0.902,1.719,2.696,0.566,4.396c-1.242,1.828-2.089,3.913-3.562,5.592c-3.671,4.19-3.771,3.538-6.783-2.518
			c-0.822-1.65-3.116-2.636-2.063-4.502C47.704,18.627,52.708,12.606,53.798,11.847"/>
		<path fill="#1B71B9" stroke="#1B71B9" stroke-width="1.295" d="M46.452,0.683c1.454-1.024,2.575,2.547,2.99,3.539
			c1.112,2.65,6.833,0.745,0.981,6.602c-1.615,1.607-6.614,7.641-9.796,7.641c-2.403,0,0.432-7.082-0.564-9.092
			c-0.957-1.946-2.881-1.188-0.071-3.543C42.524,3.706,44.454,2.083,46.452,0.683z"/>
		<path fill="#1B71B9" stroke="#1B71B9" stroke-width="1.295" d="M35.03,9.839c1.49-1.334,3.037,1.938,2.132,5.272
			c-0.698,2.559,0.538,4.489-1.711,6.408c-1.234,1.055-3.418-4.971-3.888-5.825C30.063,12.987,31.11,13.342,35.03,9.839z"/>
		<path fill="#1B71B9" stroke="#1B71B9" stroke-width="1.295" d="M33.631,30.524c-0.061-3.338,6.519-10.493,9.843-7.34
			c1.207,1.136,2.688,2.335,4.061,5.24c1.801,3.829,2.267,4.823-0.141,8.038c-2.082,2.779-4.044,5.644-5.971,8.526
			c-0.066,0.252-2.597-1.932-2.719-2.04C34.861,39.365,33.734,35.828,33.631,30.524"/>
		<path fill="#1B71B9" stroke="#1B71B9" stroke-width="1.295" d="M27.485,16.148c1.069-1.177,2.561,3.48,2.792,4.008
			c1.218,2.789,1.096,8.94-3.666,7.951c-1.437-0.301-10.335-2.29-7.925-4.418C21.52,21.178,24.377,18.805,27.485,16.148"/>
		<path fill="#1B71B9" stroke="#1B71B9" stroke-width="1.295" d="M14.424,27.537c1.513-1.512,1.559,1.697,9.441,3.185
			c3.421,0.642,3.18,1.227,4.377,4.229c1.016,2.544-4.61,8.09-6.102,10.227c-0.633,0.909-1.512,2.942-3.08,2.104
			c-1.869-0.992-3.777,0.508-5.61-0.352C12.177,46.351,13.837,28.134,14.424,27.537z"/>
		<path fill="#114B9A" stroke="#1B71B9" stroke-width="1.295" d="M30.264,42.702"/>
		<g>
			<path fill="#1B71B9" stroke="#1B71B9" stroke-width="1.295" d="M32.261,40.245c2.184,4.38,3.797,5.243,6.791,7.318
				c-3.479,5.549-4.241,8.036-9.594,12.57c-0.348-4.91-5.091-7.444-4.635-9.741c0.699-4.979,4.6-7.929,5.892-10.667
				C31.807,37.177,31.966,39.758,32.261,40.245z"/>
		</g>
		<path fill="#1B71B9" stroke="#1B71B9" stroke-width="1.295" d="M8.404,54.076c0.991-3.718,5.679-4.207,9.297-3.44
			c1.558,0.335,3.999,2.486,4.696,3.687c1.259,2.196,3.897,3.845,4.355,6.231c1.185,6.158-4.896,8.118-9.733,7.935
			c-1.146-0.044-2.22-0.205-3.113-0.463C8.227,66.399,7.13,58.868,8.404,54.076z"/>
		<path fill="#1B71B9" stroke="#1B71B9" stroke-width="1.295" d="M10.571,30.278C3.478,36.674,0.5,37.173,0.5,42.387
			c0,2.667,0.017,10.412,4.493,9.48c3.961-0.814,4.504-5.159,4.926-8.483C10.102,41.914,10.589,30.261,10.571,30.278z"/>
		<path fill="none" stroke="#1B71B9" stroke-width="1.295" d="M0.5,42.564L0.547,2.993c0-1.37,1.132-2.48,2.534-2.48h44.031"/>
		<path fill="none" stroke="#1B71B9" stroke-width="1.295" d="M60.134,19.366V66.02c0,1.367-1.136,2.469-2.539,2.469H16.473"/>
		<path fill="#1B71B9" stroke="#1B71B9" stroke-width="1.295" d="M0.579,53.482c0.476,0.106,2.553,1.031,3.074,1.217
			c0.704,0.247,1.361,0.729,1.54,1.8c0.634,3.805-0.489,8.809,3.765,11.989l0,0H3.097c-1.399,0-2.531-1.129-2.531-2.531
			L0.579,53.482z"/>
	</g>
</g>
<g>
	<path fill="#191B1F" stroke="#E21F26" stroke-width="0.4006" d="M234.813,35.127"/>
	<path fill="#191B1F" d="M249.408,58.105c0,3.55,0.174,7.011,0.592,9.781h-6.663l-0.669-5.143h-0.257
		c-2.191,3.204-6.659,6.071-12.478,6.071c-8.262,0-12.476-5.821-12.476-11.72c0-9.864,8.763-15.261,24.537-15.174v-0.847
		c0-3.373-0.923-9.531-9.275-9.44c-3.877,0-8.423,1.55-11.292,3.492l1.089-6.688c3.376-2.114,6.148-2.292,11.295-2.292
		c12.566,0,15.597,8.515,15.597,16.698V58.105z M242.158,47.063c-8.097-0.174-17.286,1.263-17.286,9.19
		c0,4.891,3.209,7.083,6.919,7.083c5.389,0,8.847-3.37,10.034-6.832c0.244-0.759,0.333-1.604,0.333-2.353V47.063z"/>
	<path fill="#191B1F" d="M201.44,67.449V32.285h-5.65v-5.654h5.65v-1.938c0-5.727,1.347-10.961,4.8-14.244
		c2.79-2.699,6.497-3.8,9.874-3.8c2.701,0,4.895,0.595,6.324,1.178l-0.93,5.739c-1.178-0.505-2.617-0.925-4.801-0.925
		c-6.249,0-7.928,5.564-7.928,11.799v2.191h10.594l-0.911,5.654h-9.602v35.164H201.44z"/>
	<path fill="#191B1F" d="M193.863,57.667c0,3.543,0.166,6.994,0.594,9.782h-6.665l-0.676-5.141h-0.248
		c-2.196,3.202-6.667,6.064-12.484,6.064c-8.265,0-12.479-5.814-12.479-11.725c0-9.857,8.766-15.257,24.541-15.176v-0.84
		c0-3.371-0.933-9.53-9.278-9.441c-3.885,0-8.077,1.33-10.95,3.27l-0.802-5.604c3.37-2.104,7.708-3.148,12.845-3.148
		c12.563,0,15.603,8.513,15.603,16.704V57.667z M186.604,46.616c-8.087-0.165-17.277,1.265-17.277,9.198
		c0,4.893,3.2,7.086,6.911,7.086c5.4,0,8.855-3.375,10.033-6.828c0.255-0.762,0.333-1.612,0.333-2.375V46.616z"/>
	<path fill="#191B1F" d="M142.17,39.365c0-4.802-0.084-8.933-0.34-12.734h6.495l0.34,8.01h0.25
		c1.858-5.475,6.414-8.932,11.389-8.932c0.76,0,0.963-0.004,1.641,0.161l0.821,7.01c-0.844-0.09-2.043-0.178-3.053-0.178
		c-5.229,0-8.939,3.97-9.953,9.448c-0.166,1.094-0.254,2.271-0.254,3.541v21.758h-7.418L142.17,39.365z"/>
	<path fill="#191B1F" d="M138.273,57.667c0,3.543,0.167,6.994,0.588,9.782h-6.66l-0.673-5.141h-0.253
		c-2.191,3.202-6.665,6.064-12.481,6.064c-8.263,0-12.483-5.814-12.483-11.725c0-9.857,8.77-15.257,24.539-15.176v-0.84
		c0-3.371-0.923-9.53-9.274-9.441c-3.881,0-7.845,1.094-10.709,3.03l-1.685-4.97c3.369-2.113,8.343-3.543,13.49-3.543
		c12.565,0,15.602,8.513,15.602,16.704V57.667z M131.022,46.616c-8.098-0.165-17.291,1.265-17.291,9.198
		c0,4.893,3.205,7.086,6.918,7.086c5.393,0,8.853-3.375,10.03-6.828c0.253-0.762,0.342-1.612,0.342-2.375V46.616z"/>
	<path fill="#191B1F" d="M105.228,61.964c1.133,2.715,2.763,4.468,4.042,5.492l0.002-0.005H72.181v-3.839l28.196-41.238v-0.227
		H74.592l-1.686-5.509h35.986v4L80.851,61.722v0.233h24.327L105.228,61.964z"/>
</g>
</svg>
