<?xml version="1.0" encoding="utf-8"?>
<!-- Generator: Adobe Illustrator 16.0.0, SVG Export Plug-In . SVG Version: 6.00 Build 0)  -->
<!DOCTYPE svg PUBLIC "-//W3C//DTD SVG 1.1//EN" "http://www.w3.org/Graphics/SVG/1.1/DTD/svg11.dtd">
<svg version="1.1" id="Layer_1" xmlns="http://www.w3.org/2000/svg" xmlns:xlink="http://www.w3.org/1999/xlink" x="0px" y="0px"
	 width="104.88px" height="42.48px" viewBox="0 0 104.88 42.48" enable-background="new 0 0 104.88 42.48" xml:space="preserve">
<path fill="#00529B" d="M104.88,28.803h-6.5v-18h6.5V28.803z M104.88,1.384h-6.5v5.4h6.5V1.384z"/>
<path fill="#00529B" d="M92,13.365v6.5H78v-6.5H92z"/>
<path fill="#00529B" d="M17.72,1.504c19.532,0,17.719,20.391,17.72,20.523C35.5,42.601,17.72,41.485,17.72,41.485H0V1.504H17.72
	 M17.94,9.5h-7.925v23.995H17c0,0,8.891,0.67,8.863-11.676C25.863,21.739,26.44,9.5,17,9.5"/>
<path fill="#00529B" d="M51.5,8.24c-10.477,2.563-9.227,13.26-9.227,13.26s0.833,12.824,9.227,12.823
	c11.274-0.001,10.315-7.583,10.315-7.583h-8.958v-7.667l17.916,0.083v22.339h-8.25v-3.423c0,0-4.083,4.407-11.023,4.407
	c-18.644,0-18.644-20.98-18.644-20.98S32.856,0,51.5,0c12.774,0,18.607,9.157,18.607,9.157l-7.584,4.583
	C62.523,13.74,57.794,6.701,51.5,8.24z"/>
</svg>
