<?xml version="1.0" encoding="utf-8"?>
<!-- Generator: Adobe Illustrator 16.0.0, SVG Export Plug-In . SVG Version: 6.00 Build 0)  -->
<!DOCTYPE svg PUBLIC "-//W3C//DTD SVG 1.1//EN" "http://www.w3.org/Graphics/SVG/1.1/DTD/svg11.dtd">
<svg version="1.1" id="Layer_1" xmlns="http://www.w3.org/2000/svg" xmlns:xlink="http://www.w3.org/1999/xlink" x="0px" y="0px"
	 width="200px" height="48px" viewBox="0.5 600.5 200 48" enable-background="new 0.5 600.5 200 48" xml:space="preserve">
<g>
	<g>
		<g>
			<path fill="#404041" d="M72.042,647.804h-5.168v-26.287c0-2.053,0.391-4.036,1.159-5.908c0.768-1.871,1.886-3.561,3.352-5.014
				c1.425-1.425,3.087-2.543,4.958-3.324c1.872-0.783,3.855-1.188,5.922-1.188c2.054,0,4.051,0.404,5.922,1.188
				c1.872,0.781,3.534,1.899,4.958,3.324c1.453,1.453,2.584,3.143,3.353,5.014c0.768,1.872,1.159,3.855,1.159,5.908
				c0,2.012-0.391,3.995-1.159,5.853c-0.769,1.872-1.9,3.562-3.353,5.015c-1.425,1.425-3.087,2.542-4.958,3.324
				s-3.855,1.188-5.922,1.188c-2.053,0-4.05-0.405-5.922-1.188c-1.592-0.671-3.031-1.578-4.288-2.695v14.791H72.042z
				 M82.252,611.252c-1.396,0-2.738,0.266-3.967,0.797c-1.243,0.529-2.333,1.27-3.254,2.191s-1.662,2.025-2.193,3.27
				c-0.531,1.257-0.81,2.598-0.81,3.994s0.265,2.738,0.796,3.967c0.531,1.243,1.271,2.333,2.193,3.255s2.012,1.662,3.255,2.192
				c1.229,0.531,2.57,0.796,3.966,0.796c1.397,0,2.738-0.265,3.967-0.796c1.243-0.53,2.333-1.271,3.254-2.192
				s1.648-2.012,2.193-3.255c0.53-1.229,0.796-2.57,0.796-3.967s-0.266-2.752-0.81-3.994c-0.531-1.258-1.271-2.361-2.193-3.27
				c-0.922-0.922-2.012-1.647-3.255-2.191C84.989,611.531,83.648,611.252,82.252,611.252z"/>
		</g>
	</g>
	<g>
		<g>
			<path fill="#404041" d="M116.807,636.896c-2.053,0-4.051-0.405-5.922-1.188c-1.872-0.782-3.534-1.899-4.959-3.324
				c-1.452-1.453-2.584-3.143-3.352-5.015c-0.769-1.871-1.159-3.841-1.159-5.853c0-2.053,0.391-4.036,1.159-5.908
				c0.768-1.871,1.899-3.561,3.352-5.014c1.425-1.425,3.087-2.543,4.959-3.324c1.871-0.783,3.854-1.188,5.922-1.188
				c2.054,0,4.051,0.404,5.923,1.188c1.871,0.781,3.533,1.899,4.958,3.324c1.452,1.453,2.584,3.143,3.353,5.014
				c0.768,1.872,1.159,3.855,1.159,5.908v14.136h-5.168v-2.794c-0.392,0.405-0.811,0.782-1.229,1.104
				c-0.908,0.698-1.871,1.271-2.863,1.704c-0.991,0.433-2.025,0.74-3.087,0.936C118.79,636.799,117.784,636.896,116.807,636.896z
				 M116.807,611.252c-1.396,0-2.737,0.266-3.967,0.797c-1.243,0.529-2.332,1.27-3.254,2.191s-1.648,2.012-2.193,3.27
				c-0.53,1.257-0.81,2.598-0.81,3.994s0.265,2.738,0.796,3.967c0.53,1.243,1.271,2.333,2.192,3.255s2.012,1.662,3.255,2.192
				c1.229,0.531,2.57,0.796,3.967,0.796s2.737-0.265,3.967-0.796c1.243-0.53,2.332-1.271,3.254-2.192s1.662-2.012,2.193-3.255
				c0.53-1.229,0.796-2.57,0.796-3.967s-0.266-2.752-0.81-3.994c-0.531-1.258-1.271-2.361-2.193-3.27
				c-0.922-0.922-2.011-1.647-3.254-2.191C119.545,611.531,118.218,611.252,116.807,611.252z"/>
		</g>
	</g>
	<g>
		<g>
			<path fill="#404041" d="M185.066,636.91c-2.053,0-4.036-0.405-5.894-1.188c-1.844-0.782-3.521-1.899-4.973-3.31
				c-1.425-1.467-2.542-3.157-3.324-5.015c-0.782-1.872-1.188-3.842-1.188-5.867c0-2.053,0.392-4.05,1.188-5.922
				c0.782-1.871,1.899-3.547,3.311-5c1.466-1.424,3.143-2.542,4.986-3.324c1.857-0.782,3.841-1.188,5.894-1.188
				c2.054,0,4.051,0.405,5.923,1.188c1.857,0.782,3.548,1.9,5,3.311c1.425,1.467,2.542,3.156,3.324,5.014
				c0.782,1.872,1.188,3.855,1.188,5.922c0,2.025-0.392,3.995-1.188,5.867c-0.782,1.871-1.899,3.548-3.311,5
				c-1.466,1.425-3.156,2.542-5.014,3.324C189.116,636.505,187.119,636.91,185.066,636.91z M185.066,611.265
				c-1.396,0-2.737,0.266-3.967,0.797c-1.243,0.53-2.332,1.271-3.254,2.192s-1.662,2.025-2.193,3.269
				c-0.53,1.243-0.81,2.598-0.81,3.994s0.266,2.738,0.796,3.967c0.531,1.243,1.271,2.333,2.193,3.255s2.011,1.662,3.254,2.192
				c1.229,0.531,2.57,0.797,3.967,0.797s2.737-0.266,3.967-0.797c1.243-0.53,2.347-1.271,3.282-2.192s1.676-2.012,2.207-3.24
				c0.53-1.229,0.811-2.57,0.811-3.968c0-1.396-0.266-2.751-0.811-3.994c-0.531-1.257-1.285-2.346-2.207-3.268
				c-0.936-0.922-2.039-1.662-3.282-2.193C187.804,611.531,186.477,611.265,185.066,611.265z"/>
		</g>
	</g>
	<g>
		<g>
			<path fill="#404041" d="M5.668,641.827H0.5v-40.632h5.168V641.827z"/>
		</g>
	</g>
	<g>
		<g>
			<path fill="#404041" d="M27.374,641.868l-16.999-17.013c-0.894-0.893-1.383-2.066-1.383-3.338c0-1.256,0.489-2.443,1.383-3.338
				l16.999-16.984l3.659,3.66L15.32,620.568c-0.251,0.252-0.391,0.601-0.391,0.963c0,0.363,0.14,0.699,0.391,0.965l15.713,15.713
				L27.374,641.868z"/>
		</g>
	</g>
	<path fill="#00B2EF" d="M47.152,621.531c0-0.362-0.14-0.697-0.391-0.963l-0.489-0.488l0,0l-9.777-9.777l-0.321,0.334
		c-1.411,1.453-2.514,3.129-3.296,4.973c-0.782,1.872-1.188,3.855-1.188,5.922c0,2.025,0.405,3.995,1.188,5.867
		c0.782,1.857,1.899,3.548,3.324,5l0.321,0.336l9.749-9.75l0,0l0.489-0.488C47.011,622.23,47.152,621.894,47.152,621.531z"/>
	<path fill="#404041" d="M61.314,615.609L61.314,615.609c-0.782-1.871-1.899-3.547-3.324-5.014c-1.452-1.425-3.143-2.528-5-3.311
		c-1.872-0.782-3.855-1.188-5.922-1.188c-2.053,0-4.037,0.405-5.894,1.188c-0.098,0.042-0.182,0.084-0.279,0.125l4.078,4.079
		c0.685-0.14,1.383-0.224,2.095-0.224c1.397,0,2.738,0.266,3.967,0.797c1.243,0.53,2.347,1.271,3.282,2.192
		c0.936,0.922,1.676,2.011,2.207,3.269c0.531,1.257,0.81,2.598,0.81,3.994s-0.266,2.738-0.81,3.967
		c-0.531,1.243-1.285,2.333-2.207,3.241c-0.936,0.922-2.039,1.662-3.282,2.192c-1.229,0.531-2.57,0.796-3.967,0.796
		c-0.698,0-1.383-0.069-2.053-0.209l-4.079,4.078c0.084,0.042,0.154,0.07,0.238,0.112c1.857,0.782,3.841,1.187,5.894,1.187
		s4.05-0.404,5.922-1.187c1.872-0.782,3.548-1.899,5.014-3.324c1.411-1.453,2.528-3.143,3.31-5.001
		c0.782-1.871,1.188-3.841,1.188-5.866S62.096,617.481,61.314,615.609z"/>
	<path fill="#404041" d="M151.628,606.084c-7.738,0-14.01,6.271-14.01,14.01h-0.014v6.173v9.498h5.168h0.014v-15.671
		c0-4.889,3.953-8.842,8.842-8.842s8.841,3.953,8.841,8.842h-0.014v15.671h5.168c0,0,0.014-15.587,0.014-15.671
		C165.637,612.355,159.365,606.084,151.628,606.084z"/>
</g>
</svg>
