<?xml version="1.0" encoding="utf-8"?>
<!-- Generator: Adobe Illustrator 16.0.0, SVG Export Plug-In . SVG Version: 6.00 Build 0)  -->
<!DOCTYPE svg PUBLIC "-//W3C//DTD SVG 1.1//EN" "http://www.w3.org/Graphics/SVG/1.1/DTD/svg11.dtd">
<svg version="1.1" id="Ebene_1" xmlns="http://www.w3.org/2000/svg" xmlns:xlink="http://www.w3.org/1999/xlink" x="0px" y="0px"
	 width="250px" height="101px" viewBox="0 0 250 101" enable-background="new 0 0 250 101" xml:space="preserve">
<g>
	<path fill="#A6CE39" d="M110.455,98.903c-0.122,0.366-0.306,0.796-0.306,0.98c0,0.368,0.367,0.613,0.674,0.613h3.371
		c0.675,0,1.35-0.675,1.534-1.228l4.046-12.445h17.658l4.169,12.445c0.184,0.553,0.858,1.228,1.533,1.228h3.372
		c0.308,0,0.676-0.245,0.676-0.613c0-0.185-0.185-0.614-0.308-0.98l-13.794-41.938c-0.429-1.287-1.719-2.146-3.251-2.329
		c-1.716-0.185-2.451,0-2.451,0c-1.473,0.184-2.759,1.042-3.189,2.329L110.455,98.903L110.455,98.903z M135.838,82.104h-14.47
		l6.438-19.436l0.797-3.862l0.797,3.862L135.838,82.104L135.838,82.104z"/>
	<path fill="#A6CE39" d="M0.308,98.903C0.185,99.27,0,99.699,0,99.884c0,0.368,0.368,0.613,0.674,0.613h3.372
		c0.674,0,1.349-0.675,1.533-1.228l4.046-12.445h17.658l4.169,12.445c0.185,0.553,0.859,1.228,1.533,1.228h3.373
		c0.307,0,0.674-0.245,0.674-0.613c0-0.185-0.184-0.614-0.307-0.98L22.93,56.966c-0.429-1.287-1.717-2.146-3.25-2.329
		c-1.717-0.185-2.452,0-2.452,0c-1.471,0.184-2.759,1.042-3.188,2.329L0.308,98.903L0.308,98.903z M25.689,82.104H11.22
		l6.437-19.436l0.797-3.862l0.797,3.862L25.689,82.104L25.689,82.104z"/>
	<path fill="#A6CE39" d="M46.888,95.777c-0.368,0-0.613-0.247-0.613-0.615V55.556c0-0.367-0.307-0.612-0.612-0.612h-4.292
		c-0.368,0-0.613,0.307-0.613,0.612v39.424c0,3.248,1.962,5.518,5.518,5.518h17.718h0.613c0.307,0,0.614-0.245,0.614-0.613v-3.495
		c0-0.308-0.245-0.611-0.614-0.611H46.888L46.888,95.777z"/>
	<path fill="#A6CE39" d="M75.997,95.777c-0.368,0-0.613-0.247-0.613-0.615V55.556c0-0.367-0.307-0.612-0.613-0.612h-4.292
		c-0.367,0-0.612,0.307-0.612,0.612v39.424c0,3.248,1.962,5.518,5.518,5.518h17.719h0.613c0.307,0,0.614-0.245,0.614-0.613v-3.495
		c0-0.308-0.246-0.611-0.614-0.611H75.997L75.997,95.777z"/>
	<path fill="#A6CE39" d="M104.922,55.556c0-0.306-0.246-0.612-0.614-0.612h-4.291c-0.307,0-0.613,0.245-0.613,0.612v44.328
		c0,0.368,0.306,0.613,0.613,0.613h4.291c0.369,0,0.614-0.308,0.614-0.613V55.556L104.922,55.556z"/>
	<path fill="#A6CE39" d="M177.862,94.856l-0.123,2.697l-1.103-2.697L161.554,57.15c-0.675-2.022-2.698-2.636-5.274-2.636h-0.919
		c-2.757,0-4.535,2.268-4.535,4.537v40.832c0,0.306,0.244,0.613,0.611,0.613h4.292c0.307,0,0.674-0.245,0.674-0.613V61.565
		l-0.184-3.189l1.471,3.25l14.47,36.419c0.675,2.084,2.881,2.76,5.579,2.76h0.981c2.821,0,4.721-2.332,4.721-4.724V55.556
		c0-0.367-0.368-0.612-0.674-0.612h-4.292c-0.368,0-0.613,0.307-0.613,0.612V94.856L177.862,94.856z"/>
	<path fill="#A6CE39" d="M216.539,100.497c0.307,0,0.614-0.245,0.614-0.613v-3.495c0-0.308-0.246-0.611-0.614-0.611h-16.921
		c-2.331,0-3.863-1.962-3.863-3.863V63.526c0-1.9,1.533-3.862,3.863-3.862h16.921c0.307,0,0.614-0.245,0.614-0.612v-3.496
		c0-0.306-0.246-0.612-0.614-0.612h-2.575h-14.837c-5.64,0-8.89,4.476-8.89,8.89v27.773c0,4.414,3.25,8.891,8.89,8.891h11.403
		H216.539L216.539,100.497z"/>
	<path fill="#A6CE39" d="M249.387,100.497c0.306,0,0.613-0.245,0.613-0.613v-3.495c0-0.308-0.247-0.611-0.613-0.611h-20.11
		c-0.306,0-0.613-0.247-0.613-0.615V79.283h16.432c0.307,0,0.613-0.245,0.613-0.613v-3.494c0-0.307-0.245-0.613-0.613-0.613h-0.981
		h-15.451V60.277c0-0.307,0.245-0.613,0.613-0.613h20.11c0.306,0,0.613-0.245,0.613-0.612v-3.496c0-0.306-0.247-0.612-0.613-0.612
		h-20.723c-3.493,0-5.518,2.759-5.518,5.518v34.519c0,3.065,2.515,5.518,5.518,5.518H249.387L249.387,100.497z"/>
	<path fill="#0094C9" d="M35.324,9.478c0-4.791-4.792-9.248-9.247-9.248h-15.3c-4.959,0-9.163,4.036-9.163,9.164v27.993
		c0,4.54,2.943,9.079,9.079,9.079h15.888c5.8,0,8.743-4.539,8.743-9.079V9.478L35.324,9.478z M27.759,37.303
		c0,1.345-1.093,2.69-2.691,2.69H11.955c-1.597,0-2.689-1.346-2.689-2.69V9.478c0-1.682,1.344-2.775,2.773-2.775h13.03
		c1.598,0,2.691,1.347,2.691,2.691V37.303L27.759,37.303z"/>
	<path fill="#0094C9" d="M68.865,6.702c0.42,0,0.84-0.336,0.84-0.84V1.071c0-0.421-0.336-0.842-0.84-0.842H49.782
		c-4.287,0-8.575,2.439-8.575,7.566v5.968c0,2.606,0.506,6.306,7.399,9.416l13.366,7.313c2.354,1.01,2.354,2.942,2.354,4.035v2.858
		c0,1.345-1.093,2.606-2.689,2.606H42.3c-0.419,0-0.84,0.336-0.84,0.84v4.793c0,0.418,0.336,0.84,0.84,0.84h20.765
		c3.025,0,8.658-1.346,8.658-8.238v-4.792c0-3.025-0.503-5.884-7.397-9.415l-13.282-7.397c-2.437-1.261-2.437-2.859-2.437-3.951
		V9.394c0-1.345,1.093-2.691,2.689-2.691H68.865L68.865,6.702z"/>
	<path fill="#0094C9" d="M84.811,20.328h10.4c2.573,0,4.247-2.132,4.247-4.247V9.51c0-1.396-1.134-2.814-2.813-2.814H84.811V20.328
		L84.811,20.328z M96.764,26.829H84.811v13.154h12.73c1.679,0,2.814-1.417,2.814-2.813v-6.752
		C100.354,28.661,98.917,26.829,96.764,26.829L96.764,26.829z M106.736,9.808v6.452c0,3.253-1.063,5.624-2.937,7.157
		c2.552,1.724,3.832,4.544,3.832,7.002v6.452c0,4.738-3.508,9.612-9.613,9.612H79.08c-0.947,0-1.547-0.789-1.547-1.547V1.743
		c0-0.946,0.788-1.548,1.547-1.548h18.042C103.228,0.195,106.736,5.07,106.736,9.808L106.736,9.808z"/>
	<path fill="#0094C9" d="M119.073,35.964v-6.737h5.545c0.984,0,1.632,0.829,1.632,1.633v2.85c0,1.114-0.881,2.255-2.254,2.255
		H119.073L119.073,35.964z M124.67,37.959c1.192,0,1.97,1.011,1.97,1.969v2.928c0,0.804-0.648,1.634-1.633,1.634h-5.934v-6.53
		H124.67L124.67,37.959z M125.214,46.483c2.383,0,3.757-1.892,3.757-3.757v-2.799c0-1.14-0.726-2.487-2.15-2.953
		c1.088-0.52,1.762-1.529,1.762-3.188v-2.799c0-1.865-1.373-3.757-3.757-3.757H117c-0.13,0-0.258,0.104-0.258,0.259v18.734
		c0,0.129,0.104,0.259,0.258,0.259H125.214L125.214,46.483z"/>
	<path fill="#0094C9" d="M135.138,44.489c-0.518,0-0.856-0.441-0.856-0.855V32.492c0-0.131-0.103-0.261-0.259-0.261h-1.814
		c-0.128,0-0.258,0.104-0.258,0.261v11.142c0,1.425,1.038,2.85,2.851,2.85c5.544,0,2.409,0,4.638,0c1.813,0,2.851-1.425,2.851-2.85
		V32.492c0-0.131-0.104-0.261-0.261-0.261h-1.839c-0.129,0-0.259,0.104-0.259,0.261v11.142c0,0.414-0.336,0.855-0.854,0.855H135.138
		L135.138,44.489z"/>
	<path fill="#0094C9" d="M153.923,34.228c0.13,0,0.259-0.104,0.259-0.259v-1.477c0-0.131-0.103-0.261-0.259-0.261h-5.88
		c-1.322,0-2.645,0.752-2.645,2.332v1.84c0,0.804,0.156,1.943,2.28,2.902l4.121,2.255c0.726,0.311,0.726,0.906,0.726,1.243v0.881
		c0,0.416-0.338,0.805-0.83,0.805h-5.96c-0.129,0-0.259,0.103-0.259,0.259v1.477c0,0.129,0.103,0.259,0.259,0.259h6.401
		c0.933,0,2.668-0.414,2.668-2.539v-1.478c0-0.933-0.155-1.813-2.28-2.901l-4.095-2.28c-0.752-0.389-0.752-0.882-0.752-1.218v-1.011
		c0-0.414,0.338-0.829,0.832-0.829H153.923L153.923,34.228z"/>
	<path fill="#0094C9" d="M160.48,29.797c0.127,0,0.259-0.104,0.259-0.26V27.49c0-0.13-0.105-0.259-0.259-0.259h-1.971
		c-0.155,0-0.259,0.129-0.259,0.259v2.047c0,0.156,0.129,0.26,0.259,0.26H160.48L160.48,29.797z M158.328,46.225
		c0,0.155,0.129,0.259,0.26,0.259h1.813c0.156,0,0.259-0.13,0.259-0.259V32.492c0-0.131-0.104-0.261-0.259-0.261h-1.813
		c-0.131,0-0.26,0.104-0.26,0.261V46.225L158.328,46.225z"/>
	<path fill="#0094C9" d="M171.595,34.228c0.519,0,0.854,0.441,0.854,0.854v11.143c0,0.129,0.105,0.259,0.261,0.259h1.813
		c0.129,0,0.26-0.104,0.26-0.259V35.082c0-1.425-1.038-2.851-2.851-2.851c-5.545,0-2.411,0-4.639,0
		c-1.814,0-2.851,1.426-2.851,2.851v11.143c0,0.129,0.104,0.259,0.259,0.259h1.839c0.132,0,0.261-0.104,0.261-0.259V35.082
		c0-0.413,0.309-0.854,0.827-0.854H171.595L171.595,34.228z"/>
	<path fill="#0094C9" d="M180.482,41.742c0-0.338,0.052-0.597,0.493-0.753l5.959-1.347c1.374-0.544,1.374-1.736,1.374-2.591v-2.539
		c0-1.58-1.244-2.281-2.41-2.281h-5.416c-1.503,0-2.332,0.96-2.332,2.332v8.94v0.647c0,1.581,1.217,2.332,2.41,2.332h6.815
		c0.104,0,0.18-0.104,0.18-0.182v-1.633c0-0.103-0.076-0.18-0.18-0.18h-5.909c-0.491,0-0.984-0.285-0.984-0.882V41.742
		L180.482,41.742z M181.416,38.814l-0.934,0.414v-4.224c0-0.492,0.312-0.777,0.804-0.777h4.067c0.389,0,0.803,0.233,0.803,0.725
		v1.763c0,0.207,0.026,0.984-0.544,1.114L181.416,38.814L181.416,38.814z"/>
	<path fill="#0094C9" d="M199.683,34.228c0.129,0,0.259-0.104,0.259-0.259v-1.477c0-0.131-0.104-0.261-0.259-0.261h-5.881
		c-1.322,0-2.645,0.752-2.645,2.332v1.84c0,0.804,0.156,1.943,2.28,2.902l4.121,2.255c0.725,0.311,0.725,0.906,0.725,1.243v0.881
		c0,0.416-0.337,0.805-0.829,0.805h-5.96c-0.129,0-0.259,0.103-0.259,0.259v1.477c0,0.129,0.103,0.259,0.259,0.259h6.399
		c0.934,0,2.67-0.414,2.67-2.539v-1.478c0-0.933-0.156-1.813-2.281-2.901l-4.094-2.28c-0.752-0.389-0.752-0.882-0.752-1.218v-1.011
		c0-0.414,0.338-0.829,0.832-0.829H199.683L199.683,34.228z"/>
	<path fill="#0094C9" d="M211.938,34.228c0.129,0,0.259-0.104,0.259-0.259v-1.477c0-0.131-0.103-0.261-0.259-0.261h-5.881
		c-1.322,0-2.645,0.752-2.645,2.332v1.84c0,0.804,0.156,1.943,2.28,2.902l4.121,2.255c0.726,0.311,0.726,0.906,0.726,1.243v0.881
		c0,0.416-0.337,0.805-0.829,0.805h-5.96c-0.13,0-0.259,0.103-0.259,0.259v1.477c0,0.129,0.104,0.259,0.259,0.259h6.399
		c0.933,0,2.67-0.414,2.67-2.539v-1.478c0-0.933-0.156-1.813-2.281-2.901l-4.094-2.28c-0.752-0.389-0.752-0.882-0.752-1.218v-1.011
		c0-0.414,0.337-0.829,0.829-0.829H211.938L211.938,34.228z"/>
	<path fill="#0094C9" d="M125.36,19.449c2.385,0,3.757-1.892,3.757-3.757V3.954c0-1.865-1.373-3.757-3.757-3.757h-5.104
		c-2.384,0-3.758,1.892-3.758,3.757v11.738c0,1.865,1.374,3.757,3.758,3.757H125.36L125.36,19.449z M120.463,17.454
		c-0.984,0-1.633-0.829-1.633-1.633V3.824c0-0.803,0.648-1.633,1.633-1.633h4.69c0.984,0,1.631,0.83,1.631,1.633v11.997
		c0,0.804-0.647,1.633-1.631,1.633H120.463L120.463,17.454z"/>
	<path fill="#0094C9" d="M132.615,24.269c0,0.155,0.13,0.259,0.259,0.259h1.813c0.156,0,0.259-0.13,0.259-0.259v-4.819
		c0.416,0,0.934,0,5.339,0c1.762,0,2.798-1.399,2.798-2.798V8.049c0-1.581-1.296-2.851-2.851-2.851h-4.819
		c-1.814,0-2.798,1.139-2.798,2.798V24.269L132.615,24.269z M134.973,7.996c0-0.414,0.312-0.803,0.803-0.803h4.121
		c0.416,0,0.854,0.336,0.854,0.855v8.576c0,0.414-0.338,0.829-0.828,0.829h-4.95V7.996L134.973,7.996z"/>
	<path fill="#0094C9" d="M148.395,14.707c0-0.336,0.052-0.596,0.493-0.751l5.958-1.348c1.374-0.544,1.374-1.735,1.374-2.591V7.479
		c0-1.581-1.243-2.28-2.41-2.28h-5.415c-1.501,0-2.333,0.959-2.333,2.331v8.939v0.649c0,1.579,1.219,2.331,2.411,2.331h6.814
		c0.104,0,0.181-0.104,0.181-0.182v-1.632c0-0.104-0.076-0.182-0.181-0.182h-5.908c-0.492,0-0.984-0.285-0.984-0.881V14.707
		L148.395,14.707z M149.329,11.779l-0.934,0.415V7.971c0-0.492,0.312-0.777,0.803-0.777h4.068c0.388,0,0.803,0.232,0.803,0.726
		v1.762c0,0.207,0.026,0.984-0.544,1.113L149.329,11.779L149.329,11.779z"/>
	<path fill="#0094C9" d="M166.481,7.193c0.519,0,0.854,0.44,0.854,0.855V19.19c0,0.129,0.105,0.259,0.261,0.259h1.813
		c0.129,0,0.26-0.104,0.26-0.259V8.049c0-1.427-1.038-2.851-2.851-2.851c-5.544,0-2.41,0-4.639,0c-1.813,0-2.851,1.424-2.851,2.851
		V19.19c0,0.129,0.104,0.259,0.259,0.259h1.839c0.131,0,0.261-0.104,0.261-0.259V8.049c0-0.415,0.31-0.855,0.828-0.855H166.481
		L166.481,7.193z"/>
	<path fill="#0094C9" d="M185.89,19.449c1.579,0,3.239-0.959,3.239-3.084V13.93c0-1.166,0-2.773-1.867-3.524l-6.944-2.771
		c-0.724-0.285-0.647-1.399-0.647-1.736V3.384c0-0.804,0.673-1.192,1.347-1.192h7.412c0.129,0,0.259-0.103,0.259-0.259V0.456
		c0-0.13-0.104-0.259-0.259-0.259h-7.749c-1.58,0-3.238,1.01-3.238,3.136v2.693c0,1.167,0.025,2.851,2.099,3.603l6.71,2.746
		c0.7,0.285,0.649,1.399,0.649,1.736v2.15c0,0.804-0.675,1.192-1.349,1.192h-7.644c-0.129,0-0.259,0.104-0.259,0.259v1.478
		c0,0.129,0.105,0.259,0.259,0.259H185.89L185.89,19.449z"/>
	<path fill="#0094C9" d="M202.368,8.049c0-1.478-1.477-2.851-2.85-2.851h-4.714c-1.53,0-2.824,1.243-2.824,2.824v8.629
		c0,1.398,0.906,2.798,2.798,2.798h4.897c1.787,0,2.693-1.399,2.693-2.798V8.049L202.368,8.049z M200.037,16.625
		c0,0.414-0.337,0.829-0.83,0.829h-4.042c-0.493,0-0.829-0.415-0.829-0.829V8.049c0-0.52,0.415-0.855,0.854-0.855h4.018
		c0.493,0,0.83,0.414,0.83,0.829V16.625L200.037,16.625z"/>
	<path fill="#0094C9" d="M208.923,17.454c-0.517,0-0.855-0.44-0.855-0.855V5.457c0-0.13-0.103-0.259-0.259-0.259h-1.814
		c-0.129,0-0.259,0.104-0.259,0.259v11.142c0,1.425,1.035,2.851,2.85,2.851c5.545,0,2.41,0,4.64,0c1.812,0,2.85-1.426,2.85-2.851
		V5.457c0-0.13-0.104-0.259-0.26-0.259h-1.839c-0.129,0-0.259,0.104-0.259,0.259v11.142c0,0.415-0.338,0.855-0.856,0.855H208.923
		L208.923,17.454z"/>
	<path fill="#0094C9" d="M225.921,7.322c0.129,0,0.26-0.104,0.26-0.259V5.457c0-0.13-0.104-0.259-0.26-0.259h-3.627
		c-1.814,0-2.851,1.424-2.851,2.851l0.026,11.142c0,0.129,0.105,0.259,0.259,0.259h1.839c0.129,0,0.259-0.104,0.259-0.259
		l0.026-11.246c0-0.466,0.441-0.622,0.57-0.622H225.921L225.921,7.322z"/>
	<path fill="#0094C9" d="M236.364,19.449c0.128,0,0.259-0.104,0.259-0.259v-1.478c0-0.13-0.105-0.259-0.259-0.259h-5.415
		c-0.415,0-0.804-0.312-0.804-0.803V8.022c0-0.415,0.337-0.829,0.828-0.829h5.391c0.128,0,0.259-0.104,0.259-0.26V5.457
		c0-0.13-0.105-0.259-0.259-0.259h-0.415h-5.312c-1.789,0-2.825,1.424-2.825,2.824v8.603c0,1.58,1.296,2.824,2.825,2.824h3.859
		H236.364L236.364,19.449z"/>
	<path fill="#0094C9" d="M241.545,14.707c0-0.336,0.052-0.596,0.493-0.751l5.959-1.348c1.374-0.544,1.374-1.735,1.374-2.591V7.479
		c0-1.581-1.244-2.28-2.411-2.28h-5.415c-1.503,0-2.332,0.959-2.332,2.331v8.939v0.649c0,1.579,1.217,2.331,2.41,2.331h6.814
		c0.104,0,0.181-0.104,0.181-0.182v-1.632c0-0.104-0.077-0.182-0.181-0.182h-5.907c-0.493,0-0.985-0.285-0.985-0.881V14.707
		L241.545,14.707z M242.479,11.779l-0.934,0.415V7.971c0-0.492,0.312-0.777,0.804-0.777h4.067c0.389,0,0.803,0.232,0.803,0.726
		v1.762c0,0.207,0.026,0.984-0.544,1.113L242.479,11.779L242.479,11.779z"/>
</g>
</svg>
