<?xml version="1.0" encoding="utf-8"?>
<!-- Generator: Adobe Illustrator 16.0.0, SVG Export Plug-In . SVG Version: 6.00 Build 0)  -->
<!DOCTYPE svg PUBLIC "-//W3C//DTD SVG 1.1//EN" "http://www.w3.org/Graphics/SVG/1.1/DTD/svg11.dtd">
<svg version="1.1" id="Layer_1" xmlns="http://www.w3.org/2000/svg" xmlns:xlink="http://www.w3.org/1999/xlink" x="0px" y="0px"
	 width="250px" height="68px" viewBox="0 0 250 68" enable-background="new 0 0 250 68" xml:space="preserve">
<g>
	<g>
		<path fill="#343F49" d="M199.759,22.51c2.661,0.877,1.9,5.103-0.989,4.875c-2.665-0.227-3.053-4.191-0.228-4.875
			C198.997,22.398,199.304,22.398,199.759,22.51L199.759,22.51z M199.759,22.51"/>
		<path fill="#343F49" d="M123.669,29.729c0-0.229,0-0.366,0.113-0.594c0.116-0.441,1.444-1.653,1.788-2.081
			c0.649-0.663,0.877-1.222,1.944-1.222v6.651h4.647c0.828,0,1.057,0.08,1.057,0.989c-0.149,0.761-0.456,0.988-1.217,0.988h-4.487
			v12.181c0,1.981,0.605,4.642,3.039,4.498c1.07,0,1.754-0.389,2.665-0.766l0.388,1.366c-1.444,0.616-4.042,2.286-5.486,2.208
			c-0.911-0.147-1.9-0.226-2.55-0.764c-1.444-1.057-1.9-3.116-1.9-4.646V34.545h-2.437c-0.228,0-0.535,0-0.762-0.083
			c-0.228-0.078-0.228-0.305-0.571-0.454c-0.307-0.079-1.411,0.376-1.638,0.454c-0.684,0.456-1.105,1.14-1.562,1.755l-1.866,4.11
			l-3.344,8.067l-3.088,7.389l-2.777,7.454c-0.305,0.989-0.305,2.288-1.75,2.288c-1.672,0.149-3.315-1.299-2.777-2.743
			c0.227-0.911,0.989-1.217,1.672-1.672c0.762-0.534,1.444-1.445,1.983-2.21c0.567-0.84,1.556-2.89,1.978-3.732
			c0.228-0.602,0.572-1.219,0.572-1.822c0.112-0.839-0.572-2.288-0.877-3.049l-1.899-5.248l-2.438-6.251
			c-0.306-0.908-0.989-2.581-1.411-3.196c-0.456-0.829-1.026-1.14-1.788-1.367c-0.34-0.077-1.105-0.227-1.333-0.455
			c-0.113-0.228-0.113-0.842-0.113-1.067h7.537c0.451,0,1.978-0.147,2.207,0.226c0.116,0.08,0.116,0.39,0.116,0.614v0.456
			c-0.766,0.149-1.982,0.227-2.098,1.221c0,0.373,0.116,0.908,0.227,1.217l0.877,2.583l2.094,5.714l1.333,3.652l1.105-2.969
			l2.322-6.319l0.761-2.434c0.116-0.311,0.345-0.989,0.229-1.299c-0.229-0.99-1.751-1.217-2.661-1.366v-1.296h8.637v1.067
			l1.105-0.989l2.208-0.078L123.669,29.729z M123.669,29.729"/>
		<path fill="#343F49" d="M158.043,51.058c0.684-0.91,0.601-2.889,0.601-3.88v-9.061c0-0.911,0-1.9-0.761-2.434
			c-0.911-0.766-2.583-0.228-2.128-1.526c0.078-0.456,1.217-0.605,1.526-0.684l3.345-0.989l1.672-0.542v3.659
			c0.616-0.373,1.527-1.14,2.288-1.594c1.139-0.763,2.812-1.752,4.11-1.979h1.138c0.989,0,1.527,0.081,2.367,0.535
			c0.604,0.373,1.06,0.681,1.594,1.137c0.533,0.533,0.989,1.299,1.299,2.061l3.345-2.288c1.444-0.909,2.287-1.444,3.964-1.444h0.451
			c0.684,0,1.221,0.081,1.904,0.309c4.493,1.67,3.878,7.224,3.878,11.105v5.864c0,0.762,0.082,1.672,0.766,2.061
			c0.533,0.455,1.604,0.601,2.205,0.601v1.299h-10.197v-1.299c0.911,0,2.355-0.228,2.743-1.139c0.605-0.991,0.456-3.344,0.456-4.561
			v-4.043c0-2.583,0.228-6.465-2.744-7.309c-0.306-0.146-0.761-0.229-1.217-0.229c-1.444,0-2.971,0.768-4.109,1.528
			c-0.533,0.374-1.071,0.684-1.217,1.366v7.843l0.146,3.96c0.082,0.762,0.082,1.366,0.766,1.898
			c0.455,0.457,1.522,0.539,2.206,0.539v1.362H168.24v-1.362c0.989,0,2.438-0.228,2.972-1.071c0.373-0.604,0.373-1.139,0.373-1.821
			v-9.515c0-2.438-1.135-4.728-3.878-4.871c-1.448,0-2.972,0.829-4.109,1.592c-0.91,0.682-1.3,0.764-1.3,1.902v7.465l0.083,3.654
			c0.146,0.681,0.146,1.366,0.533,1.899c0.601,0.538,1.444,0.684,2.128,0.684v1.299h-10.053v-1.299
			C155.982,52.051,157.51,51.823,158.043,51.058L158.043,51.058z M158.043,51.058"/>
		<path fill="#343F49" d="M201.125,33.701V48.54c0,0.618,0.078,2.063,0.534,2.518c0.533,0.766,1.981,0.993,2.971,0.993v1.295
			h-10.508v-1.295c0.911,0,2.355-0.228,2.894-0.993c0.533-0.761,0.455-2.889,0.455-3.88v-9.516c0-0.684,0-1.525-0.683-1.979
			c-0.311-0.228-0.989-0.455-1.445-0.538c-0.228,0-0.683-0.146-0.765-0.228c-0.078-0.229-0.078-0.91-0.078-1.139
			c1.754-0.228,5.031-0.989,6.625-1.837C201.203,32.338,201.125,33.166,201.125,33.701L201.125,33.701z M201.125,33.701"/>
		<path fill="#343F49" d="M212.244,32.484l1.673-0.542v3.659c1.676-1.218,3.882-3.037,5.863-3.491
			c0.602-0.081,1.139-0.081,1.818-0.081c2.598,0,4.647,1.75,5.259,4.188c0.456,1.673,0.377,2.972,0.377,4.644v7.309l0.079,1.139
			c0,0.762,0,1.522,0.537,2.061c0.601,0.601,1.817,0.683,2.434,0.683v1.295h-10.13v-1.295c0.843,0,2.288-0.228,2.743-1.071
			c0.455-0.683,0.31-1.366,0.31-2.127l0.146-1.139v-6.932l-0.146-1.221c-0.082-1.979-0.537-3.96-2.825-4.644
			c-0.373-0.146-1.056-0.229-1.444-0.229c-1.366,0-2.666,0.686-3.8,1.448c-0.993,0.682-1.449,0.764-1.449,1.98V49.08
			c0,0.759,0.149,1.672,0.684,2.204c0.537,0.539,1.754,0.685,2.438,0.685v1.299h-10.426v-1.299c0.911,0,2.434-0.228,3.039-0.989
			c0.533-0.91,0.455-2.893,0.455-3.884v-9.057c0-0.833,0-1.822-0.683-2.355c-0.378-0.31-0.766-0.455-1.366-0.538
			c-0.229,0-0.616-0.146-0.762-0.373c-0.082-0.228-0.082-0.844-0.082-1.071C208.512,33.701,211.027,32.938,212.244,32.484
			L212.244,32.484z M212.244,32.484"/>
		<path fill="#343F49" d="M152.328,49.386c0,0.377-0.533,0.911-0.761,1.139c-0.684,0.76-1.819,1.604-2.665,2.208
			c-1.218,0.763-2.662,1.295-4.11,1.295c-0.455,0-0.683,0-1.067-0.078c-1.821-0.226-3.266-0.682-4.647-1.82
			c-2.354-1.832-3.344-4.415-3.571-7.241c0-0.453-0.079-0.679-0.079-1.217c0.079-3.574,1.523-7.226,4.416-9.437
			c1.444-1.217,3.427-2.124,5.259-2.205h0.829c2.825,0,5.408,2.128,6.397,4.789c0.307,0.844,0.762,3.053,0,3.736
			c-0.306,0.228-0.761,0.228-1.217,0.306l-2.438,0.228l-3.116,0.228l-1.071,0.15l-5.326,0.158c0,3.264,0.988,6.545,3.882,8.215
			c0.839,0.536,1.978,0.913,2.971,0.913c1.672,0,3.117-0.455,4.416-1.444l1.217-0.913C151.873,48.54,152.328,49.08,152.328,49.386
			L152.328,49.386z M141.514,39.562l1.756-0.146h2.889c0.389,0,1.833-0.082,2.21-0.31c0.388-0.534,0-2.288-0.377-2.97
			c-1.071-2.208-3.654-3.119-5.715-1.753c-0.683,0.389-1.362,1.218-1.817,1.979c-0.538,0.993-0.844,2.21-1.071,3.199H141.514z
			 M141.514,39.562"/>
		<path fill="#343F49" d="M249.69,49.386c0,0.453-1.362,1.672-1.818,1.982c-1.608,1.444-3.654,2.581-5.863,2.659
			c-0.389,0-0.616-0.078-1.071-0.078c-3.8-0.375-6.544-2.809-7.615-6.317c-0.601-1.523-0.601-2.972-0.601-4.646
			c0-4.414,3.345-9.207,7.682-10.502c1.071-0.374,1.755-0.455,2.825-0.374c3.345,0,6.689,3.346,6.771,6.771
			c0,0.308,0,1.136-0.082,1.446c-0.455,0.761-1.672,0.683-2.355,0.761l-1.139,0.149l-2.516,0.229l-2.288,0.076l-2.355,0.082
			l-1.299,0.147h-1.59c0.146,3.277,1.217,6.932,4.415,8.525c0.829,0.306,1.673,0.683,2.584,0.683c1.444,0,2.516-0.377,3.732-1.058
			l1.981-1.382C249.316,48.54,249.69,49.08,249.69,49.386L249.69,49.386z M238.959,39.562l1.75-0.146h2.744
			c0.455,0,1.981,0,2.359-0.31c0.228-0.226,0.228-0.68,0.228-0.989c-0.149-2.972-2.894-5.18-5.782-3.96
			c-1.754,0.761-3.199,3.505-3.281,5.404H238.959z M238.959,39.562"/>
		<path fill="#343F49" d="M79.321,20.076l2.21-0.649v14.581l3.083-1.296c0.877-0.374,1.444-0.683,2.549-0.683
			c1.333,0,2.322,0.081,3.543,0.535c0.988,0.373,1.978,0.987,2.661,1.67c3.538,3.121,4.075,8.608,2.209,12.718
			c-1.105,2.355-2.665,4.027-4.871,5.326c-3.088,1.749-6.626,1.9-9.975,1.067c-0.645-0.16-1.411-0.388-2.206-0.763
			c-0.193-0.076-0.766-0.305-0.877-0.532c-0.116-0.228-0.116-0.537-0.116-0.767V24.72c0-0.533-0.112-1.217-0.533-1.638
			c-0.568-0.572-1.901-0.684-2.55-0.684v-1.217L79.321,20.076z M81.532,35.684c-0.116,0.228-0.116,0.989-0.116,1.217v10.731
			c0,0.763,0.116,1.676,0.456,2.29c0.993,1.819,2.97,2.436,4.953,2.129c4.337-0.537,5.554-5.326,5.554-9.064
			c0-3.197-1.56-6.624-4.76-7.841c-1.104-0.457-2.321-0.457-3.426-0.373C83.509,34.918,81.872,35.146,81.532,35.684L81.532,35.684z
			 M81.532,35.684"/>
	</g>
</g>
<g>
	<path fill="#7A2530" d="M21.876,66.789c-3.686-1.46-6.486-4.455-9.286-7.221l-5.45-5.681c-1.999-2.145-4.032-4.453-5.337-7.14
		C0.654,44.371,0,41.147,0,38.693v-7.225c0-3.372,0-5.908,1.114-9.168c1.344-3.993,4.795-7.023,7.711-9.906l4.339-4.26
		c2.571-2.457,5.143-4.91,8.482-6.449c2.457-1.114,4.568-1.343,7.253-1.573L30.244,0h8.367l1.31,0.112
		c2.028,0.116,4.027,0.347,5.909,1c4.145,1.574,7.599,5.371,10.628,8.6c3.994,4.108,8.794,8.248,10.592,13.934
		c1.001,3.226,0.772,7.05,0.772,10.362H57.344c0-2.226,0.229-5.682-0.576-7.681c-0.426-1.226-1.766-2.799-2.767-3.797l-2.912-3.108
		l-2.8-2.801l-2.766-2.917c-0.998-0.997-2.229-2.228-3.573-2.65c-0.684-0.229-2.028-0.46-2.8-0.46h-9.594
		c-1.228,0-2.571,0.23-3.685,0.769c-1.34,0.689-2.649,2.032-3.798,2.914l-6.794,6.569c-1.343,1.342-3.802,3.567-4.34,5.359
		c-0.229,0.666-0.458,2.81-0.458,3.577v7.602c0,1.227,0.229,3.305,0.688,4.453c0.538,1.224,1.653,2.458,2.537,3.455l2.342,2.537
		l3.146,3.141l3.68,3.687c0.884,0.917,1.77,1.77,2.997,2.228c1.001,0.309,1.46,0.309,2.457,0.459l5.68,0.079v10.514
		C30.131,68.019,25.561,68.248,21.876,66.789L21.876,66.789z M21.876,66.789"/>
	<path fill="#7A2530" d="M34.467,14.931c2.996,0,5.257-0.078,7.907,1.574c2.15,1.227,3.686,3.108,5.371,4.799
		c1.77,1.799,3.686,3.681,4.57,6.124c1.113,2.814,0.884,5.81,0.884,8.808c0,2.375-0.426,4.683-1.769,6.599
		c-1.115,1.687-2.571,3.146-4.028,4.454c-1.573,1.538-3.568,3.604-5.566,4.602c-2.914,1.538-6.369,1.457-9.482,1.457l-1.114-0.147
		h-0.997c-1.574-0.082-3.031-0.537-4.374-1.31c-1.653-0.92-2.88-2.225-4.223-3.602c-2.112-2.078-5.025-4.912-5.911-7.829
		c-0.575-1.537-0.575-2.309-0.688-3.847l-0.117-1.374v-2.537l0.117-1.232v-1.005c0.113-1.68,0.688-3.237,1.457-4.597
		c0.998-1.881,3.109-3.68,4.569-5.219c1.799-1.802,3.798-3.801,6.139-4.682c1.574-0.689,2.341-0.689,3.914-0.92L34.467,14.931z
		 M34.467,14.931"/>
</g>
</svg>
