<?xml version="1.0" encoding="utf-8"?>
<!-- Generator: Adobe Illustrator 16.0.0, SVG Export Plug-In . SVG Version: 6.00 Build 0)  -->
<!DOCTYPE svg PUBLIC "-//W3C//DTD SVG 1.1//EN" "http://www.w3.org/Graphics/SVG/1.1/DTD/svg11.dtd">
<svg version="1.1" id="Layer_1" xmlns="http://www.w3.org/2000/svg" xmlns:xlink="http://www.w3.org/1999/xlink" x="0px" y="0px"
	 width="265px" height="70px" viewBox="0 0 265 70" enable-background="new 0 0 265 70" xml:space="preserve">
<path fill="#626366" d="M99.163,30.783l-9.816-15.967c-1.184-1.871-2.101-3.628-2.941-5.347c0.152,2.749,0.267,8.938,0.267,13.024
	v8.289h-3.438V5h4.622l9.587,15.47c1.147,1.834,2.216,3.819,3.171,5.653c-0.153-3.17-0.269-9.511-0.269-13.789V5h3.401v25.783
	H99.163L99.163,30.783z"/>
<polygon fill="#626366" points="110.152,30.783 110.152,10.92 121.383,10.92 121.383,13.633 113.628,13.633 113.628,19.248 
	121.002,19.248 121.002,21.883 113.628,21.883 113.628,27.994 121.383,27.994 121.383,30.783 110.152,30.783 "/>
<path fill="#626366" d="M135.391,31.088c-5.5,0-8.365-2.597-8.365-7.181V10.92h3.477v12.377c0,3.399,1.871,4.927,5.156,4.927
	c3.744,0,5.119-2.101,5.119-5.271V10.92h3.438v12.301C144.215,27.46,141.656,31.088,135.391,31.088L135.391,31.088z"/>
<path fill="#626366" d="M156.848,30.859c-1.34,0-3.516-0.038-5.885-0.076V10.92c1.68,0,4.164-0.076,6.799-0.076
	c4.889,0,6.875,1.91,6.875,4.813c0,2.063-1.26,3.743-3.438,4.546v0.037c2.563,0.574,3.82,2.369,3.82,4.508
	C165.02,27.27,163.453,30.859,156.848,30.859L156.848,30.859z M157.037,13.365c-0.879,0-1.796,0-2.598,0.038v5.959
	c0.725,0.038,1.412,0.038,1.68,0.038c3.018,0,4.89-1.069,4.89-3.285C161.009,14.55,160.092,13.365,157.037,13.365L157.037,13.365z
	 M156.271,21.73c-0.42,0-1.336,0-1.832,0.038v6.379c0.572,0.076,1.412,0.153,2.482,0.153c3.094,0,4.469-1.452,4.469-3.477
	C161.391,22.457,159.252,21.73,156.271,21.73L156.271,21.73z"/>
<polygon fill="#626366" points="170.775,30.783 170.775,10.92 182.006,10.92 182.006,13.633 174.252,13.633 174.252,19.248 
	181.624,19.248 181.624,21.883 174.252,21.883 174.252,27.994 182.006,27.994 182.006,30.783 170.775,30.783 "/>
<path fill="#626366" d="M197.846,30.783l-6.379-8.519h-0.153v8.519h-3.476V10.92c1.299-0.076,3.553-0.113,5.924-0.113
	c4.619,0,7.293,1.833,7.293,5.348c0,3.36-2.521,5.347-5.959,5.69c0.496,0.535,1.068,1.3,1.719,2.101l5.387,6.838H197.846
	L197.846,30.783z M193.301,13.479c-0.841,0-1.414,0.039-1.987,0.115v6.227c0.611,0.038,1.376,0.075,2.102,0.075
	c2.406,0,3.974-1.336,3.974-3.399C197.389,14.473,195.821,13.479,193.301,13.479L193.301,13.479z"/>
<path fill="#626366" d="M214.904,31.088c-5.959,0-10.199-3.437-10.199-9.854c0-5.958,4.088-10.58,10.963-10.58
	c2.024,0,4.011,0.267,6.035,0.878l-0.609,3.056c-1.759-0.688-3.592-1.068-5.465-1.068c-3.934,0-7.256,2.481-7.256,7.372
	c0,4.621,2.826,7.143,6.951,7.143c1.184,0,2.368-0.152,3.285-0.458v-7.029h3.477v9.244C219.869,30.63,217.539,31.088,214.904,31.088
	L214.904,31.088z"/>
<polygon fill="#626366" points="228.574,30.783 228.574,10.92 239.805,10.92 239.805,13.633 232.051,13.633 232.051,19.248 
	239.424,19.248 239.424,21.883 232.051,21.883 232.051,27.994 239.805,27.994 239.805,30.783 228.574,30.783 "/>
<path fill="#626366" d="M255.645,30.783l-6.379-8.519h-0.152v8.519h-3.477V10.92c1.299-0.076,3.555-0.113,5.92-0.113
	c4.623,0,7.297,1.833,7.297,5.348c0,3.36-2.521,5.347-5.959,5.69c0.496,0.535,1.07,1.3,1.719,2.101L260,30.783H255.645
	L255.645,30.783z M251.1,13.479c-0.842,0-1.414,0.039-1.986,0.115v6.227c0.611,0.038,1.375,0.075,2.102,0.075
	c2.404,0,3.971-1.336,3.971-3.399C255.186,14.473,253.619,13.479,251.1,13.479L251.1,13.479z"/>
<path fill="#626366" d="M100.566,59.949c1.271,0.945,2.471,1.781,3.633,2.58L102.273,65c-1.563-1.054-3.016-2.107-4.105-2.906
	c-2.143,1.599-4.904,2.616-8.176,2.616c-4.504,0-6.758-2.435-6.758-5.632c0-2.653,1.781-4.47,4.143-6.104
	c-1.563-1.709-2.58-3.308-2.58-4.652c0-2.762,2.217-4.832,5.705-4.832c3.342,0,5.268,1.744,5.268,4.105
	c0,2.436-1.816,4.07-3.705,5.45c1.744,1.708,3.889,3.562,6.104,5.269c1.381-1.816,2.07-4.215,1.854-6.758h3.307
	C103.473,54.645,102.42,57.66,100.566,59.949L100.566,59.949z M90.32,45.961c-1.309,0-2.289,0.763-2.289,2.107
	c0,0.799,0.762,1.963,2.07,3.343c1.381-0.98,2.471-2.071,2.471-3.524C92.572,46.797,91.883,45.961,90.32,45.961L90.32,45.961z
	 M89.303,54.718c-1.381,0.981-2.762,2.217-2.762,3.996c0,1.781,1.525,3.307,3.961,3.307c2.07,0,3.814-0.654,5.195-1.743
	C93.518,58.568,91.01,56.498,89.303,54.718L89.303,54.718z"/>
<path fill="#626366" d="M131.064,64.273V52.395h-13.141v11.879h-3.513V38.49h3.513v10.925h13.141V38.49h3.514v25.783H131.064
	L131.064,64.273z"/>
<path fill="#626366" d="M149.242,64.579c-5.5,0-8.365-2.598-8.365-7.183V44.41h3.477v12.377c0,3.399,1.871,4.927,5.156,4.927
	c3.744,0,5.119-2.101,5.119-5.271V44.41h3.438v12.301C158.066,60.95,155.508,64.579,149.242,64.579L149.242,64.579z"/>
<path fill="#626366" d="M172.99,64.579c-5.959,0-10.199-3.438-10.199-9.855c0-5.958,4.088-10.58,10.963-10.58
	c2.025,0,4.012,0.267,6.035,0.878l-0.611,3.056c-1.756-0.688-3.59-1.068-5.461-1.068c-3.936,0-7.258,2.482-7.258,7.372
	c0,4.621,2.826,7.143,6.953,7.143c1.184,0,2.367-0.152,3.283-0.458v-7.029h3.477v9.244C177.957,64.12,175.627,64.579,172.99,64.579
	L172.99,64.579z"/>
<path fill="#626366" d="M200.027,64.273v-8.746h-10.082v8.746h-3.477V44.41h3.477v8.137h10.082V44.41h3.479v19.863H200.027
	L200.027,64.273z"/>
<path fill="#626366" d="M210.412,64.273V44.41h11.23v2.713h-7.754v5.615h7.373v2.635h-7.373v6.111h7.754v2.789H210.412
	L210.412,64.273z"/>
<path fill="#626366" d="M230.533,64.617c-1.451,0-3.172-0.229-4.279-0.497l0.154-3.246c1.184,0.534,2.826,0.802,4.545,0.802
	c2.1,0,4.201-0.879,4.201-3.17c0-3.934-9.357-2.024-9.357-8.402c0-3.63,2.902-5.999,7.945-5.999c1.184,0,2.75,0.115,3.895,0.345
	l-0.152,3.018c-1.07-0.344-2.711-0.573-3.934-0.573c-2.828,0-4.088,1.108-4.088,2.826c0,3.858,9.396,2.102,9.396,8.404
	C238.859,62.135,235.307,64.617,230.533,64.617L230.533,64.617z"/>
<path fill="none" stroke="#626366" stroke-width="2" d="M6,6v23.195h11.607V17.643H29.16V6H6L6,6z M6,64h23.16V52.391H17.607V40.838
	H6V64L6,64z M63.969,63.992V40.831H52.36v11.551H40.809v11.61H63.969L63.969,63.992z M63.969,6.005H40.809v11.607H52.36v11.554
	h11.609V6.005L63.969,6.005z"/>
<path fill="#EC1C24" stroke="#626366" stroke-width="2" d="M29.315,29.311l11.321,0.007v11.369H29.315V29.311L29.315,29.311z"/>
</svg>
