<?xml version="1.0" encoding="utf-8"?>
<!-- Generator: Adobe Illustrator 16.0.0, SVG Export Plug-In . SVG Version: 6.00 Build 0)  -->
<!DOCTYPE svg PUBLIC "-//W3C//DTD SVG 1.1//EN" "http://www.w3.org/Graphics/SVG/1.1/DTD/svg11.dtd">
<svg version="1.1" id="Layer_1" xmlns="http://www.w3.org/2000/svg" xmlns:xlink="http://www.w3.org/1999/xlink" x="0px" y="0px"
	 width="250px" height="33px" viewBox="0 0 250 33" enable-background="new 0 0 250 33" xml:space="preserve">
<g>
	<path fill-rule="evenodd" clip-rule="evenodd" fill="#004677" d="M119.258,8.573l-5.196,19.49c0,0.258-5.976,4.937-15.588,4.937
		c-5.456,0-13.511-2.338-11.433-9.614l3.898-14.813h7.794l-4.157,14.813c-0.52,2.078,1.3,4.678,5.456,4.678
		c5.456,0,7.015-1.818,7.274-2.078l4.677-17.412H119.258L119.258,8.573z"/>
	<path fill-rule="evenodd" clip-rule="evenodd" fill="#004677" d="M209.416,8.573l-5.196,19.49C203.96,28.321,197.983,33,188.631,33
		c-5.458,0-13.771-2.338-11.691-9.614l3.896-14.813h7.795l-3.896,14.813c-0.521,2.078,1.299,4.678,5.194,4.678
		c5.457,0,7.275-1.818,7.275-2.078l4.678-17.412H209.416L209.416,8.573z"/>
	<path fill-rule="evenodd" clip-rule="evenodd" fill="#004677" d="M47.809,33c-5.456,0-13.511-2.338-11.432-9.874l2.598-9.614H30.4
		l1.299-4.938h24.683l-1.299,4.938H46.25l-2.599,9.614c-0.519,2.08,1.559,4.676,5.456,4.676L47.809,33L47.809,33z"/>
	<path fill-rule="evenodd" clip-rule="evenodd" fill="#004677" d="M166.287,33c-5.458,0-13.512-2.338-11.433-9.874l2.599-9.614
		h-8.575l1.299-4.938h24.942l-1.558,4.938h-8.834l-2.339,9.614c-0.519,2.08,1.3,4.676,5.456,4.676L166.287,33L166.287,33z"/>
	<path fill-rule="evenodd" clip-rule="evenodd" fill="#004677" d="M54.044,32.74l5.196-19.748c0.26-0.26,6.235-4.937,15.589-4.937
		c4.417,0,10.653,1.557,11.693,5.976l-7.796,2.078c-0.52-1.559-2.339-3.117-5.196-3.117c-5.716,0-7.275,1.818-7.275,2.078
		l-4.677,17.67H54.044L54.044,32.74z"/>
	<path fill-rule="evenodd" clip-rule="evenodd" fill="#004677" d="M209.416,32.74l5.197-19.748c0-0.26,6.234-4.937,15.589-4.937
		c4.417,0,10.651,1.557,11.691,5.976l-7.794,2.078c-0.521-1.559-2.338-3.117-5.456-3.117c-5.456,0-7.016,1.818-7.016,2.078
		l-4.677,17.67H209.416L209.416,32.74z"/>
	<path fill-rule="evenodd" clip-rule="evenodd" fill="#004677" d="M130.951,15.332c1.038-3.64,7.534-6.759,14.29-6.759l-1.3,4.938
		c-4.416,0.26-8.314,2.859-9.092,3.896c-0.262,0.521-0.522,0.779-0.262,1.041l11.691,14.291h-8.054l-8.834-11.435l-3.117,11.435
		h-7.017L128.092,0h7.276L130.951,15.332L130.951,15.332z"/>
	<path fill-rule="evenodd" clip-rule="evenodd" fill="#004677" d="M26.502,25.206C24.943,29.883,20.008,33,11.434,33
		C7.536,33,1.041,32.221,0,26.763l7.017-1.037c1.298,1.557,3.116,2.857,6.235,2.338c2.599-0.262,4.157-0.781,5.457-2.078
		c2.858-2.859-1.04-3.379-4.938-4.418l-9.354-2.339c-1.04-2.857,0.261-5.197,2.08-7.536c1.038-0.781,4.416-3.898,11.951-3.898
		c3.637,0,8.833,1.301,9.612,5.198l-6.756,1.559c-0.259-1.039-1.817-2.339-4.157-2.339c-1.558,0-2.599,0.261-3.637,0.521
		c-2.078,0.779-2.598,2.078-2.598,2.857l6.234,1.299C22.346,18.188,28.321,19.748,26.502,25.206L26.502,25.206z"/>
	<path fill-rule="evenodd" clip-rule="evenodd" fill="#004677" d="M250,8.724c0-0.547-0.104-1.064-0.311-1.553
		c-0.207-0.488-0.496-0.916-0.865-1.285c-0.369-0.371-0.797-0.658-1.287-0.865c-0.485-0.207-1.003-0.311-1.552-0.311
		c-0.545,0-1.063,0.104-1.551,0.311c-0.488,0.207-0.917,0.494-1.287,0.865c-0.369,0.369-0.658,0.797-0.864,1.285
		c-0.209,0.488-0.31,1.006-0.31,1.553s0.101,1.064,0.31,1.553c0.206,0.488,0.495,0.916,0.864,1.285
		c0.37,0.369,0.799,0.658,1.287,0.866c0.487,0.209,1.006,0.311,1.551,0.311c0.549,0,1.066-0.102,1.552-0.311
		c0.49-0.208,0.918-0.497,1.287-0.866s0.658-0.797,0.865-1.285C249.896,9.788,250,9.271,250,8.724L250,8.724z M249.467,8.724
		c0,0.48-0.089,0.934-0.269,1.365c-0.179,0.428-0.432,0.807-0.754,1.129s-0.695,0.576-1.118,0.758
		c-0.422,0.184-0.869,0.273-1.341,0.273c-0.473,0-0.919-0.09-1.341-0.273c-0.422-0.182-0.793-0.438-1.113-0.764
		c-0.317-0.326-0.568-0.703-0.746-1.129c-0.178-0.428-0.269-0.879-0.269-1.359c0-0.479,0.089-0.934,0.269-1.363
		c0.178-0.432,0.429-0.807,0.746-1.129c0.32-0.324,0.691-0.576,1.113-0.76s0.868-0.273,1.341-0.273c0.472,0,0.919,0.09,1.341,0.273
		c0.423,0.184,0.796,0.436,1.118,0.764s0.575,0.705,0.754,1.131C249.378,7.792,249.467,8.245,249.467,8.724L249.467,8.724z
		 M247.67,10.917l-1.051-1.871c0.288-0.088,0.517-0.236,0.687-0.439c0.169-0.203,0.256-0.459,0.256-0.77
		c0-0.371-0.137-0.682-0.406-0.938c-0.269-0.254-0.597-0.381-0.981-0.381h-1.496v4.398h0.609V9.122h0.666l1.009,1.795H247.67
		L247.67,10.917z M246.939,7.837c0,0.223-0.079,0.404-0.233,0.549c-0.154,0.143-0.355,0.215-0.599,0.215h-0.82V7.06h0.82
		c0.243,0,0.444,0.074,0.599,0.223S246.939,7.614,246.939,7.837L246.939,7.837z"/>
</g>
</svg>
