<svg id="Layer_1" data-name="Layer 1" xmlns="http://www.w3.org/2000/svg" viewBox="0 0 250 47.87"><defs><style>.cls-1{fill:#6986e1;}.cls-2{fill:#00228c;fill-rule:evenodd;}.cls-3{fill:#fff;}.cls-4{fill:none;stroke:#000;stroke-width:2.28px;}</style></defs><title>logo-netitwork</title><path d="M20.51,41.37V27a24.54,24.54,0,0,0-.28-4.07,5.45,5.45,0,0,0-1.14-2.67,4.78,4.78,0,0,0-2.42-1.46,15,15,0,0,0-4.13-.46A16.74,16.74,0,0,0,8,18.81,6.76,6.76,0,0,0,5.2,20.28a4.84,4.84,0,0,0-1.4,2.28,10.44,10.44,0,0,0-.38,3V41.37H0v-26H3.42v4.33a5.48,5.48,0,0,1,1.07-1.91,7.2,7.2,0,0,1,1.56-1.36,8.25,8.25,0,0,1,1.89-.91A13,13,0,0,1,10,15a15.68,15.68,0,0,1,2-.26c.63,0,1.21-.07,1.73-.07a18.67,18.67,0,0,1,3.93.36,9,9,0,0,1,2.8,1.06,5.69,5.69,0,0,1,1.84,1.74,8.44,8.44,0,0,1,1.08,2.39,15.79,15.79,0,0,1,.5,3.05c.09,1.12.13,2.34.13,3.66l0,14.42Z" transform="translate(0 -0.07)"/><path d="M40.51,41.87a24.18,24.18,0,0,1-5.81-.6,8.2,8.2,0,0,1-3.88-2.06,8.54,8.54,0,0,1-2.17-3.92A23.79,23.79,0,0,1,28,29.11a30.62,30.62,0,0,1,.68-7,9.91,9.91,0,0,1,2.17-4.43,7.87,7.87,0,0,1,3.88-2.29,22.08,22.08,0,0,1,5.81-.66,17.52,17.52,0,0,1,4.23.45,9.49,9.49,0,0,1,3.06,1.31,7.29,7.29,0,0,1,2.07,2.07,11.41,11.41,0,0,1,1.24,2.56,13.82,13.82,0,0,1,.63,3.14c.11,1.2.17,2.47.17,3.8l-.29,1.45H31.39a21.79,21.79,0,0,0,.46,4.89,5,5,0,0,0,1.54,2.77,5.48,5.48,0,0,0,2.81,1.13,34.4,34.4,0,0,0,4.31.23,37.49,37.49,0,0,0,3.89-.17,7.11,7.11,0,0,0,2.45-.64,2.66,2.66,0,0,0,1.27-1.32,5.51,5.51,0,0,0,.37-2.2h3.42a9.89,9.89,0,0,1-.58,3.57,5.18,5.18,0,0,1-1.92,2.4,9.47,9.47,0,0,1-3.51,1.32,29.17,29.17,0,0,1-5.39.42Zm0-23.58c-1.14,0-2.16,0-3,.09a10.81,10.81,0,0,0-2.36.4,4.94,4.94,0,0,0-1.71.88A4.62,4.62,0,0,0,32.24,21a6.22,6.22,0,0,0-.64,2.19,23.28,23.28,0,0,0-.21,3.38h17.1A15,15,0,0,0,48,22.45,5.82,5.82,0,0,0,46.64,20a5,5,0,0,0-2.48-1.32,15.91,15.91,0,0,0-3.65-.37Z" transform="translate(0 -0.07)"/><path d="M76.46,29.83A29.57,29.57,0,0,1,76,35.37a8.34,8.34,0,0,1-1.43,3.54A5.47,5.47,0,0,1,72,40.81a12.76,12.76,0,0,1-4,.56A14.53,14.53,0,0,1,64,40.93a5.48,5.48,0,0,1-2.57-1.53A6.47,6.47,0,0,1,60,36.51,19.68,19.68,0,0,1,59.6,32V19H55.38V15.41H59.6V8.31H63v7.1H75.89V19H63V32a16.84,16.84,0,0,0,.25,3.34A3.35,3.35,0,0,0,64.1,37a2.43,2.43,0,0,0,1.51.64c.62.06,1.38.09,2.29.09.71,0,1.34,0,1.91-.05a5.35,5.35,0,0,0,1.48-.27,2.76,2.76,0,0,0,1.08-.73,3.74,3.74,0,0,0,.72-1.37,11.61,11.61,0,0,0,.4-2.21c.08-.9.12-2,.12-3.31Z" transform="translate(0 -0.07)"/><path d="M173.48,15.41h-4l-6.34,22.71-6.77-22.71H153l-6.83,22.71-6.27-22.71h-4l8,26h4.56l6.26-21.28,6.27,21.28h4.56Z" transform="translate(0 -0.07)"/><path d="M175.26,28.21a27.12,27.12,0,0,1,.67-6.61,9,9,0,0,1,2.18-4.14A8.1,8.1,0,0,1,182,15.31a27.49,27.49,0,0,1,11.61,0,8.1,8.1,0,0,1,3.88,2.15,9,9,0,0,1,2.17,4.14,27.06,27.06,0,0,1,.68,6.61,27.3,27.3,0,0,1-.68,6.63A9.23,9.23,0,0,1,197.48,39a8.25,8.25,0,0,1-3.88,2.2,26.65,26.65,0,0,1-11.61,0,8.25,8.25,0,0,1-3.88-2.2,9.24,9.24,0,0,1-2.18-4.19,27.35,27.35,0,0,1-.67-6.63Zm3.42,0c0,1.44,0,2.7.12,3.77a12.94,12.94,0,0,0,.47,2.74,5.08,5.08,0,0,0,1,1.87,4.54,4.54,0,0,0,1.64,1.16,9.23,9.23,0,0,0,2.47.59,34,34,0,0,0,3.44.15c1.14,0,2.16,0,3.06-.1a9.13,9.13,0,0,0,2.35-.47,5,5,0,0,0,1.72-1,4.91,4.91,0,0,0,1.15-1.81,12.52,12.52,0,0,0,.64-2.83,35.71,35.71,0,0,0,.2-4,33.84,33.84,0,0,0-.2-3.95,11.54,11.54,0,0,0-.64-2.74,4.32,4.32,0,0,0-2.87-2.72,9.68,9.68,0,0,0-2.35-.42q-1.35-.09-3.06-.09c-1.14,0-2.15,0-3,.09a9.6,9.6,0,0,0-2.35.42,4.75,4.75,0,0,0-1.72,1,4.49,4.49,0,0,0-1.15,1.75,11.54,11.54,0,0,0-.64,2.74,31.66,31.66,0,0,0-.2,3.95Z" transform="translate(0 -0.07)"/><path d="M222,23.86a16.49,16.49,0,0,0-.19-2.69,3,3,0,0,0-.88-1.72,4.1,4.1,0,0,0-2.06-.9,21.13,21.13,0,0,0-3.71-.26,11.39,11.39,0,0,0-3.74.51,5.27,5.27,0,0,0-2.26,1.43,4.94,4.94,0,0,0-1.12,2.21,13.24,13.24,0,0,0-.29,2.86V41.37h-3.42v-26h3.42v4.12a6.64,6.64,0,0,1,.66-1.54,5.23,5.23,0,0,1,1.46-1.58,8.17,8.17,0,0,1,2.53-1.22,12.75,12.75,0,0,1,3.9-.5,13.4,13.4,0,0,1,4.34.59,5.67,5.67,0,0,1,2.61,1.77,6.44,6.44,0,0,1,1.26,2.87,21,21,0,0,1,.33,3.94Z" transform="translate(0 -0.07)"/><path d="M227.21,6.75h3.42V25.68h1.13L244.3,15.41h5.13L234.9,27.49,250,41.37h-5.13L231.76,28.93h-1.13V41.37h-3.42Z" transform="translate(0 -0.07)"/><rect class="cls-1" x="83.67" y="1.14" width="45.59" height="45.59"/><path class="cls-2" d="M91.36,1.21A52.64,52.64,0,0,0,91,6.68a4.5,4.5,0,0,0-2.11,1.74c-1.74-.38-3.5-.7-5.26-1v3.49c1.55.24,3.09.53,4.61.86a4.55,4.55,0,0,0,3.42,3.53A61.42,61.42,0,0,0,99,36,4.57,4.57,0,0,0,98,39,62.38,62.38,0,0,1,83.67,40.5V44a64.51,64.51,0,0,0,15.65-1.77,4.57,4.57,0,0,0,4,1.26,3.41,3.41,0,0,0,.55-.14q1.38,1.8,2.88,3.49h4.63l-.36-.4-.06-.07a56.49,56.49,0,0,1-4.43-5.18,4.38,4.38,0,0,0,.54-1.72,49.66,49.66,0,0,0,12.09-8.65,4.43,4.43,0,0,0,1.95.1,4.55,4.55,0,0,0,1.34-.47,52.39,52.39,0,0,1,6.82,9.69V33.56A50.85,50.85,0,0,0,125,28.08v0h0l-.27-.27a4.44,4.44,0,0,0-.1-3.08,57.94,57.94,0,0,0,4.7-7.18V9.6a58.27,58.27,0,0,1-7.12,12.6,4.6,4.6,0,0,0-2.59-.32,5.65,5.65,0,0,0-1,.3A69.21,69.21,0,0,0,97.3,10.72a5.61,5.61,0,0,0-.06-.59,4.57,4.57,0,0,0-2.75-3.44,45.66,45.66,0,0,1,.33-5.48ZM96.12,14a65.93,65.93,0,0,1,20,10.66,4.57,4.57,0,0,0-.3,2.53,4.81,4.81,0,0,0,.55,1.51,46.11,46.11,0,0,1-10.31,7.43,4.53,4.53,0,0,0-4-1.67,58.31,58.31,0,0,1-7-19.63,4.26,4.26,0,0,0,1-.83Z" transform="translate(0 -0.07)"/><rect class="cls-3" x="93.84" y="16.72" width="3.94" height="16.96"/><path class="cls-3" d="M114.39,19.82V33.75h-4V19.82h-7.78v-3H122.2v3Z" transform="translate(0 -0.07)"/><rect class="cls-4" x="83.67" y="1.14" width="45.59" height="45.59"/></svg>