<?xml version="1.0" encoding="utf-8"?>
<!-- Generator: Adobe Illustrator 16.0.0, SVG Export Plug-In . SVG Version: 6.00 Build 0)  -->
<!DOCTYPE svg PUBLIC "-//W3C//DTD SVG 1.1//EN" "http://www.w3.org/Graphics/SVG/1.1/DTD/svg11.dtd">
<svg version="1.1" id="Layer_1" xmlns="http://www.w3.org/2000/svg" xmlns:xlink="http://www.w3.org/1999/xlink" x="0px" y="0px"
	 width="250px" height="48px" viewBox="0 0 250 48" enable-background="new 0 0 250 48" xml:space="preserve">
<g>
	<path d="M20.514,41.371V26.947c0-1.607-0.096-2.965-0.285-4.069c-0.191-1.104-0.57-1.994-1.14-2.671s-1.378-1.162-2.422-1.46
		c-1.046-0.303-2.422-0.454-4.131-0.454c-1.852,0-3.37,0.174-4.55,0.517c-1.182,0.345-2.11,0.834-2.787,1.469
		c-0.677,0.63-1.145,1.389-1.398,2.279c-0.256,0.886-0.383,1.867-0.383,2.947v15.866H0V15.408h3.419v4.327
		c0.249-0.734,0.605-1.371,1.068-1.905s0.984-0.988,1.567-1.362c0.581-0.374,1.211-0.677,1.887-0.908
		c0.677-0.236,1.354-0.419,2.03-0.544c0.676-0.129,1.331-0.216,1.967-0.258c0.635-0.047,1.214-0.071,1.737-0.071
		c1.518,0,2.827,0.123,3.926,0.365c1.098,0.238,2.03,0.592,2.796,1.06c0.765,0.463,1.379,1.042,1.843,1.736
		c0.463,0.689,0.821,1.486,1.078,2.395c0.253,0.908,0.423,1.924,0.507,3.046c0.083,1.117,0.125,2.337,0.125,3.659l-0.018,14.424
		H20.514z M20.514,41.371"/>
	<path d="M40.51,41.87c-2.279,0-4.216-0.2-5.805-0.598c-1.592-0.396-2.885-1.085-3.882-2.065c-0.998-0.979-1.723-2.283-2.173-3.918
		c-0.452-1.638-0.676-3.696-0.676-6.179c0-2.835,0.224-5.184,0.676-7.042c0.45-1.856,1.175-3.333,2.173-4.426
		c0.997-1.098,2.29-1.863,3.882-2.297c1.589-0.438,3.526-0.659,5.805-0.659c1.625,0,3.036,0.151,4.229,0.454
		c1.193,0.299,2.213,0.734,3.063,1.309c0.849,0.57,1.536,1.263,2.065,2.075c0.528,0.808,0.944,1.66,1.247,2.555
		c0.303,0.891,0.509,1.939,0.624,3.144c0.111,1.2,0.169,2.466,0.169,3.802l-0.285,1.442H31.393c0,1.99,0.153,3.619,0.462,4.889
		c0.308,1.264,0.82,2.189,1.532,2.777c0.712,0.588,1.649,0.962,2.813,1.122c1.162,0.156,2.6,0.231,4.31,0.231
		c1.567,0,2.862-0.056,3.891-0.169c1.025-0.111,1.843-0.325,2.449-0.642c0.605-0.313,1.028-0.752,1.273-1.318
		c0.243-0.563,0.365-1.295,0.365-2.198h3.419c0,1.396-0.194,2.587-0.579,3.57c-0.387,0.986-1.024,1.785-1.914,2.396
		c-0.891,0.605-2.064,1.048-3.517,1.326C44.44,41.729,42.647,41.87,40.51,41.87L40.51,41.87z M40.51,18.293
		c-1.14,0-2.16,0.031-3.054,0.089c-0.897,0.06-1.681,0.193-2.351,0.4c-0.672,0.203-1.244,0.496-1.718,0.882
		c-0.476,0.381-0.859,0.828-1.148,1.345c-0.292,0.516-0.505,1.246-0.641,2.189c-0.138,0.939-0.205,2.066-0.205,3.384h17.095
		c0-1.756-0.149-3.134-0.446-4.131c-0.298-0.998-0.765-1.819-1.406-2.467c-0.641-0.646-1.467-1.089-2.476-1.326
		C43.149,18.415,41.935,18.293,40.51,18.293L40.51,18.293z M40.51,18.293"/>
	<path d="M76.46,29.832c0,2.208-0.143,4.056-0.427,5.538c-0.285,1.478-0.763,2.66-1.433,3.544c-0.672,0.886-1.554,1.518-2.645,1.896
		c-1.093,0.374-2.439,0.561-4.042,0.561c-1.556,0-2.862-0.146-3.918-0.445c-1.057-0.303-1.912-0.813-2.564-1.531
		c-0.654-0.724-1.122-1.685-1.406-2.885c-0.285-1.204-0.428-2.709-0.428-4.515V18.97h-4.221v-3.562h4.221V8.312h3.419v7.097h12.874
		v3.562H63.017v13.025c0,1.442,0.084,2.556,0.258,3.34c0.171,0.778,0.447,1.349,0.828,1.709c0.378,0.363,0.882,0.574,1.504,0.632
		c0.624,0.061,1.385,0.09,2.289,0.09c0.712,0,1.349-0.014,1.914-0.045c0.563-0.029,1.055-0.12,1.478-0.276
		c0.421-0.16,0.779-0.4,1.078-0.721c0.295-0.325,0.536-0.783,0.721-1.371c0.183-0.588,0.316-1.327,0.401-2.217
		c0.082-0.896,0.124-1.997,0.124-3.304H76.46z M76.46,29.832"/>
	<path d="M173.479,15.408h-3.988l-6.34,22.713l-6.767-22.713h-3.419l-6.839,22.713l-6.268-22.713h-3.989l7.978,25.963h4.56
		l6.268-21.28l6.269,21.28h4.559L173.479,15.408z M173.479,15.408"/>
	<path d="M175.258,28.212c0-2.658,0.225-4.862,0.676-6.607c0.45-1.745,1.176-3.127,2.173-4.148c0.997-1.02,2.291-1.736,3.882-2.146
		c1.59-0.414,3.526-0.623,5.806-0.623s4.214,0.209,5.805,0.623c1.59,0.41,2.886,1.127,3.883,2.146
		c0.997,1.021,1.721,2.403,2.172,4.148c0.45,1.745,0.677,3.949,0.677,6.607c0,2.659-0.227,4.868-0.677,6.624
		c-0.451,1.759-1.175,3.156-2.172,4.193c-0.997,1.032-2.293,1.768-3.883,2.199c-1.591,0.428-3.525,0.642-5.805,0.642
		s-4.216-0.214-5.806-0.642c-1.591-0.432-2.885-1.167-3.882-2.199c-0.997-1.037-1.723-2.435-2.173-4.193
		C175.482,33.08,175.258,30.871,175.258,28.212L175.258,28.212z M178.677,28.212c0,1.442,0.04,2.697,0.124,3.766
		c0.083,1.064,0.24,1.977,0.472,2.742c0.232,0.767,0.555,1.39,0.971,1.87c0.414,0.48,0.962,0.868,1.639,1.157
		c0.677,0.285,1.498,0.481,2.466,0.588c0.967,0.103,2.115,0.151,3.446,0.151c1.14,0,2.157-0.031,3.054-0.098
		c0.895-0.071,1.679-0.225,2.351-0.464c0.67-0.242,1.242-0.582,1.719-1.023c0.474-0.445,0.856-1.051,1.148-1.816
		c0.289-0.766,0.503-1.705,0.641-2.822c0.136-1.122,0.205-2.471,0.205-4.051c0-1.55-0.069-2.867-0.205-3.954
		c-0.138-1.09-0.352-2.005-0.641-2.742c-0.292-0.734-0.675-1.317-1.148-1.745c-0.477-0.427-1.049-0.75-1.719-0.971
		c-0.672-0.218-1.456-0.358-2.351-0.418c-0.896-0.058-1.914-0.089-3.054-0.089s-2.159,0.031-3.054,0.089
		c-0.897,0.06-1.681,0.2-2.351,0.418c-0.673,0.221-1.245,0.544-1.719,0.971c-0.477,0.428-0.859,1.011-1.148,1.745
		c-0.292,0.737-0.506,1.652-0.642,2.742C178.743,25.345,178.677,26.662,178.677,28.212L178.677,28.212z M178.677,28.212"/>
	<path d="M222.035,23.857c0-1.079-0.062-1.977-0.187-2.688c-0.125-0.717-0.419-1.291-0.882-1.719s-1.148-0.726-2.057-0.899
		c-0.908-0.171-2.146-0.258-3.713-0.258c-1.531,0-2.777,0.169-3.739,0.507c-0.962,0.339-1.717,0.817-2.262,1.434
		c-0.548,0.612-0.917,1.35-1.113,2.208c-0.195,0.855-0.294,1.808-0.294,2.858v16.071h-3.419V15.408h3.419v4.122
		c0.118-0.463,0.339-0.975,0.659-1.54c0.32-0.563,0.806-1.089,1.46-1.576c0.652-0.492,1.498-0.901,2.538-1.229
		c1.037-0.332,2.335-0.499,3.891-0.499c1.781,0,3.228,0.2,4.345,0.597c1.115,0.398,1.986,0.986,2.609,1.763
		c0.623,0.772,1.044,1.732,1.265,2.876c0.218,1.14,0.329,2.453,0.329,3.936H222.035z M222.035,23.857"/>
	<path d="M227.206,6.753h3.419v18.93h1.14l12.537-10.274h5.128l-14.53,12.082L250,41.371h-5.129l-13.106-12.438h-1.14v12.438h-3.419
		V6.753z M227.206,6.753"/>
	<rect x="83.673" y="1.206" fill="#6986E1" width="45.587" height="45.588"/>
	<path fill-rule="evenodd" clip-rule="evenodd" fill="#00228C" d="M91.364,1.206c-0.208,1.819-0.316,3.645-0.326,5.472
		c-0.868,0.352-1.604,0.959-2.112,1.745c-1.738-0.381-3.493-0.701-5.252-0.971v3.483c1.544,0.247,3.083,0.534,4.609,0.868
		c0.354,1.745,1.689,3.123,3.419,3.53c1.142,7.232,3.702,14.284,7.341,20.688c-0.692,0.828-1.071,1.876-1.064,2.956
		c-4.632,1.108-9.434,1.507-14.306,1.524v3.446c5.255-0.019,10.513-0.469,15.65-1.768c1.046,1.039,2.529,1.509,3.983,1.26
		c0.189-0.033,0.375-0.08,0.558-0.138c0.919,1.202,1.879,2.363,2.874,3.49h4.632c-0.12-0.134-0.245-0.263-0.363-0.401l-0.062-0.066
		c-1.569-1.627-3.043-3.361-4.423-5.18c0.294-0.532,0.477-1.12,0.539-1.726c4.505-2.283,8.545-5.215,12.093-8.643
		c0.635,0.171,1.298,0.202,1.945,0.091c0.47-0.082,0.921-0.238,1.342-0.461c2.669,2.949,4.875,6.22,6.819,9.684v-6.527
		c-1.305-1.9-2.729-3.737-4.312-5.484l-0.011-0.014l-0.011-0.011c-0.087-0.094-0.178-0.183-0.268-0.273
		c0.23-0.704,0.283-1.449,0.161-2.178c-0.056-0.309-0.143-0.611-0.258-0.901c1.736-2.271,3.304-4.674,4.699-7.183V9.603
		c-1.856,4.49-4.24,8.746-7.125,12.595c-0.813-0.354-1.709-0.461-2.583-0.314c-0.343,0.063-0.677,0.163-0.995,0.299
		c-6.353-5.096-13.583-8.882-21.26-11.459c-0.007-0.201-0.024-0.401-0.058-0.597c-0.268-1.543-1.307-2.841-2.754-3.438
		c0.007-1.832,0.118-3.663,0.338-5.482H91.364z M96.12,13.961c7.237,2.42,14.039,5.945,20.005,10.662
		c-0.336,0.797-0.437,1.674-0.292,2.526c0.093,0.532,0.278,1.044,0.55,1.512c-3.072,2.914-6.514,5.429-10.311,7.426
		c-0.966-1.193-2.466-1.818-3.994-1.67c-3.459-6.081-5.883-12.781-6.965-19.626C95.488,14.564,95.827,14.286,96.12,13.961
		L96.12,13.961z M96.12,13.961"/>
	<rect x="93.841" y="16.79" fill="#FFFFFF" width="3.944" height="16.962"/>
	<path fill="#FFFFFF" d="M114.386,19.817v13.935h-3.953V19.817h-7.783V16.79h19.553v3.027H114.386z M114.386,19.817"/>
	<g>
		<rect x="83.673" y="1.206" fill="none" stroke="#000000" stroke-width="2.2794" width="45.587" height="45.588"/>
	</g>
</g>
</svg>
