<?xml version="1.0" encoding="UTF-8"?><svg id="Layer_1" xmlns="http://www.w3.org/2000/svg" viewBox="0 0 32 35"><defs><style>.cls-1{fill:#acacac;}</style></defs><path class="cls-1" d="m15.91,0C11.52.02,7.16.58,4.89,1.63,4.89,1.63,0,3.86,0,11.46,0,20.51,0,31.88,8.09,34.07c3.1.84,5.77,1.02,7.91.9,3.89-.22,5.82-1.42,5.82-1.42l-.13-2.89s-2.52.89-5.65.79c-3.1-.11-6.36-.35-6.86-4.22-.05-.36-.07-.73-.07-1.09,6.56,1.64,12.15.71,13.69.53,4.3-.53,8.04-3.23,8.52-5.7.75-3.9.69-9.5.69-9.5,0-7.6-4.88-9.84-4.88-9.84C24.73.51,20.31-.01,15.91,0Zm-4.7,5.8c1.51.04,3,.72,3.91,2.15l.89,1.51.89-1.51c1.84-2.87,5.97-2.7,7.93-.47,1.81,2.12,1.41,3.48,1.41,12.93h-3.56v-8.22c0-3.85-4.89-4-4.89.54v4.77h-3.54v-4.77c0-4.53-4.89-4.39-4.89-.54v8.22h-3.57c0-9.46-.4-10.83,1.41-12.93.99-1.12,2.51-1.72,4.02-1.68h0Z"/></svg>