<svg id="Ebene_1" data-name="Ebene 1" xmlns="http://www.w3.org/2000/svg" xmlns:xlink="http://www.w3.org/1999/xlink" viewBox="0 0 214.01 29.95"><defs><style>.cls-1{fill:#535251;}.cls-2{fill:#4598d3;}.cls-3{fill:#525150;}.cls-4{opacity:0.21;fill:url(#linear-gradient);}.cls-4,.cls-5{isolation:isolate;}.cls-5{opacity:0.25;fill:url(#linear-gradient-2);}</style><linearGradient id="linear-gradient" x1="-94.79" y1="-620.69" x2="-100.17" y2="-626.43" gradientTransform="matrix(0.99, -0.16, -0.16, -0.99, 6.11, -610.79)" gradientUnits="userSpaceOnUse"><stop offset="0" stop-color="#fdfdff" stop-opacity="0"/><stop offset="0.91" stop-color="#fdfdff" stop-opacity="0.91"/><stop offset="1" stop-color="#fdfdff"/></linearGradient><linearGradient id="linear-gradient-2" x1="-77.88" y1="-593.59" x2="-97.73" y2="-614.77" xlink:href="#linear-gradient"/></defs><title>_iridium-header-large</title><g id="Text"><path class="cls-1" d="M42.5,9.72h2.1v10.1H42.5ZM58,11.22a1.84,1.84,0,0,0-.5-.7,3.45,3.45,0,0,0-.9-.5,4.41,4.41,0,0,0-1.3-.2,9.88,9.88,0,0,0-1.8-.1H46.6v10.1h2.1v-3.6h5.8a2,2,0,0,1,.8.1.45.45,0,0,1,.3.1l.1.1c0,.1.1.2.1.3v2.9H58v-2.2a2.29,2.29,0,0,0-.1-.9,1.12,1.12,0,0,0-.3-.8.78.78,0,0,0-.4-.4,1,1,0,0,0,.4-.5,1.62,1.62,0,0,0,.3-.9,3.7,3.7,0,0,0,.1-1.1v-.8A1.39,1.39,0,0,0,58,11.22Zm-9.3.5h6.1a2,2,0,0,1,.8.1.45.45,0,0,1,.3.1.09.09,0,0,1,.1.1.76.76,0,0,0,.1.3v1.3c0,.1,0,.3-.1.3a.09.09,0,0,1-.1.1.45.45,0,0,1-.3.1c-.2,0-.5.1-.8.1h-6A19,19,0,0,1,48.7,11.72Zm11.1-2h2.1v10.1H59.8Zm15.9,2.4a3.09,3.09,0,0,0-.4-1,2.39,2.39,0,0,0-.9-.8,5.74,5.74,0,0,0-1.4-.4,9.88,9.88,0,0,0-1.8-.1H63.9v10.1h7.3a9.88,9.88,0,0,0,1.8-.1,4,4,0,0,0,1.3-.4,2.39,2.39,0,0,0,.9-.8,4,4,0,0,0,.4-1,4.83,4.83,0,0,0,.1-1.2v-2.8A7.52,7.52,0,0,0,75.7,12.12Zm-4.5,5.8H66v-6.2h6.4c.3,0,.5.1.7.1s.2.1.3.2.1.3.2.4a2,2,0,0,1,.1.9v2.8a2.29,2.29,0,0,1-.1.9.52.52,0,0,1-.2.4c-.1.1-.2.1-.3.2a1.51,1.51,0,0,1-.7.1A3.78,3.78,0,0,1,71.2,17.92Zm6.2-8.2h2.1v10.1H77.4ZM91,14.82v1.4a2.29,2.29,0,0,1-.1.9.72.72,0,0,1-.2.5c-.1.1-.2.2-.3.2a1.42,1.42,0,0,1-.7.2H84.6c-.3,0-.5-.1-.7-.1s-.2-.1-.3-.2-.1-.3-.2-.5a2.5,2.5,0,0,1-.1-.9V9.92H81.2v6.5c0,.5.1.9.1,1.3a3.54,3.54,0,0,0,.4,1.1,2.39,2.39,0,0,0,.9.8,4.9,4.9,0,0,0,1.3.4,9.88,9.88,0,0,0,1.8.1h2.7a9.88,9.88,0,0,0,1.8-.1,4,4,0,0,0,1.3-.4,2.39,2.39,0,0,0,.9-.8,3.54,3.54,0,0,0,.4-1.1,5.15,5.15,0,0,0,.1-1.3V9.92H91Zm16.4-5.1-5.1,7.6-5-7.6H94.7v10.1h2.2v-7.1l4.7,7.1h1.7l4.6-7v7H110V9.72Z" transform="translate(0 -0.01)"/><path class="cls-2" d="M113.7,19.82V10h8.2a5.83,5.83,0,0,1,1.5.2,1.88,1.88,0,0,1,.9.4,1.64,1.64,0,0,1,.4.7,3.07,3.07,0,0,1,.1,1,1.51,1.51,0,0,1-.1.7.72.72,0,0,1-.2.5,1.31,1.31,0,0,1-.3.4l-.3.3a1.12,1.12,0,0,1-.8.3,1.68,1.68,0,0,1,1,.3c.1.1.3.2.4.3a1.31,1.31,0,0,1,.3.4,1,1,0,0,1,.2.6,1.66,1.66,0,0,1,.1.7v.9a2.41,2.41,0,0,1-.2.8,2.17,2.17,0,0,1-.4.6,1.64,1.64,0,0,1-.7.4c-.3.1-.7.2-1.1.3a7.78,7.78,0,0,1-1.6.1Zm7-5.8h1.1a2,2,0,0,0,.8-.1.72.72,0,0,0,.5-.2l.3-.3a.74.74,0,0,0,.1-.5v-.7a1.51,1.51,0,0,0-.1-.7,1.31,1.31,0,0,0-.3-.4,1.42,1.42,0,0,0-.6-.2h-7.6V14Zm0,4.7h1.2a2.74,2.74,0,0,0,.9-.1,1.42,1.42,0,0,0,.6-.2c.2-.1.3-.2.3-.4a4.22,4.22,0,0,0,.2-.6V16a.52.52,0,0,0-.2-.4l-.3-.3c-.1-.1-.3-.1-.6-.2a2.48,2.48,0,0,0-.9-.1H115v3.7Zm18.1,1.1h-1.2v-2.6a1.23,1.23,0,0,0-.1-.6,1.31,1.31,0,0,0-.3-.4.87.87,0,0,0-.6-.2,2.5,2.5,0,0,0-.9-.1h-6.9v3.9h-1.2V10h6.9a10,10,0,0,1,1.9.1c.5.1.9.1,1.3.2a2,2,0,0,1,.8.4,1.28,1.28,0,0,1,.4.6,1.66,1.66,0,0,1,.1.7v.9a3.7,3.7,0,0,1-.1,1.1,6,6,0,0,1-.3.8,1.21,1.21,0,0,1-.5.5,6,6,0,0,1-.8.3c.3.1.6.1.8.3a1.21,1.21,0,0,1,.5.5,1.42,1.42,0,0,1,.2.7c0,.3.1.6.1,1l-.1,1.7Zm-10-4.9h7.1c.4,0,.7-.1.9-.1a1.42,1.42,0,0,0,.6-.2,1.31,1.31,0,0,0,.3-.4,1.12,1.12,0,0,0,.1-.6v-1.5a.74.74,0,0,0-.1-.5l-.3-.3c-.1-.1-.3-.1-.6-.2a2.48,2.48,0,0,0-.9-.1h-7.1Zm20.4-5.2a10,10,0,0,1,1.9.1,4.9,4.9,0,0,1,1.3.4,2.83,2.83,0,0,1,.8.7,3.09,3.09,0,0,1,.4,1,5.15,5.15,0,0,1,.1,1.3v3.2c0,.5-.1.9-.1,1.3a3.09,3.09,0,0,1-.4,1,1.81,1.81,0,0,1-.8.7,4,4,0,0,1-1.3.4,10,10,0,0,1-1.9.1h-3.7a11,11,0,0,1-1.9-.1,4.9,4.9,0,0,1-1.3-.4,2.83,2.83,0,0,1-.8-.7,3.09,3.09,0,0,1-.4-1,5.15,5.15,0,0,1-.1-1.3v-3.2c0-.5.1-.9.1-1.3a3.09,3.09,0,0,1,.4-1,1.81,1.81,0,0,1,.8-.7,4,4,0,0,1,1.3-.4,10,10,0,0,1,1.9-.1Zm0,9.2h1.4a2,2,0,0,0,.9-.2,2.17,2.17,0,0,0,.6-.4,4.76,4.76,0,0,0,.3-.7,3.7,3.7,0,0,0,.1-1.1v-3.2a3.7,3.7,0,0,0-.1-1.1,4.76,4.76,0,0,0-.3-.7.93.93,0,0,0-.6-.4,2,2,0,0,0-.9-.2h-6.5a2,2,0,0,0-.9.2,2.17,2.17,0,0,0-.6.4,4.76,4.76,0,0,0-.3.7,3.7,3.7,0,0,0-.1,1.1v3.2a3.7,3.7,0,0,0,.1,1.1,4.76,4.76,0,0,0,.3.7.93.93,0,0,0,.6.4,2,2,0,0,0,.9.2ZM165,10h1.4l4,8.8,3.9-8.8h1.3l-4.3,9.8h-1.6l-3.9-8.6-3.9,8.6h-1.7L155.4,10h1.4l4.3,8.8Zm18.9,4.2a8.78,8.78,0,0,1,1.7.1c.5.1.9.1,1.2.2a2,2,0,0,1,.8.4,3.19,3.19,0,0,1,.5.6,1.42,1.42,0,0,1,.2.7V17a2,2,0,0,1-.1.8c-.1.3-.1.5-.3.7a1.72,1.72,0,0,1-.6.6,1.88,1.88,0,0,1-.9.4c-.4.1-.8.2-1.3.3a9.88,9.88,0,0,1-1.8.1h-1.6a7.78,7.78,0,0,1-1.6-.1,3.78,3.78,0,0,1-1.2-.2,2,2,0,0,1-.8-.4,1.21,1.21,0,0,1-.5-.5,4.76,4.76,0,0,1-.3-.7,2.18,2.18,0,0,1-.1-.8h1.2a2,2,0,0,0,.2.9,1.21,1.21,0,0,0,.5.5,3.12,3.12,0,0,0,1,.2h3.1a9.88,9.88,0,0,0,1.8-.1,7.17,7.17,0,0,0,1.1-.3.9.9,0,0,0,.6-.6,2,2,0,0,0,.2-.9,2.74,2.74,0,0,0-.1-.9,1.33,1.33,0,0,0-.5-.6,5.76,5.76,0,0,0-1-.3,8.05,8.05,0,0,0-1.7-.1h-1.7a11,11,0,0,1-1.9-.1c-.5-.1-1-.1-1.3-.2a2.51,2.51,0,0,1-.9-.4c-.2-.2-.4-.3-.5-.5a1.42,1.42,0,0,1-.2-.7c0-.2-.1-.5-.1-.8a2,2,0,0,1,.1-.8,4.76,4.76,0,0,1,.3-.7,1.72,1.72,0,0,1,.6-.6,3.09,3.09,0,0,1,1-.4,6.06,6.06,0,0,1,1.4-.2,12.13,12.13,0,0,1,2-.1h1.2a7.78,7.78,0,0,1,1.6.1,3.78,3.78,0,0,1,1.2.2,2,2,0,0,1,.8.4,1.21,1.21,0,0,1,.5.5,4.76,4.76,0,0,1,.3.7c0,.3.1.5.1.8h-1.2a2,2,0,0,0-.2-.9,1.21,1.21,0,0,0-.5-.5,3.12,3.12,0,0,0-1-.2h-2.7a12.13,12.13,0,0,0-2,.1c-.5.1-.9.2-1.3.3a1,1,0,0,0-.6.5,2,2,0,0,0-.2.9V13a.52.52,0,0,0,.2.4,1.31,1.31,0,0,0,.4.3,1.42,1.42,0,0,0,.7.2,3.07,3.07,0,0,0,1,.1h1.4l1.8.2Zm6.8,5.6V10h9.8v1H192v3.3h8.2v1H192v3.5h8.6v1Zm23.1,0h-1.2v-2.6a1.23,1.23,0,0,0-.1-.6,1.31,1.31,0,0,0-.3-.4.87.87,0,0,0-.6-.2,2.29,2.29,0,0,0-.9-.1h-6.9v3.9h-1.2V10h6.9a11,11,0,0,1,1.9.1c.5.1.9.1,1.3.2a2,2,0,0,1,.8.4,1.28,1.28,0,0,1,.4.6,1.66,1.66,0,0,1,.1.7v.9a3.7,3.7,0,0,1-.1,1.1,6,6,0,0,1-.3.8,1.21,1.21,0,0,1-.5.5,6,6,0,0,1-.8.3c.3.1.6.1.8.3a1.21,1.21,0,0,1,.5.5,1.42,1.42,0,0,1,.2.7c0,.3.1.6.1,1l-.1,1.7Zm-10-4.9h7.1c.4,0,.7-.1.9-.1a1.42,1.42,0,0,0,.6-.2,1.31,1.31,0,0,0,.3-.4,1.12,1.12,0,0,0,.1-.6v-1.5a.74.74,0,0,0-.1-.5l-.3-.3c-.1-.1-.3-.1-.6-.2a2.77,2.77,0,0,0-.9-.1h-7.1Z" transform="translate(0 -0.01)"/></g><g id="Large"><path class="cls-2" d="M20.9,11v-.3c-.1-.8-.2-1.6-.3-2.3a.37.37,0,0,0-.1-.3v-.2c-1.3-.2-2.5-.4-3.8-.5a14.72,14.72,0,0,0-2.1,0,21.64,21.64,0,0,0-4.4.4.87.87,0,0,0-.5.1H9.5c-1,.2-2,.4-3,.7a.64.64,0,0,0-.6,0c-.1,0-.2.1-.4.1-.7.2-1.4.5-2,.7A23.06,23.06,0,0,0,0,11.12a34.77,34.77,0,0,0,1,4.5,15.45,15.45,0,0,0,1.1,2.7h0A21.93,21.93,0,0,0,4,21.52c.3.3.5.7.8,1A21.37,21.37,0,0,0,13.4,29l.1-.1.1-.1a25.14,25.14,0,0,0,2.2-2.3l.2-.2c0-.1.1-.1.1-.2s.2-.3.3-.4a22.61,22.61,0,0,0,2.3-3.8c0-.1.1-.2.1-.3a18.62,18.62,0,0,0,1-2.5c0-.1.1-.2.1-.3v-.1h0a12.12,12.12,0,0,0,.6-2.6V16a.37.37,0,0,1,.1-.3,21.57,21.57,0,0,0,.2-2.4V13A14.81,14.81,0,0,0,20.9,11ZM9.7,16.12a.35.35,0,0,0-.1-.2c0-.1,0-.1-.1-.2V15c0-.1.1-.2.1-.3a1.58,1.58,0,0,1,1.2-.9,1.55,1.55,0,0,1,1.6.7.37.37,0,0,1,.1.3c0,.1.1.2.1.3a1.47,1.47,0,0,1-.2,1.1.22.22,0,0,1-.2.2l-.3.3.4,1.2L13,19H10.6v-2.1A1.68,1.68,0,0,1,9.7,16.12Zm21-2.9-1.5.6-1.8.6a12.65,12.65,0,0,1-1.8.5l-.9.2-.9.2c-.6.1-1.2.3-1.8.4h-.2c.1-1,.1-2,.1-2.9a41.83,41.83,0,0,0,7-2.7A5,5,0,0,0,30.7,13.22Zm5.3-2.1a3,3,0,0,1-3.3,1.2A4.76,4.76,0,0,1,32,12a2.87,2.87,0,0,1-1.3-2.8A3.1,3.1,0,0,1,31.2,8a2.9,2.9,0,0,1,4-.8A2.77,2.77,0,0,1,36.05,11Z" transform="translate(0 -0.01)"/><path class="cls-3" d="M14.5,1.12a20,20,0,0,1,2.6-.8,15.89,15.89,0,0,1,13.1,3.2h-.1l-2.5,1.2a13.29,13.29,0,0,0-10-2c-.3.1-.6.1-1,.2A12.41,12.41,0,0,0,14.5,1.12ZM32,5.42c-.1.1-.2.1-.2.2a4.38,4.38,0,0,1-.7.4c-.2.1-.5.3-.7.4s-.3.2-.5.3-.7.4-1,.6a3,3,0,0,1-.8.4c-.3.1-.5.3-.8.4a22.08,22.08,0,0,1-3.5,1.5c-.7.2-1.3.5-2,.7q-.15-1.2-.3-2.1l-.1-.4a12.31,12.31,0,0,0,1.8-.4,35.75,35.75,0,0,0,3.5-1,6,6,0,0,0,.8-.3,1.17,1.17,0,0,0,.8-.1,1.42,1.42,0,0,1,.6-.2c.3-.1.6-.3.9-.4a4.88,4.88,0,0,0,.7-.3c.2-.1.5-.2.7-.3h0l.4.4A.52.52,0,0,1,32,5.42Zm3.6,7.7c-.2.1-.5.3-.7.4a4.76,4.76,0,0,1-.7.3l-1.4.7L30,15.82l-.7.3c-.2.1-.5.2-.7.3-.5.2-.9.4-1.4.6l-1.5.5a8.74,8.74,0,0,1-1.5.4l-1.5.4a6.72,6.72,0,0,1-1.4.3,7.47,7.47,0,0,1-.4,1.4c-.2.6-.4,1.1-.6,1.7a17.07,17.07,0,0,0,12.2-4.3c.2,1.1-1.7,3.7-2.4,4.5-3.1,3.8-7.7,5.2-12.4,4.7a22,22,0,0,1-2.2,2.8h.1l.6.2a5.68,5.68,0,0,0,1.3.2,5.66,5.66,0,0,0,1.3.1,5.65,5.65,0,0,0,1.3,0l1.3-.1,1.2-.2h.7l.6-.2c.2-.1.4-.1.6-.2l.6-.2.6-.2.6-.3.6-.3.6-.3.6-.3a1,1,0,0,0,.5-.4,8.55,8.55,0,0,0,1-.7c.3-.3.7-.5,1-.8l.9-.9.4-.5.1-.1.1-.1c.1-.1.1-.2.2-.3.3-.3.5-.7.8-1l.4-.5.3-.6a10.59,10.59,0,0,1,.6-1.1,5.74,5.74,0,0,0,.5-1.2l.2-.6c.1-.2.1-.4.2-.6l.2-.6.1-.6c.1-.4.1-.8.2-1.3a5.15,5.15,0,0,0,.1-1.3v-1.6ZM16.4,6.42a14.72,14.72,0,0,0-2.1,0,8.18,8.18,0,0,0-1.1-1.9l-.3-.3A4.38,4.38,0,0,0,11,3a.87.87,0,0,0-.5-.1,2.85,2.85,0,0,0-1.3,0c-2.2.2-3.7,2.3-3.8,4.9-.7.3-1.4.5-2.1.8-.1-3.9,2.2-7.3,5.5-7.8a5.85,5.85,0,0,1,3.7.6c.2.1.3.2.5.3a11.4,11.4,0,0,1,1.7,1.4c.1.1.2.3.3.4A9.73,9.73,0,0,1,16.4,6.42Z" transform="translate(0 -0.01)"/><path class="cls-4" d="M16.4,25.82c-.1.1-.2.3-.3.4s-.1.1-.1.2l-.2.2a25.14,25.14,0,0,1-2.2,2.3l-.1.1-.1.1a22.29,22.29,0,0,1-8.6-6.5c-.3-.3-.5-.7-.8-1a18.11,18.11,0,0,1-1.9-3.2h.2C4.3,20.72,9.2,25.62,16.4,25.82Z" transform="translate(0 -0.01)"/><path class="cls-5" d="M20.5,7.92A34.46,34.46,0,0,0,1,15.62a17.35,17.35,0,0,1-1-4.5,37.64,37.64,0,0,1,3.5-1.7,15.8,15.8,0,0,1,2-.7c.1,0,.2-.1.4-.1a1.42,1.42,0,0,0,.6-.2c1-.3,2-.5,3-.7h.2c.2,0,.3-.1.5-.1a32.56,32.56,0,0,1,4.4-.4h2.1a23.12,23.12,0,0,1,3.8.5C20.4,7.82,20.4,7.92,20.5,7.92Z" transform="translate(0 -0.01)"/></g></svg>