<svg id="Ebene_1" data-name="Ebene 1" xmlns="http://www.w3.org/2000/svg" xmlns:xlink="http://www.w3.org/1999/xlink" viewBox="0 0 200 44.01"><defs><style>.cls-1{fill:#449ad5;}.cls-2{fill:#515050;}.cls-3{opacity:0.21;isolation:isolate;fill:url(#linear-gradient);}</style><linearGradient id="linear-gradient" x1="117.59" y1="-11.19" x2="93.35" y2="14.69" gradientUnits="userSpaceOnUse"><stop offset="0" stop-color="#fdfdff" stop-opacity="0"/><stop offset="0.91" stop-color="#fdfdff" stop-opacity="0.91"/><stop offset="1" stop-color="#fdfdff"/></linearGradient></defs><title>iridium-logo_small</title><path class="cls-1" d="M102.53,10.59v-.33c-.06-.73-.15-1.47-.28-2.19l-.06-.31V7.51a28.75,28.75,0,0,0-3.7-.45C97.73,7,97,7,96.35,7a29.92,29.92,0,0,0-4.22.36l-.44.08a.49.49,0,0,0-.17,0,27.77,27.77,0,0,0-2.87.66L88,8.32l-.34.11c-.66.21-1.31.45-2,.7a28,28,0,0,0-3.36,1.61,22.51,22.51,0,0,0,1,4.37,23.72,23.72,0,0,0,1,2.58h0a20.82,20.82,0,0,0,1.82,3c.24.34.49.67.74,1A21.43,21.43,0,0,0,95.35,28h.05l.13-.11a20.68,20.68,0,0,0,2.09-2.2l.17-.19.12-.16L98.2,25a21.92,21.92,0,0,0,2.23-3.64c0-.1.1-.19.14-.29a19.84,19.84,0,0,0,1-2.44,1.25,1.25,0,0,1,.1-.29v-.06h0a20.8,20.8,0,0,0,.59-2.48v-.13a.65.65,0,0,1,.06-.33,23.09,23.09,0,0,0,.24-2.35v-.34A19.74,19.74,0,0,0,102.53,10.59Zm-10.75,5a.92.92,0,0,1-.09-.23l-.06-.23a1.67,1.67,0,0,1,0-.63,1.43,1.43,0,0,1,.09-.27,1.57,1.57,0,0,1,2.07-.85,1.52,1.52,0,0,1,.73.62,1,1,0,0,1,.14.28,1.57,1.57,0,0,1,.08.31,1.52,1.52,0,0,1-.18,1,1,1,0,0,1-.16.24,1.72,1.72,0,0,1-.27.27l.42,1.13L95,18.35H92.63v-2a1.56,1.56,0,0,1-.92-.79ZM112,12.71c-.47.19-1,.35-1.41.54s-1.16.38-1.72.58-1.17.35-1.74.5l-.87.24-.89.19c-.59.13-1.19.27-1.78.35h-.18a23.25,23.25,0,0,0,.13-2.77,37.67,37.67,0,0,0,6.81-2.61A4.35,4.35,0,0,0,112,12.71Zm5.15-2a2.76,2.76,0,0,1-3.83.8l0,0a2.77,2.77,0,0,1-1.23-2.7,2.61,2.61,0,0,1,.44-1.17,2.8,2.8,0,0,1,4.66,3.09Z" transform="translate(0 0)"/><path class="cls-2" d="M96.4,1.05A15,15,0,0,1,98.93.31,15.17,15.17,0,0,1,111.6,3.44h-.08L109.11,4.6a12.8,12.8,0,0,0-9.7-1.94c-.31.07-.62.14-.92.23A9.9,9.9,0,0,0,96.4,1.05Zm16.94,4.17-.23.15-.65.44-.68.42-.46.28-1,.57c-.26.14-.51.26-.77.41s-.53.27-.8.4c-1.07.53-2.21,1-3.39,1.46-.64.23-1.29.46-2,.67-.08-.67-.19-1.34-.33-2l0-.38c.58-.11,1.15-.22,1.72-.35a28.13,28.13,0,0,0,3.38-1l.81-.28.78-.29c.19-.09.39-.17.58-.24s.62-.25.92-.39l.71-.32.68-.33h0c.15.14.28.28.41.42Zm3.42,7.42c-.23.11-.45.24-.67.36s-.43.23-.65.33l-1.36.64-2.7,1.28-.68.32c-.22.1-.46.19-.69.28-.46.18-.92.38-1.39.55l-1.41.5c-.47.16-.95.28-1.43.41l-1.45.39c-.46.11-.91.25-1.37.33-.11.45-.23.9-.37,1.36A16,16,0,0,1,102,21a16.25,16.25,0,0,0,11.76-4.17c.17,1-1.61,3.55-2.27,4.36a13,13,0,0,1-12,4.51,22.22,22.22,0,0,1-2.16,2.68h.11l.58.16c.41.1.83.15,1.23.22a7.35,7.35,0,0,0,1.24.13,8.69,8.69,0,0,0,1.25,0H103l1.2-.18h.62l.61-.15.6-.16.59-.21.58-.2.57-.26.57-.25.55-.3.54-.3c.18-.1.35-.22.53-.33a10.23,10.23,0,0,0,1-.73,8.55,8.55,0,0,0,1-.8,10.31,10.31,0,0,0,.88-.87l.41-.44.1-.12.11-.13.19-.24a12.2,12.2,0,0,0,.73-1l.34-.52c.11-.17.21-.36.31-.54a11.29,11.29,0,0,0,.57-1.09,11.61,11.61,0,0,0,.48-1.15l.21-.57c.06-.2.11-.4.17-.6l.17-.6.12-.6c.09-.39.14-.82.2-1.23s.06-.8.1-1.22,0-.83,0-1.23V12.5ZM98.28,6.2H96.21a6.18,6.18,0,0,0-1.09-1.85,2.35,2.35,0,0,0-.3-.33A4.7,4.7,0,0,0,93,2.79l-.49-.13a3.93,3.93,0,0,0-1.28,0C89.16,3,87.71,5.08,87.6,7.59c-.66.21-1.31.45-2,.7-.15-3.75,2.06-7,5.27-7.54a5.67,5.67,0,0,1,3.59.61,4.76,4.76,0,0,1,.49.28A7.06,7.06,0,0,1,96.57,3l.33.41A8.57,8.57,0,0,1,98.28,6.2Z" transform="translate(0 0)"/><path class="cls-3" d="M98.2,25c-.09.13-.19.25-.29.38l-.12.15-.17.2a20.58,20.58,0,0,1-2.09,2.19L95.4,28l-.05.05A21.58,21.58,0,0,1,87,21.73c-.25-.32-.5-.64-.74-1a21.46,21.46,0,0,1-1.82-3.06h.11C86.56,20,91.32,24.69,98.2,25Zm3.94-17.37a33.6,33.6,0,0,0-18.77,7.48,21.9,21.9,0,0,1-1-4.38,30.36,30.36,0,0,1,3.36-1.6c.64-.26,1.29-.49,2-.7L88,8.32l.61-.18c.94-.27,1.9-.49,2.87-.67h.16l.45-.07A30.4,30.4,0,0,1,96.35,7h2.07a28.75,28.75,0,0,1,3.7.45A.55.55,0,0,1,102.14,7.63Z" transform="translate(0 0)"/><path class="cls-2" d="M0,31.93H2.52V43.77H0Zm18.24,1.76a2,2,0,0,0-.59-.83,2.72,2.72,0,0,0-1-.55A8.19,8.19,0,0,0,15.1,32c-.58-.05-1.29-.08-2.12-.08H4.85V43.78H7.36V39.56h6.86a5.63,5.63,0,0,1,.92.1,1.07,1.07,0,0,1,.39.14.49.49,0,0,1,.11.14,1.41,1.41,0,0,1,.07.41v3.4h2.51V41.19a10.51,10.51,0,0,0-.06-1.12,2.9,2.9,0,0,0-.3-1,2,2,0,0,0-.42-.53A2.6,2.6,0,0,0,18,38a2.94,2.94,0,0,0,.39-1.07,6.74,6.74,0,0,0,.11-1.27v-1A3.32,3.32,0,0,0,18.24,33.69Zm-10.88.54h7.12a7,7,0,0,1,.91.08,1.23,1.23,0,0,1,.41.13.22.22,0,0,1,.09.1,1,1,0,0,1,.06.33v1.55a1.14,1.14,0,0,1-.07.41.26.26,0,0,1-.11.14,1.07,1.07,0,0,1-.39.14,5.51,5.51,0,0,1-.91.1H7.36Zm13-2.3h2.52V43.77H20.35Zm18.71,2.8a3.69,3.69,0,0,0-.51-1.23,3,3,0,0,0-1-.92A5.06,5.06,0,0,0,36,32.09a13,13,0,0,0-2.16-.15H25.2V43.78h8.58a13,13,0,0,0,2.16-.15,5.08,5.08,0,0,0,1.56-.5,3,3,0,0,0,1-.92A3.61,3.61,0,0,0,39.06,41a7.1,7.1,0,0,0,.18-1.45V36.2A7.3,7.3,0,0,0,39.06,34.73Zm-5.28,6.75H27.72V34.23h7.51a3.39,3.39,0,0,1,.84.17.71.71,0,0,1,.34.23,1.24,1.24,0,0,1,.21.52,5.35,5.35,0,0,1,.11,1.05v3.24a5.57,5.57,0,0,1-.11,1,1.24,1.24,0,0,1-.21.52.69.69,0,0,1-.34.24,3.54,3.54,0,0,1-.85.16A5.53,5.53,0,0,1,33.78,41.48Zm7.37-9.55h2.52V43.77H41.15Zm16,5.92v1.71a6,6,0,0,1-.1,1.11,1.41,1.41,0,0,1-.21.56,1,1,0,0,1-.36.26,2.54,2.54,0,0,1-.82.16c-.39,0-.88.05-1.45.05H51a12.13,12.13,0,0,1-1.44-.05,2.37,2.37,0,0,1-.83-.17.67.67,0,0,1-.35-.25,1.41,1.41,0,0,1-.21-.56,8.34,8.34,0,0,1-.11-1.11V31.93h-2.5v7.66a8.52,8.52,0,0,0,.17,1.51,4.13,4.13,0,0,0,.51,1.27,3,3,0,0,0,1,1,4.79,4.79,0,0,0,1.56.52A11.88,11.88,0,0,0,51,44h3.13a12,12,0,0,0,2.16-.16,4.79,4.79,0,0,0,1.56-.52,2.82,2.82,0,0,0,1-1,4.07,4.07,0,0,0,.51-1.26,9.56,9.56,0,0,0,.17-1.51V31.94H57.1Zm19.24-5.92-5.89,8.85-5.89-8.85H61.51V43.78H64V35.39l5.51,8.39h2l5.41-8.24v8.24h2.52V31.93Z" transform="translate(0 0)"/><path class="cls-1" d="M82,43.73V32.17h9.64a7.24,7.24,0,0,1,1.74.18,2.4,2.4,0,0,1,1,.52,1.69,1.69,0,0,1,.48.85A5.21,5.21,0,0,1,95,34.9a4,4,0,0,1-.09.85,2.4,2.4,0,0,1-.21.64,2.26,2.26,0,0,1-.31.45,1.79,1.79,0,0,1-.36.31,2.07,2.07,0,0,1-1,.32,2.84,2.84,0,0,1,1.21.33,2.67,2.67,0,0,1,.43.32,2.22,2.22,0,0,1,.39.47,2.77,2.77,0,0,1,.27.67,3.19,3.19,0,0,1,.11.87,10.14,10.14,0,0,1-.06,1.1,3.14,3.14,0,0,1-.23.9,2,2,0,0,1-.49.7,2.6,2.6,0,0,1-.87.5,5.8,5.8,0,0,1-1.31.3,16.56,16.56,0,0,1-1.86.1ZM90.15,37h1.27a6.85,6.85,0,0,0,.91-.11,2,2,0,0,0,.61-.23,1.19,1.19,0,0,0,.36-.38,1.37,1.37,0,0,0,.18-.56,5.08,5.08,0,0,0,0-.78,2.29,2.29,0,0,0-.1-.78A.79.79,0,0,0,93,33.7a1.88,1.88,0,0,0-.73-.22,11.85,11.85,0,0,0-1.19-.06h-7.7V37Zm0,5.53h1.46a8.27,8.27,0,0,0,1-.12,1.73,1.73,0,0,0,.69-.24,1.13,1.13,0,0,0,.41-.43,1.64,1.64,0,0,0,.2-.65,7.21,7.21,0,0,0,0-.93,4.45,4.45,0,0,0,0-.73,1.15,1.15,0,0,0-.2-.53.91.91,0,0,0-.41-.34,2.4,2.4,0,0,0-.69-.21,8.47,8.47,0,0,0-1-.1H83.42v4.33Zm21.36,1.2h-1.44V40.66a2.09,2.09,0,0,0-.13-.65,1,1,0,0,0-.34-.44,1.6,1.6,0,0,0-.67-.25,5.69,5.69,0,0,0-1.08-.13H99.72v4.58H98.27V32.17h8.18a14.73,14.73,0,0,1,2.23.1,7.67,7.67,0,0,1,1.49.28,2.47,2.47,0,0,1,.91.47,1.6,1.6,0,0,1,.47.65,2.42,2.42,0,0,1,.17.84v1a6.73,6.73,0,0,1-.1,1.27,2.61,2.61,0,0,1-.34.93,2,2,0,0,1-.65.61,2.73,2.73,0,0,1-1,.32,2.73,2.73,0,0,1,1,.32,1.82,1.82,0,0,1,.56.58,2.37,2.37,0,0,1,.25.86,8.47,8.47,0,0,1,.07,1.13v2.2ZM99.72,38h8.35a6.62,6.62,0,0,0,1.09-.13,1.71,1.71,0,0,0,.66-.25,1,1,0,0,0,.34-.44,2.42,2.42,0,0,0,.13-.65V34.78a2,2,0,0,0-.13-.59.86.86,0,0,0-.34-.39,2.56,2.56,0,0,0-.66-.22,7.89,7.89,0,0,0-1.09-.1H99.72Zm24-6.07a12.81,12.81,0,0,1,2.23.17,4.9,4.9,0,0,1,1.49.48,2.56,2.56,0,0,1,.9.83,3.49,3.49,0,0,1,.46,1.17,7.69,7.69,0,0,1,.18,1.51v3.73a7.69,7.69,0,0,1-.18,1.51,3.24,3.24,0,0,1-.46,1.16,2.32,2.32,0,0,1-.9.83,4.92,4.92,0,0,1-1.49.49,13.86,13.86,0,0,1-2.23.16h-4.35a13.86,13.86,0,0,1-2.23-.16,4.92,4.92,0,0,1-1.49-.49,2.5,2.5,0,0,1-.91-.83,3.44,3.44,0,0,1-.46-1.16,7.68,7.68,0,0,1-.17-1.51V36.09a7.68,7.68,0,0,1,.17-1.51,3.49,3.49,0,0,1,.46-1.17,2.59,2.59,0,0,1,.91-.83,4.9,4.9,0,0,1,1.49-.48,12.81,12.81,0,0,1,2.23-.17Zm0,10.83h1.61a3.72,3.72,0,0,0,1.09-.23,1.55,1.55,0,0,0,.66-.5,2.22,2.22,0,0,0,.34-.86,7.17,7.17,0,0,0,.12-1.31V36.14a7.17,7.17,0,0,0-.12-1.31,2.22,2.22,0,0,0-.34-.86,1.55,1.55,0,0,0-.66-.5,4,4,0,0,0-1.08-.23h-7.59a4,4,0,0,0-1.08.23,1.45,1.45,0,0,0-.67.5,2.22,2.22,0,0,0-.34.86,7.17,7.17,0,0,0-.12,1.31v3.72a7.17,7.17,0,0,0,.12,1.31A2.07,2.07,0,0,0,116,42a1.48,1.48,0,0,0,.66.5,3.66,3.66,0,0,0,1.08.23h1.62Zm18.58-10.59H144l4.7,10.37,4.57-10.36h1.51l-5.12,11.55h-1.92l-4.58-10.1-4.57,10.1h-2l-5.66-11.55h1.68l5.06,10.34Zm22.26,5.06a16.64,16.64,0,0,1,2,.1,7.89,7.89,0,0,1,1.43.29,2.75,2.75,0,0,1,.93.48,2.08,2.08,0,0,1,.53.65,2.37,2.37,0,0,1,.25.82c0,.31,0,.63,0,1a5.55,5.55,0,0,1-.09,1,2.54,2.54,0,0,1-.33.84,2.25,2.25,0,0,1-.66.68,3.41,3.41,0,0,1-1.05.51,8.11,8.11,0,0,1-1.54.32A16.16,16.16,0,0,1,164,44h-1.9a13.58,13.58,0,0,1-1.89-.08,8.39,8.39,0,0,1-1.4-.25,3.69,3.69,0,0,1-1-.43,2.4,2.4,0,0,1-.62-.61,2.06,2.06,0,0,1-.31-.8,4.78,4.78,0,0,1-.1-1h1.45a2.49,2.49,0,0,0,.19,1.08,1.23,1.23,0,0,0,.65.58,3.37,3.37,0,0,0,1.18.25H164a14.57,14.57,0,0,0,2.09-.12,3.91,3.91,0,0,0,1.34-.39,1.61,1.61,0,0,0,.7-.69,2.66,2.66,0,0,0,.2-1,3.06,3.06,0,0,0-.14-1,1.16,1.16,0,0,0-.55-.66,2.94,2.94,0,0,0-1.16-.34,13.94,13.94,0,0,0-1.94-.11h-2a17,17,0,0,1-2.26-.09,9.47,9.47,0,0,1-1.59-.29,3.11,3.11,0,0,1-1-.45,2.18,2.18,0,0,1-.58-.63,2,2,0,0,1-.26-.79,7.26,7.26,0,0,1-.06-.93,5.55,5.55,0,0,1,.09-1,2.29,2.29,0,0,1,.35-.82,2.55,2.55,0,0,1,.7-.65,4.38,4.38,0,0,1,1.14-.48,11.91,11.91,0,0,1,1.67-.29c.66-.06,1.42-.09,2.3-.09h1.45a17.07,17.07,0,0,1,1.89.08,8.37,8.37,0,0,1,1.4.24,3.69,3.69,0,0,1,1,.43,1.75,1.75,0,0,1,.61.6,2.09,2.09,0,0,1,.32.79,5.55,5.55,0,0,1,.09,1h-1.44a2.28,2.28,0,0,0-.2-1.06,1.23,1.23,0,0,0-.64-.57,3.46,3.46,0,0,0-1.19-.24h-3.26a21.05,21.05,0,0,0-2.38.1,5.33,5.33,0,0,0-1.47.34,1.45,1.45,0,0,0-.75.65,2,2,0,0,0-.22,1,4.89,4.89,0,0,0,.05.66,1.21,1.21,0,0,0,.22.52,1.18,1.18,0,0,0,.46.37,2.89,2.89,0,0,0,.77.25,7.76,7.76,0,0,0,1.18.14h3.64Zm8.06,6.5V32.17h11.55v1.21H174.07v3.85h9.63v1.2h-9.63v4.09h10.11v1.21Zm27.13,0h-1.44V40.66a2.09,2.09,0,0,0-.13-.65,1,1,0,0,0-.34-.44,1.6,1.6,0,0,0-.67-.25,5.69,5.69,0,0,0-1.08-.13H188v4.58h-1.45V32.17h8.18a14.73,14.73,0,0,1,2.23.1,7.67,7.67,0,0,1,1.49.28,2.47,2.47,0,0,1,.91.47,1.6,1.6,0,0,1,.47.65,2.67,2.67,0,0,1,.17.84v1a6.73,6.73,0,0,1-.1,1.27,2.83,2.83,0,0,1-.35.93,1.84,1.84,0,0,1-.63.61,2.73,2.73,0,0,1-1,.32,2.55,2.55,0,0,1,1,.32,1.64,1.64,0,0,1,.56.58,2.86,2.86,0,0,1,.26.86,10.69,10.69,0,0,1,.06,1.13V43.7ZM188,38h8.35a6.63,6.63,0,0,0,1.08-.13,1.6,1.6,0,0,0,.67-.25,1,1,0,0,0,.34-.44,2.42,2.42,0,0,0,.13-.65V34.78a2,2,0,0,0-.13-.59.86.86,0,0,0-.34-.39,2.29,2.29,0,0,0-.67-.22,7.89,7.89,0,0,0-1.08-.1H188Z" transform="translate(0 0)"/></svg>