<svg id="Ebene_1" data-name="Ebene 1" xmlns="http://www.w3.org/2000/svg" xmlns:xlink="http://www.w3.org/1999/xlink" viewBox="0 0 263.96 29.99"><defs><style>.cls-1{fill:#535251;}.cls-2{fill:#4598d3;}.cls-3{fill:#4499d4;}.cls-4{fill:#515050;}.cls-5{opacity:0.21;fill:url(#linear-gradient);}.cls-5,.cls-6{isolation:isolate;}.cls-6{opacity:0.25;fill:url(#linear-gradient-2);}</style><linearGradient id="linear-gradient" x1="15.77" y1="583.89" x2="8.94" y2="591.17" gradientTransform="translate(0 -568)" gradientUnits="userSpaceOnUse"><stop offset="0" stop-color="#fdffff" stop-opacity="0"/><stop offset="0.91" stop-color="#fdffff" stop-opacity="0.91"/><stop offset="1" stop-color="#fdffff"/></linearGradient><linearGradient id="linear-gradient-2" x1="31.65" y1="554.83" x2="8.95" y2="579.03" xlink:href="#linear-gradient"/></defs><title>_iridium-header-small</title><g id="Text"><path class="cls-1" d="M41,8.21h2.78V21.29H41Zm20.15,1.94a2.49,2.49,0,0,0-.65-.92,3.23,3.23,0,0,0-1.16-.61,8.52,8.52,0,0,0-1.66-.31,22.89,22.89,0,0,0-2.34-.1h-9V21.29h2.78V16.63h7.62a8.27,8.27,0,0,1,1,.12,1.11,1.11,0,0,1,.43.15.44.44,0,0,1,.12.15,1.16,1.16,0,0,1,.08.45v3.76h2.77V18.43a10.31,10.31,0,0,0-.07-1.24,3,3,0,0,0-.34-1.1,2.11,2.11,0,0,0-.45-.58,2.59,2.59,0,0,0,.56-.63,3.51,3.51,0,0,0,.43-1.17,8.39,8.39,0,0,0,.12-1.41V11.21A3.88,3.88,0,0,0,61.15,10.15Zm-12,.59H57a5.55,5.55,0,0,1,1,.09,1.18,1.18,0,0,1,.45.14.24.24,0,0,1,.1.1,1.51,1.51,0,0,1,.07.37v1.72a1.78,1.78,0,0,1-.08.45.48.48,0,0,1-.12.16A1.6,1.6,0,0,1,58,14a6.65,6.65,0,0,1-1,.11H49.18ZM63.48,8.21h2.78V21.29H63.48ZM84.15,11.3a3.72,3.72,0,0,0-.57-1.36,3.19,3.19,0,0,0-1.16-1,5.76,5.76,0,0,0-1.72-.55,14.57,14.57,0,0,0-2.38-.16H68.84V21.29h9.48a14.58,14.58,0,0,0,2.38-.17,5.75,5.75,0,0,0,1.72-.54,3.19,3.19,0,0,0,1.16-1,4,4,0,0,0,.57-1.36,7.86,7.86,0,0,0,.19-1.6v-3.7A8,8,0,0,0,84.15,11.3Zm-5.83,7.45h-6.7v-8h6.7a12.33,12.33,0,0,1,1.59.06,3.32,3.32,0,0,1,.94.17.86.86,0,0,1,.38.27,1.67,1.67,0,0,1,.23.57A7.74,7.74,0,0,1,81.58,13v3.58a7.35,7.35,0,0,1-.12,1.15,1.75,1.75,0,0,1-.23.57.84.84,0,0,1-.38.26,3.72,3.72,0,0,1-.94.18ZM86.46,8.21h2.78V21.29H86.46Zm17.62,6.54v1.88a7.1,7.1,0,0,1-.11,1.22,1.74,1.74,0,0,1-.24.62.93.93,0,0,1-.39.29,3.68,3.68,0,0,1-.92.19c-.43,0-1,.05-1.59.05H97.37A14.78,14.78,0,0,1,95.78,19a3.68,3.68,0,0,1-.92-.19.76.76,0,0,1-.38-.28,1.57,1.57,0,0,1-.24-.62,7.3,7.3,0,0,1-.11-1.23V8.21h-2.8v8.46a9.28,9.28,0,0,0,.19,1.66,4.4,4.4,0,0,0,.57,1.4,3.08,3.08,0,0,0,1.15,1.06,5.34,5.34,0,0,0,1.73.57,13.56,13.56,0,0,0,2.38.18h3.45a13.67,13.67,0,0,0,2.39-.18,5.34,5.34,0,0,0,1.73-.57,3.08,3.08,0,0,0,1.15-1.06,4.72,4.72,0,0,0,.56-1.4,9.28,9.28,0,0,0,.19-1.66V8.21H104Zm21.27-6.54L118.83,18l-6.51-9.78H109V21.29h2.78V12l6.09,9.26H120l6-9.1v9.1h2.77v-13Z" transform="translate(0 -0.01)"/><path class="cls-2" d="M133.62,21.23V8.47h10.64a7.36,7.36,0,0,1,1.93.2,2.53,2.53,0,0,1,1.13.57,1.94,1.94,0,0,1,.52.95,5.6,5.6,0,0,1,.14,1.29,4.91,4.91,0,0,1-.09.94,3.75,3.75,0,0,1-.25.71,2.1,2.1,0,0,1-.34.5,1.59,1.59,0,0,1-.39.34,2,2,0,0,1-1.06.35,3,3,0,0,1,1.33.37,2.61,2.61,0,0,1,.91.87,3.19,3.19,0,0,1,.3.74,3.38,3.38,0,0,1,.12,1,9.87,9.87,0,0,1-.07,1.22,3.2,3.2,0,0,1-.25,1,2.22,2.22,0,0,1-.55.77,2.78,2.78,0,0,1-.95.56,6.6,6.6,0,0,1-1.45.32,15.71,15.71,0,0,1-2.06.11Zm9-7.44H144a8.27,8.27,0,0,0,1-.12,2.28,2.28,0,0,0,.67-.26,1.27,1.27,0,0,0,.41-.42,1.87,1.87,0,0,0,.19-.62,6.17,6.17,0,0,0,0-.86,2.52,2.52,0,0,0-.12-.86,1,1,0,0,0-.41-.51A2,2,0,0,0,145,9.9a11.38,11.38,0,0,0-1.31-.07h-8.52v4Zm0,6.11h1.61a8.8,8.8,0,0,0,1.15-.13,2.15,2.15,0,0,0,.77-.27,1.16,1.16,0,0,0,.45-.48,1.83,1.83,0,0,0,.22-.72,8.39,8.39,0,0,0,.06-1,5.52,5.52,0,0,0-.06-.81,1.32,1.32,0,0,0-.22-.58,1,1,0,0,0-.45-.38,2.29,2.29,0,0,0-.77-.23,8.78,8.78,0,0,0-1.15-.11h-9V19.9Zm23.63,1.33h-1.6V17.84a2,2,0,0,0-.14-.72,1.12,1.12,0,0,0-.38-.48,1.91,1.91,0,0,0-.73-.28,8.17,8.17,0,0,0-1.2-.14h-8.95v5.06h-1.6V8.47h9a22.5,22.5,0,0,1,2.46.11,8.42,8.42,0,0,1,1.65.31,2.66,2.66,0,0,1,1,.52,1.67,1.67,0,0,1,.51.72,3,3,0,0,1,.19.93V12.2a8.18,8.18,0,0,1-.11,1.4,2.76,2.76,0,0,1-.38,1,2,2,0,0,1-.7.68,3.07,3.07,0,0,1-1.11.35,3.06,3.06,0,0,1,1.07.35,1.9,1.9,0,0,1,.61.65,2.68,2.68,0,0,1,.29,1,10.31,10.31,0,0,1,.07,1.24v2.39Zm-13-6.38h9.22a8.17,8.17,0,0,0,1.2-.14,1.91,1.91,0,0,0,.73-.28,1.09,1.09,0,0,0,.38-.49,2,2,0,0,0,.14-.71V11.31a1.66,1.66,0,0,0-.14-.66.91.91,0,0,0-.38-.42,2.11,2.11,0,0,0-.73-.25,9.73,9.73,0,0,0-1.2-.11h-9.22Zm26.5-6.64a14.48,14.48,0,0,1,2.46.18,5.33,5.33,0,0,1,1.65.54,2.65,2.65,0,0,1,1,.91,3.73,3.73,0,0,1,.52,1.29,8.45,8.45,0,0,1,.19,1.66v4.12a8.55,8.55,0,0,1-.19,1.67,3.73,3.73,0,0,1-.52,1.29,2.65,2.65,0,0,1-1,.91,5.33,5.33,0,0,1-1.65.54,14.48,14.48,0,0,1-2.46.18h-4.81a14.48,14.48,0,0,1-2.46-.18,5.33,5.33,0,0,1-1.65-.54,2.82,2.82,0,0,1-1-.91,3.71,3.71,0,0,1-.51-1.29,8.55,8.55,0,0,1-.19-1.67V12.79a8.45,8.45,0,0,1,.19-1.66,3.71,3.71,0,0,1,.51-1.29,2.82,2.82,0,0,1,1-.91,5.33,5.33,0,0,1,1.65-.54,14.48,14.48,0,0,1,2.46-.18Zm0,12a15.66,15.66,0,0,0,1.78-.06,4.5,4.5,0,0,0,1.2-.25,1.65,1.65,0,0,0,.73-.55,2.53,2.53,0,0,0,.38-1A10,10,0,0,0,184,17V12.84a10,10,0,0,0-.13-1.45,2.53,2.53,0,0,0-.38-1,1.55,1.55,0,0,0-.72-.54,4.09,4.09,0,0,0-1.2-.26c-.49,0-1.08-.06-1.79-.06h-4.81a15.57,15.57,0,0,0-1.78.06,3.79,3.79,0,0,0-1.2.26,1.66,1.66,0,0,0-.74.54,2.51,2.51,0,0,0-.37,1,7.82,7.82,0,0,0-.13,1.45V17a7.83,7.83,0,0,0,.14,1.45,2.51,2.51,0,0,0,.37,1,1.65,1.65,0,0,0,.73.55,4.5,4.5,0,0,0,1.2.25c.48,0,1.08.06,1.78.06ZM200.27,8.47h1.86l5.19,11.45,5.05-11.45H214l-5.65,12.76h-2.13l-5-11.15-5,11.15h-2.26l-6.3-12.76h1.86l5.58,11.43Zm24.59,5.59a21.18,21.18,0,0,1,2.25.11,7.64,7.64,0,0,1,1.58.32,3,3,0,0,1,1,.53,2.42,2.42,0,0,1,.59.72,2.84,2.84,0,0,1,.27.9,10,10,0,0,1,.06,1.09,5.64,5.64,0,0,1-.1,1.08,2.66,2.66,0,0,1-1.09,1.69,4.21,4.21,0,0,1-1.17.56,9.69,9.69,0,0,1-1.7.36,17.94,17.94,0,0,1-2.32.12h-2.12a18.45,18.45,0,0,1-2.1-.1,9.92,9.92,0,0,1-1.54-.27,4.12,4.12,0,0,1-1.07-.48,2.29,2.29,0,0,1-.68-.67,2.58,2.58,0,0,1-.35-.88,5.68,5.68,0,0,1-.11-1.09h1.6a2.51,2.51,0,0,0,.22,1.18,1.33,1.33,0,0,0,.71.65,4.19,4.19,0,0,0,1.31.27c.54,0,1.21.06,2,.06h2.12a16.33,16.33,0,0,0,2.32-.14,4.68,4.68,0,0,0,1.47-.42,1.69,1.69,0,0,0,.77-.77,2.66,2.66,0,0,0,.23-1.15,3.62,3.62,0,0,0-.15-1.13,1.39,1.39,0,0,0-.61-.72A3.24,3.24,0,0,0,227,15.5a15.41,15.41,0,0,0-2.15-.11h-2.2a16.78,16.78,0,0,1-2.5-.11A10.35,10.35,0,0,1,218.4,15a4,4,0,0,1-1.13-.51,2.12,2.12,0,0,1-.64-.69,2.42,2.42,0,0,1-.29-.87,8.4,8.4,0,0,1-.07-1,5.65,5.65,0,0,1,.11-1.08,2.31,2.31,0,0,1,.38-.9,2.94,2.94,0,0,1,.77-.72,4.42,4.42,0,0,1,1.27-.52,10.53,10.53,0,0,1,1.85-.32,23.86,23.86,0,0,1,2.54-.11h1.59q1.2,0,2.1.09a9.92,9.92,0,0,1,1.54.27,4.07,4.07,0,0,1,1.07.46,2.32,2.32,0,0,1,.69.67,2.58,2.58,0,0,1,.35.88,5,5,0,0,1,.1,1.09H229a2.51,2.51,0,0,0-.22-1.18,1.33,1.33,0,0,0-.71-.63,4.25,4.25,0,0,0-1.32-.27c-.54,0-1.21-.05-2-.05h-1.6a25.58,25.58,0,0,0-2.63.11A5.54,5.54,0,0,0,219,10a1.56,1.56,0,0,0-.83.71,2.41,2.41,0,0,0-.24,1.12,4.52,4.52,0,0,0,.06.74,1.31,1.31,0,0,0,.24.57,1.33,1.33,0,0,0,.5.41,3.21,3.21,0,0,0,.86.28,9.41,9.41,0,0,0,1.3.15c.51,0,1.12,0,1.83,0Zm8.9,7.17V8.47h12.76V9.8H235.36v4.26H246v1.33H235.36v4.52h11.16v1.32Zm30,0h-1.59V17.84a2.2,2.2,0,0,0-.15-.72,1,1,0,0,0-.38-.48,1.91,1.91,0,0,0-.73-.28,7.89,7.89,0,0,0-1.19-.14h-9v5.06h-1.6V8.47h9a22.5,22.5,0,0,1,2.46.11,8.52,8.52,0,0,1,1.66.31,2.66,2.66,0,0,1,1,.52,1.78,1.78,0,0,1,.52.72,3,3,0,0,1,.19.93V12.2a8.18,8.18,0,0,1-.11,1.4,3.28,3.28,0,0,1-.38,1,2,2,0,0,1-.71.68,2.84,2.84,0,0,1-1.1.35,3.08,3.08,0,0,1,1.06.35,1.9,1.9,0,0,1,.61.65,2.68,2.68,0,0,1,.29,1,10.31,10.31,0,0,1,.07,1.24v2.39Zm-13-6.38H260a7.89,7.89,0,0,0,1.19-.14,1.91,1.91,0,0,0,.73-.28,1,1,0,0,0,.38-.49,2,2,0,0,0,.14-.71V11.31a1.66,1.66,0,0,0-.14-.66.86.86,0,0,0-.38-.42,2.11,2.11,0,0,0-.73-.25A9.4,9.4,0,0,0,260,9.87h-9.23Z" transform="translate(0 -0.01)"/></g><g id="Small"><path class="cls-3" d="M31.29,13.73l-.52.19-.7.26c-.37.15-.75.28-1.13.4l-.61.2c-.52.18-1,.31-1.57.46l-1.1.29-.9.19-.62.15c.08-.66.12-1.29.15-1.91v-.8A36.8,36.8,0,0,0,29.76,11,4.77,4.77,0,0,0,31.29,13.73Zm5.39-2a2.72,2.72,0,0,1-3.08,1.09,2.2,2.2,0,0,1-.69-.33,2.7,2.7,0,0,1-1.19-2.62,2.93,2.93,0,0,1,.43-1.14,2.75,2.75,0,0,1,1.72-1.16,5.14,5.14,0,0,1,.55-.06,2.65,2.65,0,0,1,1.49.46A2.72,2.72,0,0,1,36.68,11.69Zm-14.94-1v-.35c-.06-.86-.18-1.65-.3-2.37a3.23,3.23,0,0,0-.06-.33.33.33,0,0,1,0-.14.29.29,0,0,1,0-.13,29.91,29.91,0,0,0-4-.48c-.74,0-1.47-.06-2.23-.06a34.48,34.48,0,0,0-4.54.39l-.5.08H9.94A29.25,29.25,0,0,0,6.86,8l-.68.2-.35.12c-.73.22-1.41.48-2.11.75A31.66,31.66,0,0,0,0,10.88,24.61,24.61,0,0,0,1.06,15.6,23.17,23.17,0,0,0,2.2,18.38h0a22.65,22.65,0,0,0,2,3.3,8.26,8.26,0,0,0,.82,1,23.13,23.13,0,0,0,9,6.81v0l.15-.13A22.51,22.51,0,0,0,16.44,27l.17-.21.15-.17c.09-.13.2-.27.31-.4a23.58,23.58,0,0,0,2.41-3.92,1.87,1.87,0,0,1,.15-.32,20.33,20.33,0,0,0,1-2.63,1.66,1.66,0,0,1,.12-.31v0h0a20.37,20.37,0,0,0,.65-2.67v-.15a.94.94,0,0,1,.06-.36,19.7,19.7,0,0,0,.26-2.54v-.35A20.37,20.37,0,0,0,21.74,10.72ZM10.78,22l.06-4.4a2.89,2.89,0,1,1,2.53-.44L15.44,23Z" transform="translate(0 -0.01)"/><path class="cls-4" d="M32.69,6.08h-.07l-.28.19L32,6.52l-.41.26L31.23,7l-.09.06-.38.22-.53.31-.48.27-.43.24L29,8.3l-.34.17a2.65,2.65,0,0,1-.48.23,33.05,33.05,0,0,1-3.45,1.51l-.5.18c-.07-.71-.17-1.36-.27-2h.22a31.23,31.23,0,0,0,3.46-1l.47-.15a2.32,2.32,0,0,1,.37-.13,1.88,1.88,0,0,1,.3-.12l.5-.19.55-.22h0l1-.41.72-.33.41-.2.24-.12.34.35ZM31.62,25.5a16.62,16.62,0,0,1-14.13,4.27c.41-.41.8-.87,1.2-1.35.06-.08.13-.15.2-.23L19,28c.11-.15.23-.28.34-.43l.16-.22A13.45,13.45,0,0,0,31.2,22.6c2.38-2.93,2.31-5,2.31-5l-.29.25c-3.15,2.71-6.53,3.74-10.66,4.14.2-.52.39-1,.58-1.61a1.39,1.39,0,0,1,.1-.33.09.09,0,0,0,0-.07h0c.07-.24.15-.48.21-.72a24.08,24.08,0,0,0,2.9-.72c1.31-.39,6-2.58,7-3.08l1.56-.77.78-.39a3.3,3.3,0,0,1,.73-.36S37.42,20.19,31.62,25.5ZM30.85,4.25l-2.26,1.1a13.11,13.11,0,0,0-10-2l-.41.08L18,3.16a9.38,9.38,0,0,0-1.55-1.47,15.43,15.43,0,0,1,14.4,2.56ZM17.14,6c-.73,0-1.47-.06-2.23,0a7.05,7.05,0,0,0-1.17-2c-.09-.12-.21-.23-.32-.35a5.19,5.19,0,0,0-2-1.29,4.56,4.56,0,0,0-.53-.13,3.56,3.56,0,0,0-1.38,0c-2.22.36-3.78,2.61-3.92,5.32-.71.22-1.41.49-2.09.75C3.31,4.18,5.71.65,9.17.08A6.14,6.14,0,0,1,13,.74l.52.3A7.36,7.36,0,0,1,15.3,2.55c.12.15.25.29.35.44A8.93,8.93,0,0,1,17.14,6Z" transform="translate(0 -0.01)"/><path class="cls-5" d="M17.08,26.22c-.11.13-.22.26-.32.4s-.09.12-.15.17l-.17.21a21.1,21.1,0,0,1-2.26,2.37c-.06,0-.09.09-.15.13s0,0,0,.05a23.13,23.13,0,0,1-9-6.81c-.29-.34-.56-.69-.82-1a22.13,22.13,0,0,1-2-3.3h.12C4.49,20.85,9.64,25.94,17.08,26.22Z" transform="translate(0 -0.01)"/><path class="cls-6" d="M21.33,7.53A36.29,36.29,0,0,0,1.06,15.6,23,23,0,0,1,0,10.88,34.54,34.54,0,0,1,3.63,9.14c.7-.26,1.38-.52,2.11-.75l.35-.11.68-.21a29.21,29.21,0,0,1,3.08-.7H10l.5-.08a34.48,34.48,0,0,1,4.54-.39h2.23a31.66,31.66,0,0,1,4,.49A.23.23,0,0,0,21.33,7.53Z" transform="translate(0 -0.01)"/></g></svg>