<svg id="iridium" xmlns="http://www.w3.org/2000/svg" xmlns:xlink="http://www.w3.org/1999/xlink" viewBox="0 0 300 187.93"><defs><style>.cls-1{fill:none;}.cls-2{fill:#449ad5;}.cls-3{fill:#515050;}.cls-4{opacity:0.21;}.cls-5{clip-path:url(#clip-path);}.cls-6{clip-path:url(#clip-path-2);}.cls-7{fill:url(#linear-gradient);}.cls-8{opacity:0.25;}.cls-9{clip-path:url(#clip-path-3);}.cls-10{clip-path:url(#clip-path-4);}.cls-11{fill:url(#linear-gradient-2);}</style><clipPath id="clip-path"><rect class="cls-1" x="99" y="63.96" width="45" height="34"/></clipPath><clipPath id="clip-path-2"><path class="cls-1" d="M144.18,88.55a15.73,15.73,0,0,1-1,1.22l-.4.5c-.14.19-.3.37-.45.55A68.25,68.25,0,0,1,135.56,98l-.51.46c-.06.06-.12.1-.17.16a70,70,0,0,1-27.07-20.52c-.82-1-1.61-2.07-2.4-3.17A69.56,69.56,0,0,1,99.51,65h.37c6.51,7.36,22,22.68,44.25,23.53"/></clipPath><linearGradient id="linear-gradient" x1="-381.57" y1="124.32" x2="-380.84" y2="124.32" gradientTransform="matrix(-18.75, 27.93, 27.93, 18.75, -10491.61, 8387.84)" gradientUnits="userSpaceOnUse"><stop offset="0" stop-color="#fdfdfe"/><stop offset="0.91" stop-color="#fdfdfe"/><stop offset="1" stop-color="#fdfdfe"/></linearGradient><clipPath id="clip-path-3"><rect class="cls-1" x="93" y="29.96" width="64" height="26"/></clipPath><clipPath id="clip-path-4"><path class="cls-1" d="M157,31.77c-2.34.66-31.48.45-60.82,24.29A71.42,71.42,0,0,1,93,41.85a95.58,95.58,0,0,1,10.9-5.22c2.08-.83,4.17-1.6,6.31-2.28l1.11-.35c.66-.21,1.32-.4,2-.59a92.6,92.6,0,0,1,9.29-2.15l.53-.1q.72-.14,1.44-.24a95.08,95.08,0,0,1,13.69-1.17c2.22,0,4.46,0,6.69.15a93,93,0,0,1,12,1.47.72.72,0,0,0,.08.4"/></clipPath><linearGradient id="linear-gradient-2" x1="-393.26" y1="109.57" x2="-392.52" y2="109.57" gradientTransform="matrix(-69.19, 103.07, 103.07, 69.19, -38328.43, 32920.2)" xlink:href="#linear-gradient"/></defs><title>iridium-logo_large</title><g id="Logo"><path class="cls-2" d="M157.89,41.37c0-.36,0-.71-.08-1.06a68.63,68.63,0,0,0-.91-7.14c-.07-.33-.12-.66-.18-1l-.09-.42a2.83,2.83,0,0,0-.08-.4,93,93,0,0,0-12-1.47c-2.23-.13-4.47-.18-6.69-.15A95,95,0,0,0,124.18,31q-.72.11-1.44.24l-.53.1a89.92,89.92,0,0,0-9.29,2.15l-2,.59-1.11.35c-2.14.68-4.23,1.45-6.31,2.28a95.58,95.58,0,0,0-10.9,5.22,71.63,71.63,0,0,0,3.21,14.17,69.06,69.06,0,0,0,3.41,8.38h0a69.56,69.56,0,0,0,5.9,9.94c.78,1.09,1.58,2.15,2.4,3.16a69.88,69.88,0,0,0,27.07,20.53,1.29,1.29,0,0,1,.17-.16l.42-.39A69.2,69.2,0,0,0,142,90.39c.18-.21.36-.42.53-.64l.4-.5c.31-.41.64-.81,1-1.22a70.31,70.31,0,0,0,7.22-11.81c.16-.32.31-.64.46-1a69.73,69.73,0,0,0,3.1-7.91c.1-.32.2-.63.31-1l.06-.18h0a69.35,69.35,0,0,0,1.94-8,2.51,2.51,0,0,1,.08-.45c.06-.35.12-.7.17-1.06a67.47,67.47,0,0,0,.77-7.64V47.84c.08-2.3,0-4.49-.11-6.57m-34.51,16.5a3.73,3.73,0,0,1-.31-.74,6,6,0,0,1-.17-.73,5,5,0,0,1,.07-2,4.2,4.2,0,0,1,.32-.9,5.1,5.1,0,0,1,9-.61,4.65,4.65,0,0,1,.46.92,5.68,5.68,0,0,1,.27,1,5.12,5.12,0,0,1-.58,3.32A5.41,5.41,0,0,1,131,59.65l1.36,3.7L133.72,67h-7.56l.12-2.88.11-3.69a5.06,5.06,0,0,1-3-2.57ZM189,48.28c-1.51.61-3.06,1.12-4.58,1.73-1.83.73-3.72,1.25-5.56,1.89s-3.76,1.13-5.64,1.63l-2.83.77-2.86.62c-1.9.44-3.85.89-5.77,1.16l-.57.09a73.09,73.09,0,0,0,.41-9,120.81,120.81,0,0,0,22.05-8.51A14.49,14.49,0,0,0,189,48.28M205.55,42a9,9,0,0,1-10.24,3.63A8.52,8.52,0,0,1,193,44.5,9.07,9.07,0,1,1,205.55,42"/><path class="cls-3" d="M138.33,10.37a49.25,49.25,0,0,1,49.24,7.77l-.23.12L179.53,22a41.42,41.42,0,0,0-31.44-6.28q-1.5.3-3,.72a33.05,33.05,0,0,0-6.78-6.1M193.2,24l-.72.48c-.69.45-1.38.95-2.1,1.41s-1.47.91-2.22,1.37c-.49.31-1,.62-1.49.91-1,.61-2.12,1.22-3.21,1.85-.82.47-1.66.87-2.5,1.33s-1.69.9-2.57,1.31c-3.46,1.73-7.16,3.3-11,4.77-2.06.75-4.17,1.48-6.29,2.15-.29-2.43-.67-4.65-1.08-6.62l-.23-1.11c1.87-.34,3.73-.72,5.57-1.12,3.77-.9,7.45-1.91,11-3.1.88-.28,1.73-.63,2.6-.91s1.71-.61,2.54-.95l1.88-.77c1-.41,2-.82,3-1.26.78-.36,1.54-.71,2.3-1s1.47-.73,2.22-1.09l.11-.06c.45.45.89.91,1.32,1.37s.64.7.94,1.08m11,24c-.73.38-1.46.79-2.17,1.18s-1.39.74-2.11,1.07l-4.38,2.09-8.78,4.16-2.19,1c-.71.34-1.49.61-2.23.91-1.49.59-3,1.25-4.49,1.78l-4.58,1.62c-1.51.54-3.08.93-4.64,1.34L164,64.47c-1.49.38-2.93.83-4.44,1.09-.35,1.46-.74,2.93-1.2,4.42q-.84,2.74-1.83,5.29c.1-.28,19.07,2.88,38.12-13.54.52,3.38-5.26,11.54-7.37,14.15-9.61,11.85-24,16.47-38.87,14.68a76.91,76.91,0,0,1-7,8.69l.38.12,1.87.51c1.31.31,2.66.48,4,.71a25.6,25.6,0,0,0,4,.42,28.14,28.14,0,0,0,4,.11l4.08-.18,3.9-.58,1-.15a1.26,1.26,0,0,0,.55-.1l.48-.12,2-.49c.65-.17,1.31-.3,2-.52l1.9-.66,1.9-.67,1.84-.82,1.84-.83c.6-.31,1.18-.64,1.77-1l1.77-1c.58-.33,1.12-.75,1.7-1.11a31.23,31.23,0,0,0,3.26-2.34,30.79,30.79,0,0,0,3.09-2.6,34.72,34.72,0,0,0,2.86-2.83l1.33-1.45.33-.37.36-.42.62-.79C195,81,195.9,80,196.6,78.85l1.1-1.68c.35-.57.68-1.18,1-1.76.65-1.12,1.24-2.27,1.78-3.45A32.13,32.13,0,0,0,202,68.2l.69-1.88c.2-.63.37-1.29.56-2l.53-1.93.4-2c.29-1.27.47-2.66.64-4s.21-2.61.32-4,0-2.68,0-4v-.93ZM144.43,27.13C142.2,27,140,27,137.73,27a21.22,21.22,0,0,0-3.53-6,11.13,11.13,0,0,0-1-1.07,15.24,15.24,0,0,0-6-3.86,12.18,12.18,0,0,0-1.58-.4,11.47,11.47,0,0,0-4.13-.08c-6.7,1.1-11.41,7.86-11.77,16-2.14.68-4.23,1.45-6.31,2.28-.49-12.21,6.66-22.83,17.07-24.54a18.53,18.53,0,0,1,11.64,2,16.5,16.5,0,0,1,1.57.92,22.86,22.86,0,0,1,5.22,4.54c.36.42.72.87,1.06,1.32a28.23,28.23,0,0,1,4.48,9"/><g class="cls-4"><g class="cls-5"><g class="cls-6"><polygon class="cls-7" points="159.69 74.91 130.32 118.81 84.05 87.65 113.42 43.75 159.69 74.91"/></g></g></g><g class="cls-8"><g class="cls-9"><g class="cls-10"><polygon class="cls-11" points="169.1 37.9 137.07 85.78 80.79 47.88 112.83 0 169.1 37.9"/></g></g></g></g><g id="Text"><path class="cls-3" d="M0,112.41H9.07v44.47H0ZM68.54,119a7.72,7.72,0,0,0-2.18-3.08,10.6,10.6,0,0,0-3.89-2,27.48,27.48,0,0,0-5.62-1.07,79.15,79.15,0,0,0-8-.34H18.33v44.47H27.4v-16H48c2.2,0,4.06,0,5.55.12a22.6,22.6,0,0,1,3.48.39,4.2,4.2,0,0,1,1.56.57,1.44,1.44,0,0,1,.49.63,5,5,0,0,1,.3,1.62c0,.86.07,1.88.07,3.07V157h9.06v-9.61a32.76,32.76,0,0,0-.24-4.2,10.73,10.73,0,0,0-1.13-3.71,7.5,7.5,0,0,0-1.72-2.12,8.43,8.43,0,0,0,2.1-2.35A11.47,11.47,0,0,0,69,131a25.7,25.7,0,0,0,.39-4.8c0-1.36,0-2.61-.09-3.72a11.2,11.2,0,0,0-.74-3.57m-41.14,1.8H48.86c2.21,0,4.09,0,5.59.08a24,24,0,0,1,3.49.32,4.86,4.86,0,0,1,1.62.51A.94.94,0,0,1,60,122a3.92,3.92,0,0,1,.27,1.36c0,.79.07,1.74.07,2.84s0,2.21-.07,3.07a5,5,0,0,1-.3,1.62,1.42,1.42,0,0,1-.49.64,4.56,4.56,0,0,1-1.56.56,22.6,22.6,0,0,1-3.48.39c-1.49.08-3.35.12-5.55.12H27.4ZM77,112.41H86v44.47H77Zm70.31,10.44a13.51,13.51,0,0,0-1.92-4.6,10.68,10.68,0,0,0-3.9-3.41,19,19,0,0,0-5.83-1.85,50.16,50.16,0,0,0-8.12-.57H95.29v44.47H127.5a50.16,50.16,0,0,0,8.12-.57,19.28,19.28,0,0,0,5.83-1.86,10.68,10.68,0,0,0,3.9-3.41,13.54,13.54,0,0,0,1.92-4.59,28.58,28.58,0,0,0,.65-5.46c.06-1.89.09-4,.09-6.35s0-4.45-.09-6.34a30.38,30.38,0,0,0-.65-5.46M127.5,148.63H104.36v-28H127.5c2.17,0,4,.06,5.5.18a12.38,12.38,0,0,1,3.24.62,3,3,0,0,1,1.41,1,5.3,5.3,0,0,1,.83,2.06,21.53,21.53,0,0,1,.4,4c.05,1.72.08,3.77.07,6.15s0,4.44-.07,6.15a21.53,21.53,0,0,1-.4,4,5.34,5.34,0,0,1-.83,2.07,3,3,0,0,1-1.41,1,11.68,11.68,0,0,1-3.26.62c-1.47.12-3.31.18-5.48.18m28.1-36.25h9.07v44.47H155.6Zm60.34,22.24q0,3.76-.06,6.48a22.93,22.93,0,0,1-.39,4.22,6,6,0,0,1-.85,2.23,3.18,3.18,0,0,1-1.42,1,11,11,0,0,1-3.21.66c-1.47.13-3.31.19-5.47.19h-11.8c-2.17,0-4-.06-5.48-.19a11,11,0,0,1-3.21-.66,3.08,3.08,0,0,1-1.41-1,6.1,6.1,0,0,1-.83-2.22,25.16,25.16,0,0,1-.39-4.25c0-1.81-.07-4-.07-6.47V112.42h-9.07v22.23c0,2.41,0,4.61.08,6.58a30.87,30.87,0,0,0,.64,5.67,14.47,14.47,0,0,0,1.9,4.74,10.72,10.72,0,0,0,3.87,3.55,18.87,18.87,0,0,0,5.84,1.94,46.15,46.15,0,0,0,8.13.6h11.81a46.15,46.15,0,0,0,8.13-.6,18.47,18.47,0,0,0,5.83-1.94,10.59,10.59,0,0,0,3.87-3.56,14.38,14.38,0,0,0,1.88-4.73,30.78,30.78,0,0,0,.65-5.66c.06-2,.09-4.18.09-6.59V112.42h-9.09Zm72.66-22.24-22.42,33.75-22.39-33.75h-11.2v44.47h9.07V124.55l21.19,32.33h7.26l20.82-31.77v31.77H300V112.41Z"/><path class="cls-2" d="M44.83,187.53V169.34H60a10.87,10.87,0,0,1,2.73.28,3.65,3.65,0,0,1,1.6.82,2.6,2.6,0,0,1,.75,1.34,7.7,7.7,0,0,1,.19,1.85A6,6,0,0,1,65.1,175a4.37,4.37,0,0,1-.34,1,2.86,2.86,0,0,1-.48.71,2.59,2.59,0,0,1-.56.48,3,3,0,0,1-1.51.51,4.18,4.18,0,0,1,1.89.52,3.42,3.42,0,0,1,.69.51,3,3,0,0,1,.6.74,4,4,0,0,1,.43,1,4.93,4.93,0,0,1,.17,1.38,16.9,16.9,0,0,1-.09,1.74,4.88,4.88,0,0,1-.36,1.41,3.16,3.16,0,0,1-.78,1.1,3.91,3.91,0,0,1-1.35.79,9.14,9.14,0,0,1-2.07.47,23.7,23.7,0,0,1-2.92.15ZM57.67,177h2a11.4,11.4,0,0,0,1.43-.18,3.52,3.52,0,0,0,1-.36,1.82,1.82,0,0,0,.57-.6,2.45,2.45,0,0,0,.28-.88,10.14,10.14,0,0,0,.07-1.23,3.93,3.93,0,0,0-.17-1.23,1.3,1.3,0,0,0-.59-.73,3.13,3.13,0,0,0-1.15-.35c-.62-.06-1.24-.08-1.86-.08H47.1V177Zm0,8.72H60a11.27,11.27,0,0,0,1.64-.18,3.18,3.18,0,0,0,1.08-.39,1.84,1.84,0,0,0,.65-.68,3.15,3.15,0,0,0,.31-1,11.8,11.8,0,0,0,.08-1.46,7.41,7.41,0,0,0-.08-1.15,2,2,0,0,0-.31-.83,1.64,1.64,0,0,0-.65-.55,4.48,4.48,0,0,0-1.08-.32,12.4,12.4,0,0,0-1.6-.26H47.1v6.82Zm37.71,1.85H93.11V182.7a3.12,3.12,0,0,0-.2-1,1.54,1.54,0,0,0-.54-.69,3,3,0,0,0-1-.4,10.79,10.79,0,0,0-1.7-.19c-.69,0-1.54-.06-2.54-.06H76.87v7.2H74.6V169.34H87.43a34,34,0,0,1,3.5.15,12.49,12.49,0,0,1,2.35.44,4.07,4.07,0,0,1,1.43.74,2.59,2.59,0,0,1,.73,1,3.75,3.75,0,0,1,.27,1.32c0,.49.05,1,.05,1.63a12.17,12.17,0,0,1-.16,2,4.27,4.27,0,0,1-.54,1.47,2.82,2.82,0,0,1-1,1,4.46,4.46,0,0,1-1.56.5,4.27,4.27,0,0,1,1.51.5,2.43,2.43,0,0,1,.87.93,3.78,3.78,0,0,1,.41,1.35,15,15,0,0,1,.1,1.77v3.39Zm-18.51-9.09H87.43q1.51,0,2.55-.06a10.79,10.79,0,0,0,1.7-.19,2.73,2.73,0,0,0,1-.4,1.54,1.54,0,0,0,.54-.69,3.12,3.12,0,0,0,.2-1v-2.76a2.72,2.72,0,0,0-.2-.93,1.28,1.28,0,0,0-.54-.61,3.22,3.22,0,0,0-1-.35,13.77,13.77,0,0,0-1.7-.16H76.87ZM118.73,169a19.62,19.62,0,0,1,3.51.26,7.67,7.67,0,0,1,2.34.77,3.93,3.93,0,0,1,1.42,1.3,5.47,5.47,0,0,1,.72,1.83,13.56,13.56,0,0,1,.27,2.38v5.88a13.56,13.56,0,0,1-.27,2.38,5.69,5.69,0,0,1-.72,1.83,3.7,3.7,0,0,1-1.42,1.3,7.67,7.67,0,0,1-2.34.77,19.62,19.62,0,0,1-3.51.26h-6.82a20.55,20.55,0,0,1-3.5-.26,7.16,7.16,0,0,1-2.34-.77,3.7,3.7,0,0,1-1.42-1.3,5.73,5.73,0,0,1-.74-1.83,12.66,12.66,0,0,1-.26-2.38V175.5a12.66,12.66,0,0,1,.26-2.38,5.73,5.73,0,0,1,.74-1.83,3.7,3.7,0,0,1,1.42-1.3,7.67,7.67,0,0,1,2.34-.77,20.55,20.55,0,0,1,3.5-.26Zm0,17.06a21.18,21.18,0,0,0,2.54-.09,6.22,6.22,0,0,0,1.7-.36,2.26,2.26,0,0,0,1-.78,3.5,3.5,0,0,0,.53-1.35,13.07,13.07,0,0,0,.2-2.07v-5.86a13.07,13.07,0,0,0-.2-2.07,3.5,3.5,0,0,0-.53-1.35,2.26,2.26,0,0,0-1-.78,6.22,6.22,0,0,0-1.7-.36q-1-.09-2.55-.09H111.9a21.18,21.18,0,0,0-2.54.09,6.28,6.28,0,0,0-1.71.36,2.26,2.26,0,0,0-1,.78,3.5,3.5,0,0,0-.53,1.35,13.06,13.06,0,0,0-.19,2.07v5.86a13.06,13.06,0,0,0,.19,2.07,3.5,3.5,0,0,0,.53,1.35,2.26,2.26,0,0,0,1,.78,6.28,6.28,0,0,0,1.71.36c.69.06,1.53.09,2.54.09Zm33.35-16.68h2.63l7.38,16.32,7.18-16.32h2.36l-8,18.19h-3l-7.18-15.9-7.17,15.9H143l-8.89-18.19h2.64l7.94,16.3Zm39.11,8a26.28,26.28,0,0,1,3.2.16,10.81,10.81,0,0,1,2.25.45,4.53,4.53,0,0,1,1.46.76,3.25,3.25,0,0,1,.84,1,3.91,3.91,0,0,1,.38,1.29,13.3,13.3,0,0,1,.09,1.55,8.06,8.06,0,0,1-.15,1.55,3.88,3.88,0,0,1-.52,1.32,4,4,0,0,1-1,1.08,6,6,0,0,1-1.65.8,12.29,12.29,0,0,1-2.41.5,28.06,28.06,0,0,1-3.3.17h-3a27.37,27.37,0,0,1-3-.13,12.7,12.7,0,0,1-2.2-.4,5.3,5.3,0,0,1-1.52-.67,3.4,3.4,0,0,1-1-1,3.37,3.37,0,0,1-.5-1.26A7.67,7.67,0,0,1,179,183h2.27a3.77,3.77,0,0,0,.31,1.69,1.91,1.91,0,0,0,1,.92,5.88,5.88,0,0,0,1.86.39c.77,0,1.72.07,2.85.07h3a22.61,22.61,0,0,0,3.29-.19,6.35,6.35,0,0,0,2.09-.6,2.52,2.52,0,0,0,1.1-1.09,3.74,3.74,0,0,0,.32-1.65,5.11,5.11,0,0,0-.22-1.6,1.88,1.88,0,0,0-.86-1,4.85,4.85,0,0,0-1.82-.54,22.18,22.18,0,0,0-3.05-.16H188c-1.39,0-2.57-.06-3.56-.16a13.86,13.86,0,0,1-2.48-.44,5.3,5.3,0,0,1-1.61-.72,3,3,0,0,1-.92-1,3.68,3.68,0,0,1-.4-1.24,10.37,10.37,0,0,1-.1-1.47,8,8,0,0,1,.15-1.54,3.43,3.43,0,0,1,.55-1.29,3.89,3.89,0,0,1,1.1-1,6.41,6.41,0,0,1,1.79-.75,14.52,14.52,0,0,1,2.62-.46c1-.1,2.23-.15,3.62-.15H191a22.91,22.91,0,0,1,3,.12,11.7,11.7,0,0,1,2.19.39,5.76,5.76,0,0,1,1.53.66,3.24,3.24,0,0,1,1,.95,3.39,3.39,0,0,1,.5,1.25,7.33,7.33,0,0,1,.14,1.55h-2.26a3.68,3.68,0,0,0-.31-1.67,2,2,0,0,0-1-.9A5.74,5.74,0,0,0,194,171c-.77,0-1.72-.08-2.86-.08h-2.26a35.87,35.87,0,0,0-3.74.16,8.36,8.36,0,0,0-2.31.54,2.28,2.28,0,0,0-1.18,1,3.41,3.41,0,0,0-.33,1.6,7.42,7.42,0,0,0,.08,1,2,2,0,0,0,.34.81,2,2,0,0,0,.71.59,4.82,4.82,0,0,0,1.22.39,12.79,12.79,0,0,0,1.85.22c.72,0,1.59.07,2.6.07h3.07ZM208,187.53V169.34h18.14v1.89H210.29v6.07H225.4v1.89H210.29v6.45h15.87v1.89Zm46.77,0h-2.27V182.7a3.12,3.12,0,0,0-.2-1,1.57,1.57,0,0,0-.53-.69,3.09,3.09,0,0,0-1-.4,10.91,10.91,0,0,0-1.71-.19c-.69,0-1.54-.06-2.54-.06H236.28v7.2H234V169.34h12.84a34,34,0,0,1,3.5.15,12.49,12.49,0,0,1,2.35.44,4.07,4.07,0,0,1,1.43.74,2.59,2.59,0,0,1,.73,1,4.25,4.25,0,0,1,.27,1.32v1.63a10.32,10.32,0,0,1-.16,2,4.27,4.27,0,0,1-.54,1.47,2.82,2.82,0,0,1-1,1,4.58,4.58,0,0,1-1.57.5,3.85,3.85,0,0,1,1.51.5,2.53,2.53,0,0,1,.88.93,3.76,3.76,0,0,1,.4,1.35,13.13,13.13,0,0,1,.1,1.77v3.41Zm-18.51-9.09h10.57c1,0,1.85,0,2.54-.06a10.91,10.91,0,0,0,1.71-.19,2.73,2.73,0,0,0,1-.4,1.47,1.47,0,0,0,.54-.69,3.12,3.12,0,0,0,.2-1v-2.76a2.46,2.46,0,0,0-.2-.93,1.28,1.28,0,0,0-.54-.61,3.22,3.22,0,0,0-1-.35,14.12,14.12,0,0,0-1.71-.16H236.28Z"/></g></svg>